<?xml version="1.0" standalone="no"?>
<!DOCTYPE svg PUBLIC "-//W3C//DTD SVG 1.1//EN" "http://www.w3.org/Graphics/SVG/1.1/DTD/svg11.dtd" >
<svg>
<metadata>
Created by FontForge 20090914 at Mon Sep 23 03:08:31 2013
 By www-data
Copyright (c) 2011 by EdgarTolentino, PabloImpallari, IginoMarini. All rights reserved.
</metadata>
<defs>
<font id="Dosis-ExtraLight" horiz-adv-x="455" >
  <font-face 
    font-family="Dosis"
    font-weight="250"
    font-stretch="normal"
    units-per-em="1000"
    panose-1="2 1 2 3 2 2 2 6 0 3"
    ascent="800"
    descent="-200"
    x-height="471.999"
    cap-height="731"
    bbox="-143 -237.002 994 1027"
    underline-thickness="26"
    underline-position="-25"
    unicode-range="U+000D-U+FB02"
  />
<missing-glyph horiz-adv-x="317" 
d="M239 378c4.66699 0 8.83203 -1.66699 12.499 -5s5.5 -7.66602 5.5 -12.999c0 -3.33301 -1 -6.33301 -3 -9l-74 -115l73 -114c2 -3.33301 3 -6.66602 3 -9.99902c0 -4.66699 -1.66699 -8.66699 -5 -12s-7.66602 -5 -12.999 -5c-6 0 -10.667 2.66699 -14 8l-65 100
l-66 -100c-4 -5.33301 -9 -8 -15 -8c-5.33301 0 -9.66602 1.66699 -12.999 5s-5 7.33301 -5 12c0 3.33301 1 6.66602 3 9.99902l74 114l-74 115c-2 2.66699 -3 5.66699 -3 9c0 5.33301 1.66699 9.66602 5 12.999s7.66602 5 12.999 5c6 0 11 -2.66699 15 -8l66 -102l66 102
c3.33301 5.33301 8 8 14 8z" />
    <glyph glyph-name="fi" unicode="fi" horiz-adv-x="477" 
d="M262 733c-31.333 0 -57.166 -5.16992 -77.499 -15.5029s-36.5 -22.833 -48.5 -37.5s-20.333 -30.167 -25 -46.5s-7 -30.833 -7 -43.5v-118h139c5.33301 0 9.66602 -1.66699 12.999 -5s5 -7.33301 5 -12c0 -5.33301 -1.66699 -9.66602 -5 -12.999s-7.66602 -5 -12.999 -5
h-139v-420c0 -5.33301 -1.83301 -9.5 -5.5 -12.5s-8.16699 -4.5 -13.5 -4.5c-10.667 0 -16 5.66699 -16 17v573c0 20.667 4 41.667 12 63s20 40.5 36 57.5s35.833 30.833 59.5 41.5s51.167 16 82.5 16c17.333 0 34.666 -1.66699 51.999 -5s32.833 -7.66602 46.5 -12.999
s24.834 -11.5 33.501 -18.5s13 -14.167 13 -21.5c0 -5.33301 -1.83301 -9.66602 -5.5 -12.999s-7.16699 -5 -10.5 -5c-4 0 -8.83301 2.16699 -14.5 6.5s-13.334 9 -23.001 14s-21.667 9.66699 -36 14s-31.833 6.5 -52.5 6.5zM392 471.997
c5.33301 0 9.66602 -1.5 12.999 -4.5s5 -7.16699 5 -12.5v-437c0 -4.66699 -1.66699 -8.83398 -5 -12.501s-7.66602 -5.5 -12.999 -5.5c-4.66699 0 -8.66699 1.83301 -12 5.5s-5 7.83398 -5 12.501v437c0 5.33301 1.66699 9.5 5 12.5s7.33301 4.5 12 4.5z" />
    <glyph glyph-name="fl" unicode="fl" horiz-adv-x="487" 
d="M375 693c-15.333 16 -33 27.835 -53 35.502s-40 11.5 -60 11.5s-39.5 -3.5 -58.5 -10.5s-35.833 -17 -50.5 -30s-26.5 -28.833 -35.5 -47.5s-13.5 -39.334 -13.5 -62.001v-118h139c5.33301 0 9.66602 -1.66699 12.999 -5s5 -7.33301 5 -12c0 -12 -6 -18 -18 -18h-139
v-420c0 -11.333 -6.33301 -17 -19 -17c-10.667 0 -16 5.66699 -16 17v573c0 27.333 5.5 52 16.5 74s25.5 40.667 43.5 56s38.667 27.166 62 35.499s47 12.5 71 12.5c28 0 54.833 -5.66699 80.5 -17s48.167 -29 67.5 -53v-680c0 -4.66699 -1.66699 -8.83398 -5 -12.501
s-7.66602 -5.5 -12.999 -5.5c-4.66699 0 -8.66699 1.83301 -12 5.5s-5 7.83398 -5 12.501v675z" />
    <glyph glyph-name=".notdef" horiz-adv-x="317" 
d="M239 378c4.66699 0 8.83203 -1.66699 12.499 -5s5.5 -7.66602 5.5 -12.999c0 -3.33301 -1 -6.33301 -3 -9l-74 -115l73 -114c2 -3.33301 3 -6.66602 3 -9.99902c0 -4.66699 -1.66699 -8.66699 -5 -12s-7.66602 -5 -12.999 -5c-6 0 -10.667 2.66699 -14 8l-65 100
l-66 -100c-4 -5.33301 -9 -8 -15 -8c-5.33301 0 -9.66602 1.66699 -12.999 5s-5 7.33301 -5 12c0 3.33301 1 6.66602 3 9.99902l74 114l-74 115c-2 2.66699 -3 5.66699 -3 9c0 5.33301 1.66699 9.66602 5 12.999s7.66602 5 12.999 5c6 0 11 -2.66699 15 -8l66 -102l66 102
c3.33301 5.33301 8 8 14 8z" />
    <glyph glyph-name="nonmarkingreturn" unicode="&#xd;" horiz-adv-x="0" 
 />
    <glyph glyph-name="space" unicode=" " horiz-adv-x="200" 
 />
    <glyph glyph-name="exclam" unicode="!" horiz-adv-x="193" 
d="M123 717c0 -90.667 -1.83301 -183 -5.5 -277s-5.5 -186.333 -5.5 -277c0 -5.33301 -1.83301 -9.33301 -5.5 -12s-7.16699 -4 -10.5 -4s-6.66602 1.33301 -9.99902 4s-5 6.66699 -5 12c0 90.667 -1.83301 183 -5.5 277s-5.5 186.333 -5.5 277c0 10 2.5 17.667 7.5 23
s11.167 8 18.5 8s13.666 -2.66699 18.999 -8s8 -13 8 -23zM97 66c9.33301 0 17.5 -3.5 24.5 -10.5s10.5 -15.5 10.5 -25.5c0 -9.33301 -3.5 -17.666 -10.5 -24.999s-15.167 -11 -24.5 -11c-10.667 0 -19.334 3.66699 -26.001 11s-10 15.666 -10 24.999
c0 10 3.33301 18.5 10 25.5s15.334 10.5 26.001 10.5z" />
    <glyph glyph-name="quotedbl" unicode="&#x22;" horiz-adv-x="255" 
d="M67 768c5.33301 0 10.833 -1.5 16.5 -4.5s8.5 -7.16699 8.5 -12.5l-10 -152c0 -4.66699 -1.16699 -8.83398 -3.5 -12.501s-6.16602 -5.5 -11.499 -5.5s-9 1.83301 -11 5.5s-3 7.83398 -3 12.501l-10 152c0 5.33301 2.66699 9.5 8 12.5s10.666 4.5 15.999 4.5zM187 768
c5.33301 0 10.833 -1.5 16.5 -4.5s8.5 -7.16699 8.5 -12.5l-10 -152c0 -4.66699 -1.16699 -8.83398 -3.5 -12.501s-6.16602 -5.5 -11.499 -5.5s-9 1.83301 -11 5.5s-3 7.83398 -3 12.501l-10 152c0 5.33301 2.66699 9.5 8 12.5s10.666 4.5 15.999 4.5z" />
    <glyph glyph-name="numbersign" unicode="#" horiz-adv-x="547" 
d="M322 51c-2 -10 -7.66602 -15.002 -16.999 -15.002c-10.667 0 -16 6.33301 -16 19l32 213h-134l-32 -216c-1.33301 -6 -3.33301 -10.167 -6 -12.5s-5.66699 -3.5 -9 -3.5c-4.66699 0 -8.66699 1.66699 -12 5s-5 8 -5 14l31 213h-104c-12 0 -18 5 -18 15
c0 4 1.16699 7.5 3.5 10.5s5.16602 4.5 8.49902 4.5h116l26 177h-105c-12 0 -18 5.33301 -18 16c0 9.33301 4 14 12 14h116l30 198c1.33301 6.66699 5.33301 10 12 10s11.5 -2 14.5 -6s4.5 -8.66699 4.5 -14l-29 -188h135l30 198c1.33301 6.66699 5.33301 10 12 10
s11.5 -2 14.5 -6s4.5 -8.66699 4.5 -14l-29 -188h107c4 0 8.16699 -1.16699 12.5 -3.5s6.5 -6.16602 6.5 -11.499c0 -3.33301 -1.33301 -6.66602 -4 -9.99902s-5.66699 -5 -9 -5h-117l-27 -177h107c4 0 8.16699 -1.33301 12.5 -4s6.5 -6.66699 6.5 -12
c0 -3.33301 -1.33301 -6.5 -4 -9.5s-5.66699 -4.5 -9 -4.5h-118zM192.001 297.998h134l27 177h-134z" />
    <glyph glyph-name="dollar" unicode="$" horiz-adv-x="484" 
d="M238 375c-22 7.33301 -43.5 15.001 -64.5 23.001s-39.667 18.5 -56 31.5s-29.666 29.667 -39.999 50s-15.5 46.5 -15.5 78.5c0 31.333 5.33301 57.166 16 77.499s24.5 36.666 41.5 48.999s36 21 57 26s41.5 8.16699 61.5 9.5v31c0 4.66699 1.66699 8.66699 5 12
s7.66602 5 12.999 5c4.66699 0 8.83398 -1.66699 12.501 -5s5.5 -7.33301 5.5 -12v-30c18.667 -0.666992 36.667 -2.83398 54 -6.50098s32.666 -8 45.999 -13s23.833 -10.333 31.5 -16s11.5 -11.167 11.5 -16.5c0 -4 -1.83301 -8.66699 -5.5 -14s-7.83398 -8 -12.501 -8
c-3.33301 0 -8 1.66699 -14 5s-14 7.33301 -24 12s-22.167 8.83398 -36.5 12.501s-31.166 6.16699 -50.499 7.5v-282c20 -7.33301 39.667 -15.666 59 -24.999s36.5 -21.833 51.5 -37.5s27.167 -35 36.5 -58s14 -51.833 14 -86.5c0 -60 -15 -105.167 -45 -135.5
s-68.667 -48.166 -116 -53.499v-41c0 -4.66699 -1.83301 -8.66699 -5.5 -12s-7.83398 -5 -12.501 -5c-5.33301 0 -9.66602 1.66699 -12.999 5s-5 7.33301 -5 12v39c-32 0 -60.167 4 -84.5 12s-44.5 17.5 -60.5 28.5s-28.167 22.167 -36.5 33.5s-12.5 20.333 -12.5 27
c0 5.33301 2 10.166 6 14.499s7.66699 6.5 11 6.5c4.66699 0 10 -4.5 16 -13.5s15 -18.833 27 -29.5s28.5 -20.5 49.5 -29.5s49.167 -13.5 84.5 -13.5v335zM399 192.001c0 26 -3.33203 48.332 -9.99902 66.999s-15.834 34.5 -27.501 47.5s-25 23.833 -40 32.5
s-30.833 16.334 -47.5 23.001v-319c83.333 12 125 61.667 125 149zM98.001 561c0 -24 3.83203 -43.8359 11.499 -59.5029s18 -29 31 -40s27.833 -20.167 44.5 -27.5s34.334 -14 53.001 -20v270c-17.333 -1.33301 -34.5 -4.16602 -51.5 -8.49902s-32 -11.166 -45 -20.499
s-23.5 -21.666 -31.5 -36.999s-12 -34.333 -12 -57z" />
    <glyph glyph-name="percent" unicode="%" horiz-adv-x="741" 
d="M161 362c-16 0 -31 1.83301 -45 5.5s-26.167 9.83398 -36.5 18.501s-18.5 19.834 -24.5 33.501s-9 30.167 -9 49.5v155c0 38.667 11 66.167 33 82.5s49.333 24.5 82 24.5s60 -8.16699 82 -24.5s33 -43.833 33 -82.5v-155c0 -19.333 -3 -35.833 -9 -49.5
s-14.167 -24.834 -24.5 -33.501s-22.5 -14.834 -36.5 -18.501s-29 -5.5 -45 -5.5zM243 624c0 26 -7.33301 45.167 -22 57.5s-34.667 18.5 -60 18.5s-45.166 -6.16699 -59.499 -18.5s-21.5 -31.5 -21.5 -57.5v-155c0 -26 7.16699 -45.167 21.5 -57.5
s34.166 -18.5 59.499 -18.5s45.333 6.16699 60 18.5s22 31.5 22 57.5v155zM580 -3c-16 0 -31 1.83301 -45 5.5s-26.167 9.83398 -36.5 18.501s-18.5 19.834 -24.5 33.501s-9 30.167 -9 49.5v155c0 38.667 11 66.167 33 82.5s49.333 24.5 82 24.5s60 -8.16699 82 -24.5
s33 -43.833 33 -82.5v-155c0 -19.333 -3 -35.833 -9 -49.5s-14.167 -24.834 -24.5 -33.501s-22.5 -14.834 -36.5 -18.501s-29 -5.5 -45 -5.5zM662 259c0 26 -7.33301 45.167 -22 57.5s-34.667 18.5 -60 18.5s-45.166 -6.16699 -59.499 -18.5s-21.5 -31.5 -21.5 -57.5v-155
c0 -26 7.16699 -45.167 21.5 -57.5s34.166 -18.5 59.499 -18.5s45.333 6.16699 60 18.5s22 31.5 22 57.5v155zM196 -9c-4 -7.33301 -9.66699 -11.001 -17 -11.001c-4 0 -7.66699 1.33301 -11 4s-5 6.33398 -5 11.001c0 4 0.666992 7 2 9l391 756c2.66699 5.33301 7 8 13 8
c4 0 8 -1.83301 12 -5.5s6 -8.16699 6 -13.5c0 -3.33301 -1 -7 -3 -11z" />
    <glyph glyph-name="ampersand" unicode="&#x26;" horiz-adv-x="595" 
d="M263 748c26 0 48.335 -3.66016 67.002 -10.9932s34 -15.666 46 -24.999s20.833 -19 26.5 -29s8.5 -17.333 8.5 -22c0 -10.667 -5.66699 -16 -17 -16c-4.66699 0 -9.33398 3.66699 -14.001 11s-11.334 15.5 -20.001 24.5s-20.334 17.167 -35.001 24.5s-34 11 -58 11
c-40.667 0 -72.334 -12.5 -95.001 -37.5s-34 -57.833 -34 -98.5c0 -18.667 2.33301 -35.834 7 -51.501s11 -30.834 19 -45.501s17.5 -28.667 28.5 -42l34.5 -40l223 -247c8 18 14.333 36.333 19 55s8.5 37 11.5 55s5.16699 35.167 6.5 51.5s2 30.833 2 43.5
c0 8 1.33301 13.5 4 16.5s7 4.5 13 4.5c10 0 15 -7.66699 15 -23c0 -9.33301 -0.5 -22.333 -1.5 -39s-3 -35.5 -6 -56.5s-7.66699 -43.167 -14 -66.5s-14.833 -46 -25.5 -68l97 -106c3.33301 -4.66699 5 -8.33398 5 -11.001c0 -4.66699 -1.66699 -8.5 -5 -11.5
s-7 -4.5 -11 -4.5s-8 2 -12 6l-90 97c-19.333 -30.667 -45 -56.167 -77 -76.5s-72.333 -30.5 -121 -30.5c-35.333 0 -66.666 5.66699 -93.999 17s-50.166 26.5 -68.499 45.5s-32.333 41.167 -42 66.5s-14.5 52 -14.5 80c0 26.667 4.16699 50.667 12.5 72
s19.166 40.166 32.499 56.499s28.333 30.166 45 41.499s33.667 20.666 51 27.999l-30.5 38c-10.333 13.333 -19.666 27.666 -27.999 42.999s-15 31.666 -20 48.999s-7.5 36 -7.5 56c0 26.667 4.5 50.167 13.5 70.5s21.167 37.5 36.5 51.5s33 24.667 53 32s41.333 11 64 11z
M266.002 25.0068c42.667 0 77.333 9.16699 104 27.5s48 41.5 64 69.5l-231 249c-12.667 -6.66699 -26.334 -14.5 -41.001 -23.5s-28.167 -20.167 -40.5 -33.5s-22.666 -29 -30.999 -47s-12.5 -39.333 -12.5 -64c0 -23.333 4.16699 -45.666 12.5 -66.999
s20.5 -40.333 36.5 -57s35.667 -29.834 59 -39.501s50 -14.5 80 -14.5z" />
    <glyph glyph-name="quotesingle" unicode="'" horiz-adv-x="135" 
d="M67 768c5.33301 0 10.833 -1.5 16.5 -4.5s8.5 -7.16699 8.5 -12.5l-10 -152c0 -4.66699 -1.16699 -8.83398 -3.5 -12.501s-6.16602 -5.5 -11.499 -5.5s-9 1.83301 -11 5.5s-3 7.83398 -3 12.501l-10 152c0 5.33301 2.66699 9.5 8 12.5s10.666 4.5 15.999 4.5z" />
    <glyph glyph-name="parenleft" unicode="(" horiz-adv-x="278" 
d="M241 -20c-52.667 0 -94.8291 14.3301 -126.496 42.9971s-47.5 68.667 -47.5 120v448c0 22.667 4.16699 44.667 12.5 66s20.166 40.333 35.499 57s33.666 29.834 54.999 39.501s45 14.5 71 14.5c4.66699 0 8.66699 -1.66699 12 -5s5 -7.33301 5 -12
c0 -5.33301 -1.66699 -9.66602 -5 -12.999s-7.33301 -5 -12 -5c-22 0 -41.5 -4.16699 -58.5 -12.5s-31.5 -19.166 -43.5 -32.499s-21 -28.5 -27 -45.5s-9 -34.167 -9 -51.5v-448c0 -26 4.33301 -47.333 13 -64s19.667 -29.834 33 -39.501s28.166 -16.167 44.499 -19.5
s32.166 -5 47.499 -5c6.66699 0 11.167 -2 13.5 -6s3.5 -7.66699 3.5 -11c0 -5.33301 -1.83301 -9.66602 -5.5 -12.999s-7.5 -5 -11.5 -5z" />
    <glyph glyph-name="parenright" unicode=")" horiz-adv-x="278" 
d="M37 -20c-4 0 -7.82812 1.66992 -11.4951 5.00293s-5.5 7.66602 -5.5 12.999c0 3.33301 1.16699 7 3.5 11s6.83301 6 13.5 6c15.333 0 31.166 1.66699 47.499 5s31.166 9.83301 44.499 19.5s24.333 22.834 33 39.501s13 38 13 64v448c0 17.333 -3 34.5 -9 51.5
s-15 32.167 -27 45.5s-26.5 24.166 -43.5 32.499s-36.5 12.5 -58.5 12.5c-4.66699 0 -8.66699 1.66699 -12 5s-5 7.66602 -5 12.999c0 4.66699 1.66699 8.66699 5 12s7.33301 5 12 5c26 0 49.667 -4.83301 71 -14.5s39.666 -22.834 54.999 -39.501
s27.166 -35.667 35.499 -57s12.5 -43.333 12.5 -66v-448c0 -51.333 -15.833 -91.333 -47.5 -120s-73.834 -43 -126.501 -43z" />
    <glyph glyph-name="asterisk" unicode="*" horiz-adv-x="416" 
d="M317 435c2 -3.33301 2.99902 -6.33203 2.99902 -8.99902c0 -5.33301 -2 -9.83301 -6 -13.5s-8.66699 -5.5 -14 -5.5c-4.66699 0 -9 2.33301 -13 7l-79 115l-80 -116c-3.33301 -4 -7 -6 -11 -6s-8.5 1.66699 -13.5 5s-7.5 7.66602 -7.5 12.999c0 4 1.33301 7.66699 4 11
l84 110l-134 40c-7.33301 2 -11 7.33301 -11 16c0 5.33301 1.66699 10 5 14s7.66602 6 12.999 6c2 0 3.66699 -0.333008 5 -1l133 -47l-5 140c0 5.33301 1.83301 9.5 5.5 12.5s7.83398 4.5 12.501 4.5s8.83398 -1.5 12.501 -4.5s5.5 -7.16699 5.5 -12.5l-5 -141l133 48
c1.33301 0.666992 3.33301 1 6 1c4.66699 0 8.66699 -2.16699 12 -6.5s5 -8.83301 5 -13.5c0 -8.66699 -4 -14 -12 -16l-133 -39z" />
    <glyph glyph-name="plus" unicode="+" horiz-adv-x="427" 
d="M214 63c-5.33301 0 -9.66602 1.5 -12.999 4.5s-5 7.16699 -5 12.5v143h-143c-11.333 0 -17 5.66699 -17 17c0 5.33301 1.5 9.66602 4.5 12.999s7.16699 5 12.5 5h143v142c0 4.66699 1.66699 8.83398 5 12.501s7.66602 5.5 12.999 5.5s9.5 -1.83301 12.5 -5.5
s4.5 -7.83398 4.5 -12.501v-142h142c4.66699 0 8.83398 -1.66699 12.501 -5s5.5 -7.66602 5.5 -12.999s-1.83301 -9.5 -5.5 -12.5s-7.83398 -4.5 -12.501 -4.5h-142v-143c0 -11.333 -5.66699 -17 -17 -17z" />
    <glyph glyph-name="comma" unicode="," horiz-adv-x="162" 
d="M80 66c8.66699 0 16.832 -2.99902 24.499 -8.99902s11.5 -15.333 11.5 -28c0 -1.33301 -0.166992 -3.5 -0.5 -6.5s-1.5 -7.83301 -3.5 -14.5s-5.16699 -15.834 -9.5 -27.501l-17.5 -46.5c-3.33301 -7.33301 -8.66602 -11 -15.999 -11c-4 0 -7.66699 1.16699 -11 3.5
s-5 5.5 -5 9.5c0 3.33301 0.333008 6 1 8l18 51c-8 2 -14.5 6.33301 -19.5 13s-7.5 14 -7.5 22c0 10 3.33301 18.5 10 25.5s15 10.5 25 10.5z" />
    <glyph glyph-name="hyphen" unicode="-" horiz-adv-x="395" 
d="M50 240c0 5.33301 1.5 9.66602 4.5 12.999s7.16699 5 12.5 5h260c4.66699 0 8.83398 -1.66699 12.501 -5s5.5 -7.66602 5.5 -12.999s-1.83301 -9.5 -5.5 -12.5s-7.83398 -4.5 -12.501 -4.5h-260c-11.333 0 -17 5.66699 -17 17z" />
    <glyph glyph-name="period" unicode="." horiz-adv-x="161" 
d="M81 66c9.33301 0 17.5 -3.5 24.5 -10.5s10.5 -15.5 10.5 -25.5c0 -9.33301 -3.5 -17.666 -10.5 -24.999s-15.167 -11 -24.5 -11c-10.667 0 -19.334 3.66699 -26.001 11s-10 15.666 -10 24.999c0 10 3.33301 18.5 10 25.5s15.334 10.5 26.001 10.5z" />
    <glyph glyph-name="slash" unicode="/" horiz-adv-x="468" 
d="M55 -9c-4 -7.33301 -9.66699 -11.001 -17 -11.001c-4 0 -7.66699 1.33301 -11 4s-5 6.33398 -5 11.001c0 4 0.666992 7 2 9l391 756c2.66699 5.33301 7 8 13 8c4 0 8 -1.83301 12 -5.5s6 -8.16699 6 -13.5c0 -3.33301 -1 -7 -3 -11z" />
    <glyph glyph-name="zero" unicode="0" horiz-adv-x="521" 
d="M260 -6c-27.333 0 -53 3.66699 -77 11s-44.667 19.166 -62 35.499s-31 37.666 -41 63.999s-15 58.166 -15 95.499v325c0 37.333 5 69.166 15 95.499s23.667 47.666 41 63.999s38 28.166 62 35.499s49.667 11 77 11s53 -3.66699 77 -11s44.833 -19.166 62.5 -35.499
s31.5 -37.666 41.5 -63.999s15 -58.166 15 -95.499v-325c0 -37.333 -5 -69.166 -15 -95.499s-23.833 -47.666 -41.5 -63.999s-38.5 -28.166 -62.5 -35.499s-49.667 -11 -77 -11zM420 525c0 58.667 -14.167 101.667 -42.5 129s-67.5 41 -117.5 41s-89 -13.667 -117 -41
s-42 -70.333 -42 -129v-325c0 -58.667 14 -101.667 42 -129s67 -41 117 -41s89.167 13.667 117.5 41s42.5 70.333 42.5 129v325zM261 393c8.66699 0 16 -3 22 -9s9 -13.333 9 -22s-3 -16.167 -9 -22.5s-13.333 -9.5 -22 -9.5c-9.33301 0 -17 3.16699 -23 9.5
s-9 13.833 -9 22.5s3 16 9 22s13.667 9 23 9z" />
    <glyph glyph-name="one" unicode="1" horiz-adv-x="209" 
d="M95 714c2.66699 4.66699 5.50098 8.66699 8.50098 12s7.83301 5 14.5 5c10.667 0 16 -5.66699 16 -17v-696c0 -6 -1.83301 -10.5 -5.5 -13.5s-7.83398 -4.5 -12.501 -4.5s-8.83398 1.5 -12.501 4.5s-5.5 7.5 -5.5 13.5v621l-43 -80
c-4.66699 -8.66699 -10.667 -13 -18 -13c-5.33301 0 -9.66602 1.66699 -12.999 5s-5 7.33301 -5 12c0 3.33301 1.33301 7.5 4 12.5s4.66699 8.5 6 10.5z" />
    <glyph glyph-name="two" unicode="2" horiz-adv-x="461" 
d="M56 574c0 22 4.33496 42.5039 13.002 61.5039s20.667 35.5 36 49.5s33.666 25.167 54.999 33.5s45 12.5 71 12.5c28.667 0 54.667 -5.16699 78 -15.5s43.166 -24 59.499 -41s28.833 -36.833 37.5 -59.5s13 -46.334 13 -71.001c0 -36 -8.5 -68 -25.5 -96
s-38.333 -53.833 -64 -77.5s-53.334 -45.667 -83.001 -66s-57.334 -40.5 -83.001 -60.5s-47 -40.333 -64 -61s-25.5 -43.334 -25.5 -68.001v-79h338c4.66699 0 8.66699 -1.66699 12 -5s5 -7.66602 5 -12.999c0 -4.66699 -1.66699 -8.83398 -5 -12.501
s-7.33301 -5.5 -12 -5.5h-356c-4 0 -8 1.66699 -12 5s-6 7.66602 -6 12.999v97c0 28 8.5 53.667 25.5 77s38.333 45.5 64 66.5s53.334 41.667 83.001 62s57.334 41.666 83.001 63.999s47 46.333 64 72s25.5 54.5 25.5 86.5c0 18 -3.16699 36.167 -9.5 54.5
s-15.833 34.666 -28.5 48.999s-28.667 26 -48 35s-42 13.5 -68 13.5c-39.333 0 -72 -11.167 -98 -33.5s-39 -55.166 -39 -98.499c0 -4 -1.5 -7.83301 -4.5 -11.5s-7.83301 -5.5 -14.5 -5.5c-11.333 0 -17 9.33301 -17 28z" />
    <glyph glyph-name="three" unicode="3" horiz-adv-x="473" 
d="M230 369c-6.66699 0 -11.5 1.83105 -14.5 5.49805s-4.5 7.83398 -4.5 12.501s1.5 8.83398 4.5 12.501s7.5 5.5 13.5 5.5c47.333 0 82.666 10.667 105.999 32s35 58.333 35 111c0 48 -10.5 84.5 -31.5 109.5s-56.167 37.5 -105.5 37.5c-31.333 0 -56.5 -4.5 -75.5 -13.5
s-33.667 -19.833 -44 -32.5s-17.333 -26.334 -21 -41.001s-5.5 -27.334 -5.5 -38.001c0 -16 -6 -24 -18 -24c-5.33301 0 -9.66602 2.16699 -12.999 6.5s-5 12.166 -5 23.499c0 12 2.33301 26.667 7 44s13.834 34.333 27.501 51s32.5 30.834 56.5 42.501s55.333 17.5 94 17.5
c25.333 0 48.5 -3.16699 69.5 -9.5s39 -16.333 54 -30s26.5 -31.5 34.5 -53.5s12 -49 12 -81c0 -48.667 -8.33301 -86.5 -25 -113.5s-36.334 -46.167 -59.001 -57.5c30 -12.667 54.5 -32.167 73.5 -58.5s28.5 -62.5 28.5 -108.5v-19
c0 -37.333 -5.16699 -69.166 -15.5 -95.499s-24.166 -47.666 -41.499 -63.999s-37.833 -28.166 -61.5 -35.499s-48.834 -11 -75.501 -11c-33.333 0 -62.166 4.83301 -86.499 14.5s-44.833 22.167 -61.5 37.5s-29 32.166 -37 50.499s-12 36.5 -12 54.5
c0 11.333 1.33301 18.833 4 22.5s6.66699 5.5 12 5.5c7.33301 0 12.333 -2.16699 15 -6.5s4 -9.16602 4 -14.499c0 -10 2.16699 -22.333 6.5 -37s12.166 -28.834 23.499 -42.501s27.333 -25.167 48 -34.5s47.334 -14 80.001 -14c51.333 0 91.166 13.667 119.499 41
s42.5 70.333 42.5 129v19c0 50 -14.167 87.5 -42.5 112.5s-66.833 37.5 -115.5 37.5z" />
    <glyph glyph-name="four" unicode="4" horiz-adv-x="417" 
d="M289 178l-261.001 0.000976562c-6 0 -10.333 1.83301 -13 5.5s-4 7.83398 -4 12.501s1 8.66699 3 12l257 509c4.66699 9.33301 11.334 14 20.001 14c4.66699 0 8.66699 -1.5 12 -4.5s5 -6.83301 5 -11.5c0 -3.33301 -1 -7 -3 -11l-248 -490h232v234
c0 6 1.83301 10.333 5.5 13s7.83398 4 12.501 4s8.83398 -1.33301 12.501 -4s5.5 -7 5.5 -13v-234h59c6 0 10.5 -1.83301 13.5 -5.5s4.5 -7.83398 4.5 -12.501s-1.5 -8.83398 -4.5 -12.501s-7.5 -5.5 -13.5 -5.5h-59v-160c0 -6 -1.83301 -10.5 -5.5 -13.5
s-7.83398 -4.5 -12.501 -4.5s-8.83398 1.5 -12.501 4.5s-5.5 7.5 -5.5 13.5v160z" />
    <glyph glyph-name="five" unicode="5" horiz-adv-x="459" 
d="M228 419c27.333 0 52.835 -3.49902 76.502 -10.499s44.334 -18.5 62.001 -34.5s31.5 -36.667 41.5 -62s15 -56.333 15 -93v-19c0 -37.333 -5 -69.166 -15 -95.499s-23.833 -47.666 -41.5 -63.999s-38.5 -28.166 -62.5 -35.499s-49.667 -11 -77 -11
c-30.667 0 -58.167 4.33301 -82.5 13s-44.833 20.5 -61.5 35.5s-29.334 32.5 -38.001 52.5s-13 41.333 -13 64c0 7.33301 1.66699 12.5 5 15.5s7.33301 4.5 12 4.5s9 -1.5 13 -4.5s6 -7.5 6 -13.5c0 -20.667 4.16699 -39.167 12.5 -55.5s19.666 -30 33.999 -41
s31.166 -19.5 50.499 -25.5s40 -9 62 -9c50 0 89.167 13.667 117.5 41s42.5 70.333 42.5 129v19c0 56 -14 97.333 -42 124s-67 40 -117 40h-135c-11.333 0 -18.333 1.5 -21 4.5s-4 6.16699 -4 9.5c0 1.33301 0.166992 4.16602 0.5 8.49902s0.5 7.16602 0.5 8.49902l18 299
c1.33301 12 7.33301 18 18 18h267c5.33301 0 9.16602 -1.83301 11.499 -5.5s3.5 -7.83398 3.5 -12.501s-1.16699 -8.83398 -3.5 -12.501s-6.16602 -5.5 -11.499 -5.5h-249l-19 -276h124z" />
    <glyph glyph-name="six" unicode="6" horiz-adv-x="504" 
d="M261 425c27.333 0 52.833 -3.16406 76.5 -9.49707s44.334 -17 62.001 -32s31.5 -35.167 41.5 -60.5s15 -56.666 15 -93.999v-29c0 -37.333 -5 -69.166 -15 -95.499s-23.833 -47.666 -41.5 -63.999s-38.334 -28.166 -62.001 -35.499s-49.167 -11 -76.5 -11
s-53 3.66699 -77 11s-44.833 19.166 -62.5 35.499s-31.5 37.666 -41.5 63.999s-15 58.166 -15 95.499v325c0 37.333 5 69.166 15 95.499s23.667 47.666 41 63.999s38 28.166 62 35.499s49.667 11 77 11c30.667 0 58.167 -4.5 82.5 -13.5s44.833 -21 61.5 -36
s29.5 -32.5 38.5 -52.5s13.5 -41 13.5 -63c0 -7.33301 -1.66699 -12.5 -5 -15.5s-7.33301 -4.5 -12 -4.5s-9 1.5 -13 4.5s-6 7.5 -6 13.5c0 20 -4.16699 38 -12.5 54s-19.833 29.667 -34.5 41s-31.667 20.166 -51 26.499s-40 9.5 -62 9.5c-50 0 -89 -13.667 -117 -41
s-42 -70.333 -42 -129v-174c17.333 25.333 39.833 44 67.5 56s58.5 18 92.5 18zM101 200.003c0 -58.667 14.167 -101.667 42.5 -129s67.5 -41 117.5 -41s89 13.667 117 41s42 70.333 42 129v29c0 58 -14 99.167 -42 123.5s-67 36.5 -117 36.5
c-48.667 0 -87.5 -11.5 -116.5 -34.5s-43.5 -61.833 -43.5 -116.5v-38z" />
    <glyph glyph-name="seven" unicode="7" horiz-adv-x="442" 
d="M424 641c0 -3.33301 -0.667969 -5.99902 -2.00098 -7.99902l-318 -623c-3.33301 -6.66699 -8.33301 -10 -15 -10c-5.33301 0 -10 1.16699 -14 3.5s-6 6.16602 -6 11.499c0 3.33301 1 7 3 11l316 620v49h-319v-131c0 -5.33301 -1.83301 -9.66602 -5.5 -12.999
s-7.83398 -5 -12.501 -5c-5.33301 0 -9.66602 1.66699 -12.999 5s-5 7.66602 -5 12.999v149c0 4.66699 1.83301 8.83398 5.5 12.501s7.83398 5.5 12.501 5.5h355c4 0 8 -1.83301 12 -5.5s6 -7.83398 6 -12.501v-72z" />
    <glyph glyph-name="eight" unicode="8" horiz-adv-x="489" 
d="M245 731c24.667 0 47.835 -2.83301 69.502 -8.5s40.5 -15.167 56.5 -28.5s28.5 -31.166 37.5 -53.499s13.5 -50.166 13.5 -83.499c0 -44 -7.83301 -78.667 -23.5 -104s-36.167 -43.666 -61.5 -54.999c31.333 -13.333 56.333 -34.666 75 -63.999s28 -70 28 -122v-12
c0 -37.333 -5 -69 -15 -95s-23.833 -47.333 -41.5 -64s-38.334 -28.667 -62.001 -36s-49.167 -11 -76.5 -11s-53 3.66699 -77 11s-44.833 19.333 -62.5 36s-31.5 38 -41.5 64s-15 57.667 -15 95v12c0 52 9.5 92.667 28.5 122s44.167 50.666 75.5 63.999
c-25.333 11.333 -45.833 29.666 -61.5 54.999s-23.5 60 -23.5 104c0 33.333 4.5 61.166 13.5 83.499s21.5 40.166 37.5 53.499s34.667 22.833 56 28.5s44.666 8.5 69.999 8.5zM404.001 212c0 58 -14 100.333 -42 127s-67 40 -117 40s-89.167 -13.333 -117.5 -40
s-42.5 -69 -42.5 -127v-12c0 -58.667 14.333 -101.667 43 -129s68 -41 118 -41s88.833 13.833 116.5 41.5s41.5 70.5 41.5 128.5v12zM245.001 695c-44 0 -78.5 -10.5 -103.5 -31.5s-37.5 -56.5 -37.5 -106.5s12.5 -86 37.5 -108s59.5 -33 103.5 -33s78.5 11 103.5 33
s37.5 58 37.5 108s-12.5 85.5 -37.5 106.5s-59.5 31.5 -103.5 31.5z" />
    <glyph glyph-name="nine" unicode="9" horiz-adv-x="504" 
d="M243 300c-27.333 0 -52.999 3.16406 -76.999 9.49707s-44.667 17 -62 32s-31 35.167 -41 60.5s-15 56.666 -15 93.999v29c0 37.333 5 69.166 15 95.499s23.667 47.666 41 63.999s38 28.166 62 35.499s49.667 11 77 11s53 -3.66699 77 -11s44.833 -19.166 62.5 -35.499
s31.5 -37.666 41.5 -63.999s15 -58.166 15 -95.499v-325c0 -37.333 -5 -69.166 -15 -95.499s-23.833 -47.666 -41.5 -63.999s-38.334 -28.166 -62.001 -35.499s-49.167 -11 -76.5 -11c-30.667 0 -58.167 4.5 -82.5 13.5s-44.833 21 -61.5 36s-29.5 32.5 -38.5 52.5
s-13.5 41 -13.5 63c0 7.33301 1.66699 12.5 5 15.5s7.33301 4.5 12 4.5s9 -1.5 13 -4.5s6 -7.5 6 -13.5c0 -20 4.16699 -38 12.5 -54s19.833 -29.667 34.5 -41s31.667 -20.166 51 -26.499s40 -9.5 62 -9.5c50 0 89 13.667 117 41s42 70.333 42 129v174
c-17.333 -25.333 -39.833 -44 -67.5 -56s-58.5 -18 -92.5 -18zM403.001 524.997c0 58.667 -14.167 101.668 -42.5 129.001s-67.5 41 -117.5 41s-89 -13.667 -117 -41s-42 -70.333 -42 -129v-29c0 -58 14 -99.167 42 -123.5s67 -36.5 117 -36.5c24 0 45.833 2.66699 65.5 8
s36.5 14 50.5 26s24.833 27.667 32.5 47s11.5 42.666 11.5 69.999v38z" />
    <glyph glyph-name="colon" unicode=":" horiz-adv-x="193" 
d="M97 66c9.33301 0 17.5 -3.5 24.5 -10.5s10.5 -15.5 10.5 -25.5c0 -9.33301 -3.5 -17.666 -10.5 -24.999s-15.167 -11 -24.5 -11c-10.667 0 -19.334 3.66699 -26.001 11s-10 15.666 -10 24.999c0 10 3.33301 18.5 10 25.5s15.334 10.5 26.001 10.5zM97 422
c9.33301 0 17.5 -3.5 24.5 -10.5s10.5 -15.5 10.5 -25.5c0 -9.33301 -3.5 -17.666 -10.5 -24.999s-15.167 -11 -24.5 -11c-10.667 0 -19.334 3.66699 -26.001 11s-10 15.666 -10 24.999c0 10 3.33301 18.5 10 25.5s15.334 10.5 26.001 10.5z" />
    <glyph glyph-name="semicolon" unicode=";" horiz-adv-x="195" 
d="M98 422c9.33301 0 17.5 -3.5 24.5 -10.5s10.5 -15.5 10.5 -25.5c0 -9.33301 -3.5 -17.666 -10.5 -24.999s-15.167 -11 -24.5 -11c-10.667 0 -19.334 3.66699 -26.001 11s-10 15.666 -10 24.999c0 10 3.33301 18.5 10 25.5s15.334 10.5 26.001 10.5zM96 66
c8.66699 0 16.832 -2.99902 24.499 -8.99902s11.5 -15.333 11.5 -28c0 -1.33301 -0.166992 -3.5 -0.5 -6.5s-1.5 -7.83301 -3.5 -14.5s-5.16699 -15.834 -9.5 -27.501l-17.5 -46.5c-3.33301 -7.33301 -8.66602 -11 -15.999 -11c-4 0 -7.66699 1.16699 -11 3.5s-5 5.5 -5 9.5
c0 3.33301 0.333008 6 1 8l18 51c-8 2 -14.5 6.33301 -19.5 13s-7.5 14 -7.5 22c0 10 3.33301 18.5 10 25.5s15 10.5 25 10.5z" />
    <glyph glyph-name="less" unicode="&#x3c;" horiz-adv-x="395" 
d="M76 277l258 -170.999c6 -3.33301 9 -8.33301 9 -15c0 -5.33301 -2 -9.5 -6 -12.5s-8.33301 -4.5 -13 -4.5c-3.33301 0 -6.33301 1 -9 3l-275 182c-2.66699 1.33301 -5 3.66602 -7 6.99902s-3 7 -3 11s1.16699 7.83301 3.5 11.5s4.5 6.16699 6.5 7.5l275 182
c2.66699 2 5.66699 3 9 3c4.66699 0 9 -1.5 13 -4.5s6 -7.16699 6 -12.5c0 -6.66699 -3 -11.667 -9 -15z" />
    <glyph glyph-name="equal" unicode="=" horiz-adv-x="431" 
d="M73 176c0 5.33301 1.5 9.66602 4.5 12.999s7.16699 5 12.5 5h250c4.66699 0 8.83398 -1.66699 12.501 -5s5.5 -7.66602 5.5 -12.999s-1.83301 -9.5 -5.5 -12.5s-7.83398 -4.5 -12.501 -4.5h-250c-11.333 0 -17 5.66699 -17 17zM73 379c0 5.33301 1.5 9.66602 4.5 12.999
s7.16699 5 12.5 5h250c4.66699 0 8.83398 -1.66699 12.501 -5s5.5 -7.66602 5.5 -12.999s-1.83301 -9.5 -5.5 -12.5s-7.83398 -4.5 -12.501 -4.5h-250c-11.333 0 -17 5.66699 -17 17z" />
    <glyph glyph-name="greater" unicode="&#x3e;" horiz-adv-x="395" 
d="M61 449c-6 3.33301 -9 8.33203 -9 14.999c0 5.33301 2 9.5 6 12.5s8.33301 4.5 13 4.5c2.66699 0 5.66699 -1 9 -3l275 -182c2 -1.33301 4.16699 -3.83301 6.5 -7.5s3.5 -7.5 3.5 -11.5s-1 -7.66699 -3 -11s-4.33301 -5.66602 -7 -6.99902l-275 -182
c-3.33301 -2 -6.33301 -3 -9 -3c-4.66699 0 -9 1.5 -13 4.5s-6 7.16699 -6 12.5c0 6.66699 3 11.667 9 15l258 171z" />
    <glyph glyph-name="question" unicode="?" horiz-adv-x="383" 
d="M345 566c0 -34 -5.49805 -63.168 -16.498 -87.501s-24 -45.666 -39 -63.999s-30.5 -34.666 -46.5 -48.999s-29 -27.833 -39 -40.5c-6.66699 -8 -11.834 -17 -15.501 -27s-6.33398 -21.5 -8.00098 -34.5s-2.66699 -27.667 -3 -44s-0.5 -34.833 -0.5 -55.5
c0 -6 -1.83301 -10.333 -5.5 -13s-7.5 -4 -11.5 -4s-7.83301 1.33301 -11.5 4s-5.5 7 -5.5 13c0 30 0.666992 55 2 75s3.5 36.667 6.5 50s6.66699 24.166 11 32.499s9.5 16.166 15.5 23.499c10.667 12.667 23.667 25.667 39 39s29.833 28.333 43.5 45s25.334 36 35.001 58
s14.5 48 14.5 78c0 46 -12.5 82.167 -37.5 108.5s-62.5 39.5 -112.5 39.5c-21.333 0 -38.833 -2.16699 -52.5 -6.5s-24.834 -9 -33.501 -14s-15.667 -9.5 -21 -13.5s-10 -6 -14 -6c-3.33301 0 -6.5 1.5 -9.5 4.5s-4.5 7.16699 -4.5 12.5c0 6 3.83301 12.5 11.5 19.5
s18 13.333 31 19s27.833 10.334 44.5 14.001s34 5.5 52 5.5c30.667 0 57.5 -4.66699 80.5 -14s41.833 -22.333 56.5 -39s25.667 -36 33 -58s11 -45.667 11 -71zM160.002 65.999c9.33301 0 17.501 -3.5 24.501 -10.5s10.5 -15.5 10.5 -25.5
c0 -9.33301 -3.33301 -17.666 -10 -24.999s-15 -11 -25 -11c-10.667 0 -19.334 3.66699 -26.001 11s-10 15.666 -10 24.999c0 10 3.5 18.5 10.5 25.5s15.5 10.5 25.5 10.5z" />
    <glyph glyph-name="at" unicode="@" horiz-adv-x="707" 
d="M236 374c0 6 3.6709 11.332 11.0039 15.999s16.666 8.83398 27.999 12.501s24.166 6.5 38.499 8.5s28.166 3 41.499 3c44 0 77.167 -10.833 99.5 -32.5s33.5 -52.5 33.5 -92.5v-164c1.33301 -14 8.66602 -26 21.999 -36s27.666 -15 42.999 -15c14.667 0 26.667 5 36 15
s16.666 22.667 21.999 38s9 32.333 11 51s3 37 3 55c0 44 -5.33301 83.333 -16 118s-27 64.167 -49 88.5s-49.667 43 -83 56s-72.333 19.5 -117 19.5c-50 0 -91.833 -8.16699 -125.5 -24.5s-60.834 -38.166 -81.501 -65.499s-35.5 -58.666 -44.5 -93.999
s-13.5 -72 -13.5 -110c0 -35.333 4 -69.5 12 -102.5s21.167 -62.333 39.5 -88s42.5 -46.334 72.5 -62.001s66.667 -23.5 110 -23.5c22.667 0 42.167 1.66699 58.5 5s30.333 7.16602 42 11.499s21 8.16602 28 11.499s12.833 5 17.5 5c4 0 7.5 -1.5 10.5 -4.5
s4.5 -6.16699 4.5 -9.5c0 -5.33301 -4.66699 -11.166 -14 -17.499s-21.666 -12.166 -36.999 -17.499s-32.833 -9.83301 -52.5 -13.5s-39.834 -5.5 -60.501 -5.5c-34 0 -67 6 -99 18s-60.333 30.5 -85 55.5s-44.334 57.167 -59.001 96.5s-22 86 -22 140
c0 45.333 5.5 88.166 16.5 128.499s28.667 75.5 53 105.5s55.666 53.833 93.999 71.5s84.5 26.5 138.5 26.5c96 0 169.333 -26.667 220 -80s76 -132.666 76 -237.999c0 -24 -1.66699 -47.667 -5 -71s-9 -44 -17 -62s-19 -32.5 -33 -43.5s-31.667 -16.5 -53 -16.5
c-23.333 0 -43.666 6.33301 -60.999 19s-28.333 26.667 -33 42c-17.333 -16.667 -34.5 -29.167 -51.5 -37.5s-40.167 -12.5 -69.5 -12.5c-18 0 -34.667 1.83301 -50 5.5s-28.666 9.5 -39.999 17.5s-20.166 18.833 -26.499 32.5s-9.5 30.5 -9.5 50.5
c0 22.667 4.33301 41 13 55s21.334 25 38.001 33s37 13.5 61 16.5s51.333 4.5 82 4.5h49v21c0 31.333 -8.5 54.333 -25.5 69s-44.167 22 -81.5 22c-16.667 0 -30.167 -1.16699 -40.5 -3.5s-18.666 -5 -24.999 -8s-11.5 -5.66699 -15.5 -8s-8 -3.5 -12 -3.5
c-5.33301 0 -9.5 2.16699 -12.5 6.5s-4.5 8.16602 -4.5 11.499zM453.004 232.999l-48.002 -0.000976562c-22.667 0 -43.667 -0.666992 -63 -2s-36.166 -4.5 -50.499 -9.5s-25.666 -12.5 -33.999 -22.5s-12.5 -24 -12.5 -42c0 -26 8.5 -44.5 25.5 -55.5
s38.167 -16.5 63.5 -16.5c19.333 0 36.5 2.5 51.5 7.5s27.5 11.5 37.5 19.5s17.5 16.833 22.5 26.5s7.5 18.834 7.5 27.501v67z" />
    <glyph glyph-name="A" unicode="A" horiz-adv-x="521" 
d="M43 0c-4.66699 0 -8.83203 1.33105 -12.499 3.99805s-5.5 6.66699 -5.5 12c0 2.66699 0.333008 4.66699 1 6l217 701c2.66699 9.33301 8.66699 14 18 14s15.666 -4.66699 18.999 -14l215 -701c0 -1.33301 0.166992 -2.16602 0.5 -2.49902s0.5 -1.16602 0.5 -2.49902
c0 -4.66699 -2 -8.66699 -6 -12s-8.66699 -5 -14 -5c-8 -0 -13.333 4.33301 -16 13l-51 164h-298l-50 -164c-2.66699 -8.66699 -8.66699 -13 -18 -13zM398.002 212.998l-137 448l-139 -448h276z" />
    <glyph glyph-name="B" unicode="B" horiz-adv-x="527" 
d="M83 713c0 6 1.83105 10.5 5.49805 13.5s7.83398 4.5 12.501 4.5h150c28.667 0 55.5 -2.16699 80.5 -6.5s46.833 -12.5 65.5 -24.5s33.167 -29 43.5 -51s15.5 -50.333 15.5 -85c0 -43.333 -7.83301 -79.333 -23.5 -108s-36.167 -48.667 -61.5 -60
c15.333 -6.66699 29.333 -14.667 42 -24s23.5 -21 32.5 -35s16 -30.5 21 -49.5s7.5 -41.5 7.5 -67.5v-17c0 -37.333 -5 -69 -15 -95s-23.833 -47 -41.5 -63s-38.5 -27.5 -62.5 -34.5s-49.667 -10.5 -77 -10.5h-177c-5.33301 0 -9.66602 1.66699 -12.999 5s-5 7.33301 -5 12
v696zM277.998 36c50 0 89.167 13.167 117.5 39.5s42.5 68.833 42.5 127.5v17c0 58 -14.167 98.833 -42.5 122.5s-67.5 35.5 -117.5 35.5h-159v-342h159zM118.998 414h139.003c27.333 0 51.166 2.33301 71.499 7s37.166 12.834 50.499 24.501s23.333 27 30 46
s10 43.167 10 72.5c0 28 -4.16699 50.5 -12.5 67.5s-19.833 30.167 -34.5 39.5s-32.334 15.666 -53.001 18.999s-43 5 -67 5h-134v-281z" />
    <glyph glyph-name="C" unicode="C" horiz-adv-x="512" 
d="M112 200c0 -58.667 13.999 -101.66 41.999 -128.993s69.333 -41 124 -41c32.667 0 58.667 4.33301 78 13s34.333 19.667 45 33s17.834 27.5 21.501 42.5s6.5 29.167 8.5 42.5c0.666992 4.66699 2 8.83398 4 12.501s6.66699 5.5 14 5.5c6 0 10.5 -2 13.5 -6
s4.5 -11.667 4.5 -23c0 -19.333 -4.16699 -38.333 -12.5 -57s-20.666 -35.334 -36.999 -50.001s-36.666 -26.5 -60.999 -35.5s-52.5 -13.5 -84.5 -13.5c-26.667 0 -51.834 3.66699 -75.501 11s-44.5 19.166 -62.5 35.499s-32.167 37.666 -42.5 63.999
s-15.5 58.166 -15.5 95.499v325c0 37.333 5.33301 69.166 16 95.499s25 47.666 43 63.999s39 28.166 63 35.499s49.667 11 77 11c32 0 60 -4.5 84 -13.5s44 -20.833 60 -35.5s28 -31.5 36 -50.5s12 -38.167 12 -57.5c0 -11.333 -1.5 -18.833 -4.5 -22.5
s-7.5 -5.5 -13.5 -5.5c-8.66699 0 -13.834 2.16699 -15.501 6.5s-2.5 8.16602 -2.5 11.499c-0.666992 12 -3.16699 25.5 -7.5 40.5s-12.166 29.333 -23.499 43s-27 25 -47 34s-46.333 13.5 -79 13.5c-52.667 0 -92.834 -13.667 -120.501 -41s-41.5 -70.333 -41.5 -129v-325z
" />
    <glyph glyph-name="D" unicode="D" horiz-adv-x="550" 
d="M278 731c27.333 0 53 -3.67285 77 -11.0059s44.833 -19.166 62.5 -35.499s31.5 -37.666 41.5 -63.999s15 -58.166 15 -95.499v-319c0 -37.333 -5 -69.166 -15 -95.499s-23.833 -47.666 -41.5 -63.999s-38.5 -28.166 -62.5 -35.499s-49.667 -11 -77 -11h-177
c-5.33301 0 -9.66602 1.66699 -12.999 5s-5 7.33301 -5 12v697c0 4.66699 1.66699 8.66699 5 12s7.66602 5 12.999 5h177zM119 694.994v-659h159c50 0 89.167 13.667 117.5 41s42.5 70.333 42.5 129v319c0 58.667 -14.167 101.667 -42.5 129s-67.5 41 -117.5 41h-159z" />
    <glyph glyph-name="E" unicode="E" horiz-adv-x="498" 
d="M119 384h160c5.33301 0 9.5 -1.83301 12.5 -5.5s4.5 -8.16699 4.5 -13.5c0 -4 -1.33301 -7.83301 -4 -11.5s-7 -5.5 -13 -5.5h-160v-312h338c5.33301 0 9.5 -1.83301 12.5 -5.5s4.5 -8.16699 4.5 -13.5c0 -4 -1.33301 -7.83301 -4 -11.5s-7 -5.5 -13 -5.5h-356
c-4.66699 0 -8.83398 1.5 -12.501 4.5s-5.5 7.5 -5.5 13.5v695c0 6 1.83301 10.5 5.5 13.5s7.83398 4.5 12.501 4.5h356c6 0 10.333 -1.83301 13 -5.5s4 -7.5 4 -11.5c0 -5.33301 -1.5 -9.83301 -4.5 -13.5s-7.16699 -5.5 -12.5 -5.5h-338v-311z" />
    <glyph glyph-name="F" unicode="F" horiz-adv-x="489" 
d="M457 731c6 0 10.334 -1.83301 13.001 -5.5s4 -7.5 4 -11.5c0 -5.33301 -1.5 -9.83301 -4.5 -13.5s-7.16699 -5.5 -12.5 -5.5h-338v-311h160c5.33301 0 9.5 -1.83301 12.5 -5.5s4.5 -8.16699 4.5 -13.5c0 -4 -1.33301 -7.83301 -4 -11.5s-7 -5.5 -13 -5.5h-160v-331
c0 -6 -1.83301 -10.333 -5.5 -13s-7.83398 -4 -12.501 -4s-8.83398 1.33301 -12.501 4s-5.5 7 -5.5 13v696c0 6 1.83301 10.5 5.5 13.5s7.83398 4.5 12.501 4.5h356z" />
    <glyph glyph-name="G" unicode="G" horiz-adv-x="531" 
d="M272 348c-5.33301 0 -9.49902 1.83496 -12.499 5.50195s-4.5 7.83398 -4.5 12.501s1.5 8.83398 4.5 12.501s7.16699 5.5 12.5 5.5h178c5.33301 0 9.5 -1.83301 12.5 -5.5s4.5 -8.16699 4.5 -13.5v-165c0 -37.333 -5 -69.166 -15 -95.499s-23.833 -47.666 -41.5 -63.999
s-38.5 -28.166 -62.5 -35.499s-49.667 -11 -77 -11s-53 3.66699 -77 11s-44.667 19.166 -62 35.499s-31 37.666 -41 63.999s-15 58.166 -15 95.499v325c0 37.333 5 69.166 15 95.499s23.667 47.666 41 63.999s38 28.166 62 35.499s49.667 11 77 11
c30.667 0 58.167 -4.33301 82.5 -13s44.833 -20.334 61.5 -35.001s29.5 -32.167 38.5 -52.5s13.5 -41.833 13.5 -64.5c0 -7.33301 -1.83301 -12.5 -5.5 -15.5s-7.83398 -4.5 -12.501 -4.5s-8.66699 1.5 -12 4.5s-5.33301 7.5 -6 13.5c-6 45.333 -23.167 78.5 -51.5 99.5
s-64.5 31.5 -108.5 31.5c-50 0 -89 -13.667 -117 -41s-42 -70.333 -42 -129v-325c0 -58.667 14 -101.667 42 -129s67 -41 117 -41s89.167 13.667 117.5 41s42.5 70.333 42.5 129v148h-159z" />
    <glyph glyph-name="H" unicode="H" horiz-adv-x="557" 
d="M438 361h-319v-343c0 -6 -1.83301 -10.5 -5.5 -13.5s-7.83398 -4.5 -12.501 -4.5s-8.83398 1.5 -12.501 4.5s-5.5 7.5 -5.5 13.5v696c0 6 1.83301 10.333 5.5 13s7.83398 4 12.501 4s8.83398 -1.33301 12.501 -4s5.5 -7 5.5 -13v-317h319v317c0 6 1.83301 10.333 5.5 13
s7.83398 4 12.501 4s8.83398 -1.33301 12.501 -4s5.5 -7 5.5 -13v-696c0 -6 -1.83301 -10.5 -5.5 -13.5s-7.83398 -4.5 -12.501 -4.5s-8.83398 1.5 -12.501 4.5s-5.5 7.5 -5.5 13.5v343z" />
    <glyph glyph-name="I" unicode="I" horiz-adv-x="202" 
d="M83 714c0 6 1.83301 10.333 5.5 13s7.83398 4 12.501 4s8.83398 -1.33301 12.501 -4s5.5 -7 5.5 -13v-696c0 -6 -1.83301 -10.5 -5.5 -13.5s-7.83398 -4.5 -12.501 -4.5s-8.83398 1.5 -12.501 4.5s-5.5 7.5 -5.5 13.5v696z" />
    <glyph glyph-name="J" unicode="J" horiz-adv-x="496" 
d="M399 731c4.66699 0 8.83398 -1.50293 12.501 -4.50293s5.5 -7.5 5.5 -13.5v-513c0 -37.333 -5 -69.166 -15 -95.499s-23.833 -47.666 -41.5 -63.999s-38.334 -28.166 -62.001 -35.499s-49.167 -11 -76.5 -11c-30.667 0 -58.167 4.33301 -82.5 13
s-44.833 20.334 -61.5 35.001s-29.5 32 -38.5 52s-13.5 41.667 -13.5 65c0 7.33301 1.66699 12.5 5 15.5s7.33301 4.5 12 4.5s9 -1.5 13 -4.5s6 -7.5 6 -13.5c0 -22 4.16699 -41.333 12.5 -58s19.833 -30.334 34.5 -41.001s31.667 -18.667 51 -24s40 -8 62 -8
c50 0 89 13.667 117 41s42 70.333 42 129v495h-159c-5.33301 0 -9.5 1.83301 -12.5 5.5s-4.5 8.16699 -4.5 13.5c0 4 1.33301 7.83301 4 11.5s7 5.5 13 5.5h177z" />
    <glyph glyph-name="K" unicode="K" horiz-adv-x="508" 
d="M215 385l-96.002 -120.001v-247c0 -6 -1.83301 -10.5 -5.5 -13.5s-7.83398 -4.5 -12.501 -4.5s-8.83398 1.5 -12.501 4.5s-5.5 7.5 -5.5 13.5v696c0 6 1.83301 10.333 5.5 13s7.83398 4 12.501 4s8.83398 -1.33301 12.501 -4s5.5 -7 5.5 -13v-392l323 403
c2.66699 4 7.33398 6 14.001 6c4.66699 0 8.83398 -1.83301 12.501 -5.5s5.5 -8.16699 5.5 -13.5c0 -4 -1.33301 -7.33301 -4 -10l-231 -287l258 -388c2 -3.33301 3 -6.33301 3 -9c0 -5.33301 -1.83301 -9.66602 -5.5 -12.999s-8.16699 -5 -13.5 -5c-6 0 -11 3 -15 9z" />
    <glyph glyph-name="L" unicode="L" horiz-adv-x="452" 
d="M101 0c-4.66699 0 -8.83496 1.50195 -12.502 4.50195s-5.5 7.5 -5.5 13.5v696c0 6 1.83301 10.333 5.5 13s7.83398 4 12.501 4s8.83398 -1.33301 12.501 -4s5.5 -7 5.5 -13v-678h304c5.33301 0 9.16602 -1.83301 11.499 -5.5s3.5 -7.83398 3.5 -12.501
s-1.16699 -8.83398 -3.5 -12.501s-6.16602 -5.5 -11.499 -5.5h-322z" />
    <glyph glyph-name="M" unicode="M" horiz-adv-x="653" 
d="M345 279c-6.66699 -12.667 -12.9941 -19 -18.9941 -19c-6.66699 0 -13 6.33301 -19 19l-188 364v-625c0 -6 -1.83301 -10.5 -5.5 -13.5s-7.83398 -4.5 -12.501 -4.5s-8.83398 1.5 -12.501 4.5s-5.5 7.5 -5.5 13.5v696c0 6.66699 1.66699 11.167 5 13.5
s7.66602 3.5 12.999 3.5c3.33301 0 6.5 -1.5 9.5 -4.5s6 -6.5 9 -10.5s5.5 -8 7.5 -12s3.66699 -7 5 -9l194 -382l195 382c1.33301 2 3 5 5 9s4.5 8 7.5 12s6 7.5 9 10.5s6.16699 4.5 9.5 4.5c5.33301 0 9.66602 -1.16699 12.999 -3.5s5 -6.83301 5 -13.5v-696
c0 -6 -1.83301 -10.5 -5.5 -13.5s-7.83398 -4.5 -12.501 -4.5s-8.83398 1.5 -12.501 4.5s-5.5 7.5 -5.5 13.5v625z" />
    <glyph glyph-name="N" unicode="N" horiz-adv-x="557" 
d="M438 89l0.00292969 625.001c0 6 1.83301 10.333 5.5 13s7.83398 4 12.501 4s8.83398 -1.33301 12.501 -4s5.5 -7 5.5 -13v-696c0 -6 -1.83301 -10.5 -5.5 -13.5s-7.83398 -4.5 -12.501 -4.5c-6.66699 0 -12.334 4.16699 -17.001 12.5s-8.66699 16.166 -12 23.499
l-308 607v-625c0 -6 -1.83301 -10.5 -5.5 -13.5s-7.83398 -4.5 -12.501 -4.5s-8.83398 1.5 -12.501 4.5s-5.5 7.5 -5.5 13.5v696c0 6.66699 1.66699 11.167 5 13.5s7.66602 3.5 12.999 3.5c3.33301 0 6.5 -1.5 9.5 -4.5s6 -6.5 9 -10.5s5.5 -8 7.5 -12s3.66699 -7 5 -9z" />
    <glyph glyph-name="O" unicode="O" horiz-adv-x="543" 
d="M271 -6c-27.333 0 -53 3.66699 -77 11s-44.667 19.166 -62 35.499s-31 37.666 -41 63.999s-15 58.166 -15 95.499v325c0 37.333 5 69.166 15 95.499s23.667 47.666 41 63.999s38 28.166 62 35.499s49.667 11 77 11s53 -3.66699 77 -11s44.833 -19.166 62.5 -35.499
s31.5 -37.666 41.5 -63.999s15 -58.166 15 -95.499v-325c0 -37.333 -5 -69.166 -15 -95.499s-23.833 -47.666 -41.5 -63.999s-38.5 -28.166 -62.5 -35.499s-49.667 -11 -77 -11zM431 525c0 58.667 -14.167 101.667 -42.5 129s-67.5 41 -117.5 41s-89 -13.667 -117 -41
s-42 -70.333 -42 -129v-325c0 -58.667 14 -101.667 42 -129s67 -41 117 -41s89.167 13.667 117.5 41s42.5 70.333 42.5 129v325z" />
    <glyph glyph-name="P" unicode="P" horiz-adv-x="513" 
d="M83 714c0 10 6.00195 15.6631 18.002 16.9961h177c27.333 0 53 -3.66699 77 -11s44.833 -19.166 62.5 -35.499s31.5 -37.666 41.5 -63.999s15 -58.166 15 -95.499v-12c0 -37.333 -5 -69.166 -15 -95.499s-23.833 -47.833 -41.5 -64.5s-38.5 -28.667 -62.5 -36
s-49.667 -11 -77 -11h-159v-288c0 -6 -1.83301 -10.5 -5.5 -13.5s-7.83398 -4.5 -12.501 -4.5s-8.83398 1.5 -12.501 4.5s-5.5 7.5 -5.5 13.5v696zM119.002 694.996v-353.001h159c50 0 89.167 13.833 117.5 41.5s42.5 70.834 42.5 129.501v12
c0 58.667 -14.167 101.667 -42.5 129s-67.5 41 -117.5 41h-159z" />
    <glyph glyph-name="Q" unicode="Q" horiz-adv-x="543" 
d="M254 -5c-25.333 1.33301 -48.8301 6 -70.4971 14s-40.5 20.167 -56.5 36.5s-28.5 37.166 -37.5 62.499s-13.5 56 -13.5 92v325c0 37.333 5 69.166 15 95.499s23.667 47.666 41 63.999s38 28.166 62 35.499s49.667 11 77 11s53 -3.66699 77 -11
s44.833 -19.166 62.5 -35.499s31.5 -37.666 41.5 -63.999s15 -58.166 15 -95.499v-325c0 -35.333 -4.5 -65.666 -13.5 -90.999s-21.333 -46.333 -37 -63s-34.334 -29 -56.001 -37s-45.167 -12.667 -70.5 -14v-86c0 -6 -1.83301 -10.5 -5.5 -13.5s-7.83398 -4.5 -12.501 -4.5
s-8.83398 1.5 -12.501 4.5s-5.5 7.5 -5.5 13.5v86zM431.003 525c0 58.667 -14.1689 101.666 -42.502 128.999s-67.5 41 -117.5 41s-89 -13.667 -117 -41s-42 -70.333 -42 -129v-325c0 -55.333 12.333 -96.666 37 -123.999s59.667 -42.666 105 -45.999v84
c0 6 1.83301 10.333 5.5 13s7.83398 4 12.501 4s8.83398 -1.33301 12.501 -4s5.5 -7 5.5 -13v-83c44 3.33301 78.5 18.666 103.5 45.999s37.5 68.333 37.5 123v325z" />
    <glyph glyph-name="R" unicode="R" horiz-adv-x="509" 
d="M83 714c0 10 5.99707 15.668 17.9971 17.001h167c27.333 0 53.5 -3.16699 78.5 -9.5s47 -16.833 66 -31.5s34 -34.334 45 -59.001s16.5 -55 16.5 -91c0 -32 -4.33301 -59.333 -13 -82s-20.667 -41.5 -36 -56.5s-33.166 -26.667 -53.499 -35
s-42.166 -13.833 -65.499 -16.5l165 -321c2 -4 3 -7.66699 3 -11c0 -5.33301 -1.66699 -9.66602 -5 -12.999s-7.66602 -5 -12.999 -5c-7.33301 0 -13.166 4.16699 -17.499 12.5s-8.16602 16.166 -11.499 23.499l-160 312h-148v-330c0 -6 -1.83301 -10.5 -5.5 -13.5
s-7.83398 -4.5 -12.501 -4.5s-8.83398 1.5 -12.501 4.5s-5.5 7.5 -5.5 13.5v696zM118.997 695.001v-311.001h149c24.667 0 47.5 3 68.5 9s39 15.167 54 27.5s26.667 28.333 35 48s12.5 43.5 12.5 71.5s-4.16699 51.667 -12.5 71s-20 35.333 -35 48s-33 21.834 -54 27.501
s-43.833 8.5 -68.5 8.5h-149z" />
    <glyph glyph-name="S" unicode="S" horiz-adv-x="481" 
d="M230 30c54.667 0 96.1621 13.666 124.495 40.999s42.5 67.666 42.5 120.999c0 42.667 -8.33301 75.5 -25 98.5s-37.5 41.167 -62.5 54.5s-52 24.166 -81 32.499s-56 19 -81 32s-45.833 30.667 -62.5 53s-25 54.166 -25 95.499c0 36 6.33301 65.333 19 88
s28.834 40.334 48.501 53.001s41 21.167 64 25.5s44.833 6.5 65.5 6.5s40.5 -1.66699 59.5 -5s35.833 -7.5 50.5 -12.5s26.334 -10.5 35.001 -16.5s13 -12 13 -18c0 -4 -1.83301 -8.66699 -5.5 -14s-7.83398 -8 -12.501 -8c-3.33301 0 -8.33301 2 -15 6
s-15.667 8.33301 -27 13s-25 9 -41 13s-35.333 6 -58 6c-18.667 0 -37.5 -2 -56.5 -6s-36.167 -11 -51.5 -21s-27.833 -23.667 -37.5 -41s-14.5 -39.333 -14.5 -66s4.83301 -48.5 14.5 -65.5s22.334 -31 38.001 -42s33.667 -20.167 54 -27.5l62 -22
c21 -7.33301 41.667 -15.666 62 -24.999s38.333 -21.666 54 -36.999s28.334 -34.833 38.001 -58.5s14.5 -53.167 14.5 -88.5s-5 -65.666 -15 -90.999s-23.667 -46.166 -41 -62.499s-38.166 -28.333 -62.499 -36s-50.833 -11.5 -79.5 -11.5c-32 0 -60 4 -84 12
s-44.167 17.5 -60.5 28.5s-28.5 22.167 -36.5 33.5s-12 20.333 -12 27c0 5.33301 2 10.166 6 14.499s7.66699 6.5 11 6.5c4.66699 0 9.83398 -4.5 15.501 -13.5s14.5 -18.833 26.5 -29.5s28 -20.5 48 -29.5s47 -13.5 81 -13.5z" />
    <glyph glyph-name="T" unicode="T" 
d="M32 695c-5.33301 0 -9.66309 1.83105 -12.9961 5.49805s-5 7.83398 -5 12.501s1.66699 8.83398 5 12.501s7.66602 5.5 12.999 5.5h391c6 0 10.5 -1.66699 13.5 -5s4.5 -7.33301 4.5 -12s-1.33301 -9 -4 -13s-7.33398 -6 -14.001 -6h-177v-677
c0 -6 -1.83301 -10.5 -5.5 -13.5s-7.83398 -4.5 -12.501 -4.5s-8.83398 1.5 -12.501 4.5s-5.5 7.5 -5.5 13.5v677h-178z" />
    <glyph glyph-name="U" unicode="U" horiz-adv-x="549" 
d="M79 714c0 6 1.8291 10.333 5.49609 13s7.83398 4 12.501 4s8.83398 -1.33301 12.501 -4s5.5 -7 5.5 -13v-514c0 -58.667 14 -101.667 42 -129s67 -41 117 -41s89.167 13.667 117.5 41s42.5 70.333 42.5 129v514c0 6 1.83301 10.333 5.5 13s7.83398 4 12.501 4
s8.83398 -1.33301 12.501 -4s5.5 -7 5.5 -13v-514c0 -37.333 -5 -69.166 -15 -95.499s-23.833 -47.666 -41.5 -63.999s-38.5 -28.166 -62.5 -35.499s-49.667 -11 -77 -11s-53 3.66699 -77 11s-44.667 19.166 -62 35.499s-31 37.666 -41 63.999s-15 58.166 -15 95.499v514z
" />
    <glyph glyph-name="V" unicode="V" horiz-adv-x="519" 
d="M260 70l198.998 647.998c2.66699 8.66699 8 13 16 13c5.33301 0 10 -1.66699 14 -5s6 -7.33301 6 -12c0 -1.33301 -0.166992 -2.16602 -0.5 -2.49902s-0.5 -1.16602 -0.5 -2.49902l-215 -701c-3.33301 -9.33301 -9.66602 -14 -18.999 -14s-15.333 4.66699 -18 14
l-217 701c-0.666992 1.33301 -1 3.33301 -1 6c0 5.33301 1.83301 9.33301 5.5 12s7.83398 4 12.501 4c9.33301 0 15.333 -4.33301 18 -13z" />
    <glyph glyph-name="W" unicode="W" horiz-adv-x="739" 
d="M348 455c2 7.33301 4.8291 12 8.49609 14s8.16699 3 13.5 3s9.5 -1 12.5 -3s5.5 -6.66699 7.5 -14l108 -385l179 648c1.33301 4 3.83301 7.16699 7.5 9.5s7.5 3.5 11.5 3.5c4.66699 0 8.66699 -1.33301 12 -4s5 -6.66699 5 -12c0 -2 -0.333008 -4 -1 -6l-195 -701
c-3.33301 -9.33301 -9.66602 -14 -18.999 -14c-4 0 -7.66699 1 -11 3s-5.66602 5.66699 -6.99902 11l-110 392l-109 -392c-3.33301 -9.33301 -9.66602 -14 -18.999 -14c-4 0 -7.66699 1 -11 3s-5.66602 5.66699 -6.99902 11l-197 701c-0.666992 2 -1 4 -1 6
c0 5.33301 1.66699 9.33301 5 12s7.33301 4 12 4c4 0 7.83301 -1.16699 11.5 -3.5s6.16699 -5.5 7.5 -9.5l180 -648z" />
    <glyph glyph-name="X" unicode="X" horiz-adv-x="447" 
d="M223 405l147.994 290c3.33301 7.33301 7.33301 15.166 12 23.499s10.667 12.5 18 12.5c12 0 18 -4.66699 18 -14c0 -4.66699 -1.66699 -10.334 -5 -17.001l-171 -334l173 -337c2 -4 3 -7.66699 3 -11c0 -5.33301 -1.66699 -9.66602 -5 -12.999s-7.66602 -5 -12.999 -5
c-7.33301 0 -13.166 4.16699 -17.499 12.5s-8.16602 16.166 -11.499 23.499l-149 291l-148 -291c-3.33301 -7.33301 -7.16602 -15.166 -11.499 -23.499s-10.166 -12.5 -17.499 -12.5c-5.33301 0 -9.66602 1.66699 -12.999 5s-5 7.66602 -5 12.999c0 3.33301 1 7 3 11
l172 337l-170 334c-3.33301 6.66699 -5 12.334 -5 17.001c0 9.33301 6 14 18 14c7.33301 0 13.333 -4.16699 18 -12.5s8.66699 -16.166 12 -23.499z" />
    <glyph glyph-name="Y" unicode="Y" horiz-adv-x="509" 
d="M273 279c-0.666992 -1.33301 -0.996094 -3.33203 -0.996094 -5.99902v-255c0 -6 -1.83301 -10.5 -5.5 -13.5s-7.83398 -4.5 -12.501 -4.5s-8.83398 1.5 -12.501 4.5s-5.5 7.5 -5.5 13.5v255c0 2.66699 -0.333008 4.66699 -1 6l-207 416c-4 8 -6 14.667 -6 20
c0 10.667 4.33301 16 13 16c7.33301 0 14 -5.66699 20 -17l199 -401l200 401c3.33301 6 6.66602 10.333 9.99902 13s6.66602 4 9.99902 4c8 0 12 -5.33301 12 -16c0 -6.66699 -1.66699 -13.334 -5 -20.001z" />
    <glyph glyph-name="Z" unicode="Z" horiz-adv-x="464" 
d="M45 0c-5.33301 0 -9.66699 1.49902 -13 4.49902s-5 7.16699 -5 12.5c0 4 1 8 3 12l350 666h-325c-6 0 -10.5 1.83301 -13.5 5.5s-4.5 7.83398 -4.5 12.501s1.5 8.83398 4.5 12.501s7.5 5.5 13.5 5.5h355c12 0 18 -5 18 -15c0 -5.33301 -1.66699 -10.666 -5 -15.999
l-349 -664h346c6 0 10.5 -1.83301 13.5 -5.5s4.5 -7.83398 4.5 -12.501s-1.5 -8.83398 -4.5 -12.501s-7.5 -5.5 -13.5 -5.5h-375z" />
    <glyph glyph-name="bracketleft" unicode="[" horiz-adv-x="285" 
d="M92 -21c-4.66699 0 -8.83203 1.49805 -12.499 4.49805s-5.5 7.16699 -5.5 12.5v755c0 4.66699 1.66699 8.66699 5 12s7.66602 5 12.999 5h156c4.66699 0 8.66699 -1.66699 12 -5s5 -7.33301 5 -12c0 -5.33301 -1.66699 -9.66602 -5 -12.999s-7.33301 -5 -12 -5h-138v-719
h138c4.66699 0 8.66699 -1.66699 12 -5s5 -7.66602 5 -12.999c0 -4.66699 -1.66699 -8.66699 -5 -12s-7.33301 -5 -12 -5h-156z" />
    <glyph glyph-name="backslash" unicode="\" horiz-adv-x="340" 
d="M29 727c-0.666992 2 -1 4.66797 -1 8.00098c0 6 1.83301 10.667 5.5 14s7.83398 5 12.501 5c7.33301 0 12 -3 14 -9l252 -724c0.666992 -1.33301 1 -3.33301 1 -6c0 -4.66699 -1.66699 -8.33398 -5 -11.001s-7.33301 -4 -12 -4c-8.66699 0 -14.334 4 -17.001 12z" />
    <glyph glyph-name="bracketright" unicode="]" horiz-adv-x="285" 
d="M37 -21c-4.66699 0 -8.66504 1.66895 -11.998 5.00195s-5 7.33301 -5 12c0 5.33301 1.66699 9.66602 5 12.999s7.33301 5 12 5h138v719h-138c-4.66699 0 -8.66699 1.66699 -12 5s-5 7.66602 -5 12.999c0 4.66699 1.66699 8.66699 5 12s7.33301 5 12 5h156
c5.33301 0 9.66602 -1.66699 12.999 -5s5 -7.33301 5 -12v-755c0 -5.33301 -1.83301 -9.5 -5.5 -12.5s-7.83398 -4.5 -12.501 -4.5h-156z" />
    <glyph glyph-name="asciicircum" unicode="^" horiz-adv-x="260" 
d="M26 603l-4 -2.00098c-1.33301 -0.666992 -2.66602 -1 -3.99902 -1c-4.66699 0 -8.83398 1.83301 -12.501 5.5s-5.5 8.16699 -5.5 13.5c0 6 3 10.667 9 14l104 56c5.33301 3.33301 11 5 17 5s11.667 -1.66699 17 -5l104 -55c6 -3.33301 9 -9 9 -17
c0 -4.66699 -1.66699 -8.5 -5 -11.5s-7.33301 -4.5 -12 -4.5c-1.33301 0 -2.83301 0.333008 -4.5 1s-3.16699 1.33398 -4.5 2.00098l-104 55z" />
    <glyph glyph-name="underscore" unicode="_" horiz-adv-x="345" 
d="M-4 -18c0 5.33301 1.5 9.66602 4.5 12.999s7.16699 5 12.5 5h320c4.66699 0 8.83398 -1.66699 12.501 -5s5.5 -7.66602 5.5 -12.999s-1.83301 -9.5 -5.5 -12.5s-7.83398 -4.5 -12.501 -4.5h-320c-11.333 0 -17 5.66699 -17 17z" />
    <glyph glyph-name="grave" unicode="`" horiz-adv-x="133" 
d="M10 658c-6.66699 4 -10 9.99805 -10 17.998c-0 4.66699 1.33301 8.83398 4 12.501s6.66699 5.5 12 5.5c2 0 4.33301 -0.666992 7 -2l102 -60c5.33301 -2.66699 8 -7 8 -13c0 -5.33301 -1.83301 -9.66602 -5.5 -12.999s-8.16699 -5 -13.5 -5c-3.33301 0 -6.33301 1 -9 3z
" />
    <glyph glyph-name="a" unicode="a" horiz-adv-x="423" 
d="M194 478c30.667 0 56.498 -5.33301 77.498 -16s38 -25 51 -43s22.333 -38.5 28 -61.5s8.5 -46.833 8.5 -71.5v-268c0 -5.33301 -1.5 -9.66602 -4.5 -12.999s-7.16699 -5 -12.5 -5s-9.66602 1.66699 -12.999 5s-5 7.66602 -5 12.999v52
c-17.333 -19.333 -38.333 -36.833 -63 -52.5s-53.667 -23.5 -87 -23.5c-19.333 0 -37.5 2.66699 -54.5 8s-31.833 13.5 -44.5 24.5s-22.5 24.667 -29.5 41s-10.5 35.833 -10.5 58.5c0 26.667 5.66699 48.5 17 65.5s27.166 30.5 47.499 40.5s44.833 16.833 73.5 20.5
s60.334 5.5 95.001 5.5h56v28c0 18.667 -2.5 37.334 -7.5 56.001s-12.667 35.5 -23 50.5s-23.833 27.167 -40.5 36.5s-37 14 -61 14c-15.333 0 -28.833 -1.33301 -40.5 -4s-21.667 -5.83398 -30 -9.50098l-21 -9.5c-5.66699 -2.66699 -9.83398 -4 -12.501 -4
c-5.33301 0 -9.66602 2.5 -12.999 7.5s-5 9.16699 -5 12.5c0 4.66699 3.66699 9.5 11 14.5s16.833 9.5 28.5 13.5s24.834 7.33301 39.501 10s29.667 4 45 4zM323.998 223l-54.999 0.000976562c-26 0 -50.833 -1 -74.5 -3s-44.834 -6.33301 -63.501 -13
s-33.5 -16.334 -44.5 -29.001s-16.5 -30 -16.5 -52c0 -34 9.83301 -58.667 29.5 -74s44.167 -23 73.5 -23c18.667 0 37 3.66699 55 11s34.167 16.5 48.5 27.5s25.833 23 34.5 36s13 24.833 13 35.5v84z" />
    <glyph glyph-name="b" unicode="b" horiz-adv-x="468" 
d="M86 768c5.33301 0 9.66309 -1.50098 12.9961 -4.50098s5 -7.16699 5 -12.5v-349c11.333 19.333 28 36.833 50 52.5s50 23.5 84 23.5c24.667 0 47.834 -4.66699 69.501 -14s40.667 -22.166 57 -38.499s29.333 -35.5 39 -57.5s14.5 -45.333 14.5 -70v-122
c0 -24 -4.83301 -46.833 -14.5 -68.5s-22.667 -41 -39 -58s-35.166 -30.5 -56.499 -40.5s-44 -15 -68 -15c-30.667 0 -58.167 7.5 -82.5 22.5s-42.166 32.833 -53.499 53.5v-52c0 -4.66699 -1.66699 -8.83398 -5 -12.501s-7.66602 -5.5 -12.999 -5.5s-9.5 1.83301 -12.5 5.5
s-4.5 7.83398 -4.5 12.501v733c0 11.333 5.66699 17 17 17zM382.997 297.999c0 18 -3.66992 35.832 -11.0029 53.499s-17.5 33.167 -30.5 46.5s-28.167 24.166 -45.5 32.499s-35.666 12.5 -54.999 12.5c-17.333 0 -34.166 -3.33301 -50.499 -10s-30.833 -16.167 -43.5 -28.5
s-23 -27.5 -31 -45.5s-12 -38.333 -12 -61v-159c0 -8.66699 3.5 -19.167 10.5 -31.5s16.667 -24.333 29 -36s26.833 -21.667 43.5 -30s35 -12.5 55 -12.5c18.667 0 36.667 4.16699 54 12.5s32.333 19.333 45 33s22.834 29.334 30.501 47.001s11.5 35.834 11.5 54.501v122z
" />
    <glyph glyph-name="c" unicode="c" horiz-adv-x="402" 
d="M235 -6c-31.333 0 -58.333 4.66992 -81 14.0029s-41.667 22 -57 38s-26.666 35.167 -33.999 57.5s-11 46.5 -11 72.5v120c0 25.333 3.66699 49.166 11 71.499s18.5 41.666 33.5 57.999s34 29.166 57 38.499s50.167 14 81.5 14c20 0 38 -2.16699 54 -6.5
s29.833 -9.5 41.5 -15.5s20.5 -12.333 26.5 -19s9 -12.667 9 -18c0 -4.66699 -1.83301 -8.66699 -5.5 -12s-7.83398 -5 -12.501 -5c-4 0 -8.5 2.16699 -13.5 6.5s-11.5 9 -19.5 14s-18.333 9.66699 -31 14s-29 6.5 -49 6.5c-48 0 -84.667 -13 -110 -39s-38 -62 -38 -108
v-120c0 -46 12.5 -82 37.5 -108s62.167 -39 111.5 -39c20.667 0 37.667 2.16699 51 6.5s24.333 9 33 14s15.5 9.66699 20.5 14s9.83301 6.5 14.5 6.5s8.66699 -1.66699 12 -5s5 -7.33301 5 -12c0 -5.33301 -3.16699 -11.333 -9.5 -18s-15.333 -13 -27 -19
s-26 -11.167 -43 -15.5s-36.167 -6.5 -57.5 -6.5z" />
    <glyph glyph-name="d" unicode="d" horiz-adv-x="468" 
d="M382 768c11.333 0 16.9971 -5.66602 16.9971 -16.999v-733c0 -4.66699 -1.5 -8.83398 -4.5 -12.501s-7.16699 -5.5 -12.5 -5.5s-9.66602 1.83301 -12.999 5.5s-5 7.83398 -5 12.501v52c-11.333 -20.667 -29.166 -38.5 -53.499 -53.5s-51.833 -22.5 -82.5 -22.5
c-24 0 -46.667 5 -68 15s-40.166 23.5 -56.499 40.5s-29.333 36.333 -39 58s-14.5 44.5 -14.5 68.5v122c0 24.667 4.83301 48 14.5 70s22.667 41.167 39 57.5s35.333 29.166 57 38.499s44.834 14 69.501 14c34 0 62 -7.83301 84 -23.5s38.667 -33.167 50 -52.5v349
c0 5.33301 1.66699 9.5 5 12.5s7.66602 4.5 12.999 4.5zM84.9971 176.001c0 -18.667 3.83301 -36.833 11.5 -54.5s17.834 -33.334 30.501 -47.001s27.5 -24.667 44.5 -33s35.167 -12.5 54.5 -12.5c20 0 38.333 4.16699 55 12.5s31.167 18.333 43.5 30s22 23.667 29 36
s10.5 22.833 10.5 31.5v159c0 22.667 -4 43 -12 61s-18.333 33.167 -31 45.5s-27.334 21.833 -44.001 28.5s-33.334 10 -50.001 10c-19.333 0 -37.666 -4.16699 -54.999 -12.5s-32.5 -19.166 -45.5 -32.499s-23.167 -28.833 -30.5 -46.5s-11 -35.5 -11 -53.5v-122z" />
    <glyph glyph-name="e" unicode="e" horiz-adv-x="445" 
d="M229 478c23.333 0 45.6689 -4.49512 67.002 -13.4951s40.166 -21.5 56.499 -37.5s29.333 -35 39 -57s14.5 -46 14.5 -72c0 -18 -2.33301 -32.167 -7 -42.5s-10.834 -17.833 -18.501 -22.5s-16.5 -7.5 -26.5 -8.5s-20.333 -1.5 -31 -1.5h-237v-47
c0 -22.667 4.16699 -43.167 12.5 -61.5s20 -33.833 35 -46.5s32.833 -22.334 53.5 -29.001s43.334 -10 68.001 -10c20.667 0 37.667 2.16699 51 6.5s24.166 9 32.499 14s15 9.66699 20 14s9.83301 6.5 14.5 6.5s8.83398 -2 12.501 -6s5.5 -8 5.5 -12
c0 -4.66699 -3.16699 -10.334 -9.5 -17.001s-15.5 -13 -27.5 -19s-26.5 -11.167 -43.5 -15.5s-36.167 -6.5 -57.5 -6.5c-29.333 0 -56.333 4.33301 -81 13s-46 21 -64 37s-32 35.167 -42 57.5s-15 47.166 -15 74.499v125c0 24 4.66699 46.667 14 68
s22.166 40.166 38.499 56.499s35.333 29.166 57 38.499s44.5 14 68.5 14zM311.003 258.005c24.667 0 40.834 2.33301 48.501 7s11.5 14.667 11.5 30c0 18 -3.33301 35.833 -10 53.5s-16.167 33.5 -28.5 47.5s-27.333 25.333 -45 34s-37.167 13 -58.5 13
c-20 0 -38.833 -3.83301 -56.5 -11.5s-32.834 -18 -45.501 -31s-22.667 -28.167 -30 -45.5s-11 -35.333 -11 -54v-43h225z" />
    <glyph glyph-name="f" unicode="f" horiz-adv-x="289" 
d="M104 472l153 -0.00195312c5.33301 0 9.66602 -1.66699 12.999 -5s5 -7.33301 5 -12c0 -5.33301 -1.66699 -9.66602 -5 -12.999s-7.66602 -5 -12.999 -5h-153v-420c0 -5.33301 -1.83301 -9.5 -5.5 -12.5s-8.16699 -4.5 -13.5 -4.5c-10.667 0 -16 5.66699 -16 17v573
c0 24 4.83301 46.833 14.5 68.5s22.5 40.5 38.5 56.5s34.833 28.833 56.5 38.5s44.5 14.5 68.5 14.5h10c5.33301 0 9.66602 -1.66699 12.999 -5s5 -7.66602 5 -12.999s-1.66699 -9.5 -5 -12.5s-7.66602 -4.5 -12.999 -4.5h-10c-20 0 -38.667 -4 -56 -12
s-32.5 -18.667 -45.5 -32s-23.167 -28.5 -30.5 -45.5s-11 -34.833 -11 -53.5v-118z" />
    <glyph glyph-name="g" unicode="g" horiz-adv-x="446" 
d="M347 314c0 36.667 -11.166 67.334 -33.499 92.001s-53.5 37 -93.5 37s-71 -12.333 -93 -37s-33 -55.334 -33 -92.001v-44c0 -18.667 2.83301 -36 8.5 -52s14 -30 25 -42s24.333 -21.333 40 -28s33.5 -10 53.5 -10c39.333 0 70.166 12.333 92.499 37s33.5 56 33.5 94v45z
M378.001 -103c0 24 -7.66699 42.002 -23 54.002s-34 20.667 -56 26s-44.667 8.83301 -68 10.5s-43 3.5 -59 5.5c-13.333 -4 -26.333 -8.66699 -39 -14s-23.834 -11.833 -33.501 -19.5s-17.5 -16.834 -23.5 -27.501s-9 -23 -9 -37c0 -30 13.833 -54.167 41.5 -72.5
s66.834 -27.5 117.501 -27.5c50 0 87.833 9.16699 113.5 27.5s38.5 43.166 38.5 74.499zM417.001 452.002c-8.66699 0 -18.4951 -3.00098 -29.4951 -9.00098s-21.167 -18.333 -30.5 -37c8.66699 -12 15 -26 19 -42s6 -32.667 6 -50v-45c0 -24 -4 -46 -12 -66
s-19.167 -37.5 -33.5 -52.5s-31.5 -26.667 -51.5 -35s-42 -12.5 -66 -12.5c-30.667 0 -58 7 -82 21c-10 -4.66699 -19.167 -10.5 -27.5 -17.5s-12.5 -17.167 -12.5 -30.5c0 -16.667 7.83301 -28.5 23.5 -35.5s35.167 -12.167 58.5 -15.5s48.666 -6.16602 75.999 -8.49902
s52.666 -7.33301 75.999 -15s42.833 -19.334 58.5 -35.001s23.5 -38.5 23.5 -68.5c0 -43.333 -16.667 -76.666 -50 -99.999s-79 -35 -137 -35c-29.333 0 -55.833 3 -79.5 9s-44 14.667 -61 26s-30.167 24.833 -39.5 40.5s-14 33.5 -14 53.5c0 15.333 2.66699 29 8 41
s12.166 22.5 20.499 31.5s18 16.667 29 23s22.167 11.5 33.5 15.5c-18 5.33301 -32.667 13.166 -44 23.499s-17 26.166 -17 47.499c0 18.667 4.33301 33 13 43s20.667 18.667 36 26c-16.667 14.667 -29.5 32.834 -38.5 54.501s-13.5 45.5 -13.5 71.5v45
c0 24 3.83301 46 11.5 66s18.5 37.333 32.5 52s31 26 51 34s42 12 66 12c24.667 0 47 -4.16699 67 -12.5s37.333 -20.166 52 -35.499c9.33301 17.333 21 31.833 35 43.5s27.333 17.5 40 17.5c7.33301 0 12.666 -2 15.999 -6s5 -8.66699 5 -14
c0 -6 -1.83301 -10.667 -5.5 -14s-7.83398 -5 -12.501 -5z" />
    <glyph glyph-name="h" unicode="h" horiz-adv-x="482" 
d="M104 18c0 -4.66699 -1.66895 -8.83398 -5.00195 -12.501s-7.66602 -5.5 -12.999 -5.5s-9.5 1.83301 -12.5 5.5s-4.5 7.83398 -4.5 12.501v733c0 11.333 5.66699 17 17 17c5.33301 0 9.66602 -1.5 12.999 -4.5s5 -7.16699 5 -12.5v-349c11.333 19.333 28 36.833 50 52.5
s50 23.5 84 23.5c24.667 0 47.834 -4.66699 69.501 -14s40.667 -22.166 57 -38.499s29.333 -35.5 39 -57.5s14.5 -45.333 14.5 -70v-280c0 -6 -1.83301 -10.5 -5.5 -13.5s-7.83398 -4.5 -12.501 -4.5c-4 0 -7.83301 1.5 -11.5 4.5s-5.5 7.5 -5.5 13.5v280
c0 18 -3.66699 35.833 -11 53.5s-17.5 33.167 -30.5 46.5s-28.167 24.166 -45.5 32.499s-35.666 12.5 -54.999 12.5c-17.333 0 -34.166 -3.33301 -50.499 -10s-30.833 -16.167 -43.5 -28.5s-23 -27.5 -31 -45.5s-12 -38.333 -12 -61v-280z" />
    <glyph glyph-name="i" unicode="i" horiz-adv-x="171" 
d="M85 472c5.33301 0 9.66602 -1.5 12.999 -4.5s5 -7.16699 5 -12.5v-437c0 -4.66699 -1.66699 -8.83398 -5 -12.501s-7.66602 -5.5 -12.999 -5.5c-4.66699 0 -8.66699 1.83301 -12 5.5s-5 7.83398 -5 12.501v437c0 5.33301 1.66699 9.5 5 12.5s7.33301 4.5 12 4.5zM85 691
c8.66699 0 16 -3 22 -9s9 -13.333 9 -22s-3 -16.167 -9 -22.5s-13.333 -9.5 -22 -9.5c-9.33301 0 -17 3.16699 -23 9.5s-9 13.833 -9 22.5s3 16 9 22s13.667 9 23 9z" />
    <glyph glyph-name="j" unicode="j" horiz-adv-x="173" 
d="M86 472c5.33301 0 9.66992 -1.50195 13.0029 -4.50195s5 -7.16699 5 -12.5v-503c0 -28 -2 -53.5 -6 -76.5s-10.833 -42.833 -20.5 -59.5s-22.334 -29.667 -38.001 -39s-34.834 -14 -57.501 -14c-5.33301 0 -9.66602 1.83301 -12.999 5.5s-5 7.83398 -5 12.501
c0 5.33301 1.66699 9.5 5 12.5s7.66602 4.5 12.999 4.5c19.333 0 34.666 3.83301 45.999 11.5s20 18.334 26 32.001s10 30 12 49s3 39.5 3 61.5v503c0 11.333 5.66699 17 17 17zM86.0039 690.998c8.66699 0 16 -3 22 -9s9 -13.333 9 -22s-3 -16.167 -9 -22.5
s-13.333 -9.5 -22 -9.5c-9.33301 0 -17 3.16699 -23 9.5s-9 13.833 -9 22.5s3 16 9 22s13.667 9 23 9z" />
    <glyph glyph-name="k" unicode="k" horiz-adv-x="437" 
d="M86 768c5.33301 0 9.66602 -1.5 12.999 -4.5s5 -7.16699 5 -12.5v-518l270 235c4 2.66699 7.33301 4 10 4c4.66699 0 9 -1.16699 13 -3.5s6 -6.5 6 -12.5c0 -6.66699 -2 -11.667 -6 -15l-161 -140l185 -273c2 -3.33301 3 -6.66602 3 -9.99902
c0 -4.66699 -1.5 -8.83398 -4.5 -12.501s-7.16699 -5.5 -12.5 -5.5s-10 3 -14 9l-184 269l-105 -92v-168c0 -4.66699 -1.66699 -8.83398 -5 -12.501s-7.66602 -5.5 -12.999 -5.5s-9.5 1.83301 -12.5 5.5s-4.5 7.83398 -4.5 12.501v733c0 11.333 5.66699 17 17 17z" />
    <glyph glyph-name="l" unicode="l" horiz-adv-x="189" 
d="M94 768c5.33301 0 9.66602 -1.5 12.999 -4.5s5 -7.16699 5 -12.5v-733c0 -4.66699 -1.66699 -8.83398 -5 -12.501s-7.66602 -5.5 -12.999 -5.5s-9.5 1.83301 -12.5 5.5s-4.5 7.83398 -4.5 12.501v733c0 11.333 5.66699 17 17 17z" />
    <glyph glyph-name="m" unicode="m" horiz-adv-x="767" 
d="M368 303c0 20 -3.32812 38.5 -9.99512 55.5s-15.834 31.667 -27.501 44s-25.334 22.166 -41.001 29.499s-32.5 11 -50.5 11c-16.667 0 -33.167 -3.33301 -49.5 -10s-30.833 -16.167 -43.5 -28.5s-23 -27.5 -31 -45.5s-12 -38.333 -12 -61v-280
c0 -4.66699 -1.66699 -8.83398 -5 -12.501s-7.66602 -5.5 -12.999 -5.5s-9.5 1.83301 -12.5 5.5s-4.5 7.83398 -4.5 12.501v437c0 11.333 5.66699 17 17 17c5.33301 0 9.66602 -1.5 12.999 -4.5s5 -7.16699 5 -12.5v-53c11.333 19.333 28 36.833 50 52.5s50 23.5 84 23.5
c34.667 0 65 -9.16699 91 -27.5s45.667 -42.5 59 -72.5c17.333 34 39.666 59.167 66.999 75.5s55.666 24.5 84.999 24.5c20.667 0 41 -4 61 -12s37.5 -19.667 52.5 -35s27.167 -34.166 36.5 -56.499s14 -47.833 14 -76.5v-280c0 -4.66699 -1.66699 -8.83398 -5 -12.501
s-7.66602 -5.5 -12.999 -5.5c-4.66699 0 -8.66699 1.83301 -12 5.5s-5 7.83398 -5 12.501v280c0 24 -3.83301 45 -11.5 63s-17.667 33.167 -30 45.5s-26.333 21.5 -42 27.5s-31.167 9 -46.5 9c-16.667 0 -33.167 -3.33301 -49.5 -10s-30.833 -16.167 -43.5 -28.5
s-22.834 -27 -30.501 -44s-11.5 -35.833 -11.5 -56.5v-287c0 -6 -1.83301 -10.333 -5.5 -13s-7.83398 -4 -12.501 -4c-4 -0 -7.83301 1.33301 -11.5 4s-5.5 7 -5.5 13v286z" />
    <glyph glyph-name="n" unicode="n" horiz-adv-x="481" 
d="M103 18c0 -4.66699 -1.66895 -8.83398 -5.00195 -12.501s-7.66602 -5.5 -12.999 -5.5s-9.5 1.83301 -12.5 5.5s-4.5 7.83398 -4.5 12.501v437c0 11.333 5.66699 17 17 17c5.33301 0 9.66602 -1.5 12.999 -4.5s5 -7.16699 5 -12.5v-53c11.333 19.333 28 36.833 50 52.5
s50 23.5 84 23.5c24.667 0 47.834 -4.66699 69.501 -14s40.667 -22.166 57 -38.499s29.333 -35.5 39 -57.5s14.5 -45.333 14.5 -70v-280c0 -6 -1.83301 -10.5 -5.5 -13.5s-7.83398 -4.5 -12.501 -4.5c-4 0 -7.83301 1.5 -11.5 4.5s-5.5 7.5 -5.5 13.5v280
c0 18 -3.66699 35.833 -11 53.5s-17.5 33.167 -30.5 46.5s-28.167 24.166 -45.5 32.499s-35.666 12.5 -54.999 12.5c-17.333 0 -34.166 -3.33301 -50.499 -10s-30.833 -16.167 -43.5 -28.5s-23 -27.5 -31 -45.5s-12 -38.333 -12 -61v-280z" />
    <glyph glyph-name="o" unicode="o" 
d="M227 478c24 0 46.667 -4.66992 68 -14.0029s40.166 -22.166 56.499 -38.499s29.333 -35.5 39 -57.5s14.5 -45.333 14.5 -70v-122c0 -24 -4.83301 -46.833 -14.5 -68.5s-22.667 -41 -39 -58s-35.166 -30.5 -56.499 -40.5s-44 -15 -68 -15s-46.667 5 -68 15
s-40 23.333 -56 40s-28.833 36 -38.5 58s-14.5 45 -14.5 69v122c0 24 4.66699 46.833 14 68.5s22 40.834 38 57.501s34.833 29.834 56.5 39.501s44.5 14.5 68.5 14.5zM370 297.997c0 18 -3.66699 35.833 -11 53.5s-17.5 33.167 -30.5 46.5s-28.167 24.166 -45.5 32.499
s-36 12.5 -56 12.5s-38.667 -4.16699 -56 -12.5s-32.333 -19.166 -45 -32.499s-22.667 -28.833 -30 -46.5s-11 -35.5 -11 -53.5v-122c0 -18.667 3.66699 -36.834 11 -54.501s17.5 -33.334 30.5 -47.001s28 -24.667 45 -33s35.5 -12.5 55.5 -12.5s38.667 4.16699 56 12.5
s32.5 19.333 45.5 33s23.167 29.334 30.5 47.001s11 35.834 11 54.501v122z" />
    <glyph glyph-name="p" unicode="p" horiz-adv-x="468" 
d="M86 472c5.33301 0 9.66309 -1.50098 12.9961 -4.50098s5 -7.16699 5 -12.5v-53c11.333 19.333 28 36.833 50 52.5s50 23.5 84 23.5c24.667 0 47.834 -4.66699 69.501 -14s40.667 -22.166 57 -38.499s29.333 -35.5 39 -57.5s14.5 -45.333 14.5 -70v-122
c0 -24 -4.83301 -46.833 -14.5 -68.5s-22.667 -41 -39 -58s-35.166 -30.5 -56.499 -40.5s-44 -15 -68 -15c-30.667 0 -58.167 7.5 -82.5 22.5s-42.166 32.833 -53.499 53.5v-289c0 -4.66699 -1.66699 -8.83398 -5 -12.501s-7.66602 -5.5 -12.999 -5.5
s-9.5 1.83301 -12.5 5.5s-4.5 7.83398 -4.5 12.501v674c0 11.333 5.66699 17 17 17zM382.997 297.999c0 18 -3.66992 35.832 -11.0029 53.499s-17.5 33.167 -30.5 46.5s-28.167 24.166 -45.5 32.499s-35.666 12.5 -54.999 12.5c-17.333 0 -34.166 -3.33301 -50.499 -10
s-30.833 -16.167 -43.5 -28.5s-23 -27.5 -31 -45.5s-12 -38.333 -12 -61v-159c0 -8.66699 3.5 -19.167 10.5 -31.5s16.667 -24.333 29 -36s26.833 -21.667 43.5 -30s35 -12.5 55 -12.5c18.667 0 36.667 4.16699 54 12.5s32.333 19.333 45 33s22.834 29.334 30.501 47.001
s11.5 35.834 11.5 54.501v122z" />
    <glyph glyph-name="q" unicode="q" horiz-adv-x="468" 
d="M382 472c11.333 0 16.9971 -5.66602 16.9971 -16.999v-674c0 -4.66699 -1.5 -8.83398 -4.5 -12.501s-7.16699 -5.5 -12.5 -5.5s-9.66602 1.83301 -12.999 5.5s-5 7.83398 -5 12.501v289c-11.333 -20.667 -29.166 -38.5 -53.499 -53.5s-51.833 -22.5 -82.5 -22.5
c-24 0 -46.667 5 -68 15s-40.166 23.5 -56.499 40.5s-29.333 36.333 -39 58s-14.5 44.5 -14.5 68.5v122c0 24.667 4.83301 48 14.5 70s22.667 41.167 39 57.5s35.333 29.166 57 38.499s44.834 14 69.501 14c34 0 62 -7.83301 84 -23.5s38.667 -33.167 50 -52.5v53
c0 5.33301 1.66699 9.5 5 12.5s7.66602 4.5 12.999 4.5zM84.9971 176.001c0 -18.667 3.83301 -36.833 11.5 -54.5s17.834 -33.334 30.501 -47.001s27.5 -24.667 44.5 -33s35.167 -12.5 54.5 -12.5c20 0 38.333 4.16699 55 12.5s31.167 18.333 43.5 30s22 23.667 29 36
s10.5 22.833 10.5 31.5v159c0 22.667 -4 43 -12 61s-18.333 33.167 -31 45.5s-27.334 21.833 -44.001 28.5s-33.334 10 -50.001 10c-19.333 0 -37.666 -4.16699 -54.999 -12.5s-32.5 -19.166 -45.5 -32.499s-23.167 -28.833 -30.5 -46.5s-11 -35.5 -11 -53.5v-122z" />
    <glyph glyph-name="r" unicode="r" horiz-adv-x="308" 
d="M242 443c-17.333 0 -34.333 -3.33398 -51 -10.001s-31.5 -16.167 -44.5 -28.5s-23.5 -27.5 -31.5 -45.5s-12 -38.333 -12 -61v-280c0 -4.66699 -1.66699 -8.83398 -5 -12.501s-7.66602 -5.5 -12.999 -5.5s-9.5 1.83301 -12.5 5.5s-4.5 7.83398 -4.5 12.501v437
c0 11.333 5.66699 17 17 17c5.33301 0 9.66602 -1.5 12.999 -4.5s5 -7.16699 5 -12.5v-53c11.333 19.333 28.5 36.833 51.5 52.5s52.167 23.5 87.5 23.5h37c4.66699 0 8.66699 -1.66699 12 -5s5 -7.66602 5 -12.999c0 -4.66699 -1.66699 -8.66699 -5 -12s-7.33301 -5 -12 -5
h-37z" />
    <glyph glyph-name="s" unicode="s" horiz-adv-x="373" 
d="M183 29c42 0 72.002 8.16406 90.002 24.4971s27 35.833 27 58.5c0 26 -6.16699 46 -18.5 60s-27.833 25.167 -46.5 33.5s-39 15.333 -61 21s-42.333 12.834 -61 21.501s-34.167 20.667 -46.5 36s-18.5 36.666 -18.5 63.999c0 14.667 2.83301 29.834 8.5 45.501
s14.5 29.667 26.5 42s27.333 22.5 46 30.5s41 12 67 12c14.667 0 29.334 -1.33301 44.001 -4s27.667 -6 39 -10s20.666 -8.5 27.999 -13.5s11 -9.83301 11 -14.5c0 -3.33301 -1.66699 -7.5 -5 -12.5s-7.33301 -7.5 -12 -7.5c-3.33301 0 -7.83301 1.33301 -13.5 4l-21 9.5
c-8.33301 3.66699 -18.333 6.83398 -30 9.50098s-24.834 4 -39.501 4c-21.333 0 -39.166 -3 -53.499 -9s-26 -13.667 -35 -23s-15.5 -19.5 -19.5 -30.5s-6 -21.5 -6 -31.5c0 -22 6.16699 -38.833 18.5 -50.5s27.833 -21.167 46.5 -28.5s39 -13.666 61 -18.999
s42.333 -13 61 -23s34.167 -23.833 46.5 -41.5s18.5 -41.834 18.5 -72.501c0 -37.333 -13.167 -66.666 -39.5 -87.999s-63.5 -32 -111.5 -32c-22.667 0 -43 2.33301 -61 7s-33.333 10.167 -46 16.5s-22.334 13.333 -29.001 21s-10 14.5 -10 20.5
c0 4.66699 1.5 8.66699 4.5 12s6.16699 5 9.5 5c4.66699 0 9.66699 -2.5 15 -7.5s12.666 -10.333 21.999 -16s21.5 -11 36.5 -16s34.167 -7.5 57.5 -7.5z" />
    <glyph glyph-name="t" unicode="t" horiz-adv-x="272" 
d="M66 686c0 5.33301 1.83301 9.49805 5.5 12.498s7.5 4.5 11.5 4.5c4.66699 0 8.83398 -1.5 12.501 -4.5s5.5 -7.16699 5.5 -12.5v-214h135c4.66699 0 8.66699 -1.66699 12 -5s5 -7.66602 5 -12.999c0 -4.66699 -1.66699 -8.66699 -5 -12s-7.33301 -5 -12 -5h-135v-298
c0 -38 8.16699 -64.833 24.5 -80.5s45.166 -23.5 86.499 -23.5h23c4.66699 0 8.66699 -1.5 12 -4.5s5 -7.16699 5 -12.5s-1.66699 -9.66602 -5 -12.999s-7.33301 -5 -12 -5h-23c-48 0 -84.333 11 -109 33s-37 57.333 -37 106v547z" />
    <glyph glyph-name="u" unicode="u" horiz-adv-x="483" 
d="M242 -6c-24.667 0 -47.833 5.00195 -69.5 15.002s-40.5 23.167 -56.5 39.5s-28.667 35.333 -38 57s-14 44.5 -14 68.5v280c0 4.66699 1.66699 8.83398 5 12.501s7.66602 5.5 12.999 5.5c4.66699 0 8.66699 -1.83301 12 -5.5s5 -7.83398 5 -12.501v-280
c0 -18.667 3.66699 -36.667 11 -54s17.5 -32.833 30.5 -46.5s28.167 -24.5 45.5 -32.5s36 -12 56 -12s38.5 4 55.5 12s32 18.833 45 32.5s23.167 29.167 30.5 46.5s11 35.333 11 54v281c0 4.66699 1.66699 8.66699 5 12s7.66602 5 12.999 5s9.5 -1.66699 12.5 -5
s4.5 -7.33301 4.5 -12v-281c0 -24 -4.66699 -46.833 -14 -68.5s-22.166 -40.834 -38.499 -57.501s-35.166 -29.834 -56.499 -39.501s-44 -14.5 -68 -14.5z" />
    <glyph glyph-name="v" unicode="v" horiz-adv-x="392" 
d="M354 472c4.66699 0 9.00098 -1.49902 13.001 -4.49902s6 -7.16699 6 -12.5c0 -2.66699 -0.5 -5.5 -1.5 -8.5s-1.83301 -5.16699 -2.5 -6.5l-156 -434c-3.33301 -8 -9 -12 -17 -12c-8.66699 0 -14.334 4 -17.001 12l-156 434c-0.666992 1.33301 -1.5 3.5 -2.5 6.5
s-1.5 5.5 -1.5 7.5c0 5.33301 1.66699 9.66602 5 12.999s7.66602 5 12.999 5c8 0 13.667 -3.66699 17 -11l142 -393l141 387c1.33301 4 2.83301 7.83301 4.5 11.5s5.83398 5.5 12.501 5.5z" />
    <glyph glyph-name="w" unicode="w" horiz-adv-x="654" 
d="M617 472c5.33301 0 9.66797 -1.49902 13.001 -4.49902s5 -7.16699 5 -12.5c0 -2 -0.5 -4.5 -1.5 -7.5s-1.83301 -5.16699 -2.5 -6.5l-157 -435c-2.66699 -8 -7.66699 -12 -15 -12c-4 0 -6.83301 0.833008 -8.5 2.5s-3.5 4.5 -5.5 8.5l-117 375l-115 -369
c-4 -11.333 -9.66699 -17 -17 -17c-4.66699 0 -8 1 -10 3s-4.33301 6.66699 -7 14l-156 430c-0.666992 1.33301 -1.5 3.5 -2.5 6.5s-1.5 5.16699 -1.5 6.5c0 5.33301 1.66699 9.66602 5 12.999s7.66602 5 12.999 5c8 0 13.667 -3.66699 17 -11l141 -391l115 362
c3.33301 8.66699 9.33301 13 18 13s14.667 -4.33301 18 -13l111 -367l144 396c2 7.33301 7.33301 11 16 11z" />
    <glyph glyph-name="x" unicode="x" horiz-adv-x="381" 
d="M337 478c4.66699 0 8.83203 -1.66699 12.499 -5s5.5 -7.66602 5.5 -12.999c0 -3.33301 -1 -6.33301 -3 -9l-140 -213l140 -217c2 -3.33301 3 -6.66602 3 -9.99902c0 -4.66699 -1.66699 -8.66699 -5 -12s-7.66602 -5 -12.999 -5c-6 0 -10.667 2.66699 -14 8l-132 203
l-131 -203c-4 -5.33301 -9 -8 -15 -8c-5.33301 0 -9.66602 1.66699 -12.999 5s-5 7.33301 -5 12c0 3.33301 1 6.66602 3 9.99902l139 217l-139 213c-2 2.66699 -3 5.66699 -3 9c0 5.33301 1.66699 9.66602 5 12.999s7.66602 5 12.999 5c6.66699 0 11.667 -2.66699 15 -8
l131 -200l132 200c3.33301 5.33301 8 8 14 8z" />
    <glyph glyph-name="y" unicode="y" horiz-adv-x="395" 
d="M358 478c4.66699 0 8.83496 -1.50098 12.502 -4.50098s5.5 -7.16699 5.5 -12.5c0 -2.66699 -0.333008 -4.66699 -1 -6l-160 -442l-30.5 -81.5c-11 -29 -23.833 -56 -38.5 -81s-31 -45.833 -49 -62.5s-38.333 -25 -61 -25c-4.66699 0 -8.66699 1.5 -12 4.5
s-5 7.16699 -5 12.5c0 4.66699 1.16699 8.83398 3.5 12.501s6.16602 5.5 11.499 5.5c18 0 34.167 6.66699 48.5 20s27.333 30.5 39 51.5s22.167 44.167 31.5 69.5l27 74l-160 442c-1.33301 2.66699 -2 4.66699 -2 6c0 4.66699 1.83301 8.66699 5.5 12s8.16699 5 13.5 5
c8.66699 0 14 -3.66699 16 -11l145 -400l144 400c3.33301 7.33301 8.66602 11 15.999 11z" />
    <glyph glyph-name="z" unicode="z" horiz-adv-x="385" 
d="M341 35c5.33301 0 9.66602 -1.66797 12.999 -5.00098s5 -7.66602 5 -12.999c0 -4.66699 -1.66699 -8.66699 -5 -12s-7.66602 -5 -12.999 -5h-297c-5.33301 0 -9.66602 1.5 -12.999 4.5s-5 6.83301 -5 11.5c0 1.33301 0.333008 3.33301 1 6s1.66699 4.66699 3 6l267 409
h-243c-5.33301 0 -9.66602 1.66699 -12.999 5s-5 7.33301 -5 12c0 5.33301 1.66699 9.66602 5 12.999s7.66602 5 12.999 5h277c5.33301 0 9.66602 -1.66699 12.999 -5s5 -7.66602 5 -12.999c0 -4 -1 -7.33301 -3 -10l-268 -409h263z" />
    <glyph glyph-name="braceleft" unicode="{" horiz-adv-x="285" 
d="M34 384c0 8 3.16602 12.998 9.49902 14.998s13.166 3.5 20.499 4.5s14.166 2.33301 20.499 4s9.5 6.5 9.5 14.5c0 4.66699 -1.16699 15.5 -3.5 32.5s-4.66602 35.5 -6.99902 55.5l-7 58c-2.33301 18.667 -3.5 31.667 -3.5 39c0 21.333 4.5 41.833 13.5 61.5
s21.5 36.834 37.5 51.501s34.667 26.334 56 35.001s44 13 68 13c4.66699 0 8.66699 -1.66699 12 -5s5 -7.33301 5 -12c0 -5.33301 -1.66699 -9.66602 -5 -12.999s-7.33301 -5 -12 -5c-20.667 0 -39.5 -3.66699 -56.5 -11s-31.667 -17 -44 -29s-21.833 -25.833 -28.5 -41.5
s-10 -31.5 -10 -47.5c0 -8 1.16699 -21 3.5 -39l7 -56.5c2.33301 -19.667 4.66602 -37.834 6.99902 -54.501s3.5 -27.334 3.5 -32.001c0 -11.333 -4.16699 -20.166 -12.5 -26.499s-15.5 -10.166 -21.5 -11.499c6 -2 13.167 -6 21.5 -12s12.5 -14.333 12.5 -25
c0 -6 -1.16699 -19 -3.5 -39s-4.66602 -41.833 -6.99902 -65.5l-7 -68.5c-2.33301 -22 -3.5 -37.667 -3.5 -47c0 -22 5.16699 -40.167 15.5 -54.5s22.666 -25.833 36.999 -34.5s29.5 -14.667 45.5 -18s29.667 -5 41 -5c6.66699 0 11.167 -2 13.5 -6s3.5 -7.66699 3.5 -11
c0 -5.33301 -1.83301 -9.66602 -5.5 -12.999s-7.5 -5 -11.5 -5c-24.667 0 -47.667 3.66699 -69 11s-39.833 17.5 -55.5 30.5s-28 28.667 -37 47s-13.5 38.5 -13.5 60.5c0 5.33301 0.5 14 1.5 26s2.33301 25.667 4 41l5 47.5c1.66699 16.333 3.33398 31.666 5.00098 45.999
s3 26.666 4 36.999s1.5 17.166 1.5 20.499c0 8 -3.16699 12.833 -9.5 14.5s-13.166 2.83398 -20.499 3.50098s-14.166 2 -20.499 4s-9.5 7 -9.5 15z" />
    <glyph glyph-name="bar" unicode="|" horiz-adv-x="184" 
d="M92 -21c-5.33301 0 -9.66602 1.66699 -12.999 5s-5 7.33301 -5 12v755c0 4.66699 1.66699 8.66699 5 12s7.66602 5 12.999 5c4.66699 0 8.83398 -1.66699 12.501 -5s5.5 -7.33301 5.5 -12v-755c0 -4.66699 -1.83301 -8.66699 -5.5 -12s-7.83398 -5 -12.501 -5z" />
    <glyph glyph-name="braceright" unicode="}" horiz-adv-x="285" 
d="M251 384c0 -8 -3.16797 -12.998 -9.50098 -14.998s-13.166 -3.33301 -20.499 -4s-14.166 -1.83398 -20.499 -3.50098s-9.5 -6.5 -9.5 -14.5c0 -3.33301 0.5 -10.166 1.5 -20.499s2.33301 -22.666 4 -36.999s3.33398 -29.666 5.00098 -45.999l5 -47.5
c1.66699 -15.333 3 -29 4 -41s1.5 -20.667 1.5 -26c0 -22 -4.5 -42.167 -13.5 -60.5s-21.333 -34 -37 -47s-34.167 -23.167 -55.5 -30.5s-44.333 -11 -69 -11c-4 0 -7.83301 1.66699 -11.5 5s-5.5 7.66602 -5.5 12.999c0 3.33301 1.16699 7 3.5 11s6.83301 6 13.5 6
c11.333 0 25 1.66699 41 5s31.167 9.33301 45.5 18s26.666 20.167 36.999 34.5s15.5 32.5 15.5 54.5c0 9.33301 -1.16699 25 -3.5 47l-7 68.5c-2.33301 23.667 -4.66602 45.5 -6.99902 65.5s-3.5 33 -3.5 39c0 10.667 4 19 12 25s15.333 10 22 12
c-6.66699 1.33301 -14 5.16602 -22 11.499s-12 15.166 -12 26.499c0 4.66699 1.16699 15.334 3.5 32.001s4.66602 34.834 6.99902 54.501l7 56.5c2.33301 18 3.5 31 3.5 39c0 16 -3.33301 31.833 -10 47.5s-16.167 29.5 -28.5 41.5s-27 21.667 -44 29s-35.833 11 -56.5 11
c-4.66699 0 -8.66699 1.66699 -12 5s-5 7.66602 -5 12.999c0 4.66699 1.66699 8.66699 5 12s7.33301 5 12 5c24 0 46.667 -4.33301 68 -13s40 -20.334 56 -35.001s28.5 -31.834 37.5 -51.501s13.5 -40.167 13.5 -61.5c0 -7.33301 -1.16699 -20.333 -3.5 -39l-7 -58
c-2.33301 -20 -4.66602 -38.5 -6.99902 -55.5s-3.5 -27.833 -3.5 -32.5c0 -8 3.16699 -12.833 9.5 -14.5s13.166 -3 20.499 -4s14.166 -2.5 20.499 -4.5s9.5 -7 9.5 -15z" />
    <glyph glyph-name="asciitilde" unicode="~" horiz-adv-x="400" 
d="M269 257c11.333 0 20.3369 1.66797 27.0039 5.00098s12.167 7 16.5 11s8 7.66699 11 11s6.5 5 10.5 5c3.33301 0 6.5 -1.33301 9.5 -4s4.5 -6.33398 4.5 -11.001c0 -8 -2.83301 -15 -8.5 -21s-12.834 -11.333 -21.501 -16s-17.834 -8.16699 -27.501 -10.5
s-18.5 -3.5 -26.5 -3.5c-12 0 -22.833 2 -32.5 6l-29 12.5c-9.66699 4.33301 -19.834 8.5 -30.501 12.5s-23 6 -37 6c-10.667 0 -19.667 -1.83301 -27 -5.5s-13.5 -7.66699 -18.5 -12s-9.33301 -8.33301 -13 -12s-7.16699 -5.5 -10.5 -5.5c-8.66699 0 -13 5.66699 -13 17
c0 6.66699 3 13 9 19s13.333 11.5 22 16.5s18.167 9 28.5 12s20.166 4.5 29.499 4.5c12 0 23 -2 33 -6s19.833 -8.16699 29.5 -12.5s19.667 -8.5 30 -12.5s21.833 -6 34.5 -6z" />
    <glyph glyph-name="uni00A0" unicode="&#xa0;" horiz-adv-x="200" 
 />
    <glyph glyph-name="exclamdown" unicode="&#xa1;" horiz-adv-x="193" 
d="M123 25c0 -10 -2.66699 -17.667 -8 -23s-11.666 -8 -18.999 -8s-13.5 2.66699 -18.5 8s-7.5 13 -7.5 23c0 90.667 1.83301 183 5.5 277s5.5 186.333 5.5 277c0 5.33301 1.66699 9.33301 5 12s6.66602 4 9.99902 4s6.83301 -1.33301 10.5 -4s5.5 -6.66699 5.5 -12
c0 -90.667 1.83301 -183 5.5 -277s5.5 -186.333 5.5 -277zM97 676c-10.667 0 -19.334 3.5 -26.001 10.5s-10 15.5 -10 25.5c0 9.33301 3.33301 17.666 10 24.999s15.334 11 26.001 11c9.33301 0 17.5 -3.66699 24.5 -11s10.5 -15.666 10.5 -24.999
c0 -10 -3.5 -18.5 -10.5 -25.5s-15.167 -10.5 -24.5 -10.5z" />
    <glyph glyph-name="cent" unicode="&#xa2;" horiz-adv-x="406" 
d="M201 40c-5.33301 0 -9.66992 1.66309 -13.0029 4.99609s-5 7.33301 -5 12v120c-47.333 7.33301 -82.833 27.5 -106.5 60.5s-35.5 72.5 -35.5 118.5v20c0 22.667 2.83301 44 8.5 64s14.334 37.833 26.001 53.5s26.334 28.834 44.001 39.501s38.834 18 63.501 22v122
c0 4.66699 1.66699 8.66699 5 12s7.66602 5 12.999 5c4.66699 0 8.83398 -1.66699 12.501 -5s5.5 -7.33301 5.5 -12v-119c18.667 0 36.667 -1.66699 54 -5s32.5 -7.66602 45.5 -12.999s23.333 -11.5 31 -18.5s11.5 -14.167 11.5 -21.5c0 -5.33301 -2 -9.66602 -6 -12.999
s-8.33301 -5 -13 -5s-9.5 2.16699 -14.5 6.5s-11.833 9 -20.5 14s-20 9.66699 -34 14s-32 6.5 -54 6.5v-314c22 0 40 2.16699 54 6.5s25.333 9 34 14s15.5 9.66699 20.5 14s9.83301 6.5 14.5 6.5s9 -1.66699 13 -5s6 -7.66602 6 -12.999c0 -8 -4.16699 -15.5 -12.5 -22.5
s-19.166 -13.167 -32.499 -18.5s-28.5 -9.5 -45.5 -12.5s-34.167 -4.5 -51.5 -4.5v-117c0 -4.66699 -1.83301 -8.66699 -5.5 -12s-7.83398 -5 -12.501 -5zM75.9961 355.996c0 -38.667 8.83301 -70.333 26.5 -95s44.5 -40.667 80.5 -48v306
c-36 -7.33301 -62.833 -23.5 -80.5 -48.5s-26.5 -56.5 -26.5 -94.5v-20z" />
    <glyph glyph-name="sterling" unicode="&#xa3;" horiz-adv-x="461" 
d="M49 384c0 5.33301 1.50488 9.66895 4.50488 13.002s7.16699 5 12.5 5h91l27 188c3.33301 24 11.166 46.833 23.499 68.5s27.666 40.5 45.999 56.5s39 28.833 62 38.5s46.833 14.5 71.5 14.5h12c6.66699 0 11.667 -1.83301 15 -5.5s5 -7.83398 5 -12.501
c0 -4 -1.66699 -7.83301 -5 -11.5s-8.33301 -5.5 -15 -5.5h-17c-20 0 -39.333 -4 -58 -12s-35.334 -18.667 -50.001 -32s-26.834 -28.5 -36.501 -45.5s-15.834 -34.833 -18.501 -53.5l-27 -188h163c5.33301 0 9.33301 -1.83301 12 -5.5s4 -7.83398 4 -12.501
c0 -4 -1.33301 -7.83301 -4 -11.5s-6.66699 -5.5 -12 -5.5h-168l-47 -331h263c5.33301 0 9.33301 -1.83301 12 -5.5s4 -7.83398 4 -12.501s-1.33301 -8.83398 -4 -12.501s-6.66699 -5.5 -12 -5.5h-360c-6 0 -10.5 1.83301 -13.5 5.5s-4.5 7.83398 -4.5 12.501
s1.5 8.83398 4.5 12.501s7.5 5.5 13.5 5.5h63l46 331h-86c-11.333 0 -17 5.66699 -17 17z" />
    <glyph glyph-name="currency" unicode="&#xa4;" horiz-adv-x="489" 
d="M246 652c20.667 0 40.334 -3.50195 59.001 -10.502s35.667 -16.833 51 -29.5l28 28c3.33301 3.33301 7.66602 5 12.999 5c4.66699 0 8.66699 -1.66699 12 -5s5 -7.33301 5 -12c0 -5.33301 -1.66699 -9.66602 -5 -12.999l-28 -28
c13.333 -15.333 23.833 -32.833 31.5 -52.5s11.5 -40.5 11.5 -62.5c0 -21.333 -4 -41.833 -12 -61.5s-18.667 -37.5 -32 -53.5l29 -29c3.33301 -4.66699 5 -8.66699 5 -12c0 -4 -1.66699 -7.83301 -5 -11.5s-7.33301 -5.5 -12 -5.5c-5.33301 0 -9.33301 1.66699 -12 5
l-29 28c-15.333 -13.333 -32.333 -23.666 -51 -30.999s-38.334 -11 -59.001 -11c-22 0 -42.833 4.16699 -62.5 12.5s-37.5 19.833 -53.5 34.5l-33 -33c-3.33301 -3.33301 -7.33301 -5 -12 -5s-8.66699 1.66699 -12 5s-5 7.33301 -5 12s1.66699 8.66699 5 12l34 34
c-12 15.333 -21.333 32.333 -28 51s-10 38.334 -10 59.001c0 20 3.33301 39.333 10 58s15.667 35.667 27 51l-26 27c-3.33301 3.33301 -5 7.66602 -5 12.999s1.83301 9.5 5.5 12.5s7.83398 4.5 12.501 4.5s8.66699 -1.66699 12 -5l25 -26c15.333 14 33 25 53 33s41 12 63 12
zM386 471.998c0 18 -3.66602 35.5 -10.999 52.5s-17.333 32.167 -30 45.5s-27.5 24 -44.5 32s-35.167 12 -54.5 12s-37.5 -4 -54.5 -12s-31.833 -18.667 -44.5 -32s-22.5 -28.5 -29.5 -45.5s-10.5 -34.5 -10.5 -52.5c0 -18.667 3.66699 -36.667 11 -54
s17.166 -32.666 29.499 -45.999s27 -24 44 -32s35.167 -12 54.5 -12s37.5 4 54.5 12s31.833 18.667 44.5 32s22.667 28.666 30 45.999s11 35.333 11 54z" />
    <glyph glyph-name="yen" unicode="&#xa5;" horiz-adv-x="479" 
d="M253 310v-78.001h131c4.66699 0 8.83398 -1.66699 12.501 -5s5.5 -7.66602 5.5 -12.999s-1.83301 -9.5 -5.5 -12.5s-7.83398 -4.5 -12.501 -4.5h-131v-180c0 -4.66699 -1.5 -8.66699 -4.5 -12s-7.16699 -5 -12.5 -5s-9.66602 1.66699 -12.999 5s-5 7.33301 -5 12v180
h-124c-11.333 0 -17 5.66699 -17 17c0 5.33301 1.5 9.66602 4.5 12.999s7.16699 5 12.5 5h124v78h-124c-11.333 0 -17 5.66699 -17 17c0 5.33301 1.5 9.66602 4.5 12.999s7.16699 5 12.5 5h115l-180 362c-1.33301 2.66699 -2 5 -2 7c0 4 1.66699 7.83301 5 11.5
s7.66602 5.5 12.999 5.5c7.33301 0 13 -3.33301 17 -10l174 -346l184 346c4 6.66699 9.66699 10 17 10c10.667 0 16 -5.66699 16 -17c0 -3.33301 -0.333008 -5.66602 -1 -6.99902l-190 -362h122c4.66699 0 8.83398 -1.66699 12.501 -5s5.5 -7.66602 5.5 -12.999
s-1.83301 -9.5 -5.5 -12.5s-7.83398 -4.5 -12.501 -4.5h-131z" />
    <glyph glyph-name="brokenbar" unicode="&#xa6;" horiz-adv-x="186" 
d="M93 -21c-5.33301 0 -9.66602 1.66699 -12.999 5s-5 7.33301 -5 12v282c0 4.66699 1.66699 8.66699 5 12s7.66602 5 12.999 5c4.66699 0 8.83398 -1.66699 12.501 -5s5.5 -7.33301 5.5 -12v-282c0 -4.66699 -1.83301 -8.66699 -5.5 -12s-7.83398 -5 -12.501 -5zM93 452
c-5.33301 0 -9.66602 1.66699 -12.999 5s-5 7.33301 -5 12v282c0 4.66699 1.66699 8.66699 5 12s7.66602 5 12.999 5c4.66699 0 8.83398 -1.66699 12.501 -5s5.5 -7.33301 5.5 -12v-282c0 -4.66699 -1.83301 -8.66699 -5.5 -12s-7.83398 -5 -12.501 -5z" />
    <glyph glyph-name="section" unicode="&#xa7;" horiz-adv-x="461" 
d="M367 113c0 31.333 -7.33398 55.165 -22.001 71.498s-33 29.333 -55 39s-45.833 18 -71.5 25s-49.5 16.5 -71.5 28.5s-40.333 28.5 -55 49.5s-22 50.5 -22 88.5v132c0 37.333 5.33301 67.833 16 91.5s24 42.334 40 56.001s33.5 23.167 52.5 28.5s37.167 8 54.5 8
c50 0 87.833 -14.5 113.5 -43.5s38.5 -67.167 38.5 -114.5c0 -8.66699 -2 -14.5 -6 -17.5s-8.33301 -4.5 -13 -4.5c-5.33301 0 -9.83301 1.66699 -13.5 5s-5.5 10 -5.5 20c0 10.667 -1.5 22.834 -4.5 36.501s-8.66699 26.667 -17 39s-19.833 22.666 -34.5 30.999
s-33.334 12.5 -56.001 12.5c-14.667 0 -29.667 -2.33301 -45 -7s-29.166 -12.667 -41.499 -24s-22.5 -26.5 -30.5 -45.5s-12 -42.833 -12 -71.5c0 -31.333 7.33301 -55.166 22 -71.499s33 -29.333 55 -39s45.833 -18.167 71.5 -25.5s49.5 -17 71.5 -29
s40.333 -28.5 55 -49.5s22 -50.167 22 -87.5v-130c0 -31.333 -4.5 -58.5 -13.5 -81.5s-21.167 -41.833 -36.5 -56.5s-33.666 -25.5 -54.999 -32.5s-44 -10.5 -68 -10.5c-26.667 0 -51 4.33301 -73 13s-40.667 20.334 -56 35.001s-27.333 32 -36 52s-13 41.667 -13 65
c0 7.33301 1.83301 12.5 5.5 15.5s8.16699 4.5 13.5 4.5c6 0 10.333 -1.83301 13 -5.5s4 -7.83398 4 -12.501c0 -11.333 1.83301 -24.5 5.5 -39.5s10.5 -29.167 20.5 -42.5s23.833 -24.833 41.5 -34.5s40.5 -14.5 68.5 -14.5c45.333 0 80.5 12.167 105.5 36.5
s37.5 59.833 37.5 106.5zM366.999 242.999c0 26 -4.66699 47.333 -14 64s-21.666 30.167 -36.999 40.5s-32.5 18.666 -51.5 24.999l-57.5 19c-19.333 6.33301 -37.833 13.833 -55.5 22.5s-32.834 20.334 -45.501 35.001v-32c0 -26.667 4.66699 -48.167 14 -64.5
s21.666 -29.666 36.999 -39.999s32.5 -18.833 51.5 -25.5l57.5 -19.5c19.333 -6.33301 37.833 -13.833 55.5 -22.5s32.834 -20.334 45.501 -35.001v33z" />
    <glyph glyph-name="dieresis" unicode="&#xa8;" horiz-adv-x="170" 
d="M30 659c8.66699 0 15.667 -2.66699 21 -8s8 -12.333 8 -21s-2.66699 -15.834 -8 -21.501s-12.333 -8.5 -21 -8.5c-9.33301 0 -16.666 2.83301 -21.999 8.5s-8 12.834 -8 21.501s2.66699 15.667 8 21s12.666 8 21.999 8zM141 659c8.66699 0 15.667 -2.66699 21 -8
s8 -12.333 8 -21s-2.66699 -15.834 -8 -21.501s-12.333 -8.5 -21 -8.5c-9.33301 0 -16.666 2.83301 -21.999 8.5s-8 12.834 -8 21.501s2.66699 15.667 8 21s12.666 8 21.999 8z" />
    <glyph glyph-name="copyright" unicode="&#xa9;" horiz-adv-x="728" 
d="M57 358c0 56 9.66699 104.5 29 145.5s44 75 74 102s63.333 47 100 60s72.334 19.5 107.001 19.5c35.333 0 71 -6.66699 107 -20s68.667 -33.333 98 -60s53.166 -60.334 71.499 -101.001s27.5 -88 27.5 -142c0 -56 -9.66699 -104.5 -29 -145.5s-44 -75 -74 -102
s-63.333 -47 -100 -60s-72.334 -19.5 -107.001 -19.5c-35.333 0 -71 6.66699 -107 20s-68.667 33.333 -98 60s-53.166 60.334 -71.499 101.001s-27.5 88 -27.5 142zM636 362c0 42 -6.5 80.5 -19.5 115.5s-31.167 65.333 -54.5 91s-51.666 45.667 -84.999 60
s-70 21.5 -110 21.5s-76.667 -7.16699 -110 -21.5s-62.333 -34.333 -87 -60s-43.834 -56.334 -57.501 -92.001s-20.5 -75.167 -20.5 -118.5c0 -42 6.5 -80.5 19.5 -115.5s31.167 -65.333 54.5 -91s51.666 -45.667 84.999 -60s70 -21.5 110 -21.5s76.667 7.16699 110 21.5
s62.333 34.333 87 60s43.834 56.334 57.501 92.001s20.5 75.167 20.5 118.5zM427 467c0 6 -0.835938 12.6631 -2.50293 19.9961s-4.66699 14.333 -9 21s-10.5 12.334 -18.5 17.001s-18.333 7 -31 7c-20 0 -35.5 -6.66699 -46.5 -20s-16.5 -34 -16.5 -62v-167
c0 -54.667 21.333 -82 64 -82c12.667 0 22.834 2.33301 30.501 7s13.5 10.334 17.5 17.001s6.83301 13.834 8.5 21.501s2.83398 14.834 3.50098 21.501c1.33301 9.33301 7.33301 14 18 14c6.66699 0 11.334 -1.5 14.001 -4.5s4 -8.83301 4 -17.5
c0 -25.333 -8.66699 -47 -26 -65s-41.666 -27 -72.999 -27c-26.667 0 -49.5 8.66699 -68.5 26s-28.5 47 -28.5 89v167c0 42 9.66699 71.833 29 89.5s42.333 26.5 69 26.5c31.333 0 55.5 -9 72.5 -27s25.5 -39.333 25.5 -64c0 -9.33301 -1.33301 -15.333 -4 -18
s-7.33398 -4 -14.001 -4c-12 0 -18 4.66699 -18 14z" />
    <glyph glyph-name="ordfeminine" unicode="&#xaa;" horiz-adv-x="306" 
d="M142 731c20 0 36.9951 -3.33105 50.9951 -9.99805s25.333 -15.5 34 -26.5s15 -23.833 19 -38.5s6 -29.667 6 -45v-162c0 -4 -1.66699 -7.5 -5 -10.5s-7.66602 -4.5 -12.999 -4.5c-4.66699 0 -8.66699 1.5 -12 4.5s-5 6.5 -5 10.5v28
c-10 -11.333 -22.167 -21.5 -36.5 -30.5s-31.166 -14.167 -50.499 -15.5h-12.5c-4.33301 0 -8.5 0.333008 -12.5 1c-19.333 3.33301 -35.166 11.333 -47.499 24s-18.5 31.334 -18.5 56.001c0 33.333 13.333 55.666 40 66.999s61.667 17 105 17h32v15
c0 10.667 -1.33301 21.167 -4 31.5s-7 19.666 -13 27.999s-13.833 15.166 -23.5 20.499s-21.167 8 -34.5 8c-20.667 0 -35.667 -3 -45 -9s-16.333 -9 -21 -9c-5.33301 0 -9.16602 2.16699 -11.499 6.5s-3.5 8.5 -3.5 12.5s2.5 7.83301 7.5 11.5s11.333 7 19 10
s16.334 5.33301 26.001 7s19.5 2.5 29.5 2.5zM215.995 569.002l-31.001 0.000976562c-14 0 -27.667 -0.5 -41 -1.5s-25.166 -3.5 -35.499 -7.5s-18.5 -9.66699 -24.5 -17s-9 -17 -9 -29c0 -18.667 5.5 -32.167 16.5 -40.5s24.167 -12.5 39.5 -12.5
c10.667 0 21 2.16699 31 6.5s19 9.66602 27 15.999s14.5 13.333 19.5 21s7.5 15.167 7.5 22.5v42z" />
    <glyph glyph-name="guillemotleft" unicode="&#xab;" horiz-adv-x="361" 
d="M45 260c-3.33301 5.33301 -5 11 -5 17s1.66699 11.667 5 17l96 178c2.66699 6 8.33398 9 17.001 9c4.66699 0 8.5 -1.66699 11.5 -5s4.5 -7.33301 4.5 -12c0 -3.33301 -1 -6.33301 -3 -9l-96 -178l96 -177c2 -3.33301 3 -6.33301 3 -9
c0 -5.33301 -1.83301 -9.5 -5.5 -12.5s-7.83398 -4.5 -12.501 -4.5c-6.66699 0 -11.667 3 -15 9zM191 260c-3.33301 5.33301 -5 11 -5 17s1.66699 11.667 5 17l96 178c2.66699 6 8.33398 9 17.001 9c4.66699 0 8.5 -1.66699 11.5 -5s4.5 -7.33301 4.5 -12
c0 -3.33301 -1 -6.33301 -3 -9l-96 -178l96 -177c2 -3.33301 3 -6.33301 3 -9c0 -5.33301 -1.83301 -9.5 -5.5 -12.5s-7.83398 -4.5 -12.501 -4.5c-6.66699 0 -11.667 3 -15 9z" />
    <glyph glyph-name="logicalnot" unicode="&#xac;" horiz-adv-x="479" 
d="M389 63c-5.33301 0 -9.66797 1.5 -13.001 4.5s-5 7.16699 -5 12.5v143h-293c-11.333 0 -17 5.66699 -17 17c0 5.33301 1.5 9.66602 4.5 12.999s7.16699 5 12.5 5h310c4.66699 0 8.83398 -1.66699 12.501 -5s5.5 -7.66602 5.5 -12.999v-160
c0 -11.333 -5.66699 -17 -17 -17z" />
    <glyph glyph-name="uni00AD" unicode="&#xad;" 
d="M50 240c0 5.33301 1.5 9.66602 4.5 12.999s7.16699 5 12.5 5h320c4.66699 0 8.83398 -1.66699 12.501 -5s5.5 -7.66602 5.5 -12.999s-1.83301 -9.5 -5.5 -12.5s-7.83398 -4.5 -12.501 -4.5h-320c-11.333 0 -17 5.66699 -17 17z" />
    <glyph glyph-name="registered" unicode="&#xae;" horiz-adv-x="728" 
d="M57 358c0 56 9.66699 104.5 29 145.5s44 75 74 102s63.333 47 100 60s72.334 19.5 107.001 19.5c35.333 0 71 -6.66699 107 -20s68.667 -33.333 98 -60s53.166 -60.334 71.499 -101.001s27.5 -88 27.5 -142c0 -56 -9.66699 -104.5 -29 -145.5s-44 -75 -74 -102
s-63.333 -47 -100 -60s-72.334 -19.5 -107.001 -19.5c-35.333 0 -71 6.66699 -107 20s-68.667 33.333 -98 60s-53.166 60.334 -71.499 101.001s-27.5 88 -27.5 142zM636 362c0 42 -6.5 80.5 -19.5 115.5s-31.167 65.333 -54.5 91s-51.666 45.667 -84.999 60
s-70 21.5 -110 21.5s-76.667 -7.16699 -110 -21.5s-62.333 -34.333 -87 -60s-43.834 -56.334 -57.501 -92.001s-20.5 -75.167 -20.5 -118.5c0 -42 6.5 -80.5 19.5 -115.5s31.167 -65.333 54.5 -91s51.666 -45.667 84.999 -60s70 -21.5 110 -21.5s76.667 7.16699 110 21.5
s62.333 34.333 87 60s43.834 56.334 57.501 92.001s20.5 75.167 20.5 118.5zM275 550c0 8 4.33496 12.667 13.002 14h84c14 0 27 -1.83301 39 -5.5s22.667 -9.66699 32 -18s16.666 -19.333 21.999 -33s8 -30.5 8 -50.5c0 -34 -6.66699 -58.833 -20 -74.5
s-30 -25.5 -50 -29.5l69 -159c1.33301 -4 2 -6.33301 2 -7c0 -5.33301 -2.16699 -9.83301 -6.5 -13.5s-9.16602 -5.5 -14.499 -5.5c-4 0 -7.33301 2 -10 6s-5 8.33301 -7 13l-73 162h-52v-166c0 -4.66699 -1.83301 -8.16699 -5.5 -10.5s-7.83398 -3.5 -12.501 -3.5
s-8.83398 1.16699 -12.501 3.5s-5.5 5.83301 -5.5 10.5v367zM311.002 530v-149.998h61c19.333 0 35 5.66699 47 17s18 30.666 18 57.999s-6 46.666 -18 57.999s-27.667 17 -47 17h-61z" />
    <glyph glyph-name="macron" unicode="&#xaf;" horiz-adv-x="255" 
d="M0 664c0 5.33301 1.5 9.66602 4.5 12.999s7.16699 5 12.5 5h220c4.66699 0 8.83398 -1.66699 12.501 -5s5.5 -7.66602 5.5 -12.999s-1.83301 -9.5 -5.5 -12.5s-7.83398 -4.5 -12.501 -4.5h-220c-11.333 0 -17 5.66699 -17 17z" />
    <glyph glyph-name="degree" unicode="&#xb0;" horiz-adv-x="429" 
d="M214 768c24 0 46.667 -4.66992 68 -14.0029s40.166 -22.166 56.499 -38.499s29.333 -35.5 39 -57.5s14.5 -45.333 14.5 -70c0 -24 -4.83301 -46.833 -14.5 -68.5s-22.667 -41 -39 -58s-35.166 -30.5 -56.499 -40.5s-44 -15 -68 -15s-46.667 5 -68 15s-40 23.333 -56 40
s-28.833 36 -38.5 58s-14.5 45 -14.5 69s4.66699 46.833 14 68.5s22 40.834 38 57.501s34.833 29.834 56.5 39.501s44.5 14.5 68.5 14.5zM354 587.997c0 18 -3.66602 35.5 -10.999 52.5s-17.333 32.167 -30 45.5s-27.5 24 -44.5 32s-35.167 12 -54.5 12s-37.5 -4 -54.5 -12
s-31.833 -18.667 -44.5 -32s-22.5 -28.5 -29.5 -45.5s-10.5 -34.5 -10.5 -52.5c0 -18.667 3.66699 -36.667 11 -54s17.166 -32.666 29.499 -45.999s27 -24 44 -32s35.167 -12 54.5 -12s37.5 4 54.5 12s31.833 18.667 44.5 32s22.667 28.666 30 45.999s11 35.333 11 54z" />
    <glyph glyph-name="plusminus" unicode="&#xb1;" horiz-adv-x="477" 
d="M239 168c-5.33301 0 -9.66602 1.5 -12.999 4.5s-5 7.16699 -5 12.5v143h-143c-11.333 0 -17 5.66699 -17 17c0 5.33301 1.5 9.66602 4.5 12.999s7.16699 5 12.5 5h143v142c0 4.66699 1.66699 8.83398 5 12.501s7.66602 5.5 12.999 5.5s9.5 -1.83301 12.5 -5.5
s4.5 -7.83398 4.5 -12.501v-142h142c4.66699 0 8.83398 -1.66699 12.501 -5s5.5 -7.66602 5.5 -12.999s-1.83301 -9.5 -5.5 -12.5s-7.83398 -4.5 -12.501 -4.5h-142v-143c0 -11.333 -5.66699 -17 -17 -17zM61 85c0 5.33301 1.5 9.66602 4.5 12.999s7.16699 5 12.5 5h320
c4.66699 0 8.83398 -1.66699 12.501 -5s5.5 -7.66602 5.5 -12.999s-1.83301 -9.5 -5.5 -12.5s-7.83398 -4.5 -12.501 -4.5h-320c-11.333 0 -17 5.66699 -17 17z" />
    <glyph glyph-name="twosuperior" unicode="&#xb2;" horiz-adv-x="299" 
d="M46 647c0 24.667 9.83301 44.833 29.5 60.5s44.5 23.5 74.5 23.5c32.667 0 59.167 -9.33301 79.5 -28s30.5 -41.667 30.5 -69c0 -18 -4.66699 -34 -14 -48s-21 -26.833 -35 -38.5s-29.167 -22.5 -45.5 -32.5l-45.5 -29c-14 -9.33301 -25.667 -18.833 -35 -28.5
s-14 -20.167 -14 -31.5v-30h181c3.33301 0 6.33301 -1.5 9 -4.5s4 -6.5 4 -10.5s-1.33301 -7.66699 -4 -11s-5.66699 -5 -9 -5h-199c-3.33301 0 -6.83301 1.16699 -10.5 3.5s-5.5 5.5 -5.5 9.5v48c0 14 4.66699 26.667 14 38s21 22.333 35 33s29.333 21 46 31
s32 20.333 46 31s25.667 22 35 34s14 25.333 14 40c0 16 -6.33301 31 -19 45s-32.334 21 -59.001 21c-20 0 -36.5 -4.83301 -49.5 -14.5s-19.5 -24.5 -19.5 -44.5c0 -3.33301 -1.66699 -6.33301 -5 -9s-7.66602 -4 -12.999 -4c-10.667 0 -16 6.66699 -16 20z" />
    <glyph glyph-name="threesuperior" unicode="&#xb3;" horiz-adv-x="306" 
d="M148 393c26.667 0 47.1699 6.00195 61.5029 18.002s21.5 31 21.5 57v9c0 23.333 -7.33301 40.166 -22 50.499s-34.667 15.5 -60 15.5c-5.33301 0 -9 1.5 -11 4.5s-3 6.16699 -3 9.5c0 4 1 7.5 3 10.5s5.66699 4.5 11 4.5c23.333 0 41 4.5 53 13.5s18 25.833 18 50.5
c0 21.333 -5.5 37.333 -16.5 48s-28.5 16 -52.5 16c-15.333 0 -27.833 -1.83301 -37.5 -5.5s-17.167 -8.16699 -22.5 -13.5s-9 -11 -11 -17s-3 -11.667 -3 -17c0 -10.667 -5.33301 -16 -16 -16c-6.66699 0 -11.167 1.33301 -13.5 4s-3.5 7.66699 -3.5 15
c0 6.66699 1.5 14.667 4.5 24s8.5 18.166 16.5 26.499s19 15.5 33 21.5s32 9 54 9c30 0 54.333 -6.66699 73 -20s28 -36 28 -68c0 -23.333 -4.33301 -42 -13 -56s-19.667 -23.667 -33 -29c16.667 -6 30.334 -15.5 41.001 -28.5s16 -30.5 16 -52.5v-9
c0 -19.333 -3 -35.666 -9 -48.999s-14.167 -24.333 -24.5 -33s-22.5 -14.834 -36.5 -18.501s-29 -5.5 -45 -5.5c-19.333 0 -36.333 2.5 -51 7.5s-26.667 11.5 -36 19.5s-16.333 17 -21 27s-7 19.667 -7 29c0 7.33301 1.16699 12 3.5 14s6.16602 3 11.499 3
c7.33301 0 12.166 -1.33301 14.499 -4s3.5 -6 3.5 -10c0 -5.33301 1.16699 -11.166 3.5 -17.499s6.66602 -12.333 12.999 -18s14.666 -10.334 24.999 -14.001s23.5 -5.5 39.5 -5.5z" />
    <glyph glyph-name="acute" unicode="&#xb4;" horiz-adv-x="133" 
d="M28 604c-3.33301 -2 -6.33301 -2.99805 -9 -2.99805c-5.33301 0 -9.83301 1.66699 -13.5 5s-5.5 7.66602 -5.5 12.999c0 6 2.66699 10.333 8 13l102 60c2.66699 1.33301 5 2 7 2c5.33301 0 9.33301 -1.83301 12 -5.5s4 -7.83398 4 -12.501c0 -8 -3.33301 -14 -10 -18z
" />
    <glyph glyph-name="mu" unicode="&#xb5;" horiz-adv-x="477" 
d="M112 150c0 -11.333 4.00195 -23.832 12.002 -37.499s18.667 -26.834 32 -39.501s28.666 -23.167 45.999 -31.5s35.333 -12.5 54 -12.5c18 0 35.167 4.16699 51.5 12.5s30.666 19.166 42.999 32.499s22.166 28.833 29.499 46.5s11 35.5 11 53.5v280
c0 6 1.83301 10.5 5.5 13.5s7.5 4.5 11.5 4.5c4.66699 0 8.83398 -1.5 12.501 -4.5s5.5 -7.5 5.5 -13.5v-280c0 -24.667 -4.33301 -48 -13 -70s-20.667 -41.167 -36 -57.5s-33.5 -29.166 -54.5 -38.499s-43.833 -14 -68.5 -14c-34 0 -63.333 7.83301 -88 23.5
s-42.667 33.167 -54 52.5v-290c0 -5.33301 -1.66699 -9.5 -5 -12.5s-7.66602 -4.5 -12.999 -4.5c-11.333 0 -17 5.66699 -17 17v674c0 4.66699 1.5 8.83398 4.5 12.501s7.16699 5.5 12.5 5.5s9.66602 -1.83301 12.999 -5.5s5 -7.83398 5 -12.501v-304z" />
    <glyph glyph-name="paragraph" unicode="&#xb6;" horiz-adv-x="512" 
d="M411 731c4.66699 0 8.83691 -1.49609 12.5039 -4.49609s5.5 -7.5 5.5 -13.5v-696c0 -6 -1.83301 -10.333 -5.5 -13s-7.83398 -4 -12.501 -4s-8.83398 1.33301 -12.501 4s-5.5 7 -5.5 13v678h-75v-677c0 -6 -1.83301 -10.5 -5.5 -13.5s-7.83398 -4.5 -12.501 -4.5
s-8.83398 1.5 -12.501 4.5s-5.5 7.5 -5.5 13.5v288h-48c-27.333 0 -53 3.66699 -77 11s-44.833 19.333 -62.5 36s-31.5 38.167 -41.5 64.5s-15 58.166 -15 95.499v12c0 37.333 5 69.166 15 95.499s23.833 47.666 41.5 63.999s38.5 28.166 62.5 35.499s49.667 11 77 11h177z
" />
    <glyph glyph-name="periodcentered" unicode="&#xb7;" horiz-adv-x="176" 
d="M89 336c9.33301 0 17.5 -3.5 24.5 -10.5s10.5 -15.5 10.5 -25.5c0 -9.33301 -3.5 -17.666 -10.5 -24.999s-15.167 -11 -24.5 -11c-10.667 0 -19.334 3.66699 -26.001 11s-10 15.666 -10 24.999c0 10 3.33301 18.5 10 25.5s15.334 10.5 26.001 10.5z" />
    <glyph glyph-name="cedilla" unicode="&#xb8;" horiz-adv-x="156" 
d="M62 -65c34 -1.33301 58.168 -8.99805 72.501 -22.998s21.5 -29.667 21.5 -47c0 -18.667 -7.16699 -35.334 -21.5 -50.001s-34.5 -22 -60.5 -22c-6 0 -13.167 0.5 -21.5 1.5s-16.333 2.5 -24 4.5s-14.334 4.5 -20.001 7.5s-8.5 6.5 -8.5 10.5
c0 3.33301 1.16699 7.16602 3.5 11.499s5.16602 6.5 8.49902 6.5s9.33301 -2.16699 18 -6.5s21.334 -6.5 38.001 -6.5c21.333 0 35.833 4.16699 43.5 12.5s11.5 17.833 11.5 28.5c0 15.333 -6.33301 26.333 -19 33s-29.667 10.667 -51 12l-29 2l24 99h32z" />
    <glyph glyph-name="onesuperior" unicode="&#xb9;" horiz-adv-x="158" 
d="M70 674l-23 -32c-2.66699 -4 -6 -6 -10 -6s-7.33301 1.5 -10 4.5s-4 6.16699 -4 9.5c0 2.66699 0.833008 5.5 2.5 8.5s3.16699 5.16699 4.5 6.5l45 59c3.33301 4.66699 8 7 14 7c3.33301 0 6.5 -1.16699 9.5 -3.5s4.5 -5.5 4.5 -9.5v-340c0 -4.66699 -1.66699 -8 -5 -10
s-7 -3 -11 -3c-4.66699 0 -8.66699 1 -12 3s-5 5.33301 -5 10v296z" />
    <glyph glyph-name="ordmasculine" unicode="&#xba;" horiz-adv-x="320" 
d="M160 731c15.333 0 30 -2.99805 44 -8.99805s26.333 -14.333 37 -25s19.167 -22.834 25.5 -36.501s9.5 -28.5 9.5 -44.5v-70c0 -15.333 -3.16699 -30 -9.5 -44s-14.833 -26.333 -25.5 -37s-23 -19.167 -37 -25.5s-28.667 -9.5 -44 -9.5s-30 3.16699 -44 9.5
s-26.333 14.833 -37 25.5s-19.167 23 -25.5 37s-9.5 28.667 -9.5 44v70c0 15.333 3 30 9 44s14.333 26.167 25 36.5s23 18.666 37 24.999s29 9.5 45 9.5zM240 616.002c0 20.667 -7.66699 39.334 -23 56.001s-34.333 25 -57 25s-41.667 -8.33301 -57 -25
s-23 -35.334 -23 -56.001v-70c0 -10.667 2 -21 6 -31s9.66699 -18.833 17 -26.5s15.833 -13.834 25.5 -18.501s20.167 -7 31.5 -7c10.667 0 21 2.33301 31 7s18.5 10.834 25.5 18.501s12.667 16.5 17 26.5s6.5 20.333 6.5 31v70z" />
    <glyph glyph-name="guillemotright" unicode="&#xbb;" horiz-adv-x="361" 
d="M220 83c-3.33301 -6 -8.33203 -9 -14.999 -9c-4.66699 0 -8.83398 1.5 -12.501 4.5s-5.5 7.16699 -5.5 12.5c0 2.66699 1 5.66699 3 9l96 177l-96 178c-2 2.66699 -3 5.66699 -3 9c0 4.66699 1.5 8.66699 4.5 12s6.83301 5 11.5 5c8 0 13.667 -3 17 -9l96 -178
c3.33301 -5.33301 5 -11 5 -17s-1.66699 -11.667 -5 -17zM74.001 83c-3.33301 -6 -8.33203 -9 -14.999 -9c-4.66699 0 -8.83398 1.5 -12.501 4.5s-5.5 7.16699 -5.5 12.5c0 2.66699 1 5.66699 3 9l96 177l-96 178c-2 2.66699 -3 5.66699 -3 9c0 4.66699 1.5 8.66699 4.5 12
s6.83301 5 11.5 5c8 0 13.667 -3 17 -9l96 -178c3.33301 -5.33301 5 -11 5 -17s-1.66699 -11.667 -5 -17z" />
    <glyph glyph-name="onequarter" unicode="&#xbc;" horiz-adv-x="579" 
d="M82 674l-23 -32c-2.66699 -4 -6 -6 -10 -6s-7.33301 1.5 -10 4.5s-4 6.16699 -4 9.5c0 2.66699 0.833008 5.5 2.5 8.5s3.16699 5.16699 4.5 6.5l45 59c3.33301 4.66699 8 7 14 7c3.33301 0 6.5 -1.16699 9.5 -3.5s4.5 -5.5 4.5 -9.5v-340c0 -4.66699 -1.66699 -8 -5 -10
s-7 -3 -11 -3c-4.66699 0 -8.66699 1 -12 3s-5 5.33301 -5 10v296zM102 -9c-4 -7.33301 -9.66699 -11.001 -17 -11.001c-4 0 -7.66699 1.33301 -11 4s-5 6.33398 -5 11.001c0 4 0.666992 7 2 9l391 756c2.66699 5.33301 7 8 13 8c4 0 8 -1.83301 12 -5.5s6 -8.16699 6 -13.5
c0 -3.33301 -1 -7 -3 -11zM473 85.999h-144c-8.66699 0 -13 4.66699 -13 14c0 1.33301 0.666992 4 2 8l141 247c4 7.33301 9.33301 11 16 11c4 0 7.83301 -1.33301 11.5 -4s5.5 -6 5.5 -10c0 -2 -0.666992 -4.33301 -2 -7l-131 -227h114v96c0 4 1.66699 7 5 9s7 3 11 3
c4.66699 0 8.66699 -1 12 -3s5 -5 5 -9v-96h31c4.66699 0 8.16699 -1.66699 10.5 -5s3.5 -7 3.5 -11s-1.33301 -7.66699 -4 -11s-6 -5 -10 -5h-31v-73c0 -4.66699 -1.66699 -8 -5 -10s-7.33301 -3 -12 -3c-4 0 -7.66699 1 -11 3s-5 5.33301 -5 10v73z" />
    <glyph glyph-name="onehalf" unicode="&#xbd;" horiz-adv-x="608" 
d="M86 674l-23 -32c-2.66699 -4 -6 -6 -10 -6s-7.33301 1.5 -10 4.5s-4 6.16699 -4 9.5c0 2.66699 0.833008 5.5 2.5 8.5s3.16699 5.16699 4.5 6.5l45 59c3.33301 4.66699 8 7 14 7c3.33301 0 6.5 -1.16699 9.5 -3.5s4.5 -5.5 4.5 -9.5v-340c0 -4.66699 -1.66699 -8 -5 -10
s-7 -3 -11 -3c-4.66699 0 -8.66699 1 -12 3s-5 5.33301 -5 10v296zM352 282c0 24.667 9.83301 44.833 29.5 60.5s44.5 23.5 74.5 23.5c32.667 0 59.167 -9.33301 79.5 -28s30.5 -41.667 30.5 -69c0 -18 -4.66699 -34 -14 -48s-21 -26.833 -35 -38.5
s-29.167 -22.5 -45.5 -32.5l-45.5 -29c-14 -9.33301 -25.667 -18.833 -35 -28.5s-14 -20.167 -14 -31.5v-30h181c3.33301 0 6.33301 -1.5 9 -4.5s4 -6.5 4 -10.5s-1.33301 -7.66699 -4 -11s-5.66699 -5 -9 -5h-199c-3.33301 0 -6.83301 1.16699 -10.5 3.5s-5.5 5.5 -5.5 9.5
v48c0 14 4.66699 26.667 14 38s21 22.333 35 33s29.333 21 46 31s32 20.333 46 31s25.667 22 35 34s14 25.333 14 40c0 16 -6.33301 31 -19 45s-32.334 21 -59.001 21c-20 0 -36.5 -4.83301 -49.5 -14.5s-19.5 -24.5 -19.5 -44.5c0 -3.33301 -1.66699 -6.33301 -5 -9
s-7.66602 -4 -12.999 -4c-10.667 0 -16 6.66699 -16 20zM90 -9.00098c-4 -7.33301 -9.66699 -11.001 -17 -11.001c-4 0 -7.66699 1.33301 -11 4s-5 6.33398 -5 11.001c0 4 0.666992 7 2 9l391 756c2.66699 5.33301 7 8 13 8c4 0 8 -1.83301 12 -5.5s6 -8.16699 6 -13.5
c0 -3.33301 -1 -7 -3 -11z" />
    <glyph glyph-name="threequarters" unicode="&#xbe;" horiz-adv-x="707" 
d="M150 393c26.667 0 47.1699 6.00195 61.5029 18.002s21.5 31 21.5 57v9c0 23.333 -7.33301 40.166 -22 50.499s-34.667 15.5 -60 15.5c-5.33301 0 -9 1.5 -11 4.5s-3 6.16699 -3 9.5c0 4 1 7.5 3 10.5s5.66699 4.5 11 4.5c23.333 0 41 4.5 53 13.5s18 25.833 18 50.5
c0 21.333 -5.5 37.333 -16.5 48s-28.5 16 -52.5 16c-15.333 0 -27.833 -1.83301 -37.5 -5.5s-17.167 -8.16699 -22.5 -13.5s-9 -11 -11 -17s-3 -11.667 -3 -17c0 -10.667 -5.33301 -16 -16 -16c-6.66699 0 -11.167 1.33301 -13.5 4s-3.5 7.66699 -3.5 15
c0 6.66699 1.5 14.667 4.5 24s8.5 18.166 16.5 26.499s19 15.5 33 21.5s32 9 54 9c30 0 54.333 -6.66699 73 -20s28 -36 28 -68c0 -23.333 -4.33301 -42 -13 -56s-19.667 -23.667 -33 -29c16.667 -6 30.334 -15.5 41.001 -28.5s16 -30.5 16 -52.5v-9
c0 -19.333 -3 -35.666 -9 -48.999s-14.167 -24.333 -24.5 -33s-22.5 -14.834 -36.5 -18.501s-29 -5.5 -45 -5.5c-19.333 0 -36.333 2.5 -51 7.5s-26.667 11.5 -36 19.5s-16.333 17 -21 27s-7 19.667 -7 29c0 7.33301 1.16699 12 3.5 14s6.16602 3 11.499 3
c7.33301 0 12.166 -1.33301 14.499 -4s3.5 -6 3.5 -10c0 -5.33301 1.16699 -11.166 3.5 -17.499s6.66602 -12.333 12.999 -18s14.666 -10.334 24.999 -14.001s23.5 -5.5 39.5 -5.5zM602.003 86.002h-144c-8.66699 0 -13 4.66699 -13 14c0 1.33301 0.666992 4 2 8l141 247
c4 7.33301 9.33301 11 16 11c4 0 7.83301 -1.33301 11.5 -4s5.5 -6 5.5 -10c0 -2 -0.666992 -4.33301 -2 -7l-131 -227h114v96c0 4 1.66699 7 5 9s7 3 11 3c4.66699 0 8.66699 -1 12 -3s5 -5 5 -9v-96h31c4.66699 0 8.16699 -1.66699 10.5 -5s3.5 -7 3.5 -11
s-1.33301 -7.66699 -4 -11s-6 -5 -10 -5h-31v-73c0 -4.66699 -1.66699 -8 -5 -10s-7.33301 -3 -12 -3c-4 0 -7.66699 1 -11 3s-5 5.33301 -5 10v73zM225.003 -8.99805c-4 -7.33301 -9.66699 -11.001 -17 -11.001c-4 0 -7.66699 1.33301 -11 4s-5 6.33398 -5 11.001
c0 4 0.666992 7 2 9l391 756c2.66699 5.33301 7 8 13 8c4 0 8 -1.83301 12 -5.5s6 -8.16699 6 -13.5c0 -3.33301 -1 -7 -3 -11z" />
    <glyph glyph-name="questiondown" unicode="&#xbf;" horiz-adv-x="383" 
d="M38 176c0 34 5.50098 63.1689 16.501 87.502s24 45.666 39 63.999s30.5 34.5 46.5 48.5s29 27.667 39 41c12.667 16.667 20.334 37.334 23.001 62.001s4 57.667 4 99c0 6 1.83301 10.333 5.5 13s7.5 4 11.5 4s7.83301 -1.33301 11.5 -4s5.5 -7 5.5 -13
c0 -30 -0.666992 -55 -2 -75s-3.5 -36.667 -6.5 -50s-6.66699 -24.333 -11 -33s-9.5 -16.334 -15.5 -23.001c-11.333 -13.333 -24.5 -26.5 -39.5 -39.5s-29.333 -28 -43 -45s-25.334 -36.333 -35.001 -58s-14.5 -47.5 -14.5 -77.5c0 -46 12.5 -82.167 37.5 -108.5
s62.5 -39.5 112.5 -39.5c20.667 0 38 2 52 6s25.333 8.5 34 13.5s15.667 9.66699 21 14s10 6.5 14 6.5c3.33301 0 6.5 -1.5 9.5 -4.5s4.5 -7.16699 4.5 -12.5c0 -6 -3.83301 -12.5 -11.5 -19.5s-18 -13.333 -31 -19s-27.833 -10.334 -44.5 -14.001s-34 -5.5 -52 -5.5
c-31.333 0 -58.333 4.66699 -81 14s-41.334 22.333 -56.001 39s-25.667 36 -33 58s-11 45.667 -11 71zM223.001 676.002c-9.33301 0 -17.501 3.5 -24.501 10.5s-10.5 15.5 -10.5 25.5c0 9.33301 3.33301 17.666 10 24.999s15 11 25 11c10.667 0 19.334 -3.66699 26.001 -11
s10 -15.666 10 -24.999c0 -10 -3.5 -18.5 -10.5 -25.5s-15.5 -10.5 -25.5 -10.5z" />
    <glyph glyph-name="Agrave" unicode="&#xc0;" horiz-adv-x="521" 
d="M43 0c-4.66699 0 -8.83203 1.33105 -12.499 3.99805s-5.5 6.66699 -5.5 12c0 2.66699 0.333008 4.66699 1 6l217 701c2.66699 9.33301 8.66699 14 18 14s15.666 -4.66699 18.999 -14l215 -701c0 -1.33301 0.166992 -2.16602 0.5 -2.49902s0.5 -1.16602 0.5 -2.49902
c0 -4.66699 -2 -8.66699 -6 -12s-8.66699 -5 -14 -5c-8 -0 -13.333 4.33301 -16 13l-51 164h-298l-50 -164c-2.66699 -8.66699 -8.66699 -13 -18 -13zM398.002 212.998l-137 448l-139 -448h276zM204.002 916.998c-6.66699 4 -10 9.99805 -10 17.998
c0 4.66699 1.33301 8.83398 4 12.501s6.66699 5.5 12 5.5c2 0 4.33301 -0.666992 7 -2l102 -60c5.33301 -2.66699 8 -7 8 -13c0 -5.33301 -1.83301 -9.66602 -5.5 -12.999s-8.16699 -5 -13.5 -5c-3.33301 0 -6.33301 1 -9 3z" />
    <glyph glyph-name="Aacute" unicode="&#xc1;" horiz-adv-x="521" 
d="M43 0c-4.66699 0 -8.83203 1.33105 -12.499 3.99805s-5.5 6.66699 -5.5 12c0 2.66699 0.333008 4.66699 1 6l217 701c2.66699 9.33301 8.66699 14 18 14s15.666 -4.66699 18.999 -14l215 -701c0 -1.33301 0.166992 -2.16602 0.5 -2.49902s0.5 -1.16602 0.5 -2.49902
c0 -4.66699 -2 -8.66699 -6 -12s-8.66699 -5 -14 -5c-8 -0 -13.333 4.33301 -16 13l-51 164h-298l-50 -164c-2.66699 -8.66699 -8.66699 -13 -18 -13zM398.002 212.998l-137 448l-139 -448h276zM222.002 862.998c-3.33301 -2 -6.33301 -2.99805 -9 -2.99805
c-5.33301 0 -9.83301 1.66699 -13.5 5s-5.5 7.66602 -5.5 12.999c0 6 2.66699 10.333 8 13l102 60c2.66699 1.33301 5 2 7 2c5.33301 0 9.33301 -1.83301 12 -5.5s4 -7.83398 4 -12.501c0 -8 -3.33301 -14 -10 -18z" />
    <glyph glyph-name="Acircumflex" unicode="&#xc2;" horiz-adv-x="521" 
d="M43 0c-4.66699 0 -8.83203 1.33105 -12.499 3.99805s-5.5 6.66699 -5.5 12c0 2.66699 0.333008 4.66699 1 6l217 701c2.66699 9.33301 8.66699 14 18 14s15.666 -4.66699 18.999 -14l215 -701c0 -1.33301 0.166992 -2.16602 0.5 -2.49902s0.5 -1.16602 0.5 -2.49902
c0 -4.66699 -2 -8.66699 -6 -12s-8.66699 -5 -14 -5c-8 -0 -13.333 4.33301 -16 13l-51 164h-298l-50 -164c-2.66699 -8.66699 -8.66699 -13 -18 -13zM398.002 212.998l-137 448l-139 -448h276zM156.002 861.998l-4 -2.00098c-1.33301 -0.666992 -2.66602 -1 -3.99902 -1
c-4.66699 0 -8.83398 1.83301 -12.501 5.5s-5.5 8.16699 -5.5 13.5c0 6 3 10.667 9 14l104 56c5.33301 3.33301 11 5 17 5s11.667 -1.66699 17 -5l104 -55c6 -3.33301 9 -9 9 -17c0 -4.66699 -1.66699 -8.5 -5 -11.5s-7.33301 -4.5 -12 -4.5
c-1.33301 0 -2.83301 0.333008 -4.5 1s-3.16699 1.33398 -4.5 2.00098l-104 55z" />
    <glyph glyph-name="Atilde" unicode="&#xc3;" horiz-adv-x="521" 
d="M43 0c-4.66699 0 -8.83203 1.33105 -12.499 3.99805s-5.5 6.66699 -5.5 12c0 2.66699 0.333008 4.66699 1 6l217 701c2.66699 9.33301 8.66699 14 18 14s15.666 -4.66699 18.999 -14l215 -701c0 -1.33301 0.166992 -2.16602 0.5 -2.49902s0.5 -1.16602 0.5 -2.49902
c0 -4.66699 -2 -8.66699 -6 -12s-8.66699 -5 -14 -5c-8 -0 -13.333 4.33301 -16 13l-51 164h-298l-50 -164c-2.66699 -8.66699 -8.66699 -13 -18 -13zM398.002 212.998l-137 448l-139 -448h276zM329.002 911.998c11.333 0 20.3369 1.66797 27.0039 5.00098s12.167 7 16.5 11
s8 7.66699 11 11s6.5 5 10.5 5c3.33301 0 6.5 -1.33301 9.5 -4s4.5 -6.33398 4.5 -11.001c0 -8 -2.83301 -15 -8.5 -21s-12.834 -11.333 -21.501 -16s-17.834 -8.16699 -27.501 -10.5s-18.5 -3.5 -26.5 -3.5c-12 0 -22.833 2 -32.5 6l-29 12.5
c-9.66699 4.33301 -19.834 8.5 -30.501 12.5s-23 6 -37 6c-10.667 0 -19.667 -1.83301 -27 -5.5s-13.5 -7.66699 -18.5 -12s-9.33301 -8.33301 -13 -12s-7.16699 -5.5 -10.5 -5.5c-8.66699 0 -13 5.66699 -13 17c0 6.66699 3 13 9 19s13.333 11.5 22 16.5s18.167 9 28.5 12
s20.166 4.5 29.499 4.5c12 0 23 -2 33 -6s19.833 -8.16699 29.5 -12.5s19.667 -8.5 30 -12.5s21.833 -6 34.5 -6z" />
    <glyph glyph-name="Adieresis" unicode="&#xc4;" horiz-adv-x="521" 
d="M43 0c-4.66699 0 -8.83203 1.33105 -12.499 3.99805s-5.5 6.66699 -5.5 12c0 2.66699 0.333008 4.66699 1 6l217 701c2.66699 9.33301 8.66699 14 18 14s15.666 -4.66699 18.999 -14l215 -701c0 -1.33301 0.166992 -2.16602 0.5 -2.49902s0.5 -1.16602 0.5 -2.49902
c0 -4.66699 -2 -8.66699 -6 -12s-8.66699 -5 -14 -5c-8 -0 -13.333 4.33301 -16 13l-51 164h-298l-50 -164c-2.66699 -8.66699 -8.66699 -13 -18 -13zM398.002 212.998l-137 448l-139 -448h276zM205.002 917.998c8.66699 0 15.667 -2.66699 21 -8s8 -12.333 8 -21
s-2.66699 -15.834 -8 -21.501s-12.333 -8.5 -21 -8.5c-9.33301 0 -16.666 2.83301 -21.999 8.5s-8 12.834 -8 21.501s2.66699 15.667 8 21s12.666 8 21.999 8zM316.002 917.998c8.66699 0 15.667 -2.66699 21 -8s8 -12.333 8 -21s-2.66699 -15.834 -8 -21.501
s-12.333 -8.5 -21 -8.5c-9.33301 0 -16.666 2.83301 -21.999 8.5s-8 12.834 -8 21.501s2.66699 15.667 8 21s12.666 8 21.999 8z" />
    <glyph glyph-name="Aring" unicode="&#xc5;" horiz-adv-x="521" 
d="M43 0c-4.66699 0 -8.83203 1.33105 -12.499 3.99805s-5.5 6.66699 -5.5 12c0 2.66699 0.333008 4.66699 1 6l217 701c2.66699 9.33301 8.66699 14 18 14s15.666 -4.66699 18.999 -14l215 -701c0 -1.33301 0.166992 -2.16602 0.5 -2.49902s0.5 -1.16602 0.5 -2.49902
c0 -4.66699 -2 -8.66699 -6 -12s-8.66699 -5 -14 -5c-8 -0 -13.333 4.33301 -16 13l-51 164h-298l-50 -164c-2.66699 -8.66699 -8.66699 -13 -18 -13zM398.002 212.998l-137 448l-139 -448h276zM260.002 1027c12 0 23.333 -2.50098 34 -7.50098s20.167 -11.667 28.5 -20
s15 -18 20 -29s7.5 -22.5 7.5 -34.5s-2.5 -23.667 -7.5 -35s-11.667 -21.333 -20 -30s-17.833 -15.5 -28.5 -20.5s-22 -7.5 -34 -7.5c-12.667 0 -24.5 2.5 -35.5 7.5s-20.5 11.833 -28.5 20.5s-14.333 18.667 -19 30s-7 23 -7 35s2.33301 23.333 7 34s11 20.334 19 29.001
s17.5 15.5 28.5 20.5s22.833 7.5 35.5 7.5zM325.002 935.997c0 8 -1.66699 15.833 -5 23.5s-8 14.5 -14 20.5s-13 11 -21 15s-16.333 6 -25 6c-9.33301 0 -18 -2 -26 -6s-15 -9 -21 -15s-10.667 -12.833 -14 -20.5s-5 -15.5 -5 -23.5c0 -8.66699 1.66699 -17.167 5 -25.5
s8 -15.833 14 -22.5s13 -12 21 -16s16.667 -6 26 -6c8.66699 0 17 2 25 6s15 9.33301 21 16s10.667 14.167 14 22.5s5 16.833 5 25.5z" />
    <glyph glyph-name="AE" unicode="&#xc6;" horiz-adv-x="680" 
d="M398 384l160.002 0.00292969c5.33301 0 9.5 -1.83301 12.5 -5.5s4.5 -8.16699 4.5 -13.5c0 -4 -1.33301 -7.83301 -4 -11.5s-7 -5.5 -13 -5.5h-160v-312h237c5.33301 0 9.5 -1.83301 12.5 -5.5s4.5 -8.16699 4.5 -13.5c0 -4 -1.33301 -7.83301 -4 -11.5s-7 -5.5 -13 -5.5
h-255c-4.66699 0 -8.83398 1.5 -12.501 4.5s-5.5 7.5 -5.5 13.5v330h-247v-325c0 -6.66699 -1 -12.167 -3 -16.5s-7 -6.5 -15 -6.5c-6.66699 0 -11.334 2.16699 -14.001 6.5s-4 9.83301 -4 16.5v502c0 37.333 5 69.166 15 95.499s23.833 47.666 41.5 63.999
s38.5 28.166 62.5 35.499s49.667 11 77 11h360c6 0 10.333 -1.83301 13 -5.5s4 -7.5 4 -11.5c0 -5.33301 -1.5 -9.83301 -4.5 -13.5s-7.16699 -5.5 -12.5 -5.5h-237v-311zM115.002 384.003h247v311h-87c-50 0 -89.167 -13.667 -117.5 -41s-42.5 -70.333 -42.5 -129v-141z
" />
    <glyph glyph-name="Ccedilla" unicode="&#xc7;" horiz-adv-x="512" 
d="M112 200c0 -58.667 14.0039 -101.659 42.0039 -128.992s69.333 -41 124 -41c32.667 0 58.667 4.33301 78 13s34.333 19.667 45 33s17.834 27.5 21.501 42.5s6.5 29.167 8.5 42.5c0.666992 4.66699 2 8.83398 4 12.501s6.66699 5.5 14 5.5c6 0 10.5 -2 13.5 -6
s4.5 -11.667 4.5 -23c0 -17.333 -3.33301 -34.5 -10 -51.5s-16.834 -32.5 -30.501 -46.5s-30.334 -25.833 -50.001 -35.5s-42.5 -16.167 -68.5 -19.5l-15 -62c34 -1.33301 58.167 -9 72.5 -23s21.5 -29.667 21.5 -47c0 -18.667 -7.16699 -35.334 -21.5 -50.001
s-34.5 -22 -60.5 -22c-6 0 -13.167 0.5 -21.5 1.5s-16.333 2.5 -24 4.5s-14.334 4.5 -20.001 7.5s-8.5 6.5 -8.5 10.5c0 3.33301 1.16699 7.16602 3.5 11.499s5.16602 6.5 8.49902 6.5s9.33301 -2.16699 18 -6.5s21.334 -6.5 38.001 -6.5c21.333 0 35.833 4.16699 43.5 12.5
s11.5 17.833 11.5 28.5c0 15.333 -6.33301 26.333 -19 33s-29.667 10.667 -51 12l-29 2l21 84h-4c-26.667 0 -51.834 3.66699 -75.501 11s-44.5 19.166 -62.5 35.499s-32.167 37.666 -42.5 63.999s-15.5 58.166 -15.5 95.499v325c0 37.333 5.33301 69.166 16 95.499
s25 47.666 43 63.999s39 28.166 63 35.499s49.667 11 77 11c32 0 60 -4.5 84 -13.5s44 -20.833 60 -35.5s28 -31.5 36 -50.5s12 -38.167 12 -57.5c0 -11.333 -1.5 -18.833 -4.5 -22.5s-7.5 -5.5 -13.5 -5.5c-8.66699 0 -13.834 2.16699 -15.501 6.5
s-2.5 8.16602 -2.5 11.499c-0.666992 12 -3.16699 25.5 -7.5 40.5s-12.166 29.333 -23.499 43s-27 25 -47 34s-46.333 13.5 -79 13.5c-52.667 0 -92.834 -13.667 -120.501 -41s-41.5 -70.333 -41.5 -129v-325z" />
    <glyph glyph-name="Egrave" unicode="&#xc8;" horiz-adv-x="498" 
d="M119 384h160c5.33301 0 9.5 -1.83301 12.5 -5.5s4.5 -8.16699 4.5 -13.5c0 -4 -1.33301 -7.83301 -4 -11.5s-7 -5.5 -13 -5.5h-160v-312h338c5.33301 0 9.5 -1.83301 12.5 -5.5s4.5 -8.16699 4.5 -13.5c0 -4 -1.33301 -7.83301 -4 -11.5s-7 -5.5 -13 -5.5h-356
c-4.66699 0 -8.83398 1.5 -12.501 4.5s-5.5 7.5 -5.5 13.5v695c0 6 1.83301 10.5 5.5 13.5s7.83398 4.5 12.501 4.5h356c6 0 10.333 -1.83301 13 -5.5s4 -7.5 4 -11.5c0 -5.33301 -1.5 -9.83301 -4.5 -13.5s-7.16699 -5.5 -12.5 -5.5h-338v-311zM222 917
c-6.66699 4 -10 9.99805 -10 17.998c0 4.66699 1.33301 8.83398 4 12.501s6.66699 5.5 12 5.5c2 0 4.33301 -0.666992 7 -2l102 -60c5.33301 -2.66699 8 -7 8 -13c0 -5.33301 -1.83301 -9.66602 -5.5 -12.999s-8.16699 -5 -13.5 -5c-3.33301 0 -6.33301 1 -9 3z" />
    <glyph glyph-name="Eacute" unicode="&#xc9;" horiz-adv-x="498" 
d="M119 384h160c5.33301 0 9.5 -1.83301 12.5 -5.5s4.5 -8.16699 4.5 -13.5c0 -4 -1.33301 -7.83301 -4 -11.5s-7 -5.5 -13 -5.5h-160v-312h338c5.33301 0 9.5 -1.83301 12.5 -5.5s4.5 -8.16699 4.5 -13.5c0 -4 -1.33301 -7.83301 -4 -11.5s-7 -5.5 -13 -5.5h-356
c-4.66699 0 -8.83398 1.5 -12.501 4.5s-5.5 7.5 -5.5 13.5v695c0 6 1.83301 10.5 5.5 13.5s7.83398 4.5 12.501 4.5h356c6 0 10.333 -1.83301 13 -5.5s4 -7.5 4 -11.5c0 -5.33301 -1.5 -9.83301 -4.5 -13.5s-7.16699 -5.5 -12.5 -5.5h-338v-311zM240 863
c-3.33301 -2 -6.33301 -2.99805 -9 -2.99805c-5.33301 0 -9.83301 1.66699 -13.5 5s-5.5 7.66602 -5.5 12.999c0 6 2.66699 10.333 8 13l102 60c2.66699 1.33301 5 2 7 2c5.33301 0 9.33301 -1.83301 12 -5.5s4 -7.83398 4 -12.501c0 -8 -3.33301 -14 -10 -18z" />
    <glyph glyph-name="Ecircumflex" unicode="&#xca;" horiz-adv-x="498" 
d="M119 384h160c5.33301 0 9.5 -1.83301 12.5 -5.5s4.5 -8.16699 4.5 -13.5c0 -4 -1.33301 -7.83301 -4 -11.5s-7 -5.5 -13 -5.5h-160v-312h338c5.33301 0 9.5 -1.83301 12.5 -5.5s4.5 -8.16699 4.5 -13.5c0 -4 -1.33301 -7.83301 -4 -11.5s-7 -5.5 -13 -5.5h-356
c-4.66699 0 -8.83398 1.5 -12.501 4.5s-5.5 7.5 -5.5 13.5v695c0 6 1.83301 10.5 5.5 13.5s7.83398 4.5 12.501 4.5h356c6 0 10.333 -1.83301 13 -5.5s4 -7.5 4 -11.5c0 -5.33301 -1.5 -9.83301 -4.5 -13.5s-7.16699 -5.5 -12.5 -5.5h-338v-311zM174 862l-4 -2.00098
c-1.33301 -0.666992 -2.66602 -1 -3.99902 -1c-4.66699 0 -8.83398 1.83301 -12.501 5.5s-5.5 8.16699 -5.5 13.5c0 6 3 10.667 9 14l104 56c5.33301 3.33301 11 5 17 5s11.667 -1.66699 17 -5l104 -55c6 -3.33301 9 -9 9 -17c0 -4.66699 -1.66699 -8.5 -5 -11.5
s-7.33301 -4.5 -12 -4.5c-1.33301 0 -2.83301 0.333008 -4.5 1s-3.16699 1.33398 -4.5 2.00098l-104 55z" />
    <glyph glyph-name="Edieresis" unicode="&#xcb;" horiz-adv-x="498" 
d="M119 384h160c5.33301 0 9.5 -1.83301 12.5 -5.5s4.5 -8.16699 4.5 -13.5c0 -4 -1.33301 -7.83301 -4 -11.5s-7 -5.5 -13 -5.5h-160v-312h338c5.33301 0 9.5 -1.83301 12.5 -5.5s4.5 -8.16699 4.5 -13.5c0 -4 -1.33301 -7.83301 -4 -11.5s-7 -5.5 -13 -5.5h-356
c-4.66699 0 -8.83398 1.5 -12.501 4.5s-5.5 7.5 -5.5 13.5v695c0 6 1.83301 10.5 5.5 13.5s7.83398 4.5 12.501 4.5h356c6 0 10.333 -1.83301 13 -5.5s4 -7.5 4 -11.5c0 -5.33301 -1.5 -9.83301 -4.5 -13.5s-7.16699 -5.5 -12.5 -5.5h-338v-311zM223 918
c8.66699 0 15.667 -2.66699 21 -8s8 -12.333 8 -21s-2.66699 -15.834 -8 -21.501s-12.333 -8.5 -21 -8.5c-9.33301 0 -16.666 2.83301 -21.999 8.5s-8 12.834 -8 21.501s2.66699 15.667 8 21s12.666 8 21.999 8zM334 918c8.66699 0 15.667 -2.66699 21 -8s8 -12.333 8 -21
s-2.66699 -15.834 -8 -21.501s-12.333 -8.5 -21 -8.5c-9.33301 0 -16.666 2.83301 -21.999 8.5s-8 12.834 -8 21.501s2.66699 15.667 8 21s12.666 8 21.999 8z" />
    <glyph glyph-name="Igrave" unicode="&#xcc;" horiz-adv-x="202" 
d="M83 714c0 6 1.83301 10.333 5.5 13s7.83398 4 12.501 4s8.83398 -1.33301 12.501 -4s5.5 -7 5.5 -13v-696c0 -6 -1.83301 -10.5 -5.5 -13.5s-7.83398 -4.5 -12.501 -4.5s-8.83398 1.5 -12.501 4.5s-5.5 7.5 -5.5 13.5v696zM44 917c-6.66699 4 -10 9.99805 -10 17.998
c0 4.66699 1.33301 8.83398 4 12.501s6.66699 5.5 12 5.5c2 0 4.33301 -0.666992 7 -2l102 -60c5.33301 -2.66699 8 -7 8 -13c0 -5.33301 -1.83301 -9.66602 -5.5 -12.999s-8.16699 -5 -13.5 -5c-3.33301 0 -6.33301 1 -9 3z" />
    <glyph glyph-name="Iacute" unicode="&#xcd;" horiz-adv-x="202" 
d="M83 714c0 6 1.83301 10.333 5.5 13s7.83398 4 12.501 4s8.83398 -1.33301 12.501 -4s5.5 -7 5.5 -13v-696c0 -6 -1.83301 -10.5 -5.5 -13.5s-7.83398 -4.5 -12.501 -4.5s-8.83398 1.5 -12.501 4.5s-5.5 7.5 -5.5 13.5v696zM62 863
c-3.33301 -2 -6.33301 -2.99805 -9 -2.99805c-5.33301 0 -9.83301 1.66699 -13.5 5s-5.5 7.66602 -5.5 12.999c0 6 2.66699 10.333 8 13l102 60c2.66699 1.33301 5 2 7 2c5.33301 0 9.33301 -1.83301 12 -5.5s4 -7.83398 4 -12.501c0 -8 -3.33301 -14 -10 -18z" />
    <glyph glyph-name="Icircumflex" unicode="&#xce;" horiz-adv-x="202" 
d="M83 714c0 6 1.83301 10.333 5.5 13s7.83398 4 12.501 4s8.83398 -1.33301 12.501 -4s5.5 -7 5.5 -13v-696c0 -6 -1.83301 -10.5 -5.5 -13.5s-7.83398 -4.5 -12.501 -4.5s-8.83398 1.5 -12.501 4.5s-5.5 7.5 -5.5 13.5v696zM-3 862l-4 -2.00098
c-1.33301 -0.666992 -2.66602 -1 -3.99902 -1c-4.66699 0 -8.83398 1.83301 -12.501 5.5s-5.5 8.16699 -5.5 13.5c0 6 3 10.667 9 14l104 56c5.33301 3.33301 11 5 17 5s11.667 -1.66699 17 -5l104 -55c6 -3.33301 9 -9 9 -17c0 -4.66699 -1.66699 -8.5 -5 -11.5
s-7.33301 -4.5 -12 -4.5c-1.33301 0 -2.83301 0.333008 -4.5 1s-3.16699 1.33398 -4.5 2.00098l-104 55z" />
    <glyph glyph-name="Idieresis" unicode="&#xcf;" horiz-adv-x="202" 
d="M83 714c0 6 1.83301 10.333 5.5 13s7.83398 4 12.501 4s8.83398 -1.33301 12.501 -4s5.5 -7 5.5 -13v-696c0 -6 -1.83301 -10.5 -5.5 -13.5s-7.83398 -4.5 -12.501 -4.5s-8.83398 1.5 -12.501 4.5s-5.5 7.5 -5.5 13.5v696zM46 918c8.66699 0 15.667 -2.66699 21 -8
s8 -12.333 8 -21s-2.66699 -15.834 -8 -21.501s-12.333 -8.5 -21 -8.5c-9.33301 0 -16.666 2.83301 -21.999 8.5s-8 12.834 -8 21.501s2.66699 15.667 8 21s12.666 8 21.999 8zM157 918c8.66699 0 15.667 -2.66699 21 -8s8 -12.333 8 -21s-2.66699 -15.834 -8 -21.501
s-12.333 -8.5 -21 -8.5c-9.33301 0 -16.666 2.83301 -21.999 8.5s-8 12.834 -8 21.501s2.66699 15.667 8 21s12.666 8 21.999 8z" />
    <glyph glyph-name="Eth" unicode="&#xd0;" horiz-adv-x="560" 
d="M288 731c27.333 0 53 -3.67188 77 -11.0049s44.833 -19.166 62.5 -35.499s31.5 -37.666 41.5 -63.999s15 -58.166 15 -95.499v-319c0 -37.333 -5 -69.166 -15 -95.499s-23.833 -47.666 -41.5 -63.999s-38.5 -28.166 -62.5 -35.499s-49.667 -11 -77 -11h-177
c-5.33301 0 -9.66602 1.66699 -12.999 5s-5 7.33301 -5 12v350h-73c-11.333 0 -17 5.66699 -17 17c0 5.33301 1.5 9.66602 4.5 12.999s7.16699 5 12.5 5h73v312c0 4.66699 1.66699 8.66699 5 12s7.66602 5 12.999 5h177zM129 694.995v-293.001h131
c4.66699 0 8.83398 -1.66699 12.501 -5s5.5 -7.66602 5.5 -12.999s-1.83301 -9.5 -5.5 -12.5s-7.83398 -4.5 -12.501 -4.5h-131v-331h159c50 0 89.167 13.667 117.5 41s42.5 70.333 42.5 129v319c0 58.667 -14.167 101.667 -42.5 129s-67.5 41 -117.5 41h-159z" />
    <glyph glyph-name="Ntilde" unicode="&#xd1;" horiz-adv-x="557" 
d="M438 89l0.00292969 625.001c0 6 1.83301 10.333 5.5 13s7.83398 4 12.501 4s8.83398 -1.33301 12.501 -4s5.5 -7 5.5 -13v-696c0 -6 -1.83301 -10.5 -5.5 -13.5s-7.83398 -4.5 -12.501 -4.5c-6.66699 0 -12.334 4.16699 -17.001 12.5s-8.66699 16.166 -12 23.499
l-308 607v-625c0 -6 -1.83301 -10.5 -5.5 -13.5s-7.83398 -4.5 -12.501 -4.5s-8.83398 1.5 -12.501 4.5s-5.5 7.5 -5.5 13.5v696c0 6.66699 1.66699 11.167 5 13.5s7.66602 3.5 12.999 3.5c3.33301 0 6.5 -1.5 9.5 -4.5s6 -6.5 9 -10.5s5.5 -8 7.5 -12s3.66699 -7 5 -9z
M347.003 912.001c11.333 0 20.3369 1.66797 27.0039 5.00098s12.167 7 16.5 11s8 7.66699 11 11s6.5 5 10.5 5c3.33301 0 6.5 -1.33301 9.5 -4s4.5 -6.33398 4.5 -11.001c0 -8 -2.83301 -15 -8.5 -21s-12.834 -11.333 -21.501 -16s-17.834 -8.16699 -27.501 -10.5
s-18.5 -3.5 -26.5 -3.5c-12 0 -22.833 2 -32.5 6l-29 12.5c-9.66699 4.33301 -19.834 8.5 -30.501 12.5s-23 6 -37 6c-10.667 0 -19.667 -1.83301 -27 -5.5s-13.5 -7.66699 -18.5 -12s-9.33301 -8.33301 -13 -12s-7.16699 -5.5 -10.5 -5.5c-8.66699 0 -13 5.66699 -13 17
c0 6.66699 3 13 9 19s13.333 11.5 22 16.5s18.167 9 28.5 12s20.166 4.5 29.499 4.5c12 0 23 -2 33 -6s19.833 -8.16699 29.5 -12.5s19.667 -8.5 30 -12.5s21.833 -6 34.5 -6z" />
    <glyph glyph-name="Ograve" unicode="&#xd2;" horiz-adv-x="543" 
d="M271 -6c-27.333 0 -53 3.66699 -77 11s-44.667 19.166 -62 35.499s-31 37.666 -41 63.999s-15 58.166 -15 95.499v325c0 37.333 5 69.166 15 95.499s23.667 47.666 41 63.999s38 28.166 62 35.499s49.667 11 77 11s53 -3.66699 77 -11s44.833 -19.166 62.5 -35.499
s31.5 -37.666 41.5 -63.999s15 -58.166 15 -95.499v-325c0 -37.333 -5 -69.166 -15 -95.499s-23.833 -47.666 -41.5 -63.999s-38.5 -28.166 -62.5 -35.499s-49.667 -11 -77 -11zM431 525c0 58.667 -14.167 101.667 -42.5 129s-67.5 41 -117.5 41s-89 -13.667 -117 -41
s-42 -70.333 -42 -129v-325c0 -58.667 14 -101.667 42 -129s67 -41 117 -41s89.167 13.667 117.5 41s42.5 70.333 42.5 129v325zM215 917c-6.66699 4 -10 9.99805 -10 17.998c0 4.66699 1.33301 8.83398 4 12.501s6.66699 5.5 12 5.5c2 0 4.33301 -0.666992 7 -2l102 -60
c5.33301 -2.66699 8 -7 8 -13c0 -5.33301 -1.83301 -9.66602 -5.5 -12.999s-8.16699 -5 -13.5 -5c-3.33301 0 -6.33301 1 -9 3z" />
    <glyph glyph-name="Oacute" unicode="&#xd3;" horiz-adv-x="543" 
d="M271 -6c-27.333 0 -53 3.66699 -77 11s-44.667 19.166 -62 35.499s-31 37.666 -41 63.999s-15 58.166 -15 95.499v325c0 37.333 5 69.166 15 95.499s23.667 47.666 41 63.999s38 28.166 62 35.499s49.667 11 77 11s53 -3.66699 77 -11s44.833 -19.166 62.5 -35.499
s31.5 -37.666 41.5 -63.999s15 -58.166 15 -95.499v-325c0 -37.333 -5 -69.166 -15 -95.499s-23.833 -47.666 -41.5 -63.999s-38.5 -28.166 -62.5 -35.499s-49.667 -11 -77 -11zM431 525c0 58.667 -14.167 101.667 -42.5 129s-67.5 41 -117.5 41s-89 -13.667 -117 -41
s-42 -70.333 -42 -129v-325c0 -58.667 14 -101.667 42 -129s67 -41 117 -41s89.167 13.667 117.5 41s42.5 70.333 42.5 129v325zM233 863c-3.33301 -2 -6.33301 -2.99805 -9 -2.99805c-5.33301 0 -9.83301 1.66699 -13.5 5s-5.5 7.66602 -5.5 12.999
c0 6 2.66699 10.333 8 13l102 60c2.66699 1.33301 5 2 7 2c5.33301 0 9.33301 -1.83301 12 -5.5s4 -7.83398 4 -12.501c0 -8 -3.33301 -14 -10 -18z" />
    <glyph glyph-name="Ocircumflex" unicode="&#xd4;" horiz-adv-x="543" 
d="M271 -6c-27.333 0 -53 3.66699 -77 11s-44.667 19.166 -62 35.499s-31 37.666 -41 63.999s-15 58.166 -15 95.499v325c0 37.333 5 69.166 15 95.499s23.667 47.666 41 63.999s38 28.166 62 35.499s49.667 11 77 11s53 -3.66699 77 -11s44.833 -19.166 62.5 -35.499
s31.5 -37.666 41.5 -63.999s15 -58.166 15 -95.499v-325c0 -37.333 -5 -69.166 -15 -95.499s-23.833 -47.666 -41.5 -63.999s-38.5 -28.166 -62.5 -35.499s-49.667 -11 -77 -11zM431 525c0 58.667 -14.167 101.667 -42.5 129s-67.5 41 -117.5 41s-89 -13.667 -117 -41
s-42 -70.333 -42 -129v-325c0 -58.667 14 -101.667 42 -129s67 -41 117 -41s89.167 13.667 117.5 41s42.5 70.333 42.5 129v325zM167 862l-4 -2.00098c-1.33301 -0.666992 -2.66602 -1 -3.99902 -1c-4.66699 0 -8.83398 1.83301 -12.501 5.5s-5.5 8.16699 -5.5 13.5
c0 6 3 10.667 9 14l104 56c5.33301 3.33301 11 5 17 5s11.667 -1.66699 17 -5l104 -55c6 -3.33301 9 -9 9 -17c0 -4.66699 -1.66699 -8.5 -5 -11.5s-7.33301 -4.5 -12 -4.5c-1.33301 0 -2.83301 0.333008 -4.5 1s-3.16699 1.33398 -4.5 2.00098l-104 55z" />
    <glyph glyph-name="Otilde" unicode="&#xd5;" horiz-adv-x="543" 
d="M271 -6c-27.333 0 -53 3.66699 -77 11s-44.667 19.166 -62 35.499s-31 37.666 -41 63.999s-15 58.166 -15 95.499v325c0 37.333 5 69.166 15 95.499s23.667 47.666 41 63.999s38 28.166 62 35.499s49.667 11 77 11s53 -3.66699 77 -11s44.833 -19.166 62.5 -35.499
s31.5 -37.666 41.5 -63.999s15 -58.166 15 -95.499v-325c0 -37.333 -5 -69.166 -15 -95.499s-23.833 -47.666 -41.5 -63.999s-38.5 -28.166 -62.5 -35.499s-49.667 -11 -77 -11zM431 525c0 58.667 -14.167 101.667 -42.5 129s-67.5 41 -117.5 41s-89 -13.667 -117 -41
s-42 -70.333 -42 -129v-325c0 -58.667 14 -101.667 42 -129s67 -41 117 -41s89.167 13.667 117.5 41s42.5 70.333 42.5 129v325zM340 912c11.333 0 20.3369 1.66797 27.0039 5.00098s12.167 7 16.5 11s8 7.66699 11 11s6.5 5 10.5 5c3.33301 0 6.5 -1.33301 9.5 -4
s4.5 -6.33398 4.5 -11.001c0 -8 -2.83301 -15 -8.5 -21s-12.834 -11.333 -21.501 -16s-17.834 -8.16699 -27.501 -10.5s-18.5 -3.5 -26.5 -3.5c-12 0 -22.833 2 -32.5 6l-29 12.5c-9.66699 4.33301 -19.834 8.5 -30.501 12.5s-23 6 -37 6
c-10.667 0 -19.667 -1.83301 -27 -5.5s-13.5 -7.66699 -18.5 -12s-9.33301 -8.33301 -13 -12s-7.16699 -5.5 -10.5 -5.5c-8.66699 0 -13 5.66699 -13 17c0 6.66699 3 13 9 19s13.333 11.5 22 16.5s18.167 9 28.5 12s20.166 4.5 29.499 4.5c12 0 23 -2 33 -6
s19.833 -8.16699 29.5 -12.5s19.667 -8.5 30 -12.5s21.833 -6 34.5 -6z" />
    <glyph glyph-name="Odieresis" unicode="&#xd6;" horiz-adv-x="543" 
d="M271 -6c-27.333 0 -53 3.66699 -77 11s-44.667 19.166 -62 35.499s-31 37.666 -41 63.999s-15 58.166 -15 95.499v325c0 37.333 5 69.166 15 95.499s23.667 47.666 41 63.999s38 28.166 62 35.499s49.667 11 77 11s53 -3.66699 77 -11s44.833 -19.166 62.5 -35.499
s31.5 -37.666 41.5 -63.999s15 -58.166 15 -95.499v-325c0 -37.333 -5 -69.166 -15 -95.499s-23.833 -47.666 -41.5 -63.999s-38.5 -28.166 -62.5 -35.499s-49.667 -11 -77 -11zM431 525c0 58.667 -14.167 101.667 -42.5 129s-67.5 41 -117.5 41s-89 -13.667 -117 -41
s-42 -70.333 -42 -129v-325c0 -58.667 14 -101.667 42 -129s67 -41 117 -41s89.167 13.667 117.5 41s42.5 70.333 42.5 129v325zM216 918c8.66699 0 15.667 -2.66699 21 -8s8 -12.333 8 -21s-2.66699 -15.834 -8 -21.501s-12.333 -8.5 -21 -8.5
c-9.33301 0 -16.666 2.83301 -21.999 8.5s-8 12.834 -8 21.501s2.66699 15.667 8 21s12.666 8 21.999 8zM327 918c8.66699 0 15.667 -2.66699 21 -8s8 -12.333 8 -21s-2.66699 -15.834 -8 -21.501s-12.333 -8.5 -21 -8.5c-9.33301 0 -16.666 2.83301 -21.999 8.5
s-8 12.834 -8 21.501s2.66699 15.667 8 21s12.666 8 21.999 8z" />
    <glyph glyph-name="multiply" unicode="&#xd7;" horiz-adv-x="393" 
d="M327 162c0 -4 -1.49805 -7.83301 -4.49805 -11.5s-7.16699 -5.5 -12.5 -5.5c-4.66699 0 -8.66699 1.66699 -12 5l-102 101l-101 -101c-3.33301 -3.33301 -7.33301 -5 -12 -5s-8.66699 1.66699 -12 5s-5 7.33301 -5 12s1.66699 8.66699 5 12l101 101l-101 101
c-3.33301 3.33301 -5 7.66602 -5 12.999c0 4.66699 1.66699 8.66699 5 12s7.33301 5 12 5c5.33301 0 9.66602 -1.66699 12.999 -5l100 -101l101 101c3.33301 3.33301 7.66602 5 12.999 5c4.66699 0 8.66699 -1.66699 12 -5s5 -7.33301 5 -12
c0 -5.33301 -1.66699 -9.66602 -5 -12.999l-101 -101l101 -101c3.33301 -3.33301 5 -7.33301 5 -12z" />
    <glyph glyph-name="Oslash" unicode="&#xd8;" horiz-adv-x="543" 
d="M436 653c9.33301 -16 16.833 -34.501 22.5 -55.501s8.5 -45.167 8.5 -72.5v-325c0 -37.333 -5 -69.166 -15 -95.499s-23.833 -47.666 -41.5 -63.999s-38.5 -28.166 -62.5 -35.499s-49.667 -11 -77 -11c-30 0 -57.833 4.33301 -83.5 13s-47.167 23 -64.5 43l-31 -59
c-4 -7.33301 -9.66699 -11 -17 -11c-4 0 -7.66699 1.33301 -11 4s-5 6.33398 -5 11.001c0 4 0.666992 7 2 9l40 77c-16.667 32 -25 71.667 -25 119v325c0 37.333 5 69.166 15 95.499s23.667 47.666 41 63.999s38 28.166 62 35.499s49.667 11 77 11
c28 0 54 -3.83301 78 -11.5s45 -20.167 63 -37.5l40 78c2.66699 5.33301 7 8 13 8c4 0 8 -1.83301 12 -5.5s6 -8.16699 6 -13.5c0 -3.33301 -1 -7 -3 -11zM431 524.999c0 35.333 -5.33301 64.667 -16 88l-274 -527c13.333 -19.333 31 -33.5 53 -42.5s47.667 -13.5 77 -13.5
c50 0 89.167 13.667 117.5 41s42.5 70.333 42.5 129v325zM112 200c0 -28.667 3.66699 -54 11 -76l271 523c-28 32 -69 48 -123 48c-50 0 -89 -13.667 -117 -41s-42 -70.333 -42 -129v-325z" />
    <glyph glyph-name="Ugrave" unicode="&#xd9;" horiz-adv-x="549" 
d="M79 714c0 6 1.8291 10.333 5.49609 13s7.83398 4 12.501 4s8.83398 -1.33301 12.501 -4s5.5 -7 5.5 -13v-514c0 -58.667 14 -101.667 42 -129s67 -41 117 -41s89.167 13.667 117.5 41s42.5 70.333 42.5 129v514c0 6 1.83301 10.333 5.5 13s7.83398 4 12.501 4
s8.83398 -1.33301 12.501 -4s5.5 -7 5.5 -13v-514c0 -37.333 -5 -69.166 -15 -95.499s-23.833 -47.666 -41.5 -63.999s-38.5 -28.166 -62.5 -35.499s-49.667 -11 -77 -11s-53 3.66699 -77 11s-44.667 19.166 -62 35.499s-31 37.666 -41 63.999s-15 58.166 -15 95.499v514z
M217.996 917c-6.66699 4 -10 9.99805 -10 17.998c0 4.66699 1.33301 8.83398 4 12.501s6.66699 5.5 12 5.5c2 0 4.33301 -0.666992 7 -2l102 -60c5.33301 -2.66699 8 -7 8 -13c0 -5.33301 -1.83301 -9.66602 -5.5 -12.999s-8.16699 -5 -13.5 -5c-3.33301 0 -6.33301 1 -9 3z
" />
    <glyph glyph-name="Uacute" unicode="&#xda;" horiz-adv-x="549" 
d="M79 714c0 6 1.8291 10.333 5.49609 13s7.83398 4 12.501 4s8.83398 -1.33301 12.501 -4s5.5 -7 5.5 -13v-514c0 -58.667 14 -101.667 42 -129s67 -41 117 -41s89.167 13.667 117.5 41s42.5 70.333 42.5 129v514c0 6 1.83301 10.333 5.5 13s7.83398 4 12.501 4
s8.83398 -1.33301 12.501 -4s5.5 -7 5.5 -13v-514c0 -37.333 -5 -69.166 -15 -95.499s-23.833 -47.666 -41.5 -63.999s-38.5 -28.166 -62.5 -35.499s-49.667 -11 -77 -11s-53 3.66699 -77 11s-44.667 19.166 -62 35.499s-31 37.666 -41 63.999s-15 58.166 -15 95.499v514z
M235.996 863c-3.33301 -2 -6.33301 -2.99805 -9 -2.99805c-5.33301 0 -9.83301 1.66699 -13.5 5s-5.5 7.66602 -5.5 12.999c0 6 2.66699 10.333 8 13l102 60c2.66699 1.33301 5 2 7 2c5.33301 0 9.33301 -1.83301 12 -5.5s4 -7.83398 4 -12.501c0 -8 -3.33301 -14 -10 -18z
" />
    <glyph glyph-name="Ucircumflex" unicode="&#xdb;" horiz-adv-x="549" 
d="M79 714c0 6 1.8291 10.333 5.49609 13s7.83398 4 12.501 4s8.83398 -1.33301 12.501 -4s5.5 -7 5.5 -13v-514c0 -58.667 14 -101.667 42 -129s67 -41 117 -41s89.167 13.667 117.5 41s42.5 70.333 42.5 129v514c0 6 1.83301 10.333 5.5 13s7.83398 4 12.501 4
s8.83398 -1.33301 12.501 -4s5.5 -7 5.5 -13v-514c0 -37.333 -5 -69.166 -15 -95.499s-23.833 -47.666 -41.5 -63.999s-38.5 -28.166 -62.5 -35.499s-49.667 -11 -77 -11s-53 3.66699 -77 11s-44.667 19.166 -62 35.499s-31 37.666 -41 63.999s-15 58.166 -15 95.499v514z
M169.996 862l-4 -2.00098c-1.33301 -0.666992 -2.66602 -1 -3.99902 -1c-4.66699 0 -8.83398 1.83301 -12.501 5.5s-5.5 8.16699 -5.5 13.5c0 6 3 10.667 9 14l104 56c5.33301 3.33301 11 5 17 5s11.667 -1.66699 17 -5l104 -55c6 -3.33301 9 -9 9 -17
c0 -4.66699 -1.66699 -8.5 -5 -11.5s-7.33301 -4.5 -12 -4.5c-1.33301 0 -2.83301 0.333008 -4.5 1s-3.16699 1.33398 -4.5 2.00098l-104 55z" />
    <glyph glyph-name="Udieresis" unicode="&#xdc;" horiz-adv-x="549" 
d="M79 714c0 6 1.8291 10.333 5.49609 13s7.83398 4 12.501 4s8.83398 -1.33301 12.501 -4s5.5 -7 5.5 -13v-514c0 -58.667 14 -101.667 42 -129s67 -41 117 -41s89.167 13.667 117.5 41s42.5 70.333 42.5 129v514c0 6 1.83301 10.333 5.5 13s7.83398 4 12.501 4
s8.83398 -1.33301 12.501 -4s5.5 -7 5.5 -13v-514c0 -37.333 -5 -69.166 -15 -95.499s-23.833 -47.666 -41.5 -63.999s-38.5 -28.166 -62.5 -35.499s-49.667 -11 -77 -11s-53 3.66699 -77 11s-44.667 19.166 -62 35.499s-31 37.666 -41 63.999s-15 58.166 -15 95.499v514z
M218.996 918c8.66699 0 15.667 -2.66699 21 -8s8 -12.333 8 -21s-2.66699 -15.834 -8 -21.501s-12.333 -8.5 -21 -8.5c-9.33301 0 -16.666 2.83301 -21.999 8.5s-8 12.834 -8 21.501s2.66699 15.667 8 21s12.666 8 21.999 8zM329.996 918c8.66699 0 15.667 -2.66699 21 -8
s8 -12.333 8 -21s-2.66699 -15.834 -8 -21.501s-12.333 -8.5 -21 -8.5c-9.33301 0 -16.666 2.83301 -21.999 8.5s-8 12.834 -8 21.501s2.66699 15.667 8 21s12.666 8 21.999 8z" />
    <glyph glyph-name="Yacute" unicode="&#xdd;" horiz-adv-x="509" 
d="M273 279c-0.666992 -1.33301 -0.996094 -3.33203 -0.996094 -5.99902v-255c0 -6 -1.83301 -10.5 -5.5 -13.5s-7.83398 -4.5 -12.501 -4.5s-8.83398 1.5 -12.501 4.5s-5.5 7.5 -5.5 13.5v255c0 2.66699 -0.333008 4.66699 -1 6l-207 416c-4 8 -6 14.667 -6 20
c0 10.667 4.33301 16 13 16c7.33301 0 14 -5.66699 20 -17l199 -401l200 401c3.33301 6 6.66602 10.333 9.99902 13s6.66602 4 9.99902 4c8 0 12 -5.33301 12 -16c0 -6.66699 -1.66699 -13.334 -5 -20.001zM215.004 863.001c-3.33301 -2 -6.33301 -2.99805 -9 -2.99805
c-5.33301 0 -9.83301 1.66699 -13.5 5s-5.5 7.66602 -5.5 12.999c0 6 2.66699 10.333 8 13l102 60c2.66699 1.33301 5 2 7 2c5.33301 0 9.33301 -1.83301 12 -5.5s4 -7.83398 4 -12.501c0 -8 -3.33301 -14 -10 -18z" />
    <glyph glyph-name="Thorn" unicode="&#xde;" horiz-adv-x="483" 
d="M83 715c0 5.33301 1.66992 9.33105 5.00293 11.998s7.33301 4 12 4c12 0 18 -5.66699 18 -17v-172c11.333 20.667 28.666 38.5 51.999 53.5s53.666 22.5 90.999 22.5c22 0 43.167 -3 63.5 -9s38.5 -15.167 54.5 -27.5s28.833 -27.5 38.5 -45.5s14.5 -39 14.5 -63v-192
c0 -24 -5 -45.167 -15 -63.5s-22.833 -33.666 -38.5 -45.999s-33.334 -21.666 -53.001 -27.999s-39.5 -9.5 -59.5 -9.5c-16 0 -31.833 1.83301 -47.5 5.5s-30.334 9 -44.001 16s-25.5 15.333 -35.5 25s-17 20.167 -21 31.5v-194c0 -4.66699 -1.66699 -8.83398 -5 -12.501
s-7.33301 -5.5 -12 -5.5c-5.33301 0 -9.66602 1.83301 -12.999 5.5s-5 7.83398 -5 12.501v697zM263.003 168.998c16.667 0 32.9971 2.16895 48.9971 6.50195s30.333 11.166 43 20.499s22.834 21 30.501 35s11.5 30.667 11.5 50v192c0 18.667 -3.83301 35 -11.5 49
s-17.834 25.5 -30.501 34.5s-27 15.667 -43 20s-32.333 6.5 -49 6.5c-19.333 0 -37.666 -2.66699 -54.999 -8s-32.666 -12.833 -45.999 -22.5s-24 -21.334 -32 -35.001s-12 -28.5 -12 -44.5v-192c0 -13.333 3.66699 -26.666 11 -39.999s17.333 -25.333 30 -36
s27.834 -19.334 45.501 -26.001s37.167 -10 58.5 -10z" />
    <glyph glyph-name="germandbls" unicode="&#xdf;" horiz-adv-x="528" 
d="M319 -20c-6 0 -15.1631 0.5 -27.4961 1.5s-24.5 2.83301 -36.5 5.5s-22.5 6.33398 -31.5 11.001s-13.5 10.667 -13.5 18c0 4.66699 1.5 8.66699 4.5 12s6.5 5 10.5 5c3.33301 0 7.16602 -1.16699 11.499 -3.5s9.66602 -4.83301 15.999 -7.5s14.166 -5.16699 23.499 -7.5
s20.333 -3.5 33 -3.5c43.333 0 78 15.5 104 46.5s39 77.167 39 138.5v19c0 17.333 -2.66699 36 -8 56s-14.5 38.5 -27.5 55.5s-30.333 31.667 -52 44s-48.5 19.5 -80.5 21.5c-9.33301 0.666992 -16.833 1.66699 -22.5 3s-8.5 5.66602 -8.5 12.999c0 8 3.16699 13 9.5 15
s13.833 3.33301 22.5 4c20.667 1.33301 37.5 7.33301 50.5 18s22.833 23.5 29.5 38.5s11.167 30.833 13.5 47.5s3.5 32 3.5 46c0 48.667 -10.167 86.834 -30.5 114.501s-51.166 41.5 -92.499 41.5c-22 0 -40.667 -4 -56 -12s-27.5 -18.667 -36.5 -32
s-15.5 -28.5 -19.5 -45.5s-6 -34.833 -6 -53.5v-573c0 -5.33301 -1.83301 -9.5 -5.5 -12.5s-8.16699 -4.5 -13.5 -4.5c-10.667 0 -16 5.66699 -16 17v420h-81c-11.333 0 -17 5.66699 -17 17c0 5.33301 1.5 9.66602 4.5 12.999s7.16699 5 12.5 5h81v118
c0 24 2.83301 46.833 8.5 68.5s14.667 40.5 27 56.5s28.166 28.833 47.499 38.5s42.666 14.5 69.999 14.5c22.667 0 43.667 -3.5 63 -10.5s36 -17.833 50 -32.5s25 -33.334 33 -56.001s12 -49.334 12 -80.001c0 -18 -1.5 -36.333 -4.5 -55s-7.5 -36 -13.5 -52
s-13.667 -30.167 -23 -42.5s-20 -21.166 -32 -26.499c16 -3.33301 32.333 -10.833 49 -22.5s31.834 -26.167 45.501 -43.5s24.667 -37.333 33 -60s12.5 -46.667 12.5 -72v-19c0 -37.333 -4.83301 -69.666 -14.5 -96.999s-22.167 -49.833 -37.5 -67.5
s-32.833 -30.667 -52.5 -39s-39.834 -12.5 -60.501 -12.5z" />
    <glyph glyph-name="agrave" unicode="&#xe0;" horiz-adv-x="423" 
d="M140 658c-6.66699 4 -10 9.99805 -10 17.998c0 4.66699 1.33301 8.83398 4 12.501s6.66699 5.5 12 5.5c2 0 4.33301 -0.666992 7 -2l102 -60c5.33301 -2.66699 8 -7 8 -13c0 -5.33301 -1.83301 -9.66602 -5.5 -12.999s-8.16699 -5 -13.5 -5c-3.33301 0 -6.33301 1 -9 3z
M194 477.998c30.667 0 56.498 -5.33301 77.498 -16s38 -25 51 -43s22.333 -38.5 28 -61.5s8.5 -46.833 8.5 -71.5v-268c0 -5.33301 -1.5 -9.66602 -4.5 -12.999s-7.16699 -5 -12.5 -5s-9.66602 1.66699 -12.999 5s-5 7.66602 -5 12.999v52
c-17.333 -19.333 -38.333 -36.833 -63 -52.5s-53.667 -23.5 -87 -23.5c-19.333 0 -37.5 2.66699 -54.5 8s-31.833 13.5 -44.5 24.5s-22.5 24.667 -29.5 41s-10.5 35.833 -10.5 58.5c0 26.667 5.66699 48.5 17 65.5s27.166 30.5 47.499 40.5s44.833 16.833 73.5 20.5
s60.334 5.5 95.001 5.5h56v28c0 18.667 -2.5 37.334 -7.5 56.001s-12.667 35.5 -23 50.5s-23.833 27.167 -40.5 36.5s-37 14 -61 14c-15.333 0 -28.833 -1.33301 -40.5 -4s-21.667 -5.83398 -30 -9.50098l-21 -9.5c-5.66699 -2.66699 -9.83398 -4 -12.501 -4
c-5.33301 0 -9.66602 2.5 -12.999 7.5s-5 9.16699 -5 12.5c0 4.66699 3.66699 9.5 11 14.5s16.833 9.5 28.5 13.5s24.834 7.33301 39.501 10s29.667 4 45 4zM323.998 222.998l-54.999 0.000976562c-26 0 -50.833 -1 -74.5 -3s-44.834 -6.33301 -63.501 -13
s-33.5 -16.334 -44.5 -29.001s-16.5 -30 -16.5 -52c0 -34 9.83301 -58.667 29.5 -74s44.167 -23 73.5 -23c18.667 0 37 3.66699 55 11s34.167 16.5 48.5 27.5s25.833 23 34.5 36s13 24.833 13 35.5v84z" />
    <glyph glyph-name="aacute" unicode="&#xe1;" horiz-adv-x="423" 
d="M194 478c30.667 0 56.498 -5.33301 77.498 -16s38 -25 51 -43s22.333 -38.5 28 -61.5s8.5 -46.833 8.5 -71.5v-268c0 -5.33301 -1.5 -9.66602 -4.5 -12.999s-7.16699 -5 -12.5 -5s-9.66602 1.66699 -12.999 5s-5 7.66602 -5 12.999v52
c-17.333 -19.333 -38.333 -36.833 -63 -52.5s-53.667 -23.5 -87 -23.5c-19.333 0 -37.5 2.66699 -54.5 8s-31.833 13.5 -44.5 24.5s-22.5 24.667 -29.5 41s-10.5 35.833 -10.5 58.5c0 26.667 5.66699 48.5 17 65.5s27.166 30.5 47.499 40.5s44.833 16.833 73.5 20.5
s60.334 5.5 95.001 5.5h56v28c0 18.667 -2.5 37.334 -7.5 56.001s-12.667 35.5 -23 50.5s-23.833 27.167 -40.5 36.5s-37 14 -61 14c-15.333 0 -28.833 -1.33301 -40.5 -4s-21.667 -5.83398 -30 -9.50098l-21 -9.5c-5.66699 -2.66699 -9.83398 -4 -12.501 -4
c-5.33301 0 -9.66602 2.5 -12.999 7.5s-5 9.16699 -5 12.5c0 4.66699 3.66699 9.5 11 14.5s16.833 9.5 28.5 13.5s24.834 7.33301 39.501 10s29.667 4 45 4zM323.998 223l-54.999 0.000976562c-26 0 -50.833 -1 -74.5 -3s-44.834 -6.33301 -63.501 -13
s-33.5 -16.334 -44.5 -29.001s-16.5 -30 -16.5 -52c0 -34 9.83301 -58.667 29.5 -74s44.167 -23 73.5 -23c18.667 0 37 3.66699 55 11s34.167 16.5 48.5 27.5s25.833 23 34.5 36s13 24.833 13 35.5v84zM157.999 604.001c-3.33301 -2 -6.33301 -2.99805 -9 -2.99805
c-5.33301 0 -9.83301 1.66699 -13.5 5s-5.5 7.66602 -5.5 12.999c0 6 2.66699 10.333 8 13l102 60c2.66699 1.33301 5 2 7 2c5.33301 0 9.33301 -1.83301 12 -5.5s4 -7.83398 4 -12.501c0 -8 -3.33301 -14 -10 -18z" />
    <glyph glyph-name="acircumflex" unicode="&#xe2;" horiz-adv-x="423" 
d="M97 603l-4 -2.00098c-1.33301 -0.666992 -2.66602 -1 -3.99902 -1c-4.66699 0 -8.83398 1.83301 -12.501 5.5s-5.5 8.16699 -5.5 13.5c0 6 3 10.667 9 14l104 56c5.33301 3.33301 11 5 17 5s11.667 -1.66699 17 -5l104 -55c6 -3.33301 9 -9 9 -17
c0 -4.66699 -1.66699 -8.5 -5 -11.5s-7.33301 -4.5 -12 -4.5c-1.33301 0 -2.83301 0.333008 -4.5 1s-3.16699 1.33398 -4.5 2.00098l-104 55zM194 477.999c30.667 0 56.498 -5.33301 77.498 -16s38 -25 51 -43s22.333 -38.5 28 -61.5s8.5 -46.833 8.5 -71.5v-268
c0 -5.33301 -1.5 -9.66602 -4.5 -12.999s-7.16699 -5 -12.5 -5s-9.66602 1.66699 -12.999 5s-5 7.66602 -5 12.999v52c-17.333 -19.333 -38.333 -36.833 -63 -52.5s-53.667 -23.5 -87 -23.5c-19.333 0 -37.5 2.66699 -54.5 8s-31.833 13.5 -44.5 24.5s-22.5 24.667 -29.5 41
s-10.5 35.833 -10.5 58.5c0 26.667 5.66699 48.5 17 65.5s27.166 30.5 47.499 40.5s44.833 16.833 73.5 20.5s60.334 5.5 95.001 5.5h56v28c0 18.667 -2.5 37.334 -7.5 56.001s-12.667 35.5 -23 50.5s-23.833 27.167 -40.5 36.5s-37 14 -61 14
c-15.333 0 -28.833 -1.33301 -40.5 -4s-21.667 -5.83398 -30 -9.50098l-21 -9.5c-5.66699 -2.66699 -9.83398 -4 -12.501 -4c-5.33301 0 -9.66602 2.5 -12.999 7.5s-5 9.16699 -5 12.5c0 4.66699 3.66699 9.5 11 14.5s16.833 9.5 28.5 13.5s24.834 7.33301 39.501 10
s29.667 4 45 4zM323.998 222.999l-54.999 0.000976562c-26 0 -50.833 -1 -74.5 -3s-44.834 -6.33301 -63.501 -13s-33.5 -16.334 -44.5 -29.001s-16.5 -30 -16.5 -52c0 -34 9.83301 -58.667 29.5 -74s44.167 -23 73.5 -23c18.667 0 37 3.66699 55 11s34.167 16.5 48.5 27.5
s25.833 23 34.5 36s13 24.833 13 35.5v84z" />
    <glyph glyph-name="atilde" unicode="&#xe3;" horiz-adv-x="423" 
d="M265 653c11.333 0 20.3369 1.66797 27.0039 5.00098s12.167 7 16.5 11s8 7.66699 11 11s6.5 5 10.5 5c3.33301 0 6.5 -1.33301 9.5 -4s4.5 -6.33398 4.5 -11.001c0 -8 -2.83301 -15 -8.5 -21s-12.834 -11.333 -21.501 -16s-17.834 -8.16699 -27.501 -10.5
s-18.5 -3.5 -26.5 -3.5c-12 0 -22.833 2 -32.5 6l-29 12.5c-9.66699 4.33301 -19.834 8.5 -30.501 12.5s-23 6 -37 6c-10.667 0 -19.667 -1.83301 -27 -5.5s-13.5 -7.66699 -18.5 -12s-9.33301 -8.33301 -13 -12s-7.16699 -5.5 -10.5 -5.5c-8.66699 0 -13 5.66699 -13 17
c0 6.66699 3 13 9 19s13.333 11.5 22 16.5s18.167 9 28.5 12s20.166 4.5 29.499 4.5c12 0 23 -2 33 -6s19.833 -8.16699 29.5 -12.5s19.667 -8.5 30 -12.5s21.833 -6 34.5 -6zM194.004 478.001c30.667 0 56.498 -5.33301 77.498 -16s38 -25 51 -43s22.333 -38.5 28 -61.5
s8.5 -46.833 8.5 -71.5v-268c0 -5.33301 -1.5 -9.66602 -4.5 -12.999s-7.16699 -5 -12.5 -5s-9.66602 1.66699 -12.999 5s-5 7.66602 -5 12.999v52c-17.333 -19.333 -38.333 -36.833 -63 -52.5s-53.667 -23.5 -87 -23.5c-19.333 0 -37.5 2.66699 -54.5 8
s-31.833 13.5 -44.5 24.5s-22.5 24.667 -29.5 41s-10.5 35.833 -10.5 58.5c0 26.667 5.66699 48.5 17 65.5s27.166 30.5 47.499 40.5s44.833 16.833 73.5 20.5s60.334 5.5 95.001 5.5h56v28c0 18.667 -2.5 37.334 -7.5 56.001s-12.667 35.5 -23 50.5
s-23.833 27.167 -40.5 36.5s-37 14 -61 14c-15.333 0 -28.833 -1.33301 -40.5 -4s-21.667 -5.83398 -30 -9.50098l-21 -9.5c-5.66699 -2.66699 -9.83398 -4 -12.501 -4c-5.33301 0 -9.66602 2.5 -12.999 7.5s-5 9.16699 -5 12.5c0 4.66699 3.66699 9.5 11 14.5
s16.833 9.5 28.5 13.5s24.834 7.33301 39.501 10s29.667 4 45 4zM324.002 223.001l-54.999 0.000976562c-26 0 -50.833 -1 -74.5 -3s-44.834 -6.33301 -63.501 -13s-33.5 -16.334 -44.5 -29.001s-16.5 -30 -16.5 -52c0 -34 9.83301 -58.667 29.5 -74s44.167 -23 73.5 -23
c18.667 0 37 3.66699 55 11s34.167 16.5 48.5 27.5s25.833 23 34.5 36s13 24.833 13 35.5v84z" />
    <glyph glyph-name="adieresis" unicode="&#xe4;" horiz-adv-x="423" 
d="M142 659c8.66699 0 15.667 -2.66699 21 -8s8 -12.333 8 -21s-2.66699 -15.834 -8 -21.501s-12.333 -8.5 -21 -8.5c-9.33301 0 -16.666 2.83301 -21.999 8.5s-8 12.834 -8 21.501s2.66699 15.667 8 21s12.666 8 21.999 8zM253 659c8.66699 0 15.667 -2.66699 21 -8
s8 -12.333 8 -21s-2.66699 -15.834 -8 -21.501s-12.333 -8.5 -21 -8.5c-9.33301 0 -16.666 2.83301 -21.999 8.5s-8 12.834 -8 21.501s2.66699 15.667 8 21s12.666 8 21.999 8zM194 478c30.667 0 56.498 -5.33301 77.498 -16s38 -25 51 -43s22.333 -38.5 28 -61.5
s8.5 -46.833 8.5 -71.5v-268c0 -5.33301 -1.5 -9.66602 -4.5 -12.999s-7.16699 -5 -12.5 -5s-9.66602 1.66699 -12.999 5s-5 7.66602 -5 12.999v52c-17.333 -19.333 -38.333 -36.833 -63 -52.5s-53.667 -23.5 -87 -23.5c-19.333 0 -37.5 2.66699 -54.5 8
s-31.833 13.5 -44.5 24.5s-22.5 24.667 -29.5 41s-10.5 35.833 -10.5 58.5c0 26.667 5.66699 48.5 17 65.5s27.166 30.5 47.499 40.5s44.833 16.833 73.5 20.5s60.334 5.5 95.001 5.5h56v28c0 18.667 -2.5 37.334 -7.5 56.001s-12.667 35.5 -23 50.5
s-23.833 27.167 -40.5 36.5s-37 14 -61 14c-15.333 0 -28.833 -1.33301 -40.5 -4s-21.667 -5.83398 -30 -9.50098l-21 -9.5c-5.66699 -2.66699 -9.83398 -4 -12.501 -4c-5.33301 0 -9.66602 2.5 -12.999 7.5s-5 9.16699 -5 12.5c0 4.66699 3.66699 9.5 11 14.5
s16.833 9.5 28.5 13.5s24.834 7.33301 39.501 10s29.667 4 45 4zM323.998 223l-54.999 0.000976562c-26 0 -50.833 -1 -74.5 -3s-44.834 -6.33301 -63.501 -13s-33.5 -16.334 -44.5 -29.001s-16.5 -30 -16.5 -52c0 -34 9.83301 -58.667 29.5 -74s44.167 -23 73.5 -23
c18.667 0 37 3.66699 55 11s34.167 16.5 48.5 27.5s25.833 23 34.5 36s13 24.833 13 35.5v84z" />
    <glyph glyph-name="aring" unicode="&#xe5;" horiz-adv-x="423" 
d="M197 768c12 0 23.333 -2.50098 34 -7.50098s20.167 -11.667 28.5 -20s15 -18 20 -29s7.5 -22.5 7.5 -34.5s-2.5 -23.667 -7.5 -35s-11.667 -21.333 -20 -30s-17.833 -15.5 -28.5 -20.5s-22 -7.5 -34 -7.5c-12.667 0 -24.5 2.5 -35.5 7.5s-20.5 11.833 -28.5 20.5
s-14.333 18.667 -19 30s-7 23 -7 35s2.33301 23.333 7 34s11 20.334 19 29.001s17.5 15.5 28.5 20.5s22.833 7.5 35.5 7.5zM262 676.999c0 8 -1.66699 15.833 -5 23.5s-8 14.5 -14 20.5s-13 11 -21 15s-16.333 6 -25 6c-9.33301 0 -18 -2 -26 -6s-15 -9 -21 -15
s-10.667 -12.833 -14 -20.5s-5 -15.5 -5 -23.5c0 -8.66699 1.66699 -17.167 5 -25.5s8 -15.833 14 -22.5s13 -12 21 -16s16.667 -6 26 -6c8.66699 0 17 2 25 6s15 9.33301 21 16s10.667 14.167 14 22.5s5 16.833 5 25.5zM194 477.999c30.667 0 56.498 -5.33301 77.498 -16
s38 -25 51 -43s22.333 -38.5 28 -61.5s8.5 -46.833 8.5 -71.5v-268c0 -5.33301 -1.5 -9.66602 -4.5 -12.999s-7.16699 -5 -12.5 -5s-9.66602 1.66699 -12.999 5s-5 7.66602 -5 12.999v52c-17.333 -19.333 -38.333 -36.833 -63 -52.5s-53.667 -23.5 -87 -23.5
c-19.333 0 -37.5 2.66699 -54.5 8s-31.833 13.5 -44.5 24.5s-22.5 24.667 -29.5 41s-10.5 35.833 -10.5 58.5c0 26.667 5.66699 48.5 17 65.5s27.166 30.5 47.499 40.5s44.833 16.833 73.5 20.5s60.334 5.5 95.001 5.5h56v28c0 18.667 -2.5 37.334 -7.5 56.001
s-12.667 35.5 -23 50.5s-23.833 27.167 -40.5 36.5s-37 14 -61 14c-15.333 0 -28.833 -1.33301 -40.5 -4s-21.667 -5.83398 -30 -9.50098l-21 -9.5c-5.66699 -2.66699 -9.83398 -4 -12.501 -4c-5.33301 0 -9.66602 2.5 -12.999 7.5s-5 9.16699 -5 12.5
c0 4.66699 3.66699 9.5 11 14.5s16.833 9.5 28.5 13.5s24.834 7.33301 39.501 10s29.667 4 45 4zM323.998 222.999l-54.999 0.000976562c-26 0 -50.833 -1 -74.5 -3s-44.834 -6.33301 -63.501 -13s-33.5 -16.334 -44.5 -29.001s-16.5 -30 -16.5 -52
c0 -34 9.83301 -58.667 29.5 -74s44.167 -23 73.5 -23c18.667 0 37 3.66699 55 11s34.167 16.5 48.5 27.5s25.833 23 34.5 36s13 24.833 13 35.5v84z" />
    <glyph glyph-name="ae" unicode="&#xe6;" horiz-adv-x="719" 
d="M192 479c42 0 75.0068 -9.50098 99.0068 -28.501s41.333 -43.167 52 -72.5c14.667 28.667 35.834 52.5 63.501 71.5s59.167 28.5 94.5 28.5c18.667 0 38.5 -3.33301 59.5 -10s40.167 -17.667 57.5 -33s31.833 -35.333 43.5 -60s17.5 -55 17.5 -91
c0 -12.667 -1 -23 -3 -31s-6 -14.167 -12 -18.5s-14.5 -7.33301 -25.5 -9s-25.167 -2.5 -42.5 -2.5h-235v-47c0 -22.667 4.16699 -43.167 12.5 -61.5s19.833 -33.833 34.5 -46.5s32.167 -22.334 52.5 -29.001s42.166 -10 65.499 -10c20 0 36.667 2.16699 50 6.5
s24.5 9 33.5 14s16.167 9.66699 21.5 14s10.333 6.5 15 6.5c3.33301 0 7.16602 -1.66699 11.499 -5s6.5 -7.66602 6.5 -12.999c0 -7.33301 -4.83301 -14.5 -14.5 -21.5s-21.834 -13.167 -36.501 -18.5s-30.834 -9.66602 -48.501 -12.999s-34.5 -5 -50.5 -5
c-36.667 0 -70.834 8.83301 -102.501 26.5s-55.167 43.5 -70.5 77.5c-10 -19.333 -21.833 -35.666 -35.5 -48.999s-28 -24 -43 -32s-30.333 -13.833 -46 -17.5s-30.834 -5.5 -45.501 -5.5c-18 0 -35.333 2.66699 -52 8s-31.167 13.333 -43.5 24
s-22.166 24.334 -29.499 41.001s-11 36 -11 58c0 26.667 5.5 48.667 16.5 66s26.667 31 47 41s44.666 16.833 72.999 20.5s59.833 5.5 94.5 5.5h56v29c0 18.667 -2.33301 37.5 -7 56.5s-12.334 35.833 -23.001 50.5s-24.667 26.667 -42 36s-38.333 14 -63 14
c-14 0 -26.667 -1.33301 -38 -4s-21.333 -5.83398 -30 -9.50098s-15.834 -6.83398 -21.501 -9.50098s-9.83398 -4 -12.501 -4c-4.66699 0 -8.66699 2.5 -12 7.5s-5 9.16699 -5 12.5c0 4.66699 3.66699 9.5 11 14.5s16.833 9.5 28.5 13.5s24.834 7.33301 39.501 10
s29.667 4 45 4zM584.007 257.999c13.333 0 24 0.498047 32 1.49805s14 2.83301 18 5.5s6.66699 6.33398 8 11.001s2 10.334 2 17.001c0 18.667 -3.33301 37 -10 55s-16.167 34 -28.5 48s-27.333 25.333 -45 34s-37.167 13 -58.5 13c-20 0 -38.667 -3.83301 -56 -11.5
s-32.333 -18 -45 -31s-22.5 -28 -29.5 -45s-10.5 -34.833 -10.5 -53.5v-44h223zM322.007 222.997h-54.999c-26.667 0 -51.834 -1 -75.501 -3s-44.5 -6.33301 -62.5 -13s-32.333 -16.667 -43 -30s-16 -31 -16 -53c0 -32 9.83301 -55.833 29.5 -71.5
s43.834 -23.5 72.501 -23.5c20.667 0 40.167 3.83301 58.5 11.5s34.166 17 47.499 28s24 23 32 36s12 24.5 12 34.5v84z" />
    <glyph glyph-name="ccedilla" unicode="&#xe7;" horiz-adv-x="402" 
d="M372 53c0 -5.33301 -2.83105 -10.9951 -8.49805 -16.9951s-13.667 -12 -24 -18s-23.166 -11.167 -38.499 -15.5s-32.666 -6.83301 -51.999 -7.5l-14 -60c34 -1.33301 58.167 -9 72.5 -23s21.5 -29.667 21.5 -47c0 -18.667 -7.16699 -35.334 -21.5 -50.001
s-34.5 -22 -60.5 -22c-6 0 -13.167 0.5 -21.5 1.5s-16.333 2.5 -24 4.5s-14.334 4.5 -20.001 7.5s-8.5 6.5 -8.5 10.5c0 3.33301 1.16699 7.16602 3.5 11.499s5.16602 6.5 8.49902 6.5s9.33301 -2.16699 18 -6.5s21.334 -6.5 38.001 -6.5c21.333 0 35.833 4.16699 43.5 12.5
s11.5 17.833 11.5 28.5c0 15.333 -6.33301 26.333 -19 33s-29.667 10.667 -51 12l-29 2l20 85c-28 1.33301 -52.333 7 -73 17s-37.834 23 -51.501 39s-23.834 34.667 -30.501 56s-10 44.333 -10 69v120c0 25.333 3.66699 49.166 11 71.499s18.5 41.666 33.5 57.999
s34 29.166 57 38.499s50.167 14 81.5 14c20 0 38 -2.16699 54 -6.5s29.833 -9.5 41.5 -15.5s20.5 -12.333 26.5 -19s9 -12.667 9 -18c0 -4.66699 -1.83301 -8.66699 -5.5 -12s-7.83398 -5 -12.501 -5c-4 0 -8.5 2.16699 -13.5 6.5s-11.5 9 -19.5 14s-18.333 9.66699 -31 14
s-29 6.5 -49 6.5c-48 0 -84.667 -13 -110 -39s-38 -62 -38 -108v-120c0 -46 12.5 -82 37.5 -108s62.167 -39 111.5 -39c20.667 0 37.667 2.16699 51 6.5s24.333 9 33 14s15.5 9.66699 20.5 14s9.83301 6.5 14.5 6.5s8.66699 -1.66699 12 -5s5 -7.33301 5 -12z" />
    <glyph glyph-name="egrave" unicode="&#xe8;" horiz-adv-x="445" 
d="M229 478c23.333 0 45.6689 -4.49512 67.002 -13.4951s40.166 -21.5 56.499 -37.5s29.333 -35 39 -57s14.5 -46 14.5 -72c0 -18 -2.33301 -32.167 -7 -42.5s-10.834 -17.833 -18.501 -22.5s-16.5 -7.5 -26.5 -8.5s-20.333 -1.5 -31 -1.5h-237v-47
c0 -22.667 4.16699 -43.167 12.5 -61.5s20 -33.833 35 -46.5s32.833 -22.334 53.5 -29.001s43.334 -10 68.001 -10c20.667 0 37.667 2.16699 51 6.5s24.166 9 32.499 14s15 9.66699 20 14s9.83301 6.5 14.5 6.5s8.83398 -2 12.501 -6s5.5 -8 5.5 -12
c0 -4.66699 -3.16699 -10.334 -9.5 -17.001s-15.5 -13 -27.5 -19s-26.5 -11.167 -43.5 -15.5s-36.167 -6.5 -57.5 -6.5c-29.333 0 -56.333 4.33301 -81 13s-46 21 -64 37s-32 35.167 -42 57.5s-15 47.166 -15 74.499v125c0 24 4.66699 46.667 14 68
s22.166 40.166 38.499 56.499s35.333 29.166 57 38.499s44.5 14 68.5 14zM311.003 258.005c24.667 0 40.834 2.33301 48.501 7s11.5 14.667 11.5 30c0 18 -3.33301 35.833 -10 53.5s-16.167 33.5 -28.5 47.5s-27.333 25.333 -45 34s-37.167 13 -58.5 13
c-20 0 -38.833 -3.83301 -56.5 -11.5s-32.834 -18 -45.501 -31s-22.667 -28.167 -30 -45.5s-11 -35.333 -11 -54v-43h225zM172.003 658.005c-6.66699 4 -10 9.99805 -10 17.998c0 4.66699 1.33301 8.83398 4 12.501s6.66699 5.5 12 5.5c2 0 4.33301 -0.666992 7 -2l102 -60
c5.33301 -2.66699 8 -7 8 -13c0 -5.33301 -1.83301 -9.66602 -5.5 -12.999s-8.16699 -5 -13.5 -5c-3.33301 0 -6.33301 1 -9 3z" />
    <glyph glyph-name="eacute" unicode="&#xe9;" horiz-adv-x="445" 
d="M229 478c23.333 0 45.6689 -4.49512 67.002 -13.4951s40.166 -21.5 56.499 -37.5s29.333 -35 39 -57s14.5 -46 14.5 -72c0 -18 -2.33301 -32.167 -7 -42.5s-10.834 -17.833 -18.501 -22.5s-16.5 -7.5 -26.5 -8.5s-20.333 -1.5 -31 -1.5h-237v-47
c0 -22.667 4.16699 -43.167 12.5 -61.5s20 -33.833 35 -46.5s32.833 -22.334 53.5 -29.001s43.334 -10 68.001 -10c20.667 0 37.667 2.16699 51 6.5s24.166 9 32.499 14s15 9.66699 20 14s9.83301 6.5 14.5 6.5s8.83398 -2 12.501 -6s5.5 -8 5.5 -12
c0 -4.66699 -3.16699 -10.334 -9.5 -17.001s-15.5 -13 -27.5 -19s-26.5 -11.167 -43.5 -15.5s-36.167 -6.5 -57.5 -6.5c-29.333 0 -56.333 4.33301 -81 13s-46 21 -64 37s-32 35.167 -42 57.5s-15 47.166 -15 74.499v125c0 24 4.66699 46.667 14 68
s22.166 40.166 38.499 56.499s35.333 29.166 57 38.499s44.5 14 68.5 14zM311.003 258.005c24.667 0 40.834 2.33301 48.501 7s11.5 14.667 11.5 30c0 18 -3.33301 35.833 -10 53.5s-16.167 33.5 -28.5 47.5s-27.333 25.333 -45 34s-37.167 13 -58.5 13
c-20 0 -38.833 -3.83301 -56.5 -11.5s-32.834 -18 -45.501 -31s-22.667 -28.167 -30 -45.5s-11 -35.333 -11 -54v-43h225zM190.003 604.005c-3.33301 -2 -6.33301 -2.99805 -9 -2.99805c-5.33301 0 -9.83301 1.66699 -13.5 5s-5.5 7.66602 -5.5 12.999
c0 6 2.66699 10.333 8 13l102 60c2.66699 1.33301 5 2 7 2c5.33301 0 9.33301 -1.83301 12 -5.5s4 -7.83398 4 -12.501c0 -8 -3.33301 -14 -10 -18z" />
    <glyph glyph-name="ecircumflex" unicode="&#xea;" horiz-adv-x="445" 
d="M229 478c23.333 0 45.6689 -4.49512 67.002 -13.4951s40.166 -21.5 56.499 -37.5s29.333 -35 39 -57s14.5 -46 14.5 -72c0 -18 -2.33301 -32.167 -7 -42.5s-10.834 -17.833 -18.501 -22.5s-16.5 -7.5 -26.5 -8.5s-20.333 -1.5 -31 -1.5h-237v-47
c0 -22.667 4.16699 -43.167 12.5 -61.5s20 -33.833 35 -46.5s32.833 -22.334 53.5 -29.001s43.334 -10 68.001 -10c20.667 0 37.667 2.16699 51 6.5s24.166 9 32.499 14s15 9.66699 20 14s9.83301 6.5 14.5 6.5s8.83398 -2 12.501 -6s5.5 -8 5.5 -12
c0 -4.66699 -3.16699 -10.334 -9.5 -17.001s-15.5 -13 -27.5 -19s-26.5 -11.167 -43.5 -15.5s-36.167 -6.5 -57.5 -6.5c-29.333 0 -56.333 4.33301 -81 13s-46 21 -64 37s-32 35.167 -42 57.5s-15 47.166 -15 74.499v125c0 24 4.66699 46.667 14 68
s22.166 40.166 38.499 56.499s35.333 29.166 57 38.499s44.5 14 68.5 14zM311.003 258.005c24.667 0 40.834 2.33301 48.501 7s11.5 14.667 11.5 30c0 18 -3.33301 35.833 -10 53.5s-16.167 33.5 -28.5 47.5s-27.333 25.333 -45 34s-37.167 13 -58.5 13
c-20 0 -38.833 -3.83301 -56.5 -11.5s-32.834 -18 -45.501 -31s-22.667 -28.167 -30 -45.5s-11 -35.333 -11 -54v-43h225zM124.003 603.005l-4 -2.00098c-1.33301 -0.666992 -2.66602 -1 -3.99902 -1c-4.66699 0 -8.83398 1.83301 -12.501 5.5s-5.5 8.16699 -5.5 13.5
c0 6 3 10.667 9 14l104 56c5.33301 3.33301 11 5 17 5s11.667 -1.66699 17 -5l104 -55c6 -3.33301 9 -9 9 -17c0 -4.66699 -1.66699 -8.5 -5 -11.5s-7.33301 -4.5 -12 -4.5c-1.33301 0 -2.83301 0.333008 -4.5 1s-3.16699 1.33398 -4.5 2.00098l-104 55z" />
    <glyph glyph-name="edieresis" unicode="&#xeb;" horiz-adv-x="445" 
d="M229 478c23.333 0 45.6689 -4.49512 67.002 -13.4951s40.166 -21.5 56.499 -37.5s29.333 -35 39 -57s14.5 -46 14.5 -72c0 -18 -2.33301 -32.167 -7 -42.5s-10.834 -17.833 -18.501 -22.5s-16.5 -7.5 -26.5 -8.5s-20.333 -1.5 -31 -1.5h-237v-47
c0 -22.667 4.16699 -43.167 12.5 -61.5s20 -33.833 35 -46.5s32.833 -22.334 53.5 -29.001s43.334 -10 68.001 -10c20.667 0 37.667 2.16699 51 6.5s24.166 9 32.499 14s15 9.66699 20 14s9.83301 6.5 14.5 6.5s8.83398 -2 12.501 -6s5.5 -8 5.5 -12
c0 -4.66699 -3.16699 -10.334 -9.5 -17.001s-15.5 -13 -27.5 -19s-26.5 -11.167 -43.5 -15.5s-36.167 -6.5 -57.5 -6.5c-29.333 0 -56.333 4.33301 -81 13s-46 21 -64 37s-32 35.167 -42 57.5s-15 47.166 -15 74.499v125c0 24 4.66699 46.667 14 68
s22.166 40.166 38.499 56.499s35.333 29.166 57 38.499s44.5 14 68.5 14zM311.003 258.005c24.667 0 40.834 2.33301 48.501 7s11.5 14.667 11.5 30c0 18 -3.33301 35.833 -10 53.5s-16.167 33.5 -28.5 47.5s-27.333 25.333 -45 34s-37.167 13 -58.5 13
c-20 0 -38.833 -3.83301 -56.5 -11.5s-32.834 -18 -45.501 -31s-22.667 -28.167 -30 -45.5s-11 -35.333 -11 -54v-43h225zM173.003 659.005c8.66699 0 15.667 -2.66699 21 -8s8 -12.333 8 -21s-2.66699 -15.834 -8 -21.501s-12.333 -8.5 -21 -8.5
c-9.33301 0 -16.666 2.83301 -21.999 8.5s-8 12.834 -8 21.501s2.66699 15.667 8 21s12.666 8 21.999 8zM284.003 659.005c8.66699 0 15.667 -2.66699 21 -8s8 -12.333 8 -21s-2.66699 -15.834 -8 -21.501s-12.333 -8.5 -21 -8.5c-9.33301 0 -16.666 2.83301 -21.999 8.5
s-8 12.834 -8 21.501s2.66699 15.667 8 21s12.666 8 21.999 8z" />
    <glyph glyph-name="igrave" unicode="&#xec;" horiz-adv-x="171" 
d="M85 472c5.33301 0 9.66602 -1.5 12.999 -4.5s5 -7.16699 5 -12.5v-437c0 -4.66699 -1.66699 -8.83398 -5 -12.501s-7.66602 -5.5 -12.999 -5.5c-4.66699 0 -8.66699 1.83301 -12 5.5s-5 7.83398 -5 12.501v437c0 5.33301 1.66699 9.5 5 12.5s7.33301 4.5 12 4.5zM28 658
c-6.66699 4 -10 9.99805 -10 17.998c0 4.66699 1.33301 8.83398 4 12.501s6.66699 5.5 12 5.5c2 0 4.33301 -0.666992 7 -2l102 -60c5.33301 -2.66699 8 -7 8 -13c0 -5.33301 -1.83301 -9.66602 -5.5 -12.999s-8.16699 -5 -13.5 -5c-3.33301 0 -6.33301 1 -9 3z" />
    <glyph glyph-name="iacute" unicode="&#xed;" horiz-adv-x="171" 
d="M85 472c5.33301 0 9.66602 -1.5 12.999 -4.5s5 -7.16699 5 -12.5v-437c0 -4.66699 -1.66699 -8.83398 -5 -12.501s-7.66602 -5.5 -12.999 -5.5c-4.66699 0 -8.66699 1.83301 -12 5.5s-5 7.83398 -5 12.501v437c0 5.33301 1.66699 9.5 5 12.5s7.33301 4.5 12 4.5zM46 604
c-3.33301 -2 -6.33301 -2.99805 -9 -2.99805c-5.33301 0 -9.83301 1.66699 -13.5 5s-5.5 7.66602 -5.5 12.999c0 6 2.66699 10.333 8 13l102 60c2.66699 1.33301 5 2 7 2c5.33301 0 9.33301 -1.83301 12 -5.5s4 -7.83398 4 -12.501c0 -8 -3.33301 -14 -10 -18z" />
    <glyph glyph-name="icircumflex" unicode="&#xee;" horiz-adv-x="171" 
d="M85 472c5.33301 0 9.66602 -1.5 12.999 -4.5s5 -7.16699 5 -12.5v-437c0 -4.66699 -1.66699 -8.83398 -5 -12.501s-7.66602 -5.5 -12.999 -5.5c-4.66699 0 -8.66699 1.83301 -12 5.5s-5 7.83398 -5 12.501v437c0 5.33301 1.66699 9.5 5 12.5s7.33301 4.5 12 4.5zM-19 603
l-4 -2.00098c-1.33301 -0.666992 -2.66602 -1 -3.99902 -1c-4.66699 0 -8.83398 1.83301 -12.501 5.5s-5.5 8.16699 -5.5 13.5c0 6 3 10.667 9 14l104 56c5.33301 3.33301 11 5 17 5s11.667 -1.66699 17 -5l104 -55c6 -3.33301 9 -9 9 -17
c0 -4.66699 -1.66699 -8.5 -5 -11.5s-7.33301 -4.5 -12 -4.5c-1.33301 0 -2.83301 0.333008 -4.5 1s-3.16699 1.33398 -4.5 2.00098l-104 55z" />
    <glyph glyph-name="idieresis" unicode="&#xef;" horiz-adv-x="171" 
d="M85 472c5.33301 0 9.66602 -1.5 12.999 -4.5s5 -7.16699 5 -12.5v-437c0 -4.66699 -1.66699 -8.83398 -5 -12.501s-7.66602 -5.5 -12.999 -5.5c-4.66699 0 -8.66699 1.83301 -12 5.5s-5 7.83398 -5 12.501v437c0 5.33301 1.66699 9.5 5 12.5s7.33301 4.5 12 4.5zM31 659
c8.66699 0 15.667 -2.66699 21 -8s8 -12.333 8 -21s-2.66699 -15.834 -8 -21.501s-12.333 -8.5 -21 -8.5c-9.33301 0 -16.666 2.83301 -21.999 8.5s-8 12.834 -8 21.501s2.66699 15.667 8 21s12.666 8 21.999 8zM142 659c8.66699 0 15.667 -2.66699 21 -8s8 -12.333 8 -21
s-2.66699 -15.834 -8 -21.501s-12.333 -8.5 -21 -8.5c-9.33301 0 -16.666 2.83301 -21.999 8.5s-8 12.834 -8 21.501s2.66699 15.667 8 21s12.666 8 21.999 8z" />
    <glyph glyph-name="eth" unicode="&#xf0;" horiz-adv-x="468" 
d="M127 731c-4 0 -6.99902 1.66504 -8.99902 4.99805s-3 7.33301 -3 12c0 5.33301 1.66699 10 5 14s9.66602 6 18.999 6c23.333 0 49 -7 77 -21s54.667 -35.333 80 -64l80 46c2.66699 1.33301 5 2 7 2c4.66699 0 8.83398 -1.66699 12.501 -5s5.5 -7.33301 5.5 -12
c0 -7.33301 -3 -12.333 -9 -15l-74 -43c25.333 -34 46.166 -75 62.499 -123s24.5 -104 24.5 -168v-189c0 -24 -4.83301 -46.833 -14.5 -68.5s-22.667 -41 -39 -58s-35.166 -30.5 -56.499 -40.5s-44 -15 -68 -15s-46.667 5 -68 15s-40 23.333 -56 40s-28.833 36 -38.5 58
s-14.5 45 -14.5 69v122c0 24 4.66699 46.833 14 68.5s22 40.834 38 57.501s34.833 29.834 56.5 39.501s44.5 14.5 68.5 14.5c14 0 28.667 -1.83301 44 -5.5s29.5 -9.16699 42.5 -16.5s24.667 -16.333 35 -27s17.5 -23 21.5 -37c-5.33301 55.333 -15.333 103.166 -30 143.499
s-32.334 74.5 -53.001 102.5l-98 -56c-3.33301 -2 -6.33301 -3 -9 -3c-4.66699 0 -8.66699 2 -12 6s-5 8.33301 -5 13c0 6 3 10.667 9 14l92 53c-21.333 22.667 -44 39.334 -68 50.001s-47 16 -69 16zM370.001 302.998c0 18 -3.83398 35.332 -11.501 51.999
s-18 31.5 -31 44.5s-28.167 23.5 -45.5 31.5s-35.666 12 -54.999 12c-20 0 -38.667 -4.16699 -56 -12.5s-32.333 -19.166 -45 -32.499s-22.667 -28.833 -30 -46.5s-11 -35.5 -11 -53.5v-122c0 -18.667 3.66699 -36.834 11 -54.501s17.5 -33.334 30.5 -47.001
s28 -24.667 45 -33s35.5 -12.5 55.5 -12.5s38.667 4.16699 56 12.5s32.5 19.333 45.5 33s23.167 29.334 30.5 47.001s11 35.834 11 54.501v127z" />
    <glyph glyph-name="ntilde" unicode="&#xf1;" horiz-adv-x="481" 
d="M306 653c11.333 0 20.3369 1.66797 27.0039 5.00098s12.167 7 16.5 11s8 7.66699 11 11s6.5 5 10.5 5c3.33301 0 6.5 -1.33301 9.5 -4s4.5 -6.33398 4.5 -11.001c0 -8 -2.83301 -15 -8.5 -21s-12.834 -11.333 -21.501 -16s-17.834 -8.16699 -27.501 -10.5
s-18.5 -3.5 -26.5 -3.5c-12 0 -22.833 2 -32.5 6l-29 12.5c-9.66699 4.33301 -19.834 8.5 -30.501 12.5s-23 6 -37 6c-10.667 0 -19.667 -1.83301 -27 -5.5s-13.5 -7.66699 -18.5 -12s-9.33301 -8.33301 -13 -12s-7.16699 -5.5 -10.5 -5.5c-8.66699 0 -13 5.66699 -13 17
c0 6.66699 3 13 9 19s13.333 11.5 22 16.5s18.167 9 28.5 12s20.166 4.5 29.499 4.5c12 0 23 -2 33 -6s19.833 -8.16699 29.5 -12.5s19.667 -8.5 30 -12.5s21.833 -6 34.5 -6zM103.004 18.001c0 -4.66699 -1.66895 -8.83398 -5.00195 -12.501s-7.66602 -5.5 -12.999 -5.5
s-9.5 1.83301 -12.5 5.5s-4.5 7.83398 -4.5 12.501v437c0 11.333 5.66699 17 17 17c5.33301 0 9.66602 -1.5 12.999 -4.5s5 -7.16699 5 -12.5v-53c11.333 19.333 28 36.833 50 52.5s50 23.5 84 23.5c24.667 0 47.834 -4.66699 69.501 -14s40.667 -22.166 57 -38.499
s29.333 -35.5 39 -57.5s14.5 -45.333 14.5 -70v-280c0 -6 -1.83301 -10.5 -5.5 -13.5s-7.83398 -4.5 -12.501 -4.5c-4 0 -7.83301 1.5 -11.5 4.5s-5.5 7.5 -5.5 13.5v280c0 18 -3.66699 35.833 -11 53.5s-17.5 33.167 -30.5 46.5s-28.167 24.166 -45.5 32.499
s-35.666 12.5 -54.999 12.5c-17.333 0 -34.166 -3.33301 -50.499 -10s-30.833 -16.167 -43.5 -28.5s-23 -27.5 -31 -45.5s-12 -38.333 -12 -61v-280z" />
    <glyph glyph-name="ograve" unicode="&#xf2;" 
d="M227 478c24 0 46.667 -4.66992 68 -14.0029s40.166 -22.166 56.499 -38.499s29.333 -35.5 39 -57.5s14.5 -45.333 14.5 -70v-122c0 -24 -4.83301 -46.833 -14.5 -68.5s-22.667 -41 -39 -58s-35.166 -30.5 -56.499 -40.5s-44 -15 -68 -15s-46.667 5 -68 15
s-40 23.333 -56 40s-28.833 36 -38.5 58s-14.5 45 -14.5 69v122c0 24 4.66699 46.833 14 68.5s22 40.834 38 57.501s34.833 29.834 56.5 39.501s44.5 14.5 68.5 14.5zM370 297.997c0 18 -3.66699 35.833 -11 53.5s-17.5 33.167 -30.5 46.5s-28.167 24.166 -45.5 32.499
s-36 12.5 -56 12.5s-38.667 -4.16699 -56 -12.5s-32.333 -19.166 -45 -32.499s-22.667 -28.833 -30 -46.5s-11 -35.5 -11 -53.5v-122c0 -18.667 3.66699 -36.834 11 -54.501s17.5 -33.334 30.5 -47.001s28 -24.667 45 -33s35.5 -12.5 55.5 -12.5s38.667 4.16699 56 12.5
s32.5 19.333 45.5 33s23.167 29.334 30.5 47.001s11 35.834 11 54.501v122zM171 657.997c-6.66699 4 -10 9.99805 -10 17.998c0 4.66699 1.33301 8.83398 4 12.501s6.66699 5.5 12 5.5c2 0 4.33301 -0.666992 7 -2l102 -60c5.33301 -2.66699 8 -7 8 -13
c0 -5.33301 -1.83301 -9.66602 -5.5 -12.999s-8.16699 -5 -13.5 -5c-3.33301 0 -6.33301 1 -9 3z" />
    <glyph glyph-name="oacute" unicode="&#xf3;" 
d="M227 478c24 0 46.667 -4.66992 68 -14.0029s40.166 -22.166 56.499 -38.499s29.333 -35.5 39 -57.5s14.5 -45.333 14.5 -70v-122c0 -24 -4.83301 -46.833 -14.5 -68.5s-22.667 -41 -39 -58s-35.166 -30.5 -56.499 -40.5s-44 -15 -68 -15s-46.667 5 -68 15
s-40 23.333 -56 40s-28.833 36 -38.5 58s-14.5 45 -14.5 69v122c0 24 4.66699 46.833 14 68.5s22 40.834 38 57.501s34.833 29.834 56.5 39.501s44.5 14.5 68.5 14.5zM370 297.997c0 18 -3.66699 35.833 -11 53.5s-17.5 33.167 -30.5 46.5s-28.167 24.166 -45.5 32.499
s-36 12.5 -56 12.5s-38.667 -4.16699 -56 -12.5s-32.333 -19.166 -45 -32.499s-22.667 -28.833 -30 -46.5s-11 -35.5 -11 -53.5v-122c0 -18.667 3.66699 -36.834 11 -54.501s17.5 -33.334 30.5 -47.001s28 -24.667 45 -33s35.5 -12.5 55.5 -12.5s38.667 4.16699 56 12.5
s32.5 19.333 45.5 33s23.167 29.334 30.5 47.001s11 35.834 11 54.501v122zM189 603.997c-3.33301 -2 -6.33301 -2.99805 -9 -2.99805c-5.33301 0 -9.83301 1.66699 -13.5 5s-5.5 7.66602 -5.5 12.999c0 6 2.66699 10.333 8 13l102 60c2.66699 1.33301 5 2 7 2
c5.33301 0 9.33301 -1.83301 12 -5.5s4 -7.83398 4 -12.501c0 -8 -3.33301 -14 -10 -18z" />
    <glyph glyph-name="ocircumflex" unicode="&#xf4;" 
d="M227 478c24 0 46.667 -4.66992 68 -14.0029s40.166 -22.166 56.499 -38.499s29.333 -35.5 39 -57.5s14.5 -45.333 14.5 -70v-122c0 -24 -4.83301 -46.833 -14.5 -68.5s-22.667 -41 -39 -58s-35.166 -30.5 -56.499 -40.5s-44 -15 -68 -15s-46.667 5 -68 15
s-40 23.333 -56 40s-28.833 36 -38.5 58s-14.5 45 -14.5 69v122c0 24 4.66699 46.833 14 68.5s22 40.834 38 57.501s34.833 29.834 56.5 39.501s44.5 14.5 68.5 14.5zM370 297.997c0 18 -3.66699 35.833 -11 53.5s-17.5 33.167 -30.5 46.5s-28.167 24.166 -45.5 32.499
s-36 12.5 -56 12.5s-38.667 -4.16699 -56 -12.5s-32.333 -19.166 -45 -32.499s-22.667 -28.833 -30 -46.5s-11 -35.5 -11 -53.5v-122c0 -18.667 3.66699 -36.834 11 -54.501s17.5 -33.334 30.5 -47.001s28 -24.667 45 -33s35.5 -12.5 55.5 -12.5s38.667 4.16699 56 12.5
s32.5 19.333 45.5 33s23.167 29.334 30.5 47.001s11 35.834 11 54.501v122zM123 602.997l-4 -2.00098c-1.33301 -0.666992 -2.66602 -1 -3.99902 -1c-4.66699 0 -8.83398 1.83301 -12.501 5.5s-5.5 8.16699 -5.5 13.5c0 6 3 10.667 9 14l104 56c5.33301 3.33301 11 5 17 5
s11.667 -1.66699 17 -5l104 -55c6 -3.33301 9 -9 9 -17c0 -4.66699 -1.66699 -8.5 -5 -11.5s-7.33301 -4.5 -12 -4.5c-1.33301 0 -2.83301 0.333008 -4.5 1s-3.16699 1.33398 -4.5 2.00098l-104 55z" />
    <glyph glyph-name="otilde" unicode="&#xf5;" 
d="M227 478c24 0 46.667 -4.66992 68 -14.0029s40.166 -22.166 56.499 -38.499s29.333 -35.5 39 -57.5s14.5 -45.333 14.5 -70v-122c0 -24 -4.83301 -46.833 -14.5 -68.5s-22.667 -41 -39 -58s-35.166 -30.5 -56.499 -40.5s-44 -15 -68 -15s-46.667 5 -68 15
s-40 23.333 -56 40s-28.833 36 -38.5 58s-14.5 45 -14.5 69v122c0 24 4.66699 46.833 14 68.5s22 40.834 38 57.501s34.833 29.834 56.5 39.501s44.5 14.5 68.5 14.5zM370 297.997c0 18 -3.66699 35.833 -11 53.5s-17.5 33.167 -30.5 46.5s-28.167 24.166 -45.5 32.499
s-36 12.5 -56 12.5s-38.667 -4.16699 -56 -12.5s-32.333 -19.166 -45 -32.499s-22.667 -28.833 -30 -46.5s-11 -35.5 -11 -53.5v-122c0 -18.667 3.66699 -36.834 11 -54.501s17.5 -33.334 30.5 -47.001s28 -24.667 45 -33s35.5 -12.5 55.5 -12.5s38.667 4.16699 56 12.5
s32.5 19.333 45.5 33s23.167 29.334 30.5 47.001s11 35.834 11 54.501v122zM296 652.997c11.333 0 20.3369 1.66797 27.0039 5.00098s12.167 7 16.5 11s8 7.66699 11 11s6.5 5 10.5 5c3.33301 0 6.5 -1.33301 9.5 -4s4.5 -6.33398 4.5 -11.001c0 -8 -2.83301 -15 -8.5 -21
s-12.834 -11.333 -21.501 -16s-17.834 -8.16699 -27.501 -10.5s-18.5 -3.5 -26.5 -3.5c-12 0 -22.833 2 -32.5 6l-29 12.5c-9.66699 4.33301 -19.834 8.5 -30.501 12.5s-23 6 -37 6c-10.667 0 -19.667 -1.83301 -27 -5.5s-13.5 -7.66699 -18.5 -12
s-9.33301 -8.33301 -13 -12s-7.16699 -5.5 -10.5 -5.5c-8.66699 0 -13 5.66699 -13 17c0 6.66699 3 13 9 19s13.333 11.5 22 16.5s18.167 9 28.5 12s20.166 4.5 29.499 4.5c12 0 23 -2 33 -6s19.833 -8.16699 29.5 -12.5s19.667 -8.5 30 -12.5s21.833 -6 34.5 -6z" />
    <glyph glyph-name="odieresis" unicode="&#xf6;" 
d="M227 478c24 0 46.667 -4.66992 68 -14.0029s40.166 -22.166 56.499 -38.499s29.333 -35.5 39 -57.5s14.5 -45.333 14.5 -70v-122c0 -24 -4.83301 -46.833 -14.5 -68.5s-22.667 -41 -39 -58s-35.166 -30.5 -56.499 -40.5s-44 -15 -68 -15s-46.667 5 -68 15
s-40 23.333 -56 40s-28.833 36 -38.5 58s-14.5 45 -14.5 69v122c0 24 4.66699 46.833 14 68.5s22 40.834 38 57.501s34.833 29.834 56.5 39.501s44.5 14.5 68.5 14.5zM370 297.997c0 18 -3.66699 35.833 -11 53.5s-17.5 33.167 -30.5 46.5s-28.167 24.166 -45.5 32.499
s-36 12.5 -56 12.5s-38.667 -4.16699 -56 -12.5s-32.333 -19.166 -45 -32.499s-22.667 -28.833 -30 -46.5s-11 -35.5 -11 -53.5v-122c0 -18.667 3.66699 -36.834 11 -54.501s17.5 -33.334 30.5 -47.001s28 -24.667 45 -33s35.5 -12.5 55.5 -12.5s38.667 4.16699 56 12.5
s32.5 19.333 45.5 33s23.167 29.334 30.5 47.001s11 35.834 11 54.501v122zM172 658.997c8.66699 0 15.667 -2.66699 21 -8s8 -12.333 8 -21s-2.66699 -15.834 -8 -21.501s-12.333 -8.5 -21 -8.5c-9.33301 0 -16.666 2.83301 -21.999 8.5s-8 12.834 -8 21.501
s2.66699 15.667 8 21s12.666 8 21.999 8zM283 658.997c8.66699 0 15.667 -2.66699 21 -8s8 -12.333 8 -21s-2.66699 -15.834 -8 -21.501s-12.333 -8.5 -21 -8.5c-9.33301 0 -16.666 2.83301 -21.999 8.5s-8 12.834 -8 21.501s2.66699 15.667 8 21s12.666 8 21.999 8z" />
    <glyph glyph-name="divide" unicode="&#xf7;" horiz-adv-x="461" 
d="M227 123c11.333 0 21.333 -4.33301 30 -13s13 -18.667 13 -30s-4.33301 -21.333 -13 -30s-18.667 -13 -30 -13c-12 0 -22.333 4.33301 -31 13s-13 18.667 -13 30s4.33301 21.333 13 30s19 13 31 13zM227 444c11.333 0 21.333 -4.33301 30 -13s13 -18.667 13 -30
s-4.33301 -21.333 -13 -30s-18.667 -13 -30 -13c-12 0 -22.333 4.33301 -31 13s-13 18.667 -13 30s4.33301 21.333 13 30s19 13 31 13zM53 240c0 5.33301 1.5 9.66602 4.5 12.999s7.16699 5 12.5 5h320c4.66699 0 8.83398 -1.66699 12.501 -5s5.5 -7.66602 5.5 -12.999
s-1.83301 -9.5 -5.5 -12.5s-7.83398 -4.5 -12.501 -4.5h-320c-11.333 0 -17 5.66699 -17 17z" />
    <glyph glyph-name="oslash" unicode="&#xf8;" 
d="M227 478c31.333 0 60.998 -8.33398 88.998 -25.001l25 48c2.66699 5.33301 7 8 13 8c4 0 8 -1.83301 12 -5.5s6 -8.16699 6 -13.5c0 -3.33301 -1 -7 -3 -11l-25 -47c18.667 -16.667 33.5 -36.5 44.5 -59.5s16.5 -47.833 16.5 -74.5v-122
c0 -24 -4.83301 -46.833 -14.5 -68.5s-22.667 -41 -39 -58s-35.166 -30.5 -56.499 -40.5s-44 -15 -68 -15c-17.333 0 -33.833 2.5 -49.5 7.5s-30.167 12.167 -43.5 21.5l-23 -44c-4 -7.33301 -9.66699 -11 -17 -11c-4 0 -7.66699 1.33301 -11 4s-5 6.33398 -5 11.001
c0 4 0.666992 7 2 9l27 53c-17.333 17.333 -31.166 37.166 -41.499 59.499s-15.5 46.166 -15.5 71.499v122c0 24 4.66699 46.833 14 68.5s22 40.834 38 57.501s34.833 29.834 56.5 39.501s44.5 14.5 68.5 14.5zM369.998 297.999c0 18.667 -3.83301 36.8311 -11.5 54.498
s-18.167 33.167 -31.5 46.5l-178 -345c22.667 -16.667 48.667 -25 78 -25c20 0 38.667 4.16699 56 12.5s32.5 19.333 45.5 33s23.167 29.334 30.5 47.001s11 35.834 11 54.501v122zM84.998 175.996c0 -18 3.33301 -35.6689 10 -53.002s16 -32.666 28 -45.999l177 344
c-22 14.667 -46.333 22 -73 22c-20 0 -38.667 -4.16699 -56 -12.5s-32.333 -19.166 -45 -32.499s-22.667 -28.833 -30 -46.5s-11 -35.5 -11 -53.5v-122z" />
    <glyph glyph-name="ugrave" unicode="&#xf9;" horiz-adv-x="483" 
d="M242 -6c-24.667 0 -47.833 5.00195 -69.5 15.002s-40.5 23.167 -56.5 39.5s-28.667 35.333 -38 57s-14 44.5 -14 68.5v280c0 4.66699 1.66699 8.83398 5 12.501s7.66602 5.5 12.999 5.5c4.66699 0 8.66699 -1.83301 12 -5.5s5 -7.83398 5 -12.501v-280
c0 -18.667 3.66699 -36.667 11 -54s17.5 -32.833 30.5 -46.5s28.167 -24.5 45.5 -32.5s36 -12 56 -12s38.5 4 55.5 12s32 18.833 45 32.5s23.167 29.167 30.5 46.5s11 35.333 11 54v281c0 4.66699 1.66699 8.66699 5 12s7.66602 5 12.999 5s9.5 -1.66699 12.5 -5
s4.5 -7.33301 4.5 -12v-281c0 -24 -4.66699 -46.833 -14 -68.5s-22.166 -40.834 -38.499 -57.501s-35.166 -29.834 -56.499 -39.501s-44 -14.5 -68 -14.5zM185.001 658.002c-6.66699 4 -10 9.99805 -10 17.998c0 4.66699 1.33301 8.83398 4 12.501s6.66699 5.5 12 5.5
c2 0 4.33301 -0.666992 7 -2l102 -60c5.33301 -2.66699 8 -7 8 -13c0 -5.33301 -1.83301 -9.66602 -5.5 -12.999s-8.16699 -5 -13.5 -5c-3.33301 0 -6.33301 1 -9 3z" />
    <glyph glyph-name="uacute" unicode="&#xfa;" horiz-adv-x="483" 
d="M242 -6c-24.667 0 -47.833 5.00195 -69.5 15.002s-40.5 23.167 -56.5 39.5s-28.667 35.333 -38 57s-14 44.5 -14 68.5v280c0 4.66699 1.66699 8.83398 5 12.501s7.66602 5.5 12.999 5.5c4.66699 0 8.66699 -1.83301 12 -5.5s5 -7.83398 5 -12.501v-280
c0 -18.667 3.66699 -36.667 11 -54s17.5 -32.833 30.5 -46.5s28.167 -24.5 45.5 -32.5s36 -12 56 -12s38.5 4 55.5 12s32 18.833 45 32.5s23.167 29.167 30.5 46.5s11 35.333 11 54v281c0 4.66699 1.66699 8.66699 5 12s7.66602 5 12.999 5s9.5 -1.66699 12.5 -5
s4.5 -7.33301 4.5 -12v-281c0 -24 -4.66699 -46.833 -14 -68.5s-22.166 -40.834 -38.499 -57.501s-35.166 -29.834 -56.499 -39.501s-44 -14.5 -68 -14.5zM203.001 604.002c-3.33301 -2 -6.33301 -2.99805 -9 -2.99805c-5.33301 0 -9.83301 1.66699 -13.5 5
s-5.5 7.66602 -5.5 12.999c0 6 2.66699 10.333 8 13l102 60c2.66699 1.33301 5 2 7 2c5.33301 0 9.33301 -1.83301 12 -5.5s4 -7.83398 4 -12.501c0 -8 -3.33301 -14 -10 -18z" />
    <glyph glyph-name="ucircumflex" unicode="&#xfb;" horiz-adv-x="483" 
d="M242 -6c-24.667 0 -47.833 5.00195 -69.5 15.002s-40.5 23.167 -56.5 39.5s-28.667 35.333 -38 57s-14 44.5 -14 68.5v280c0 4.66699 1.66699 8.83398 5 12.501s7.66602 5.5 12.999 5.5c4.66699 0 8.66699 -1.83301 12 -5.5s5 -7.83398 5 -12.501v-280
c0 -18.667 3.66699 -36.667 11 -54s17.5 -32.833 30.5 -46.5s28.167 -24.5 45.5 -32.5s36 -12 56 -12s38.5 4 55.5 12s32 18.833 45 32.5s23.167 29.167 30.5 46.5s11 35.333 11 54v281c0 4.66699 1.66699 8.66699 5 12s7.66602 5 12.999 5s9.5 -1.66699 12.5 -5
s4.5 -7.33301 4.5 -12v-281c0 -24 -4.66699 -46.833 -14 -68.5s-22.166 -40.834 -38.499 -57.501s-35.166 -29.834 -56.499 -39.501s-44 -14.5 -68 -14.5zM137.001 603.002l-4 -2.00098c-1.33301 -0.666992 -2.66602 -1 -3.99902 -1
c-4.66699 0 -8.83398 1.83301 -12.501 5.5s-5.5 8.16699 -5.5 13.5c0 6 3 10.667 9 14l104 56c5.33301 3.33301 11 5 17 5s11.667 -1.66699 17 -5l104 -55c6 -3.33301 9 -9 9 -17c0 -4.66699 -1.66699 -8.5 -5 -11.5s-7.33301 -4.5 -12 -4.5
c-1.33301 0 -2.83301 0.333008 -4.5 1s-3.16699 1.33398 -4.5 2.00098l-104 55z" />
    <glyph glyph-name="udieresis" unicode="&#xfc;" horiz-adv-x="483" 
d="M242 -6c-24.667 0 -47.833 5.00195 -69.5 15.002s-40.5 23.167 -56.5 39.5s-28.667 35.333 -38 57s-14 44.5 -14 68.5v280c0 4.66699 1.66699 8.83398 5 12.501s7.66602 5.5 12.999 5.5c4.66699 0 8.66699 -1.83301 12 -5.5s5 -7.83398 5 -12.501v-280
c0 -18.667 3.66699 -36.667 11 -54s17.5 -32.833 30.5 -46.5s28.167 -24.5 45.5 -32.5s36 -12 56 -12s38.5 4 55.5 12s32 18.833 45 32.5s23.167 29.167 30.5 46.5s11 35.333 11 54v281c0 4.66699 1.66699 8.66699 5 12s7.66602 5 12.999 5s9.5 -1.66699 12.5 -5
s4.5 -7.33301 4.5 -12v-281c0 -24 -4.66699 -46.833 -14 -68.5s-22.166 -40.834 -38.499 -57.501s-35.166 -29.834 -56.499 -39.501s-44 -14.5 -68 -14.5zM186.001 659.002c8.66699 0 15.667 -2.66699 21 -8s8 -12.333 8 -21s-2.66699 -15.834 -8 -21.501
s-12.333 -8.5 -21 -8.5c-9.33301 0 -16.666 2.83301 -21.999 8.5s-8 12.834 -8 21.501s2.66699 15.667 8 21s12.666 8 21.999 8zM297.001 659.002c8.66699 0 15.667 -2.66699 21 -8s8 -12.333 8 -21s-2.66699 -15.834 -8 -21.501s-12.333 -8.5 -21 -8.5
c-9.33301 0 -16.666 2.83301 -21.999 8.5s-8 12.834 -8 21.501s2.66699 15.667 8 21s12.666 8 21.999 8z" />
    <glyph glyph-name="yacute" unicode="&#xfd;" horiz-adv-x="395" 
d="M358 478c4.66699 0 8.83496 -1.50098 12.502 -4.50098s5.5 -7.16699 5.5 -12.5c0 -2.66699 -0.333008 -4.66699 -1 -6l-160 -442l-30.5 -81.5c-11 -29 -23.833 -56 -38.5 -81s-31 -45.833 -49 -62.5s-38.333 -25 -61 -25c-4.66699 0 -8.66699 1.5 -12 4.5
s-5 7.16699 -5 12.5c0 4.66699 1.16699 8.83398 3.5 12.501s6.16602 5.5 11.499 5.5c18 0 34.167 6.66699 48.5 20s27.333 30.5 39 51.5s22.167 44.167 31.5 69.5l27 74l-160 442c-1.33301 2.66699 -2 4.66699 -2 6c0 4.66699 1.83301 8.66699 5.5 12s8.16699 5 13.5 5
c8.66699 0 14 -3.66699 16 -11l145 -400l144 400c3.33301 7.33301 8.66602 11 15.999 11zM158.001 603.999c-3.33301 -2 -6.33301 -2.99805 -9 -2.99805c-5.33301 0 -9.83301 1.66699 -13.5 5s-5.5 7.66602 -5.5 12.999c0 6 2.66699 10.333 8 13l102 60
c2.66699 1.33301 5 2 7 2c5.33301 0 9.33301 -1.83301 12 -5.5s4 -7.83398 4 -12.501c0 -8 -3.33301 -14 -10 -18z" />
    <glyph glyph-name="thorn" unicode="&#xfe;" horiz-adv-x="468" 
d="M86 768c5.33301 0 9.66309 -1.50098 12.9961 -4.50098s5 -7.16699 5 -12.5v-349c11.333 19.333 28 36.833 50 52.5s50 23.5 84 23.5c24.667 0 47.834 -4.66699 69.501 -14s40.667 -22.166 57 -38.499s29.333 -35.5 39 -57.5s14.5 -45.333 14.5 -70v-122
c0 -24 -4.83301 -46.833 -14.5 -68.5s-22.667 -41 -39 -58s-35.166 -30.5 -56.499 -40.5s-44 -15 -68 -15c-30.667 0 -58.167 7.5 -82.5 22.5s-42.166 32.833 -53.499 53.5v-289c0 -4.66699 -1.66699 -8.83398 -5 -12.501s-7.66602 -5.5 -12.999 -5.5
s-9.5 1.83301 -12.5 5.5s-4.5 7.83398 -4.5 12.501v970c0 11.333 5.66699 17 17 17zM382.997 297.999c0 18 -3.66992 35.832 -11.0029 53.499s-17.5 33.167 -30.5 46.5s-28.167 24.166 -45.5 32.499s-35.666 12.5 -54.999 12.5c-17.333 0 -34.166 -3.33301 -50.499 -10
s-30.833 -16.167 -43.5 -28.5s-23 -27.5 -31 -45.5s-12 -38.333 -12 -61v-159c0 -8.66699 3.5 -19.167 10.5 -31.5s16.667 -24.333 29 -36s26.833 -21.667 43.5 -30s35 -12.5 55 -12.5c18.667 0 36.667 4.16699 54 12.5s32.333 19.333 45 33s22.834 29.334 30.501 47.001
s11.5 35.834 11.5 54.501v122z" />
    <glyph glyph-name="ydieresis" unicode="&#xff;" horiz-adv-x="395" 
d="M358 478c4.66699 0 8.83496 -1.50098 12.502 -4.50098s5.5 -7.16699 5.5 -12.5c0 -2.66699 -0.333008 -4.66699 -1 -6l-160 -442l-30.5 -81.5c-11 -29 -23.833 -56 -38.5 -81s-31 -45.833 -49 -62.5s-38.333 -25 -61 -25c-4.66699 0 -8.66699 1.5 -12 4.5
s-5 7.16699 -5 12.5c0 4.66699 1.16699 8.83398 3.5 12.501s6.16602 5.5 11.499 5.5c18 0 34.167 6.66699 48.5 20s27.333 30.5 39 51.5s22.167 44.167 31.5 69.5l27 74l-160 442c-1.33301 2.66699 -2 4.66699 -2 6c0 4.66699 1.83301 8.66699 5.5 12s8.16699 5 13.5 5
c8.66699 0 14 -3.66699 16 -11l145 -400l144 400c3.33301 7.33301 8.66602 11 15.999 11zM142.001 658.999c8.66699 0 15.667 -2.66699 21 -8s8 -12.333 8 -21s-2.66699 -15.834 -8 -21.501s-12.333 -8.5 -21 -8.5c-9.33301 0 -16.666 2.83301 -21.999 8.5
s-8 12.834 -8 21.501s2.66699 15.667 8 21s12.666 8 21.999 8zM253.001 658.999c8.66699 0 15.667 -2.66699 21 -8s8 -12.333 8 -21s-2.66699 -15.834 -8 -21.501s-12.333 -8.5 -21 -8.5c-9.33301 0 -16.666 2.83301 -21.999 8.5s-8 12.834 -8 21.501s2.66699 15.667 8 21
s12.666 8 21.999 8z" />
    <glyph glyph-name="Amacron" unicode="&#x100;" horiz-adv-x="521" 
d="M43 0c-4.66699 0 -8.83203 1.33105 -12.499 3.99805s-5.5 6.66699 -5.5 12c0 2.66699 0.333008 4.66699 1 6l217 701c2.66699 9.33301 8.66699 14 18 14s15.666 -4.66699 18.999 -14l215 -701c0 -1.33301 0.166992 -2.16602 0.5 -2.49902s0.5 -1.16602 0.5 -2.49902
c0 -4.66699 -2 -8.66699 -6 -12s-8.66699 -5 -14 -5c-8 -0 -13.333 4.33301 -16 13l-51 164h-298l-50 -164c-2.66699 -8.66699 -8.66699 -13 -18 -13zM398.002 212.998l-137 448l-139 -448h276zM133.002 922.998c0 5.33301 1.5 9.66602 4.5 12.999s7.16699 5 12.5 5h220
c4.66699 0 8.83398 -1.66699 12.501 -5s5.5 -7.66602 5.5 -12.999s-1.83301 -9.5 -5.5 -12.5s-7.83398 -4.5 -12.501 -4.5h-220c-11.333 0 -17 5.66699 -17 17z" />
    <glyph glyph-name="amacron" unicode="&#x101;" horiz-adv-x="423" 
d="M79 664c0 5.33301 1.5 9.66602 4.5 12.999s7.16699 5 12.5 5h220c4.66699 0 8.83398 -1.66699 12.501 -5s5.5 -7.66602 5.5 -12.999s-1.83301 -9.5 -5.5 -12.5s-7.83398 -4.5 -12.501 -4.5h-220c-11.333 0 -17 5.66699 -17 17zM194 478
c30.667 0 56.498 -5.33301 77.498 -16s38 -25 51 -43s22.333 -38.5 28 -61.5s8.5 -46.833 8.5 -71.5v-268c0 -5.33301 -1.5 -9.66602 -4.5 -12.999s-7.16699 -5 -12.5 -5s-9.66602 1.66699 -12.999 5s-5 7.66602 -5 12.999v52c-17.333 -19.333 -38.333 -36.833 -63 -52.5
s-53.667 -23.5 -87 -23.5c-19.333 0 -37.5 2.66699 -54.5 8s-31.833 13.5 -44.5 24.5s-22.5 24.667 -29.5 41s-10.5 35.833 -10.5 58.5c0 26.667 5.66699 48.5 17 65.5s27.166 30.5 47.499 40.5s44.833 16.833 73.5 20.5s60.334 5.5 95.001 5.5h56v28
c0 18.667 -2.5 37.334 -7.5 56.001s-12.667 35.5 -23 50.5s-23.833 27.167 -40.5 36.5s-37 14 -61 14c-15.333 0 -28.833 -1.33301 -40.5 -4s-21.667 -5.83398 -30 -9.50098l-21 -9.5c-5.66699 -2.66699 -9.83398 -4 -12.501 -4c-5.33301 0 -9.66602 2.5 -12.999 7.5
s-5 9.16699 -5 12.5c0 4.66699 3.66699 9.5 11 14.5s16.833 9.5 28.5 13.5s24.834 7.33301 39.501 10s29.667 4 45 4zM323.998 223l-54.999 0.000976562c-26 0 -50.833 -1 -74.5 -3s-44.834 -6.33301 -63.501 -13s-33.5 -16.334 -44.5 -29.001s-16.5 -30 -16.5 -52
c0 -34 9.83301 -58.667 29.5 -74s44.167 -23 73.5 -23c18.667 0 37 3.66699 55 11s34.167 16.5 48.5 27.5s25.833 23 34.5 36s13 24.833 13 35.5v84z" />
    <glyph glyph-name="Abreve" unicode="&#x102;" horiz-adv-x="521" 
d="M43 0c-4.66699 0 -8.83203 1.33105 -12.499 3.99805s-5.5 6.66699 -5.5 12c0 2.66699 0.333008 4.66699 1 6l217 701c2.66699 9.33301 8.66699 14 18 14s15.666 -4.66699 18.999 -14l215 -701c0 -1.33301 0.166992 -2.16602 0.5 -2.49902s0.5 -1.16602 0.5 -2.49902
c0 -4.66699 -2 -8.66699 -6 -12s-8.66699 -5 -14 -5c-8 -0 -13.333 4.33301 -16 13l-51 164h-298l-50 -164c-2.66699 -8.66699 -8.66699 -13 -18 -13zM398.002 212.998l-137 448l-139 -448h276zM369.002 968.998c0 -14.667 -3 -28.667 -9 -42s-14 -25 -24 -35
s-21.667 -17.833 -35 -23.5s-27 -8.5 -41 -8.5c-14.667 0 -28.5 2.83301 -41.5 8.5s-24.5 13.5 -34.5 23.5s-18 21.667 -24 35s-9 27.333 -9 42h32c0 -23.333 7.5 -43 22.5 -59s33.167 -24 54.5 -24c20.667 0 38.5 8 53.5 24s22.5 35.667 22.5 59h33z" />
    <glyph glyph-name="abreve" unicode="&#x103;" horiz-adv-x="423" 
d="M316 710c0 -14.667 -3 -28.667 -9 -42s-14 -25 -24 -35s-21.667 -17.833 -35 -23.5s-27 -8.5 -41 -8.5c-14.667 0 -28.5 2.83301 -41.5 8.5s-24.5 13.5 -34.5 23.5s-18 21.667 -24 35s-9 27.333 -9 42h32c0 -23.333 7.5 -43 22.5 -59s33.167 -24 54.5 -24
c20.667 0 38.5 8 53.5 24s22.5 35.667 22.5 59h33zM194 478c30.667 0 56.498 -5.33301 77.498 -16s38 -25 51 -43s22.333 -38.5 28 -61.5s8.5 -46.833 8.5 -71.5v-268c0 -5.33301 -1.5 -9.66602 -4.5 -12.999s-7.16699 -5 -12.5 -5s-9.66602 1.66699 -12.999 5
s-5 7.66602 -5 12.999v52c-17.333 -19.333 -38.333 -36.833 -63 -52.5s-53.667 -23.5 -87 -23.5c-19.333 0 -37.5 2.66699 -54.5 8s-31.833 13.5 -44.5 24.5s-22.5 24.667 -29.5 41s-10.5 35.833 -10.5 58.5c0 26.667 5.66699 48.5 17 65.5s27.166 30.5 47.499 40.5
s44.833 16.833 73.5 20.5s60.334 5.5 95.001 5.5h56v28c0 18.667 -2.5 37.334 -7.5 56.001s-12.667 35.5 -23 50.5s-23.833 27.167 -40.5 36.5s-37 14 -61 14c-15.333 0 -28.833 -1.33301 -40.5 -4s-21.667 -5.83398 -30 -9.50098l-21 -9.5
c-5.66699 -2.66699 -9.83398 -4 -12.501 -4c-5.33301 0 -9.66602 2.5 -12.999 7.5s-5 9.16699 -5 12.5c0 4.66699 3.66699 9.5 11 14.5s16.833 9.5 28.5 13.5s24.834 7.33301 39.501 10s29.667 4 45 4zM323.998 223l-54.999 0.000976562c-26 0 -50.833 -1 -74.5 -3
s-44.834 -6.33301 -63.501 -13s-33.5 -16.334 -44.5 -29.001s-16.5 -30 -16.5 -52c0 -34 9.83301 -58.667 29.5 -74s44.167 -23 73.5 -23c18.667 0 37 3.66699 55 11s34.167 16.5 48.5 27.5s25.833 23 34.5 36s13 24.833 13 35.5v84z" />
    <glyph glyph-name="Aogonek" unicode="&#x104;" horiz-adv-x="521" 
d="M476 -169c5.33301 0 9.6709 -0.833984 13.0039 -2.50098s5 -5.16699 5 -10.5c0 -8.66699 -7.66699 -13 -23 -13c-9.33301 0 -19 1 -29 3s-19.333 5.5 -28 10.5s-15.834 11.833 -21.501 20.5s-8.5 19.667 -8.5 33c0 29.333 7 55.666 21 78.999s31.667 45.333 53 66
l-49 160h-298l-50 -164c-2.66699 -8.66699 -8.66699 -13 -18 -13c-4.66699 0 -8.83398 1.33301 -12.501 4s-5.5 6.66699 -5.5 12c0 2.66699 0.333008 4.66699 1 6l217 701c2.66699 9.33301 8.66699 14 18 14s15.666 -4.66699 18.999 -14l215 -701
c0 -1.33301 0.166992 -2.16602 0.5 -2.49902s0.5 -1.16602 0.5 -2.49902c0 -6.66699 -3.66699 -11.667 -11 -15c-20 -19.333 -37 -39 -51 -59s-21 -43 -21 -69c0 -16.667 5.66699 -28 17 -34s26.666 -9 45.999 -9zM398.005 212.999l-137 448l-139 -448h276z" />
    <glyph glyph-name="aogonek" unicode="&#x105;" horiz-adv-x="423" 
d="M194 478c30.667 0 56.502 -5.33203 77.502 -15.999s38 -25 51 -43s22.333 -38.5 28 -61.5s8.5 -46.833 8.5 -71.5v-268c0 -7.33301 -3 -12.666 -9 -15.999c-20 -19.333 -37 -39 -51 -59s-21 -43 -21 -69c0 -16.667 5.66699 -28 17 -34s26.666 -9 45.999 -9
c5.33301 0 9.66602 -0.833008 12.999 -2.5s5 -5.16699 5 -10.5c0 -8.66699 -7.66699 -13 -23 -13c-9.33301 0 -19 1 -29 3s-19.333 5.5 -28 10.5s-15.834 11.833 -21.501 20.5s-8.5 19.667 -8.5 33c0 29.333 7 55.666 21 78.999s32 45.666 54 66.999v52
c-17.333 -19.333 -38.333 -36.833 -63 -52.5s-53.667 -23.5 -87 -23.5c-19.333 0 -37.5 2.66699 -54.5 8s-31.833 13.5 -44.5 24.5s-22.5 24.667 -29.5 41s-10.5 35.833 -10.5 58.5c0 26.667 5.66699 48.5 17 65.5s27.166 30.5 47.499 40.5s44.833 16.833 73.5 20.5
s60.334 5.5 95.001 5.5h56v28c0 18.667 -2.5 37.334 -7.5 56.001s-12.667 35.5 -23 50.5s-23.833 27.167 -40.5 36.5s-37 14 -61 14c-15.333 0 -28.833 -1.33301 -40.5 -4s-21.667 -5.83398 -30 -9.50098l-21 -9.5c-5.66699 -2.66699 -9.83398 -4 -12.501 -4
c-5.33301 0 -9.66602 2.5 -12.999 7.5s-5 9.16699 -5 12.5c0 4.66699 3.66699 9.5 11 14.5s16.833 9.5 28.5 13.5s24.834 7.33301 39.501 10s29.667 4 45 4zM324.002 223.001l-54.999 0.000976562c-26 0 -50.833 -1 -74.5 -3s-44.834 -6.33301 -63.501 -13
s-33.5 -16.334 -44.5 -29.001s-16.5 -30 -16.5 -52c0 -34 9.83301 -58.667 29.5 -74s44.167 -23 73.5 -23c18.667 0 37 3.66699 55 11s34.167 16.5 48.5 27.5s25.833 23 34.5 36s13 24.833 13 35.5v84z" />
    <glyph glyph-name="Cacute" unicode="&#x106;" horiz-adv-x="512" 
d="M112 200c0 -58.667 13.999 -101.66 41.999 -128.993s69.333 -41 124 -41c32.667 0 58.667 4.33301 78 13s34.333 19.667 45 33s17.834 27.5 21.501 42.5s6.5 29.167 8.5 42.5c0.666992 4.66699 2 8.83398 4 12.501s6.66699 5.5 14 5.5c6 0 10.5 -2 13.5 -6
s4.5 -11.667 4.5 -23c0 -19.333 -4.16699 -38.333 -12.5 -57s-20.666 -35.334 -36.999 -50.001s-36.666 -26.5 -60.999 -35.5s-52.5 -13.5 -84.5 -13.5c-26.667 0 -51.834 3.66699 -75.501 11s-44.5 19.166 -62.5 35.499s-32.167 37.666 -42.5 63.999
s-15.5 58.166 -15.5 95.499v325c0 37.333 5.33301 69.166 16 95.499s25 47.666 43 63.999s39 28.166 63 35.499s49.667 11 77 11c32 0 60 -4.5 84 -13.5s44 -20.833 60 -35.5s28 -31.5 36 -50.5s12 -38.167 12 -57.5c0 -11.333 -1.5 -18.833 -4.5 -22.5
s-7.5 -5.5 -13.5 -5.5c-8.66699 0 -13.834 2.16699 -15.501 6.5s-2.5 8.16602 -2.5 11.499c-0.666992 12 -3.16699 25.5 -7.5 40.5s-12.166 29.333 -23.499 43s-27 25 -47 34s-46.333 13.5 -79 13.5c-52.667 0 -92.834 -13.667 -120.501 -41s-41.5 -70.333 -41.5 -129v-325z
M232.999 863.007c-3.33301 -2 -6.33301 -2.99805 -9 -2.99805c-5.33301 0 -9.83301 1.66699 -13.5 5s-5.5 7.66602 -5.5 12.999c0 6 2.66699 10.333 8 13l102 60c2.66699 1.33301 5 2 7 2c5.33301 0 9.33301 -1.83301 12 -5.5s4 -7.83398 4 -12.501
c0 -8 -3.33301 -14 -10 -18z" />
    <glyph glyph-name="cacute" unicode="&#x107;" horiz-adv-x="402" 
d="M235 -6c-31.333 0 -58.333 4.66992 -81 14.0029s-41.667 22 -57 38s-26.666 35.167 -33.999 57.5s-11 46.5 -11 72.5v120c0 25.333 3.66699 49.166 11 71.499s18.5 41.666 33.5 57.999s34 29.166 57 38.499s50.167 14 81.5 14c20 0 38 -2.16699 54 -6.5
s29.833 -9.5 41.5 -15.5s20.5 -12.333 26.5 -19s9 -12.667 9 -18c0 -4.66699 -1.83301 -8.66699 -5.5 -12s-7.83398 -5 -12.501 -5c-4 0 -8.5 2.16699 -13.5 6.5s-11.5 9 -19.5 14s-18.333 9.66699 -31 14s-29 6.5 -49 6.5c-48 0 -84.667 -13 -110 -39s-38 -62 -38 -108
v-120c0 -46 12.5 -82 37.5 -108s62.167 -39 111.5 -39c20.667 0 37.667 2.16699 51 6.5s24.333 9 33 14s15.5 9.66699 20.5 14s9.83301 6.5 14.5 6.5s8.66699 -1.66699 12 -5s5 -7.33301 5 -12c0 -5.33301 -3.16699 -11.333 -9.5 -18s-15.333 -13 -27 -19
s-26 -11.167 -43 -15.5s-36.167 -6.5 -57.5 -6.5zM173 604.003c-3.33301 -2 -6.33301 -2.99805 -9 -2.99805c-5.33301 0 -9.83301 1.66699 -13.5 5s-5.5 7.66602 -5.5 12.999c0 6 2.66699 10.333 8 13l102 60c2.66699 1.33301 5 2 7 2c5.33301 0 9.33301 -1.83301 12 -5.5
s4 -7.83398 4 -12.501c0 -8 -3.33301 -14 -10 -18z" />
    <glyph glyph-name="Ccircumflex" unicode="&#x108;" horiz-adv-x="512" 
d="M112 200c0 -58.667 13.999 -101.66 41.999 -128.993s69.333 -41 124 -41c32.667 0 58.667 4.33301 78 13s34.333 19.667 45 33s17.834 27.5 21.501 42.5s6.5 29.167 8.5 42.5c0.666992 4.66699 2 8.83398 4 12.501s6.66699 5.5 14 5.5c6 0 10.5 -2 13.5 -6
s4.5 -11.667 4.5 -23c0 -19.333 -4.16699 -38.333 -12.5 -57s-20.666 -35.334 -36.999 -50.001s-36.666 -26.5 -60.999 -35.5s-52.5 -13.5 -84.5 -13.5c-26.667 0 -51.834 3.66699 -75.501 11s-44.5 19.166 -62.5 35.499s-32.167 37.666 -42.5 63.999
s-15.5 58.166 -15.5 95.499v325c0 37.333 5.33301 69.166 16 95.499s25 47.666 43 63.999s39 28.166 63 35.499s49.667 11 77 11c32 0 60 -4.5 84 -13.5s44 -20.833 60 -35.5s28 -31.5 36 -50.5s12 -38.167 12 -57.5c0 -11.333 -1.5 -18.833 -4.5 -22.5
s-7.5 -5.5 -13.5 -5.5c-8.66699 0 -13.834 2.16699 -15.501 6.5s-2.5 8.16602 -2.5 11.499c-0.666992 12 -3.16699 25.5 -7.5 40.5s-12.166 29.333 -23.499 43s-27 25 -47 34s-46.333 13.5 -79 13.5c-52.667 0 -92.834 -13.667 -120.501 -41s-41.5 -70.333 -41.5 -129v-325z
M166.999 862.007l-4 -2.00098c-1.33301 -0.666992 -2.66602 -1 -3.99902 -1c-4.66699 0 -8.83398 1.83301 -12.501 5.5s-5.5 8.16699 -5.5 13.5c0 6 3 10.667 9 14l104 56c5.33301 3.33301 11 5 17 5s11.667 -1.66699 17 -5l104 -55c6 -3.33301 9 -9 9 -17
c0 -4.66699 -1.66699 -8.5 -5 -11.5s-7.33301 -4.5 -12 -4.5c-1.33301 0 -2.83301 0.333008 -4.5 1s-3.16699 1.33398 -4.5 2.00098l-104 55z" />
    <glyph glyph-name="ccircumflex" unicode="&#x109;" horiz-adv-x="402" 
d="M235 -6c-31.333 0 -58.333 4.66992 -81 14.0029s-41.667 22 -57 38s-26.666 35.167 -33.999 57.5s-11 46.5 -11 72.5v120c0 25.333 3.66699 49.166 11 71.499s18.5 41.666 33.5 57.999s34 29.166 57 38.499s50.167 14 81.5 14c20 0 38 -2.16699 54 -6.5
s29.833 -9.5 41.5 -15.5s20.5 -12.333 26.5 -19s9 -12.667 9 -18c0 -4.66699 -1.83301 -8.66699 -5.5 -12s-7.83398 -5 -12.501 -5c-4 0 -8.5 2.16699 -13.5 6.5s-11.5 9 -19.5 14s-18.333 9.66699 -31 14s-29 6.5 -49 6.5c-48 0 -84.667 -13 -110 -39s-38 -62 -38 -108
v-120c0 -46 12.5 -82 37.5 -108s62.167 -39 111.5 -39c20.667 0 37.667 2.16699 51 6.5s24.333 9 33 14s15.5 9.66699 20.5 14s9.83301 6.5 14.5 6.5s8.66699 -1.66699 12 -5s5 -7.33301 5 -12c0 -5.33301 -3.16699 -11.333 -9.5 -18s-15.333 -13 -27 -19
s-26 -11.167 -43 -15.5s-36.167 -6.5 -57.5 -6.5zM108 603.003l-4 -2.00098c-1.33301 -0.666992 -2.66602 -1 -3.99902 -1c-4.66699 0 -8.83398 1.83301 -12.501 5.5s-5.5 8.16699 -5.5 13.5c0 6 3 10.667 9 14l104 56c5.33301 3.33301 11 5 17 5s11.667 -1.66699 17 -5
l104 -55c6 -3.33301 9 -9 9 -17c0 -4.66699 -1.66699 -8.5 -5 -11.5s-7.33301 -4.5 -12 -4.5c-1.33301 0 -2.83301 0.333008 -4.5 1s-3.16699 1.33398 -4.5 2.00098l-104 55z" />
    <glyph glyph-name="Cdotaccent" unicode="&#x10a;" horiz-adv-x="512" 
d="M112 200c0 -58.667 13.999 -101.66 41.999 -128.993s69.333 -41 124 -41c32.667 0 58.667 4.33301 78 13s34.333 19.667 45 33s17.834 27.5 21.501 42.5s6.5 29.167 8.5 42.5c0.666992 4.66699 2 8.83398 4 12.501s6.66699 5.5 14 5.5c6 0 10.5 -2 13.5 -6
s4.5 -11.667 4.5 -23c0 -19.333 -4.16699 -38.333 -12.5 -57s-20.666 -35.334 -36.999 -50.001s-36.666 -26.5 -60.999 -35.5s-52.5 -13.5 -84.5 -13.5c-26.667 0 -51.834 3.66699 -75.501 11s-44.5 19.166 -62.5 35.499s-32.167 37.666 -42.5 63.999
s-15.5 58.166 -15.5 95.499v325c0 37.333 5.33301 69.166 16 95.499s25 47.666 43 63.999s39 28.166 63 35.499s49.667 11 77 11c32 0 60 -4.5 84 -13.5s44 -20.833 60 -35.5s28 -31.5 36 -50.5s12 -38.167 12 -57.5c0 -11.333 -1.5 -18.833 -4.5 -22.5
s-7.5 -5.5 -13.5 -5.5c-8.66699 0 -13.834 2.16699 -15.501 6.5s-2.5 8.16602 -2.5 11.499c-0.666992 12 -3.16699 25.5 -7.5 40.5s-12.166 29.333 -23.499 43s-27 25 -47 34s-46.333 13.5 -79 13.5c-52.667 0 -92.834 -13.667 -120.501 -41s-41.5 -70.333 -41.5 -129v-325z
M271.999 918.007c8.66699 0 15.667 -2.66699 21 -8s8 -12.333 8 -21s-2.66699 -15.834 -8 -21.501s-12.333 -8.5 -21 -8.5c-9.33301 0 -16.666 2.83301 -21.999 8.5s-8 12.834 -8 21.501s2.66699 15.667 8 21s12.666 8 21.999 8z" />
    <glyph glyph-name="cdotaccent" unicode="&#x10b;" horiz-adv-x="402" 
d="M235 -6c-31.333 0 -58.333 4.66992 -81 14.0029s-41.667 22 -57 38s-26.666 35.167 -33.999 57.5s-11 46.5 -11 72.5v120c0 25.333 3.66699 49.166 11 71.499s18.5 41.666 33.5 57.999s34 29.166 57 38.499s50.167 14 81.5 14c20 0 38 -2.16699 54 -6.5
s29.833 -9.5 41.5 -15.5s20.5 -12.333 26.5 -19s9 -12.667 9 -18c0 -4.66699 -1.83301 -8.66699 -5.5 -12s-7.83398 -5 -12.501 -5c-4 0 -8.5 2.16699 -13.5 6.5s-11.5 9 -19.5 14s-18.333 9.66699 -31 14s-29 6.5 -49 6.5c-48 0 -84.667 -13 -110 -39s-38 -62 -38 -108
v-120c0 -46 12.5 -82 37.5 -108s62.167 -39 111.5 -39c20.667 0 37.667 2.16699 51 6.5s24.333 9 33 14s15.5 9.66699 20.5 14s9.83301 6.5 14.5 6.5s8.66699 -1.66699 12 -5s5 -7.33301 5 -12c0 -5.33301 -3.16699 -11.333 -9.5 -18s-15.333 -13 -27 -19
s-26 -11.167 -43 -15.5s-36.167 -6.5 -57.5 -6.5zM212 659.003c8.66699 0 15.667 -2.66699 21 -8s8 -12.333 8 -21s-2.66699 -15.834 -8 -21.501s-12.333 -8.5 -21 -8.5c-9.33301 0 -16.666 2.83301 -21.999 8.5s-8 12.834 -8 21.501s2.66699 15.667 8 21s12.666 8 21.999 8
z" />
    <glyph glyph-name="Ccaron" unicode="&#x10c;" horiz-adv-x="512" 
d="M112 200c0 -58.667 13.999 -101.66 41.999 -128.993s69.333 -41 124 -41c32.667 0 58.667 4.33301 78 13s34.333 19.667 45 33s17.834 27.5 21.501 42.5s6.5 29.167 8.5 42.5c0.666992 4.66699 2 8.83398 4 12.501s6.66699 5.5 14 5.5c6 0 10.5 -2 13.5 -6
s4.5 -11.667 4.5 -23c0 -19.333 -4.16699 -38.333 -12.5 -57s-20.666 -35.334 -36.999 -50.001s-36.666 -26.5 -60.999 -35.5s-52.5 -13.5 -84.5 -13.5c-26.667 0 -51.834 3.66699 -75.501 11s-44.5 19.166 -62.5 35.499s-32.167 37.666 -42.5 63.999
s-15.5 58.166 -15.5 95.499v325c0 37.333 5.33301 69.166 16 95.499s25 47.666 43 63.999s39 28.166 63 35.499s49.667 11 77 11c32 0 60 -4.5 84 -13.5s44 -20.833 60 -35.5s28 -31.5 36 -50.5s12 -38.167 12 -57.5c0 -11.333 -1.5 -18.833 -4.5 -22.5
s-7.5 -5.5 -13.5 -5.5c-8.66699 0 -13.834 2.16699 -15.501 6.5s-2.5 8.16602 -2.5 11.499c-0.666992 12 -3.16699 25.5 -7.5 40.5s-12.166 29.333 -23.499 43s-27 25 -47 34s-46.333 13.5 -79 13.5c-52.667 0 -92.834 -13.667 -120.501 -41s-41.5 -70.333 -41.5 -129v-325z
M290.999 858.007c-7.33301 -7.33301 -14.335 -11 -21.002 -11c-8 0 -15 3.66699 -21 11l-100 101c-5.33301 6.66699 -8 12 -8 16c0 3.33301 1.33301 6.66602 4 9.99902s6.33398 5 11.001 5c6 0 11.333 -2.66699 16 -8l98 -103l98 103c4.66699 5.33301 10 8 16 8
c4.66699 0 8.33398 -1.66699 11.001 -5s4 -6.66602 4 -9.99902c0 -4 -2.66699 -9.33301 -8 -16z" />
    <glyph glyph-name="ccaron" unicode="&#x10d;" horiz-adv-x="402" 
d="M235 -6c-31.333 0 -58.333 4.66992 -81 14.0029s-41.667 22 -57 38s-26.666 35.167 -33.999 57.5s-11 46.5 -11 72.5v120c0 25.333 3.66699 49.166 11 71.499s18.5 41.666 33.5 57.999s34 29.166 57 38.499s50.167 14 81.5 14c20 0 38 -2.16699 54 -6.5
s29.833 -9.5 41.5 -15.5s20.5 -12.333 26.5 -19s9 -12.667 9 -18c0 -4.66699 -1.83301 -8.66699 -5.5 -12s-7.83398 -5 -12.501 -5c-4 0 -8.5 2.16699 -13.5 6.5s-11.5 9 -19.5 14s-18.333 9.66699 -31 14s-29 6.5 -49 6.5c-48 0 -84.667 -13 -110 -39s-38 -62 -38 -108
v-120c0 -46 12.5 -82 37.5 -108s62.167 -39 111.5 -39c20.667 0 37.667 2.16699 51 6.5s24.333 9 33 14s15.5 9.66699 20.5 14s9.83301 6.5 14.5 6.5s8.66699 -1.66699 12 -5s5 -7.33301 5 -12c0 -5.33301 -3.16699 -11.333 -9.5 -18s-15.333 -13 -27 -19
s-26 -11.167 -43 -15.5s-36.167 -6.5 -57.5 -6.5zM232 599.003c-7.33301 -7.33301 -14.335 -11 -21.002 -11c-8 0 -15 3.66699 -21 11l-100 101c-5.33301 6.66699 -8 12 -8 16c0 3.33301 1.33301 6.66602 4 9.99902s6.33398 5 11.001 5c6 0 11.333 -2.66699 16 -8l98 -103
l98 103c4.66699 5.33301 10 8 16 8c4.66699 0 8.33398 -1.66699 11.001 -5s4 -6.66602 4 -9.99902c0 -4 -2.66699 -9.33301 -8 -16z" />
    <glyph glyph-name="Dcaron" unicode="&#x10e;" horiz-adv-x="550" 
d="M278 731c27.333 0 53 -3.67285 77 -11.0059s44.833 -19.166 62.5 -35.499s31.5 -37.666 41.5 -63.999s15 -58.166 15 -95.499v-319c0 -37.333 -5 -69.166 -15 -95.499s-23.833 -47.666 -41.5 -63.999s-38.5 -28.166 -62.5 -35.499s-49.667 -11 -77 -11h-177
c-5.33301 0 -9.66602 1.66699 -12.999 5s-5 7.33301 -5 12v697c0 4.66699 1.66699 8.66699 5 12s7.66602 5 12.999 5h177zM119 694.994v-659h159c50 0 89.167 13.667 117.5 41s42.5 70.333 42.5 129v319c0 58.667 -14.167 101.667 -42.5 129s-67.5 41 -117.5 41h-159z
M298 857.994c-7.33301 -7.33301 -14.335 -11 -21.002 -11c-8 0 -15 3.66699 -21 11l-100 101c-5.33301 6.66699 -8 12 -8 16c0 3.33301 1.33301 6.66602 4 9.99902s6.33398 5 11.001 5c6 0 11.333 -2.66699 16 -8l98 -103l98 103c4.66699 5.33301 10 8 16 8
c4.66699 0 8.33398 -1.66699 11.001 -5s4 -6.66602 4 -9.99902c0 -4 -2.66699 -9.33301 -8 -16z" />
    <glyph glyph-name="dcaron" unicode="&#x10f;" horiz-adv-x="468" 
d="M382 768c11.333 0 16.9971 -5.66602 16.9971 -16.999v-733c0 -4.66699 -1.5 -8.83398 -4.5 -12.501s-7.16699 -5.5 -12.5 -5.5s-9.66602 1.83301 -12.999 5.5s-5 7.83398 -5 12.501v52c-11.333 -20.667 -29.166 -38.5 -53.499 -53.5s-51.833 -22.5 -82.5 -22.5
c-24 0 -46.667 5 -68 15s-40.166 23.5 -56.499 40.5s-29.333 36.333 -39 58s-14.5 44.5 -14.5 68.5v122c0 24.667 4.83301 48 14.5 70s22.667 41.167 39 57.5s35.333 29.166 57 38.499s44.834 14 69.501 14c34 0 62 -7.83301 84 -23.5s38.667 -33.167 50 -52.5v349
c0 5.33301 1.66699 9.5 5 12.5s7.66602 4.5 12.999 4.5zM84.9971 176.001c0 -18.667 3.83301 -36.833 11.5 -54.5s17.834 -33.334 30.501 -47.001s27.5 -24.667 44.5 -33s35.167 -12.5 54.5 -12.5c20 0 38.333 4.16699 55 12.5s31.167 18.333 43.5 30s22 23.667 29 36
s10.5 22.833 10.5 31.5v159c0 22.667 -4 43 -12 61s-18.333 33.167 -31 45.5s-27.334 21.833 -44.001 28.5s-33.334 10 -50.001 10c-19.333 0 -37.666 -4.16699 -54.999 -12.5s-32.5 -19.166 -45.5 -32.499s-23.167 -28.833 -30.5 -46.5s-11 -35.5 -11 -53.5v-122z
M497.997 741.002c9.33301 0 17.499 -3.50098 24.499 -10.501s10.5 -15.5 10.5 -25.5c0 -4 -1 -9.83301 -3 -17.5s-4.5 -16 -7.5 -25s-6.5 -18.333 -10.5 -28s-8 -18.5 -12 -26.5c-3.33301 -6.66699 -8 -10 -14 -10c-4 0 -7.66699 1.33301 -11 4s-5 6.33398 -5 11.001
c0 2.66699 0.333008 4.66699 1 6l18 51c-8 2 -14.5 6.33301 -19.5 13s-7.5 14 -7.5 22c0 10 3.33301 18.5 10 25.5s15.334 10.5 26.001 10.5z" />
    <glyph glyph-name="Dcroat" unicode="&#x110;" horiz-adv-x="560" 
d="M288 731c27.333 0 53 -3.67188 77 -11.0049s44.833 -19.166 62.5 -35.499s31.5 -37.666 41.5 -63.999s15 -58.166 15 -95.499v-319c0 -37.333 -5 -69.166 -15 -95.499s-23.833 -47.666 -41.5 -63.999s-38.5 -28.166 -62.5 -35.499s-49.667 -11 -77 -11h-177
c-5.33301 0 -9.66602 1.66699 -12.999 5s-5 7.33301 -5 12v350h-73c-11.333 0 -17 5.66699 -17 17c0 5.33301 1.5 9.66602 4.5 12.999s7.16699 5 12.5 5h73v312c0 4.66699 1.66699 8.66699 5 12s7.66602 5 12.999 5h177zM129 694.995v-293.001h131
c4.66699 0 8.83398 -1.66699 12.501 -5s5.5 -7.66602 5.5 -12.999s-1.83301 -9.5 -5.5 -12.5s-7.83398 -4.5 -12.501 -4.5h-131v-331h159c50 0 89.167 13.667 117.5 41s42.5 70.333 42.5 129v319c0 58.667 -14.167 101.667 -42.5 129s-67.5 41 -117.5 41h-159z" />
    <glyph glyph-name="dcroat" unicode="&#x111;" horiz-adv-x="468" 
d="M382 768c11.333 0 16.9971 -5.66602 16.9971 -16.999v-133h57c4.66699 0 8.83398 -1.66699 12.501 -5s5.5 -7.66602 5.5 -12.999s-1.83301 -9.5 -5.5 -12.5s-7.83398 -4.5 -12.501 -4.5h-57v-565c0 -4.66699 -1.5 -8.83398 -4.5 -12.501s-7.16699 -5.5 -12.5 -5.5
s-9.66602 1.83301 -12.999 5.5s-5 7.83398 -5 12.501v52c-11.333 -20.667 -29.166 -38.5 -53.499 -53.5s-51.833 -22.5 -82.5 -22.5c-24 0 -46.667 5 -68 15s-40.166 23.5 -56.499 40.5s-29.333 36.333 -39 58s-14.5 44.5 -14.5 68.5v122c0 24.667 4.83301 48 14.5 70
s22.667 41.167 39 57.5s35.333 29.166 57 38.499s44.834 14 69.501 14c34 0 62 -7.83301 84 -23.5s38.667 -33.167 50 -52.5v181h-138c-11.333 0 -17 5.66699 -17 17c0 5.33301 1.5 9.66602 4.5 12.999s7.16699 5 12.5 5h138v133c0 5.33301 1.66699 9.5 5 12.5
s7.66602 4.5 12.999 4.5zM84.9971 176.001c0 -18.667 3.83301 -36.833 11.5 -54.5s17.834 -33.334 30.501 -47.001s27.5 -24.667 44.5 -33s35.167 -12.5 54.5 -12.5c20 0 38.333 4.16699 55 12.5s31.167 18.333 43.5 30s22 23.667 29 36s10.5 22.833 10.5 31.5v159
c0 22.667 -4 43 -12 61s-18.333 33.167 -31 45.5s-27.334 21.833 -44.001 28.5s-33.334 10 -50.001 10c-19.333 0 -37.666 -4.16699 -54.999 -12.5s-32.5 -19.166 -45.5 -32.499s-23.167 -28.833 -30.5 -46.5s-11 -35.5 -11 -53.5v-122z" />
    <glyph glyph-name="Emacron" unicode="&#x112;" horiz-adv-x="498" 
d="M119 384h160c5.33301 0 9.5 -1.83301 12.5 -5.5s4.5 -8.16699 4.5 -13.5c0 -4 -1.33301 -7.83301 -4 -11.5s-7 -5.5 -13 -5.5h-160v-312h338c5.33301 0 9.5 -1.83301 12.5 -5.5s4.5 -8.16699 4.5 -13.5c0 -4 -1.33301 -7.83301 -4 -11.5s-7 -5.5 -13 -5.5h-356
c-4.66699 0 -8.83398 1.5 -12.501 4.5s-5.5 7.5 -5.5 13.5v695c0 6 1.83301 10.5 5.5 13.5s7.83398 4.5 12.501 4.5h356c6 0 10.333 -1.83301 13 -5.5s4 -7.5 4 -11.5c0 -5.33301 -1.5 -9.83301 -4.5 -13.5s-7.16699 -5.5 -12.5 -5.5h-338v-311zM151 923
c0 5.33301 1.5 9.66602 4.5 12.999s7.16699 5 12.5 5h220c4.66699 0 8.83398 -1.66699 12.501 -5s5.5 -7.66602 5.5 -12.999s-1.83301 -9.5 -5.5 -12.5s-7.83398 -4.5 -12.501 -4.5h-220c-11.333 0 -17 5.66699 -17 17z" />
    <glyph glyph-name="emacron" unicode="&#x113;" horiz-adv-x="445" 
d="M229 478c23.333 0 45.6689 -4.49512 67.002 -13.4951s40.166 -21.5 56.499 -37.5s29.333 -35 39 -57s14.5 -46 14.5 -72c0 -18 -2.33301 -32.167 -7 -42.5s-10.834 -17.833 -18.501 -22.5s-16.5 -7.5 -26.5 -8.5s-20.333 -1.5 -31 -1.5h-237v-47
c0 -22.667 4.16699 -43.167 12.5 -61.5s20 -33.833 35 -46.5s32.833 -22.334 53.5 -29.001s43.334 -10 68.001 -10c20.667 0 37.667 2.16699 51 6.5s24.166 9 32.499 14s15 9.66699 20 14s9.83301 6.5 14.5 6.5s8.83398 -2 12.501 -6s5.5 -8 5.5 -12
c0 -4.66699 -3.16699 -10.334 -9.5 -17.001s-15.5 -13 -27.5 -19s-26.5 -11.167 -43.5 -15.5s-36.167 -6.5 -57.5 -6.5c-29.333 0 -56.333 4.33301 -81 13s-46 21 -64 37s-32 35.167 -42 57.5s-15 47.166 -15 74.499v125c0 24 4.66699 46.667 14 68
s22.166 40.166 38.499 56.499s35.333 29.166 57 38.499s44.5 14 68.5 14zM311.003 258.005c24.667 0 40.834 2.33301 48.501 7s11.5 14.667 11.5 30c0 18 -3.33301 35.833 -10 53.5s-16.167 33.5 -28.5 47.5s-27.333 25.333 -45 34s-37.167 13 -58.5 13
c-20 0 -38.833 -3.83301 -56.5 -11.5s-32.834 -18 -45.501 -31s-22.667 -28.167 -30 -45.5s-11 -35.333 -11 -54v-43h225zM101.003 664.005c0 5.33301 1.5 9.66602 4.5 12.999s7.16699 5 12.5 5h220c4.66699 0 8.83398 -1.66699 12.501 -5s5.5 -7.66602 5.5 -12.999
s-1.83301 -9.5 -5.5 -12.5s-7.83398 -4.5 -12.501 -4.5h-220c-11.333 0 -17 5.66699 -17 17z" />
    <glyph glyph-name="Ebreve" unicode="&#x114;" horiz-adv-x="498" 
d="M119 384h160c5.33301 0 9.5 -1.83301 12.5 -5.5s4.5 -8.16699 4.5 -13.5c0 -4 -1.33301 -7.83301 -4 -11.5s-7 -5.5 -13 -5.5h-160v-312h338c5.33301 0 9.5 -1.83301 12.5 -5.5s4.5 -8.16699 4.5 -13.5c0 -4 -1.33301 -7.83301 -4 -11.5s-7 -5.5 -13 -5.5h-356
c-4.66699 0 -8.83398 1.5 -12.501 4.5s-5.5 7.5 -5.5 13.5v695c0 6 1.83301 10.5 5.5 13.5s7.83398 4.5 12.501 4.5h356c6 0 10.333 -1.83301 13 -5.5s4 -7.5 4 -11.5c0 -5.33301 -1.5 -9.83301 -4.5 -13.5s-7.16699 -5.5 -12.5 -5.5h-338v-311zM387 969
c0 -14.667 -3 -28.667 -9 -42s-14 -25 -24 -35s-21.667 -17.833 -35 -23.5s-27 -8.5 -41 -8.5c-14.667 0 -28.5 2.83301 -41.5 8.5s-24.5 13.5 -34.5 23.5s-18 21.667 -24 35s-9 27.333 -9 42h32c0 -23.333 7.5 -43 22.5 -59s33.167 -24 54.5 -24c20.667 0 38.5 8 53.5 24
s22.5 35.667 22.5 59h33z" />
    <glyph glyph-name="ebreve" unicode="&#x115;" horiz-adv-x="445" 
d="M229 478c23.333 0 45.6689 -4.49512 67.002 -13.4951s40.166 -21.5 56.499 -37.5s29.333 -35 39 -57s14.5 -46 14.5 -72c0 -18 -2.33301 -32.167 -7 -42.5s-10.834 -17.833 -18.501 -22.5s-16.5 -7.5 -26.5 -8.5s-20.333 -1.5 -31 -1.5h-237v-47
c0 -22.667 4.16699 -43.167 12.5 -61.5s20 -33.833 35 -46.5s32.833 -22.334 53.5 -29.001s43.334 -10 68.001 -10c20.667 0 37.667 2.16699 51 6.5s24.166 9 32.499 14s15 9.66699 20 14s9.83301 6.5 14.5 6.5s8.83398 -2 12.501 -6s5.5 -8 5.5 -12
c0 -4.66699 -3.16699 -10.334 -9.5 -17.001s-15.5 -13 -27.5 -19s-26.5 -11.167 -43.5 -15.5s-36.167 -6.5 -57.5 -6.5c-29.333 0 -56.333 4.33301 -81 13s-46 21 -64 37s-32 35.167 -42 57.5s-15 47.166 -15 74.499v125c0 24 4.66699 46.667 14 68
s22.166 40.166 38.499 56.499s35.333 29.166 57 38.499s44.5 14 68.5 14zM311.003 258.005c24.667 0 40.834 2.33301 48.501 7s11.5 14.667 11.5 30c0 18 -3.33301 35.833 -10 53.5s-16.167 33.5 -28.5 47.5s-27.333 25.333 -45 34s-37.167 13 -58.5 13
c-20 0 -38.833 -3.83301 -56.5 -11.5s-32.834 -18 -45.501 -31s-22.667 -28.167 -30 -45.5s-11 -35.333 -11 -54v-43h225zM337.003 710.005c0 -14.667 -3 -28.667 -9 -42s-14 -25 -24 -35s-21.667 -17.833 -35 -23.5s-27 -8.5 -41 -8.5c-14.667 0 -28.5 2.83301 -41.5 8.5
s-24.5 13.5 -34.5 23.5s-18 21.667 -24 35s-9 27.333 -9 42h32c0 -23.333 7.5 -43 22.5 -59s33.167 -24 54.5 -24c20.667 0 38.5 8 53.5 24s22.5 35.667 22.5 59h33z" />
    <glyph glyph-name="Edotaccent" unicode="&#x116;" horiz-adv-x="498" 
d="M119 384h160c5.33301 0 9.5 -1.83301 12.5 -5.5s4.5 -8.16699 4.5 -13.5c0 -4 -1.33301 -7.83301 -4 -11.5s-7 -5.5 -13 -5.5h-160v-312h338c5.33301 0 9.5 -1.83301 12.5 -5.5s4.5 -8.16699 4.5 -13.5c0 -4 -1.33301 -7.83301 -4 -11.5s-7 -5.5 -13 -5.5h-356
c-4.66699 0 -8.83398 1.5 -12.501 4.5s-5.5 7.5 -5.5 13.5v695c0 6 1.83301 10.5 5.5 13.5s7.83398 4.5 12.501 4.5h356c6 0 10.333 -1.83301 13 -5.5s4 -7.5 4 -11.5c0 -5.33301 -1.5 -9.83301 -4.5 -13.5s-7.16699 -5.5 -12.5 -5.5h-338v-311zM279 918
c8.66699 0 15.667 -2.66699 21 -8s8 -12.333 8 -21s-2.66699 -15.834 -8 -21.501s-12.333 -8.5 -21 -8.5c-9.33301 0 -16.666 2.83301 -21.999 8.5s-8 12.834 -8 21.501s2.66699 15.667 8 21s12.666 8 21.999 8z" />
    <glyph glyph-name="edotaccent" unicode="&#x117;" horiz-adv-x="445" 
d="M229 478c23.333 0 45.6689 -4.49512 67.002 -13.4951s40.166 -21.5 56.499 -37.5s29.333 -35 39 -57s14.5 -46 14.5 -72c0 -18 -2.33301 -32.167 -7 -42.5s-10.834 -17.833 -18.501 -22.5s-16.5 -7.5 -26.5 -8.5s-20.333 -1.5 -31 -1.5h-237v-47
c0 -22.667 4.16699 -43.167 12.5 -61.5s20 -33.833 35 -46.5s32.833 -22.334 53.5 -29.001s43.334 -10 68.001 -10c20.667 0 37.667 2.16699 51 6.5s24.166 9 32.499 14s15 9.66699 20 14s9.83301 6.5 14.5 6.5s8.83398 -2 12.501 -6s5.5 -8 5.5 -12
c0 -4.66699 -3.16699 -10.334 -9.5 -17.001s-15.5 -13 -27.5 -19s-26.5 -11.167 -43.5 -15.5s-36.167 -6.5 -57.5 -6.5c-29.333 0 -56.333 4.33301 -81 13s-46 21 -64 37s-32 35.167 -42 57.5s-15 47.166 -15 74.499v125c0 24 4.66699 46.667 14 68
s22.166 40.166 38.499 56.499s35.333 29.166 57 38.499s44.5 14 68.5 14zM311.003 258.005c24.667 0 40.834 2.33301 48.501 7s11.5 14.667 11.5 30c0 18 -3.33301 35.833 -10 53.5s-16.167 33.5 -28.5 47.5s-27.333 25.333 -45 34s-37.167 13 -58.5 13
c-20 0 -38.833 -3.83301 -56.5 -11.5s-32.834 -18 -45.501 -31s-22.667 -28.167 -30 -45.5s-11 -35.333 -11 -54v-43h225zM229.003 659.005c8.66699 0 15.667 -2.66699 21 -8s8 -12.333 8 -21s-2.66699 -15.834 -8 -21.501s-12.333 -8.5 -21 -8.5
c-9.33301 0 -16.666 2.83301 -21.999 8.5s-8 12.834 -8 21.501s2.66699 15.667 8 21s12.666 8 21.999 8z" />
    <glyph glyph-name="Eogonek" unicode="&#x118;" horiz-adv-x="498" 
d="M456 -169c5.33301 0 9.66992 -0.833984 13.0029 -2.50098s5 -5.16699 5 -10.5c0 -8.66699 -7.66699 -13 -23 -13c-9.33301 0 -19 1 -29 3s-19.333 5.5 -28 10.5s-15.834 11.833 -21.501 20.5s-8.5 19.667 -8.5 33c0 25.333 5.16699 48.333 15.5 69
s24.166 40.334 41.499 59.001h-320c-4.66699 0 -8.83398 1.5 -12.501 4.5s-5.5 7.5 -5.5 13.5v695c0 6 1.83301 10.5 5.5 13.5s7.83398 4.5 12.501 4.5h356c6 0 10.333 -1.83301 13 -5.5s4 -7.5 4 -11.5c0 -5.33301 -1.5 -9.83301 -4.5 -13.5s-7.16699 -5.5 -12.5 -5.5h-338
v-311h160c5.33301 0 9.5 -1.83301 12.5 -5.5s4.5 -8.16699 4.5 -13.5c0 -4 -1.33301 -7.83301 -4 -11.5s-7 -5.5 -13 -5.5h-160v-312h338c5.33301 0 9.5 -1.83301 12.5 -5.5s4.5 -8.16699 4.5 -13.5c0 -3.33301 -0.833008 -6.5 -2.5 -9.5s-4.16699 -5.16699 -7.5 -6.5
c-20 -19.333 -36.833 -38.833 -50.5 -58.5s-20.5 -42.5 -20.5 -68.5c0 -16.667 5.66699 -28 17 -34s26.666 -9 45.999 -9z" />
    <glyph glyph-name="eogonek" unicode="&#x119;" horiz-adv-x="445" 
d="M361 -144c5.33301 0 9.67383 -0.830078 13.0068 -2.49707s5 -5.16699 5 -10.5c0 -8.66699 -7.66699 -13 -23 -13c-9.33301 0 -19 1 -29 3s-19.333 5.5 -28 10.5s-15.834 11.833 -21.501 20.5s-8.5 19.667 -8.5 33c0 19.333 3.16699 37.333 9.5 54
s15.166 32.667 26.499 48c-8 -1.33301 -16.333 -2.5 -25 -3.5s-17.667 -1.5 -27 -1.5c-29.333 0 -56.333 4.33301 -81 13s-46 21 -64 37s-32 35.167 -42 57.5s-15 47.166 -15 74.499v125c0 24 4.66699 46.667 14 68s22.166 40.166 38.499 56.499s35.333 29.166 57 38.499
s44.5 14 68.5 14c23.333 0 45.666 -4.5 66.999 -13.5s40.166 -21.5 56.499 -37.5s29.333 -35 39 -57s14.5 -46 14.5 -72c0 -18 -2.33301 -32.167 -7 -42.5s-10.834 -17.833 -18.501 -22.5s-16.5 -7.5 -26.5 -8.5s-20.333 -1.5 -31 -1.5h-237v-47
c0 -22.667 4.16699 -43.167 12.5 -61.5s20 -33.833 35 -46.5s32.833 -22.334 53.5 -29.001s43.334 -10 68.001 -10c20.667 0 37.667 2.16699 51 6.5s24.166 9 32.499 14s15 9.66699 20 14s9.83301 6.5 14.5 6.5s8.83398 -2 12.501 -6s5.5 -8 5.5 -12
c0 -9.33301 -9 -19.666 -27 -30.999c-18.667 -18 -34.334 -36.5 -47.001 -55.5s-19 -41.167 -19 -66.5c0 -16.667 5.66699 -28 17 -34s26.666 -9 45.999 -9zM311.008 258.003c24.667 0 40.834 2.33301 48.501 7s11.5 14.667 11.5 30c0 18 -3.33301 35.833 -10 53.5
s-16.167 33.5 -28.5 47.5s-27.333 25.333 -45 34s-37.167 13 -58.5 13c-20 0 -38.833 -3.83301 -56.5 -11.5s-32.834 -18 -45.501 -31s-22.667 -28.167 -30 -45.5s-11 -35.333 -11 -54v-43h225z" />
    </font>
</defs>
</svg>
