<?xml version="1.0" encoding="UTF-8" standalone="no"?>
<!DOCTYPE svg PUBLIC "-//W3C//DTD SVG 1.1//EN"
 "http://www.w3.org/Graphics/SVG/1.1/DTD/svg11.dtd">
<!-- Generated by graphviz version 2.26.3 (20100126.1600)
 -->
<!-- Title: controllers_diagram Pages: 1 -->
<svg width="1624pt" height="1260pt"
 viewBox="0.00 0.00 1623.58 1259.69" xmlns="http://www.w3.org/2000/svg" xmlns:xlink="http://www.w3.org/1999/xlink">
<g id="graph1" class="graph" transform="scale(1 1) rotate(0) translate(4 1255.69)">
<title>controllers_diagram</title>
<polygon fill="white" stroke="white" points="-4,5 -4,-1255.69 1620.58,-1255.69 1620.58,5 -4,5"/>
<!-- _diagram_info -->
<g id="node1" class="node"><title>_diagram_info</title>
<text text-anchor="start" x="939" y="-636.3" font-family="Times Roman,serif" font-size="13.00">Controllers diagram</text>
<text text-anchor="start" x="939" y="-619.3" font-family="Times Roman,serif" font-size="13.00">Date: Jun 09 2014 &#45; 12:32</text>
<text text-anchor="start" x="939" y="-602.3" font-family="Times Roman,serif" font-size="13.00">Migration version: 20140609141735</text>
<text text-anchor="start" x="939" y="-585.3" font-family="Times Roman,serif" font-size="13.00">Generated by RailRoady 1.1.1</text>
<text text-anchor="start" x="939" y="-568.3" font-family="Times Roman,serif" font-size="13.00">http://railroady.prestonlee.com</text>
</g>
<!-- ApplicationController -->
<g id="node2" class="node"><title>ApplicationController</title>
<polyline fill="none" stroke="black" points="349.932,-499.579 490.932,-499.579 "/>
<path fill="none" stroke="black" d="M490.932,-499.579C496.932,-499.579 502.932,-505.579 502.932,-511.579"/>
<polyline fill="none" stroke="black" points="502.932,-511.579 502.932,-607.579 "/>
<path fill="none" stroke="black" d="M502.932,-607.579C502.932,-613.579 496.932,-619.579 490.932,-619.579"/>
<polyline fill="none" stroke="black" points="490.932,-619.579 349.932,-619.579 "/>
<path fill="none" stroke="black" d="M349.932,-619.579C343.932,-619.579 337.932,-613.579 337.932,-607.579"/>
<polyline fill="none" stroke="black" points="337.932,-607.579 337.932,-511.579 "/>
<path fill="none" stroke="black" d="M337.932,-511.579C337.932,-505.579 343.932,-499.579 349.932,-499.579"/>
<text text-anchor="middle" x="420.432" y="-602.979" font-family="Times Roman,serif" font-size="14.00">ApplicationController</text>
<polyline fill="none" stroke="black" points="337.932,-593.579 502.932,-593.579 "/>
<text text-anchor="start" x="345.932" y="-576.979" font-family="Times Roman,serif" font-size="14.00">load_recent_activities</text>
<text text-anchor="start" x="345.932" y="-558.979" font-family="Times Roman,serif" font-size="14.00">set_session_user</text>
<polyline fill="none" stroke="black" points="337.932,-549.579 502.932,-549.579 "/>
<polyline fill="none" stroke="black" points="337.932,-525.579 502.932,-525.579 "/>
<text text-anchor="start" x="345.932" y="-508.979" font-family="Times Roman,serif" font-size="14.00">_layout</text>
</g>
<!-- UsersController -->
<g id="node3" class="node"><title>UsersController</title>
<polyline fill="none" stroke="black" points="385.378,-683.502 515.378,-683.502 "/>
<path fill="none" stroke="black" d="M515.378,-683.502C521.378,-683.502 527.378,-689.502 527.378,-695.502"/>
<polyline fill="none" stroke="black" points="527.378,-695.502 527.378,-899.502 "/>
<path fill="none" stroke="black" d="M527.378,-899.502C527.378,-905.502 521.378,-911.502 515.378,-911.502"/>
<polyline fill="none" stroke="black" points="515.378,-911.502 385.378,-911.502 "/>
<path fill="none" stroke="black" d="M385.378,-911.502C379.378,-911.502 373.378,-905.502 373.378,-899.502"/>
<polyline fill="none" stroke="black" points="373.378,-899.502 373.378,-695.502 "/>
<path fill="none" stroke="black" d="M373.378,-695.502C373.378,-689.502 379.378,-683.502 385.378,-683.502"/>
<text text-anchor="middle" x="450.378" y="-894.902" font-family="Times Roman,serif" font-size="14.00">UsersController</text>
<polyline fill="none" stroke="black" points="373.378,-885.502 527.378,-885.502 "/>
<text text-anchor="start" x="381.378" y="-868.902" font-family="Times Roman,serif" font-size="14.00">_callback_before_13</text>
<text text-anchor="start" x="381.378" y="-850.902" font-family="Times Roman,serif" font-size="14.00">create_activities</text>
<text text-anchor="start" x="381.378" y="-832.902" font-family="Times Roman,serif" font-size="14.00">destroy</text>
<text text-anchor="start" x="381.378" y="-814.902" font-family="Times Roman,serif" font-size="14.00">edit</text>
<text text-anchor="start" x="381.378" y="-796.902" font-family="Times Roman,serif" font-size="14.00">index</text>
<text text-anchor="start" x="381.378" y="-778.902" font-family="Times Roman,serif" font-size="14.00">show</text>
<text text-anchor="start" x="381.378" y="-760.902" font-family="Times Roman,serif" font-size="14.00">update</text>
<text text-anchor="start" x="381.378" y="-742.902" font-family="Times Roman,serif" font-size="14.00">user_full_params</text>
<polyline fill="none" stroke="black" points="373.378,-733.502 527.378,-733.502 "/>
<polyline fill="none" stroke="black" points="373.378,-709.502 527.378,-709.502 "/>
<text text-anchor="start" x="381.378" y="-692.902" font-family="Times Roman,serif" font-size="14.00">_layout</text>
</g>
<!-- ApplicationController&#45;&gt;UsersController -->
<g id="edge2" class="edge"><title>ApplicationController&#45;&gt;UsersController</title>
<path fill="none" stroke="black" d="M427.989,-619.617C430.432,-639.027 433.227,-661.237 435.996,-683.233"/>
</g>
<!-- FollowsController -->
<g id="node5" class="node"><title>FollowsController</title>
<polyline fill="none" stroke="black" points="352.938,-4.76859 464.938,-4.76859 "/>
<path fill="none" stroke="black" d="M464.938,-4.76859C470.938,-4.76859 476.938,-10.7686 476.938,-16.7686"/>
<polyline fill="none" stroke="black" points="476.938,-16.7686 476.938,-184.769 "/>
<path fill="none" stroke="black" d="M476.938,-184.769C476.938,-190.769 470.938,-196.769 464.938,-196.769"/>
<polyline fill="none" stroke="black" points="464.938,-196.769 352.938,-196.769 "/>
<path fill="none" stroke="black" d="M352.938,-196.769C346.938,-196.769 340.938,-190.769 340.938,-184.769"/>
<polyline fill="none" stroke="black" points="340.938,-184.769 340.938,-16.7686 "/>
<path fill="none" stroke="black" d="M340.938,-16.7686C340.938,-10.7686 346.938,-4.76859 352.938,-4.76859"/>
<text text-anchor="middle" x="408.938" y="-180.169" font-family="Times Roman,serif" font-size="14.00">FollowsController</text>
<polyline fill="none" stroke="black" points="340.938,-170.769 476.938,-170.769 "/>
<text text-anchor="start" x="348.938" y="-154.169" font-family="Times Roman,serif" font-size="14.00">create</text>
<text text-anchor="start" x="348.938" y="-136.169" font-family="Times Roman,serif" font-size="14.00">create_activities</text>
<text text-anchor="start" x="348.938" y="-118.169" font-family="Times Roman,serif" font-size="14.00">destroy</text>
<text text-anchor="start" x="348.938" y="-100.169" font-family="Times Roman,serif" font-size="14.00">follow_params</text>
<text text-anchor="start" x="348.938" y="-82.1686" font-family="Times Roman,serif" font-size="14.00">index</text>
<text text-anchor="start" x="348.938" y="-64.1686" font-family="Times Roman,serif" font-size="14.00">set_follow</text>
<polyline fill="none" stroke="black" points="340.938,-54.7686 476.938,-54.7686 "/>
<polyline fill="none" stroke="black" points="340.938,-30.7686 476.938,-30.7686 "/>
<text text-anchor="start" x="348.938" y="-14.1686" font-family="Times Roman,serif" font-size="14.00">_layout</text>
</g>
<!-- ApplicationController&#45;&gt;FollowsController -->
<g id="edge6" class="edge"><title>ApplicationController&#45;&gt;FollowsController</title>
<path fill="none" stroke="black" d="M418.918,-499.125C416.988,-422.11 413.631,-288.088 411.348,-196.968"/>
</g>
<!-- CategoriesController -->
<g id="node6" class="node"><title>CategoriesController</title>
<polyline fill="none" stroke="black" points="42.9349,-950.19 177.935,-950.19 "/>
<path fill="none" stroke="black" d="M177.935,-950.19C183.935,-950.19 189.935,-956.19 189.935,-962.19"/>
<polyline fill="none" stroke="black" points="189.935,-962.19 189.935,-1238.19 "/>
<path fill="none" stroke="black" d="M189.935,-1238.19C189.935,-1244.19 183.935,-1250.19 177.935,-1250.19"/>
<polyline fill="none" stroke="black" points="177.935,-1250.19 42.9349,-1250.19 "/>
<path fill="none" stroke="black" d="M42.9349,-1250.19C36.9349,-1250.19 30.9349,-1244.19 30.9349,-1238.19"/>
<polyline fill="none" stroke="black" points="30.9349,-1238.19 30.9349,-962.19 "/>
<path fill="none" stroke="black" d="M30.9349,-962.19C30.9349,-956.19 36.9349,-950.19 42.9349,-950.19"/>
<text text-anchor="middle" x="110.435" y="-1233.59" font-family="Times Roman,serif" font-size="14.00">CategoriesController</text>
<polyline fill="none" stroke="black" points="30.9349,-1224.19 189.935,-1224.19 "/>
<text text-anchor="start" x="38.9349" y="-1207.59" font-family="Times Roman,serif" font-size="14.00">_callback_before_14</text>
<text text-anchor="start" x="38.9349" y="-1189.59" font-family="Times Roman,serif" font-size="14.00">_callback_before_15</text>
<text text-anchor="start" x="38.9349" y="-1171.59" font-family="Times Roman,serif" font-size="14.00">_callback_before_16</text>
<text text-anchor="start" x="38.9349" y="-1153.59" font-family="Times Roman,serif" font-size="14.00">category_params</text>
<text text-anchor="start" x="38.9349" y="-1135.59" font-family="Times Roman,serif" font-size="14.00">create</text>
<text text-anchor="start" x="38.9349" y="-1117.59" font-family="Times Roman,serif" font-size="14.00">create_activities</text>
<text text-anchor="start" x="38.9349" y="-1099.59" font-family="Times Roman,serif" font-size="14.00">destroy</text>
<text text-anchor="start" x="38.9349" y="-1081.59" font-family="Times Roman,serif" font-size="14.00">edit</text>
<text text-anchor="start" x="38.9349" y="-1063.59" font-family="Times Roman,serif" font-size="14.00">index</text>
<text text-anchor="start" x="38.9349" y="-1045.59" font-family="Times Roman,serif" font-size="14.00">new</text>
<text text-anchor="start" x="38.9349" y="-1027.59" font-family="Times Roman,serif" font-size="14.00">show</text>
<text text-anchor="start" x="38.9349" y="-1009.59" font-family="Times Roman,serif" font-size="14.00">update</text>
<polyline fill="none" stroke="black" points="30.9349,-1000.19 189.935,-1000.19 "/>
<polyline fill="none" stroke="black" points="30.9349,-976.19 189.935,-976.19 "/>
<text text-anchor="start" x="38.9349" y="-959.59" font-family="Times Roman,serif" font-size="14.00">_layout</text>
</g>
<!-- ApplicationController&#45;&gt;CategoriesController -->
<g id="edge8" class="edge"><title>ApplicationController&#45;&gt;CategoriesController</title>
<path fill="none" stroke="black" d="M385.923,-619.759C338.894,-701.775 253.285,-851.07 189.937,-961.544"/>
</g>
<!-- PostCommentsController -->
<g id="node7" class="node"><title>PostCommentsController</title>
<polyline fill="none" stroke="black" points="352.091,-964.004 516.091,-964.004 "/>
<path fill="none" stroke="black" d="M516.091,-964.004C522.091,-964.004 528.091,-970.004 528.091,-976.004"/>
<polyline fill="none" stroke="black" points="528.091,-976.004 528.091,-1198 "/>
<path fill="none" stroke="black" d="M528.091,-1198C528.091,-1204 522.091,-1210 516.091,-1210"/>
<polyline fill="none" stroke="black" points="516.091,-1210 352.091,-1210 "/>
<path fill="none" stroke="black" d="M352.091,-1210C346.091,-1210 340.091,-1204 340.091,-1198"/>
<polyline fill="none" stroke="black" points="340.091,-1198 340.091,-976.004 "/>
<path fill="none" stroke="black" d="M340.091,-976.004C340.091,-970.004 346.091,-964.004 352.091,-964.004"/>
<text text-anchor="middle" x="434.091" y="-1193.4" font-family="Times Roman,serif" font-size="14.00">PostCommentsController</text>
<polyline fill="none" stroke="black" points="340.091,-1184 528.091,-1184 "/>
<text text-anchor="start" x="348.091" y="-1167.4" font-family="Times Roman,serif" font-size="14.00">create</text>
<text text-anchor="start" x="348.091" y="-1149.4" font-family="Times Roman,serif" font-size="14.00">destroy</text>
<text text-anchor="start" x="348.091" y="-1131.4" font-family="Times Roman,serif" font-size="14.00">edit</text>
<text text-anchor="start" x="348.091" y="-1113.4" font-family="Times Roman,serif" font-size="14.00">index</text>
<text text-anchor="start" x="348.091" y="-1095.4" font-family="Times Roman,serif" font-size="14.00">new</text>
<text text-anchor="start" x="348.091" y="-1077.4" font-family="Times Roman,serif" font-size="14.00">post_comment_params</text>
<text text-anchor="start" x="348.091" y="-1059.4" font-family="Times Roman,serif" font-size="14.00">set_post_comment</text>
<text text-anchor="start" x="348.091" y="-1041.4" font-family="Times Roman,serif" font-size="14.00">show</text>
<text text-anchor="start" x="348.091" y="-1023.4" font-family="Times Roman,serif" font-size="14.00">update</text>
<polyline fill="none" stroke="black" points="340.091,-1014 528.091,-1014 "/>
<polyline fill="none" stroke="black" points="340.091,-990.004 528.091,-990.004 "/>
<text text-anchor="start" x="348.091" y="-973.404" font-family="Times Roman,serif" font-size="14.00">_layout</text>
</g>
<!-- ApplicationController&#45;&gt;PostCommentsController -->
<g id="edge10" class="edge"><title>ApplicationController&#45;&gt;PostCommentsController</title>
<path fill="none" stroke="black" d="M389.891,-619.827C381.829,-638.701 374.249,-659.932 370.178,-680.302 349.764,-782.46 351.773,-812.163 370.178,-914.702 373.081,-930.875 377.403,-947.514 382.454,-963.776"/>
</g>
<!-- SessionController -->
<g id="node8" class="node"><title>SessionController</title>
<polyline fill="none" stroke="black" points="70.9684,-785.488 183.968,-785.488 "/>
<path fill="none" stroke="black" d="M183.968,-785.488C189.968,-785.488 195.968,-791.488 195.968,-797.488"/>
<polyline fill="none" stroke="black" points="195.968,-797.488 195.968,-875.488 "/>
<path fill="none" stroke="black" d="M195.968,-875.488C195.968,-881.488 189.968,-887.488 183.968,-887.488"/>
<polyline fill="none" stroke="black" points="183.968,-887.488 70.9684,-887.488 "/>
<path fill="none" stroke="black" d="M70.9684,-887.488C64.9684,-887.488 58.9684,-881.488 58.9684,-875.488"/>
<polyline fill="none" stroke="black" points="58.9684,-875.488 58.9684,-797.488 "/>
<path fill="none" stroke="black" d="M58.9684,-797.488C58.9684,-791.488 64.9684,-785.488 70.9684,-785.488"/>
<text text-anchor="middle" x="127.468" y="-870.888" font-family="Times Roman,serif" font-size="14.00">SessionController</text>
<polyline fill="none" stroke="black" points="58.9684,-861.488 195.968,-861.488 "/>
<text text-anchor="start" x="66.9684" y="-844.888" font-family="Times Roman,serif" font-size="14.00">index</text>
<polyline fill="none" stroke="black" points="58.9684,-835.488 195.968,-835.488 "/>
<polyline fill="none" stroke="black" points="58.9684,-811.488 195.968,-811.488 "/>
<text text-anchor="start" x="66.9684" y="-794.888" font-family="Times Roman,serif" font-size="14.00">_layout</text>
</g>
<!-- ApplicationController&#45;&gt;SessionController -->
<g id="edge12" class="edge"><title>ApplicationController&#45;&gt;SessionController</title>
<path fill="none" stroke="black" d="M356.863,-619.664C304.526,-669.133 231.133,-738.505 181.573,-785.348"/>
</g>
<!-- PostsController -->
<g id="node9" class="node"><title>PostsController</title>
<polyline fill="none" stroke="black" points="88.4382,-247.088 193.438,-247.088 "/>
<path fill="none" stroke="black" d="M193.438,-247.088C199.438,-247.088 205.438,-253.088 205.438,-259.088"/>
<polyline fill="none" stroke="black" points="205.438,-259.088 205.438,-499.088 "/>
<path fill="none" stroke="black" d="M205.438,-499.088C205.438,-505.088 199.438,-511.088 193.438,-511.088"/>
<polyline fill="none" stroke="black" points="193.438,-511.088 88.4382,-511.088 "/>
<path fill="none" stroke="black" d="M88.4382,-511.088C82.4382,-511.088 76.4382,-505.088 76.4382,-499.088"/>
<polyline fill="none" stroke="black" points="76.4382,-499.088 76.4382,-259.088 "/>
<path fill="none" stroke="black" d="M76.4382,-259.088C76.4382,-253.088 82.4382,-247.088 88.4382,-247.088"/>
<text text-anchor="middle" x="140.938" y="-494.488" font-family="Times Roman,serif" font-size="14.00">PostsController</text>
<polyline fill="none" stroke="black" points="76.4382,-485.088 205.438,-485.088 "/>
<text text-anchor="start" x="84.4382" y="-468.488" font-family="Times Roman,serif" font-size="14.00">create</text>
<text text-anchor="start" x="84.4382" y="-450.488" font-family="Times Roman,serif" font-size="14.00">create_activities</text>
<text text-anchor="start" x="84.4382" y="-432.488" font-family="Times Roman,serif" font-size="14.00">destroy</text>
<text text-anchor="start" x="84.4382" y="-414.488" font-family="Times Roman,serif" font-size="14.00">edit</text>
<text text-anchor="start" x="84.4382" y="-396.488" font-family="Times Roman,serif" font-size="14.00">index</text>
<text text-anchor="start" x="84.4382" y="-378.488" font-family="Times Roman,serif" font-size="14.00">new</text>
<text text-anchor="start" x="84.4382" y="-360.488" font-family="Times Roman,serif" font-size="14.00">post_params</text>
<text text-anchor="start" x="84.4382" y="-342.488" font-family="Times Roman,serif" font-size="14.00">set_post</text>
<text text-anchor="start" x="84.4382" y="-324.488" font-family="Times Roman,serif" font-size="14.00">show</text>
<text text-anchor="start" x="84.4382" y="-306.488" font-family="Times Roman,serif" font-size="14.00">update</text>
<polyline fill="none" stroke="black" points="76.4382,-297.088 205.438,-297.088 "/>
<polyline fill="none" stroke="black" points="76.4382,-273.088 205.438,-273.088 "/>
<text text-anchor="start" x="84.4382" y="-256.488" font-family="Times Roman,serif" font-size="14.00">_layout</text>
</g>
<!-- ApplicationController&#45;&gt;PostsController -->
<g id="edge14" class="edge"><title>ApplicationController&#45;&gt;PostsController</title>
<path fill="none" stroke="black" d="M337.709,-506.158C295.535,-478.923 244.998,-446.287 205.7,-420.91"/>
</g>
<!-- IdeasController -->
<g id="node10" class="node"><title>IdeasController</title>
<polyline fill="none" stroke="black" points="704.81,-330.566 834.81,-330.566 "/>
<path fill="none" stroke="black" d="M834.81,-330.566C840.81,-330.566 846.81,-336.566 846.81,-342.566"/>
<polyline fill="none" stroke="black" points="846.81,-342.566 846.81,-582.566 "/>
<path fill="none" stroke="black" d="M846.81,-582.566C846.81,-588.566 840.81,-594.566 834.81,-594.566"/>
<polyline fill="none" stroke="black" points="834.81,-594.566 704.81,-594.566 "/>
<path fill="none" stroke="black" d="M704.81,-594.566C698.81,-594.566 692.81,-588.566 692.81,-582.566"/>
<polyline fill="none" stroke="black" points="692.81,-582.566 692.81,-342.566 "/>
<path fill="none" stroke="black" d="M692.81,-342.566C692.81,-336.566 698.81,-330.566 704.81,-330.566"/>
<text text-anchor="middle" x="769.81" y="-577.966" font-family="Times Roman,serif" font-size="14.00">IdeasController</text>
<polyline fill="none" stroke="black" points="692.81,-568.566 846.81,-568.566 "/>
<text text-anchor="start" x="700.81" y="-551.966" font-family="Times Roman,serif" font-size="14.00">_callback_before_17</text>
<text text-anchor="start" x="700.81" y="-533.966" font-family="Times Roman,serif" font-size="14.00">create</text>
<text text-anchor="start" x="700.81" y="-515.966" font-family="Times Roman,serif" font-size="14.00">create_activities</text>
<text text-anchor="start" x="700.81" y="-497.966" font-family="Times Roman,serif" font-size="14.00">destroy</text>
<text text-anchor="start" x="700.81" y="-479.966" font-family="Times Roman,serif" font-size="14.00">edit</text>
<text text-anchor="start" x="700.81" y="-461.966" font-family="Times Roman,serif" font-size="14.00">idea_params</text>
<text text-anchor="start" x="700.81" y="-443.966" font-family="Times Roman,serif" font-size="14.00">index</text>
<text text-anchor="start" x="700.81" y="-425.966" font-family="Times Roman,serif" font-size="14.00">new</text>
<text text-anchor="start" x="700.81" y="-407.966" font-family="Times Roman,serif" font-size="14.00">show</text>
<text text-anchor="start" x="700.81" y="-389.966" font-family="Times Roman,serif" font-size="14.00">update</text>
<polyline fill="none" stroke="black" points="692.81,-380.566 846.81,-380.566 "/>
<polyline fill="none" stroke="black" points="692.81,-356.566 846.81,-356.566 "/>
<text text-anchor="start" x="700.81" y="-339.966" font-family="Times Roman,serif" font-size="14.00">_layout</text>
</g>
<!-- ApplicationController&#45;&gt;IdeasController -->
<g id="edge16" class="edge"><title>ApplicationController&#45;&gt;IdeasController</title>
<path fill="none" stroke="black" d="M503.23,-536.588C560.639,-520.647 636.557,-499.566 692.689,-483.98"/>
</g>
<!-- UserCommentsController -->
<g id="node11" class="node"><title>UserCommentsController</title>
<polyline fill="none" stroke="black" points="13,-34.5913 179,-34.5913 "/>
<path fill="none" stroke="black" d="M179,-34.5913C185,-34.5913 191,-40.5913 191,-46.5913"/>
<polyline fill="none" stroke="black" points="191,-46.5913 191,-178.591 "/>
<path fill="none" stroke="black" d="M191,-178.591C191,-184.591 185,-190.591 179,-190.591"/>
<polyline fill="none" stroke="black" points="179,-190.591 13,-190.591 "/>
<path fill="none" stroke="black" d="M13,-190.591C7,-190.591 1,-184.591 1,-178.591"/>
<polyline fill="none" stroke="black" points="1,-178.591 1,-46.5913 "/>
<path fill="none" stroke="black" d="M1,-46.5913C1,-40.5913 7,-34.5913 13,-34.5913"/>
<text text-anchor="middle" x="96" y="-173.991" font-family="Times Roman,serif" font-size="14.00">UserCommentsController</text>
<polyline fill="none" stroke="black" points="1,-164.591 191,-164.591 "/>
<text text-anchor="start" x="9" y="-147.991" font-family="Times Roman,serif" font-size="14.00">_callback_before_18</text>
<text text-anchor="start" x="9" y="-129.991" font-family="Times Roman,serif" font-size="14.00">create</text>
<text text-anchor="start" x="9" y="-111.991" font-family="Times Roman,serif" font-size="14.00">destroy</text>
<text text-anchor="start" x="9" y="-93.9913" font-family="Times Roman,serif" font-size="14.00">user_comment_params</text>
<polyline fill="none" stroke="black" points="1,-84.5913 191,-84.5913 "/>
<polyline fill="none" stroke="black" points="1,-60.5913 191,-60.5913 "/>
<text text-anchor="start" x="9" y="-43.9913" font-family="Times Roman,serif" font-size="14.00">_layout</text>
</g>
<!-- ApplicationController&#45;&gt;UserCommentsController -->
<g id="edge18" class="edge"><title>ApplicationController&#45;&gt;UserCommentsController</title>
<path fill="none" stroke="black" d="M383.038,-499.362C342.222,-434.738 273.942,-329.792 208.638,-243.888 195.279,-226.314 180.306,-208.009 165.747,-190.841"/>
</g>
<!-- IdeaAdminsController -->
<g id="node12" class="node"><title>IdeaAdminsController</title>
<polyline fill="none" stroke="black" points="682.842,-1.5 822.842,-1.5 "/>
<path fill="none" stroke="black" d="M822.842,-1.5C828.842,-1.5 834.842,-7.5 834.842,-13.5"/>
<polyline fill="none" stroke="black" points="834.842,-13.5 834.842,-235.5 "/>
<path fill="none" stroke="black" d="M834.842,-235.5C834.842,-241.5 828.842,-247.5 822.842,-247.5"/>
<polyline fill="none" stroke="black" points="822.842,-247.5 682.842,-247.5 "/>
<path fill="none" stroke="black" d="M682.842,-247.5C676.842,-247.5 670.842,-241.5 670.842,-235.5"/>
<polyline fill="none" stroke="black" points="670.842,-235.5 670.842,-13.5 "/>
<path fill="none" stroke="black" d="M670.842,-13.5C670.842,-7.5 676.842,-1.5 682.842,-1.5"/>
<text text-anchor="middle" x="752.842" y="-230.9" font-family="Times Roman,serif" font-size="14.00">IdeaAdminsController</text>
<polyline fill="none" stroke="black" points="670.842,-221.5 834.842,-221.5 "/>
<text text-anchor="start" x="678.842" y="-204.9" font-family="Times Roman,serif" font-size="14.00">create</text>
<text text-anchor="start" x="678.842" y="-186.9" font-family="Times Roman,serif" font-size="14.00">destroy</text>
<text text-anchor="start" x="678.842" y="-168.9" font-family="Times Roman,serif" font-size="14.00">edit</text>
<text text-anchor="start" x="678.842" y="-150.9" font-family="Times Roman,serif" font-size="14.00">idea_admin_params</text>
<text text-anchor="start" x="678.842" y="-132.9" font-family="Times Roman,serif" font-size="14.00">index</text>
<text text-anchor="start" x="678.842" y="-114.9" font-family="Times Roman,serif" font-size="14.00">new</text>
<text text-anchor="start" x="678.842" y="-96.9" font-family="Times Roman,serif" font-size="14.00">set_idea_admin</text>
<text text-anchor="start" x="678.842" y="-78.9" font-family="Times Roman,serif" font-size="14.00">show</text>
<text text-anchor="start" x="678.842" y="-60.9" font-family="Times Roman,serif" font-size="14.00">update</text>
<polyline fill="none" stroke="black" points="670.842,-51.5 834.842,-51.5 "/>
<polyline fill="none" stroke="black" points="670.842,-27.5 834.842,-27.5 "/>
<text text-anchor="start" x="678.842" y="-10.9" font-family="Times Roman,serif" font-size="14.00">_layout</text>
</g>
<!-- ApplicationController&#45;&gt;IdeaAdminsController -->
<g id="edge20" class="edge"><title>ApplicationController&#45;&gt;IdeaAdminsController</title>
<path fill="none" stroke="black" d="M503.004,-526.629C526.936,-514.256 551.733,-498.37 570.835,-478.925 634.821,-413.789 681.211,-321.594 711.14,-247.562"/>
</g>
<!-- ForumController -->
<g id="node13" class="node"><title>ForumController</title>
<polyline fill="none" stroke="black" points="450.635,-211.725 555.635,-211.725 "/>
<path fill="none" stroke="black" d="M555.635,-211.725C561.635,-211.725 567.635,-217.725 567.635,-223.725"/>
<polyline fill="none" stroke="black" points="567.635,-223.725 567.635,-463.725 "/>
<path fill="none" stroke="black" d="M567.635,-463.725C567.635,-469.725 561.635,-475.725 555.635,-475.725"/>
<polyline fill="none" stroke="black" points="555.635,-475.725 450.635,-475.725 "/>
<path fill="none" stroke="black" d="M450.635,-475.725C444.635,-475.725 438.635,-469.725 438.635,-463.725"/>
<polyline fill="none" stroke="black" points="438.635,-463.725 438.635,-223.725 "/>
<path fill="none" stroke="black" d="M438.635,-223.725C438.635,-217.725 444.635,-211.725 450.635,-211.725"/>
<text text-anchor="middle" x="503.135" y="-459.125" font-family="Times Roman,serif" font-size="14.00">ForumController</text>
<polyline fill="none" stroke="black" points="438.635,-449.725 567.635,-449.725 "/>
<text text-anchor="start" x="446.635" y="-433.125" font-family="Times Roman,serif" font-size="14.00">create</text>
<text text-anchor="start" x="446.635" y="-415.125" font-family="Times Roman,serif" font-size="14.00">destroy</text>
<text text-anchor="start" x="446.635" y="-397.125" font-family="Times Roman,serif" font-size="14.00">edit</text>
<text text-anchor="start" x="446.635" y="-379.125" font-family="Times Roman,serif" font-size="14.00">forum_params</text>
<text text-anchor="start" x="446.635" y="-361.125" font-family="Times Roman,serif" font-size="14.00">index</text>
<text text-anchor="start" x="446.635" y="-343.125" font-family="Times Roman,serif" font-size="14.00">new</text>
<text text-anchor="start" x="446.635" y="-325.125" font-family="Times Roman,serif" font-size="14.00">set_forum</text>
<text text-anchor="start" x="446.635" y="-307.125" font-family="Times Roman,serif" font-size="14.00">set_idea</text>
<text text-anchor="start" x="446.635" y="-289.125" font-family="Times Roman,serif" font-size="14.00">show</text>
<text text-anchor="start" x="446.635" y="-271.125" font-family="Times Roman,serif" font-size="14.00">update</text>
<polyline fill="none" stroke="black" points="438.635,-261.725 567.635,-261.725 "/>
<polyline fill="none" stroke="black" points="438.635,-237.725 567.635,-237.725 "/>
<text text-anchor="start" x="446.635" y="-221.125" font-family="Times Roman,serif" font-size="14.00">_layout</text>
</g>
<!-- ApplicationController&#45;&gt;ForumController -->
<g id="edge22" class="edge"><title>ApplicationController&#45;&gt;ForumController</title>
<path fill="none" stroke="black" d="M443.47,-499.451C446.337,-491.967 449.352,-484.097 452.441,-476.037"/>
</g>
<!-- NotificationsController -->
<g id="node14" class="node"><title>NotificationsController</title>
<polyline fill="none" stroke="black" points="22.4983,-549.074 169.498,-549.074 "/>
<path fill="none" stroke="black" d="M169.498,-549.074C175.498,-549.074 181.498,-555.074 181.498,-561.074"/>
<polyline fill="none" stroke="black" points="181.498,-561.074 181.498,-657.074 "/>
<path fill="none" stroke="black" d="M181.498,-657.074C181.498,-663.074 175.498,-669.074 169.498,-669.074"/>
<polyline fill="none" stroke="black" points="169.498,-669.074 22.4983,-669.074 "/>
<path fill="none" stroke="black" d="M22.4983,-669.074C16.4983,-669.074 10.4983,-663.074 10.4983,-657.074"/>
<polyline fill="none" stroke="black" points="10.4983,-657.074 10.4983,-561.074 "/>
<path fill="none" stroke="black" d="M10.4983,-561.074C10.4983,-555.074 16.4983,-549.074 22.4983,-549.074"/>
<text text-anchor="middle" x="95.9983" y="-652.474" font-family="Times Roman,serif" font-size="14.00">NotificationsController</text>
<polyline fill="none" stroke="black" points="10.4983,-643.074 181.498,-643.074 "/>
<text text-anchor="start" x="18.4983" y="-626.474" font-family="Times Roman,serif" font-size="14.00">_callback_after_19</text>
<text text-anchor="start" x="18.4983" y="-608.474" font-family="Times Roman,serif" font-size="14.00">index</text>
<polyline fill="none" stroke="black" points="10.4983,-599.074 181.498,-599.074 "/>
<polyline fill="none" stroke="black" points="10.4983,-575.074 181.498,-575.074 "/>
<text text-anchor="start" x="18.4983" y="-558.474" font-family="Times Roman,serif" font-size="14.00">_layout</text>
</g>
<!-- ApplicationController&#45;&gt;NotificationsController -->
<g id="edge24" class="edge"><title>ApplicationController&#45;&gt;NotificationsController</title>
<path fill="none" stroke="black" d="M337.724,-572.196C289.945,-579.485 229.94,-588.64 181.668,-596.004"/>
</g>
<!-- MessagesController -->
<g id="node15" class="node"><title>MessagesController</title>
<polyline fill="none" stroke="black" points="692.268,-622.987 818.268,-622.987 "/>
<path fill="none" stroke="black" d="M818.268,-622.987C824.268,-622.987 830.268,-628.987 830.268,-634.987"/>
<polyline fill="none" stroke="black" points="830.268,-634.987 830.268,-856.987 "/>
<path fill="none" stroke="black" d="M830.268,-856.987C830.268,-862.987 824.268,-868.987 818.268,-868.987"/>
<polyline fill="none" stroke="black" points="818.268,-868.987 692.268,-868.987 "/>
<path fill="none" stroke="black" d="M692.268,-868.987C686.268,-868.987 680.268,-862.987 680.268,-856.987"/>
<polyline fill="none" stroke="black" points="680.268,-856.987 680.268,-634.987 "/>
<path fill="none" stroke="black" d="M680.268,-634.987C680.268,-628.987 686.268,-622.987 692.268,-622.987"/>
<text text-anchor="middle" x="755.268" y="-852.387" font-family="Times Roman,serif" font-size="14.00">MessagesController</text>
<polyline fill="none" stroke="black" points="680.268,-842.987 830.268,-842.987 "/>
<text text-anchor="start" x="688.268" y="-826.387" font-family="Times Roman,serif" font-size="14.00">create</text>
<text text-anchor="start" x="688.268" y="-808.387" font-family="Times Roman,serif" font-size="14.00">destroy</text>
<text text-anchor="start" x="688.268" y="-790.387" font-family="Times Roman,serif" font-size="14.00">edit</text>
<text text-anchor="start" x="688.268" y="-772.387" font-family="Times Roman,serif" font-size="14.00">index</text>
<text text-anchor="start" x="688.268" y="-754.387" font-family="Times Roman,serif" font-size="14.00">message_params</text>
<text text-anchor="start" x="688.268" y="-736.387" font-family="Times Roman,serif" font-size="14.00">new</text>
<text text-anchor="start" x="688.268" y="-718.387" font-family="Times Roman,serif" font-size="14.00">set_message</text>
<text text-anchor="start" x="688.268" y="-700.387" font-family="Times Roman,serif" font-size="14.00">show</text>
<text text-anchor="start" x="688.268" y="-682.387" font-family="Times Roman,serif" font-size="14.00">update</text>
<polyline fill="none" stroke="black" points="680.268,-672.987 830.268,-672.987 "/>
<polyline fill="none" stroke="black" points="680.268,-648.987 830.268,-648.987 "/>
<text text-anchor="start" x="688.268" y="-632.387" font-family="Times Roman,serif" font-size="14.00">_layout</text>
</g>
<!-- ApplicationController&#45;&gt;MessagesController -->
<g id="edge26" class="edge"><title>ApplicationController&#45;&gt;MessagesController</title>
<path fill="none" stroke="black" d="M503.201,-605.657C557.329,-635.791 627.478,-674.844 680.025,-704.098"/>
</g>
<!-- IdeaCommentsController -->
<g id="node17" class="node"><title>IdeaCommentsController</title>
<polyline fill="none" stroke="black" points="671.324,-983.172 835.324,-983.172 "/>
<path fill="none" stroke="black" d="M835.324,-983.172C841.324,-983.172 847.324,-989.172 847.324,-995.172"/>
<polyline fill="none" stroke="black" points="847.324,-995.172 847.324,-1145.17 "/>
<path fill="none" stroke="black" d="M847.324,-1145.17C847.324,-1151.17 841.324,-1157.17 835.324,-1157.17"/>
<polyline fill="none" stroke="black" points="835.324,-1157.17 671.324,-1157.17 "/>
<path fill="none" stroke="black" d="M671.324,-1157.17C665.324,-1157.17 659.324,-1151.17 659.324,-1145.17"/>
<polyline fill="none" stroke="black" points="659.324,-1145.17 659.324,-995.172 "/>
<path fill="none" stroke="black" d="M659.324,-995.172C659.324,-989.172 665.324,-983.172 671.324,-983.172"/>
<text text-anchor="middle" x="753.324" y="-1140.57" font-family="Times Roman,serif" font-size="14.00">IdeaCommentsController</text>
<polyline fill="none" stroke="black" points="659.324,-1131.17 847.324,-1131.17 "/>
<text text-anchor="start" x="667.324" y="-1114.57" font-family="Times Roman,serif" font-size="14.00">create</text>
<text text-anchor="start" x="667.324" y="-1096.57" font-family="Times Roman,serif" font-size="14.00">create_activities</text>
<text text-anchor="start" x="667.324" y="-1078.57" font-family="Times Roman,serif" font-size="14.00">destroy</text>
<text text-anchor="start" x="667.324" y="-1060.57" font-family="Times Roman,serif" font-size="14.00">idea_comment_params</text>
<text text-anchor="start" x="667.324" y="-1042.57" font-family="Times Roman,serif" font-size="14.00">set_idea_comment</text>
<polyline fill="none" stroke="black" points="659.324,-1033.17 847.324,-1033.17 "/>
<polyline fill="none" stroke="black" points="659.324,-1009.17 847.324,-1009.17 "/>
<text text-anchor="start" x="667.324" y="-992.572" font-family="Times Roman,serif" font-size="14.00">_layout</text>
</g>
<!-- ApplicationController&#45;&gt;IdeaCommentsController -->
<g id="edge30" class="edge"><title>ApplicationController&#45;&gt;IdeaCommentsController</title>
<path fill="none" stroke="black" d="M480.065,-619.682C497.272,-638.377 515.465,-659.545 530.578,-680.302 602.044,-778.454 668.999,-901.485 710.48,-982.792"/>
</g>
<!-- RegistrationsController -->
<g id="node4" class="node"><title>RegistrationsController</title>
<polyline fill="none" stroke="black" points="943,-311.5 1094,-311.5 "/>
<path fill="none" stroke="black" d="M1094,-311.5C1100,-311.5 1106,-317.5 1106,-323.5"/>
<polyline fill="none" stroke="black" points="1106,-323.5 1106,-439.5 "/>
<path fill="none" stroke="black" d="M1106,-439.5C1106,-445.5 1100,-451.5 1094,-451.5"/>
<polyline fill="none" stroke="black" points="1094,-451.5 943,-451.5 "/>
<path fill="none" stroke="black" d="M943,-451.5C937,-451.5 931,-445.5 931,-439.5"/>
<polyline fill="none" stroke="black" points="931,-439.5 931,-323.5 "/>
<path fill="none" stroke="black" d="M931,-323.5C931,-317.5 937,-311.5 943,-311.5"/>
<text text-anchor="middle" x="1018.5" y="-434.9" font-family="Times Roman,serif" font-size="14.00">RegistrationsController</text>
<polyline fill="none" stroke="black" points="931,-425.5 1106,-425.5 "/>
<text text-anchor="start" x="939" y="-408.9" font-family="Times Roman,serif" font-size="14.00">new</text>
<polyline fill="none" stroke="black" points="931,-399.5 1106,-399.5 "/>
<text text-anchor="start" x="939" y="-382.9" font-family="Times Roman,serif" font-size="14.00">after_sign_in_path_for</text>
<text text-anchor="start" x="939" y="-364.9" font-family="Times Roman,serif" font-size="14.00">after_sign_up_path_for</text>
<polyline fill="none" stroke="black" points="931,-355.5 1106,-355.5 "/>
<text text-anchor="start" x="939" y="-338.9" font-family="Times Roman,serif" font-size="14.00">_layout</text>
<text text-anchor="start" x="939" y="-320.9" font-family="Times Roman,serif" font-size="14.00">sign_up_params</text>
</g>
<!-- Users::OmniauthCallbacksController -->
<g id="node16" class="node"><title>Users::OmniauthCallbacksController</title>
<polyline fill="none" stroke="black" points="943,-125.5 1184,-125.5 "/>
<path fill="none" stroke="black" d="M1184,-125.5C1190,-125.5 1196,-131.5 1196,-137.5"/>
<polyline fill="none" stroke="black" points="1196,-137.5 1196,-215.5 "/>
<path fill="none" stroke="black" d="M1196,-215.5C1196,-221.5 1190,-227.5 1184,-227.5"/>
<polyline fill="none" stroke="black" points="1184,-227.5 943,-227.5 "/>
<path fill="none" stroke="black" d="M943,-227.5C937,-227.5 931,-221.5 931,-215.5"/>
<polyline fill="none" stroke="black" points="931,-215.5 931,-137.5 "/>
<path fill="none" stroke="black" d="M931,-137.5C931,-131.5 937,-125.5 943,-125.5"/>
<text text-anchor="middle" x="1063.5" y="-210.9" font-family="Times Roman,serif" font-size="14.00">Users::OmniauthCallbacksController</text>
<polyline fill="none" stroke="black" points="931,-201.5 1196,-201.5 "/>
<text text-anchor="start" x="939" y="-184.9" font-family="Times Roman,serif" font-size="14.00">facebook</text>
<polyline fill="none" stroke="black" points="931,-175.5 1196,-175.5 "/>
<polyline fill="none" stroke="black" points="931,-151.5 1196,-151.5 "/>
<text text-anchor="start" x="939" y="-134.9" font-family="Times Roman,serif" font-size="14.00">_layout</text>
</g>
<!-- Devise::RegistrationsController -->
<g id="node19" class="node"><title>Devise::RegistrationsController</title>
<ellipse fill="none" stroke="black" cx="1288.01" cy="-381.498" rx="162.842" ry="18.3848"/>
<text text-anchor="middle" x="1288.01" y="-377.898" font-family="Times Roman,serif" font-size="14.00">Devise::RegistrationsController</text>
</g>
<!-- Devise::RegistrationsController&#45;&gt;RegistrationsController -->
<g id="edge4" class="edge"><title>Devise::RegistrationsController&#45;&gt;RegistrationsController</title>
<path fill="none" stroke="black" d="M1124.63,-381.499C1118.33,-381.499 1112.11,-381.499 1106.05,-381.499"/>
</g>
<!-- Devise::OmniauthCallbacksController -->
<g id="node32" class="node"><title>Devise::OmniauthCallbacksController</title>
<ellipse fill="none" stroke="black" cx="1421.58" cy="-176.5" rx="193.04" ry="18.3848"/>
<text text-anchor="middle" x="1421.58" y="-172.9" font-family="Times Roman,serif" font-size="14.00">Devise::OmniauthCallbacksController</text>
</g>
<!-- Devise::OmniauthCallbacksController&#45;&gt;Users::OmniauthCallbacksController -->
<g id="edge28" class="edge"><title>Devise::OmniauthCallbacksController&#45;&gt;Users::OmniauthCallbacksController</title>
<path fill="none" stroke="black" d="M1228.39,-176.5C1217.49,-176.5 1206.66,-176.5 1196.06,-176.5"/>
</g>
</g>
</svg>
