<?xml version="1.0" encoding="UTF-8" standalone="no"?>
<!DOCTYPE svg PUBLIC "-//W3C//DTD SVG 1.1//EN"
 "http://www.w3.org/Graphics/SVG/1.1/DTD/svg11.dtd">
<!-- Generated by graphviz version 2.26.3 (20100126.1600)
 -->
<!-- Title: models_diagram Pages: 1 -->
<svg width="1557pt" height="1656pt"
 viewBox="0.00 0.00 1557.00 1656.00" xmlns="http://www.w3.org/2000/svg" xmlns:xlink="http://www.w3.org/1999/xlink">
<g id="graph1" class="graph" transform="scale(1 1) rotate(0) translate(4 1652)">
<title>models_diagram</title>
<polygon fill="white" stroke="white" points="-4,5 -4,-1652 1554,-1652 1554,5 -4,5"/>
<!-- _diagram_info -->
<g id="node1" class="node"><title>_diagram_info</title>
<text text-anchor="start" x="8" y="-1631.8" font-family="Times Roman,serif" font-size="13.00">Models diagram</text>
<text text-anchor="start" x="8" y="-1614.8" font-family="Times Roman,serif" font-size="13.00">Date: Jun 09 2014 &#45; 12:32</text>
<text text-anchor="start" x="8" y="-1597.8" font-family="Times Roman,serif" font-size="13.00">Migration version: 20140609141735</text>
<text text-anchor="start" x="8" y="-1580.8" font-family="Times Roman,serif" font-size="13.00">Generated by RailRoady 1.1.1</text>
<text text-anchor="start" x="8" y="-1563.8" font-family="Times Roman,serif" font-size="13.00">http://railroady.prestonlee.com</text>
</g>
<!-- Profile -->
<g id="node2" class="node"><title>Profile</title>
<polyline fill="none" stroke="black" points="201,-797 373,-797 "/>
<path fill="none" stroke="black" d="M373,-797C379,-797 385,-803 385,-809"/>
<polyline fill="none" stroke="black" points="385,-809 385,-1107 "/>
<path fill="none" stroke="black" d="M385,-1107C385,-1113 379,-1119 373,-1119"/>
<polyline fill="none" stroke="black" points="373,-1119 201,-1119 "/>
<path fill="none" stroke="black" d="M201,-1119C195,-1119 189,-1113 189,-1107"/>
<polyline fill="none" stroke="black" points="189,-1107 189,-809 "/>
<path fill="none" stroke="black" d="M189,-809C189,-803 195,-797 201,-797"/>
<text text-anchor="middle" x="287" y="-1102.4" font-family="Times Roman,serif" font-size="14.00">Profile</text>
<polyline fill="none" stroke="black" points="189,-1093 385,-1093 "/>
<text text-anchor="start" x="197" y="-1076.4" font-family="Times Roman,serif" font-size="14.00">id :integer</text>
<text text-anchor="start" x="197" y="-1058.4" font-family="Times Roman,serif" font-size="14.00">nick :string</text>
<text text-anchor="start" x="197" y="-1040.4" font-family="Times Roman,serif" font-size="14.00">first_name :string</text>
<text text-anchor="start" x="197" y="-1022.4" font-family="Times Roman,serif" font-size="14.00">last_name :string</text>
<text text-anchor="start" x="197" y="-1004.4" font-family="Times Roman,serif" font-size="14.00">access_token_login :string</text>
<text text-anchor="start" x="197" y="-986.4" font-family="Times Roman,serif" font-size="14.00">image_file_name :string</text>
<text text-anchor="start" x="197" y="-968.4" font-family="Times Roman,serif" font-size="14.00">about :text</text>
<text text-anchor="start" x="197" y="-950.4" font-family="Times Roman,serif" font-size="14.00">local :string</text>
<text text-anchor="start" x="197" y="-932.4" font-family="Times Roman,serif" font-size="14.00">website :string</text>
<text text-anchor="start" x="197" y="-914.4" font-family="Times Roman,serif" font-size="14.00">facebook :string</text>
<text text-anchor="start" x="197" y="-896.4" font-family="Times Roman,serif" font-size="14.00">twitter :string</text>
<text text-anchor="start" x="197" y="-878.4" font-family="Times Roman,serif" font-size="14.00">access_token :string</text>
<text text-anchor="start" x="197" y="-860.4" font-family="Times Roman,serif" font-size="14.00">created_at :datetime</text>
<text text-anchor="start" x="197" y="-842.4" font-family="Times Roman,serif" font-size="14.00">updated_at :datetime</text>
<text text-anchor="start" x="197" y="-824.4" font-family="Times Roman,serif" font-size="14.00">user_id :integer</text>
<text text-anchor="start" x="197" y="-806.4" font-family="Times Roman,serif" font-size="14.00">updated_user :boolean</text>
</g>
<!-- PostComment -->
<g id="node3" class="node"><title>PostComment</title>
<polyline fill="none" stroke="black" points="50.5,-1 191.5,-1 "/>
<path fill="none" stroke="black" d="M191.5,-1C197.5,-1 203.5,-7 203.5,-13"/>
<polyline fill="none" stroke="black" points="203.5,-13 203.5,-149 "/>
<path fill="none" stroke="black" d="M203.5,-149C203.5,-155 197.5,-161 191.5,-161"/>
<polyline fill="none" stroke="black" points="191.5,-161 50.5,-161 "/>
<path fill="none" stroke="black" d="M50.5,-161C44.5,-161 38.5,-155 38.5,-149"/>
<polyline fill="none" stroke="black" points="38.5,-149 38.5,-13 "/>
<path fill="none" stroke="black" d="M38.5,-13C38.5,-7 44.5,-1 50.5,-1"/>
<text text-anchor="middle" x="121" y="-144.4" font-family="Times Roman,serif" font-size="14.00">PostComment</text>
<polyline fill="none" stroke="black" points="38.5,-135 203.5,-135 "/>
<text text-anchor="start" x="46.5" y="-118.4" font-family="Times Roman,serif" font-size="14.00">id :integer</text>
<text text-anchor="start" x="46.5" y="-100.4" font-family="Times Roman,serif" font-size="14.00">title :string</text>
<text text-anchor="start" x="46.5" y="-82.4" font-family="Times Roman,serif" font-size="14.00">message :text</text>
<text text-anchor="start" x="46.5" y="-64.4" font-family="Times Roman,serif" font-size="14.00">post_id :integer</text>
<text text-anchor="start" x="46.5" y="-46.4" font-family="Times Roman,serif" font-size="14.00">user_id :integer</text>
<text text-anchor="start" x="46.5" y="-28.4" font-family="Times Roman,serif" font-size="14.00">created_at :datetime</text>
<text text-anchor="start" x="46.5" y="-10.4" font-family="Times Roman,serif" font-size="14.00">updated_at :datetime</text>
</g>
<!-- Follow -->
<g id="node4" class="node"><title>Follow</title>
<polyline fill="none" stroke="black" points="162.5,-608 303.5,-608 "/>
<path fill="none" stroke="black" d="M303.5,-608C309.5,-608 315.5,-614 315.5,-620"/>
<polyline fill="none" stroke="black" points="315.5,-620 315.5,-720 "/>
<path fill="none" stroke="black" d="M315.5,-720C315.5,-726 309.5,-732 303.5,-732"/>
<polyline fill="none" stroke="black" points="303.5,-732 162.5,-732 "/>
<path fill="none" stroke="black" d="M162.5,-732C156.5,-732 150.5,-726 150.5,-720"/>
<polyline fill="none" stroke="black" points="150.5,-720 150.5,-620 "/>
<path fill="none" stroke="black" d="M150.5,-620C150.5,-614 156.5,-608 162.5,-608"/>
<text text-anchor="middle" x="233" y="-715.4" font-family="Times Roman,serif" font-size="14.00">Follow</text>
<polyline fill="none" stroke="black" points="150.5,-706 315.5,-706 "/>
<text text-anchor="start" x="158.5" y="-689.4" font-family="Times Roman,serif" font-size="14.00">id :integer</text>
<text text-anchor="start" x="158.5" y="-671.4" font-family="Times Roman,serif" font-size="14.00">user_id :integer</text>
<text text-anchor="start" x="158.5" y="-653.4" font-family="Times Roman,serif" font-size="14.00">idea_id :integer</text>
<text text-anchor="start" x="158.5" y="-635.4" font-family="Times Roman,serif" font-size="14.00">created_at :datetime</text>
<text text-anchor="start" x="158.5" y="-617.4" font-family="Times Roman,serif" font-size="14.00">updated_at :datetime</text>
</g>
<!-- Message -->
<g id="node5" class="node"><title>Message</title>
<polyline fill="none" stroke="black" points="803,-878 995,-878 "/>
<path fill="none" stroke="black" d="M995,-878C1001,-878 1007,-884 1007,-890"/>
<polyline fill="none" stroke="black" points="1007,-890 1007,-1026 "/>
<path fill="none" stroke="black" d="M1007,-1026C1007,-1032 1001,-1038 995,-1038"/>
<polyline fill="none" stroke="black" points="995,-1038 803,-1038 "/>
<path fill="none" stroke="black" d="M803,-1038C797,-1038 791,-1032 791,-1026"/>
<polyline fill="none" stroke="black" points="791,-1026 791,-890 "/>
<path fill="none" stroke="black" d="M791,-890C791,-884 797,-878 803,-878"/>
<text text-anchor="middle" x="899" y="-1021.4" font-family="Times Roman,serif" font-size="14.00">Message</text>
<polyline fill="none" stroke="black" points="791,-1012 1007,-1012 "/>
<text text-anchor="start" x="799" y="-995.4" font-family="Times Roman,serif" font-size="14.00">id :integer</text>
<text text-anchor="start" x="799" y="-977.4" font-family="Times Roman,serif" font-size="14.00">title :string</text>
<text text-anchor="start" x="799" y="-959.4" font-family="Times Roman,serif" font-size="14.00">body :text</text>
<text text-anchor="start" x="799" y="-941.4" font-family="Times Roman,serif" font-size="14.00">message_sender_id :integer</text>
<text text-anchor="start" x="799" y="-923.4" font-family="Times Roman,serif" font-size="14.00">message_receiver_id :integer</text>
<text text-anchor="start" x="799" y="-905.4" font-family="Times Roman,serif" font-size="14.00">created_at :datetime</text>
<text text-anchor="start" x="799" y="-887.4" font-family="Times Roman,serif" font-size="14.00">updated_at :datetime</text>
</g>
<!-- Ability -->
<g id="node6" class="node"><title>Ability</title>
<polygon fill="none" stroke="black" points="1476,-1319 1476,-1371 1536,-1371 1536,-1319 1476,-1319"/>
<text text-anchor="middle" x="1506" y="-1354.4" font-family="Times Roman,serif" font-size="14.00">Ability</text>
<polyline fill="none" stroke="black" points="1476,-1345 1536,-1345 "/>
<text text-anchor="middle" x="1506" y="-1328.4" font-family="Times Roman,serif" font-size="14.00"> </text>
</g>
<!-- Forum -->
<g id="node7" class="node"><title>Forum</title>
<polyline fill="none" stroke="black" points="344.5,-608 485.5,-608 "/>
<path fill="none" stroke="black" d="M485.5,-608C491.5,-608 497.5,-614 497.5,-620"/>
<polyline fill="none" stroke="black" points="497.5,-620 497.5,-720 "/>
<path fill="none" stroke="black" d="M497.5,-720C497.5,-726 491.5,-732 485.5,-732"/>
<polyline fill="none" stroke="black" points="485.5,-732 344.5,-732 "/>
<path fill="none" stroke="black" d="M344.5,-732C338.5,-732 332.5,-726 332.5,-720"/>
<polyline fill="none" stroke="black" points="332.5,-720 332.5,-620 "/>
<path fill="none" stroke="black" d="M332.5,-620C332.5,-614 338.5,-608 344.5,-608"/>
<text text-anchor="middle" x="415" y="-715.4" font-family="Times Roman,serif" font-size="14.00">Forum</text>
<polyline fill="none" stroke="black" points="332.5,-706 497.5,-706 "/>
<text text-anchor="start" x="340.5" y="-689.4" font-family="Times Roman,serif" font-size="14.00">id :integer</text>
<text text-anchor="start" x="340.5" y="-671.4" font-family="Times Roman,serif" font-size="14.00">password :string</text>
<text text-anchor="start" x="340.5" y="-653.4" font-family="Times Roman,serif" font-size="14.00">idea_id :integer</text>
<text text-anchor="start" x="340.5" y="-635.4" font-family="Times Roman,serif" font-size="14.00">created_at :datetime</text>
<text text-anchor="start" x="340.5" y="-617.4" font-family="Times Roman,serif" font-size="14.00">updated_at :datetime</text>
</g>
<!-- Category -->
<g id="node9" class="node"><title>Category</title>
<polyline fill="none" stroke="black" points="160.5,-401 301.5,-401 "/>
<path fill="none" stroke="black" d="M301.5,-401C307.5,-401 313.5,-407 313.5,-413"/>
<polyline fill="none" stroke="black" points="313.5,-413 313.5,-531 "/>
<path fill="none" stroke="black" d="M313.5,-531C313.5,-537 307.5,-543 301.5,-543"/>
<polyline fill="none" stroke="black" points="301.5,-543 160.5,-543 "/>
<path fill="none" stroke="black" d="M160.5,-543C154.5,-543 148.5,-537 148.5,-531"/>
<polyline fill="none" stroke="black" points="148.5,-531 148.5,-413 "/>
<path fill="none" stroke="black" d="M148.5,-413C148.5,-407 154.5,-401 160.5,-401"/>
<text text-anchor="middle" x="231" y="-526.4" font-family="Times Roman,serif" font-size="14.00">Category</text>
<polyline fill="none" stroke="black" points="148.5,-517 313.5,-517 "/>
<text text-anchor="start" x="156.5" y="-500.4" font-family="Times Roman,serif" font-size="14.00">id :integer</text>
<text text-anchor="start" x="156.5" y="-482.4" font-family="Times Roman,serif" font-size="14.00">title :string</text>
<text text-anchor="start" x="156.5" y="-464.4" font-family="Times Roman,serif" font-size="14.00">description :string</text>
<text text-anchor="start" x="156.5" y="-446.4" font-family="Times Roman,serif" font-size="14.00">forum_id :integer</text>
<text text-anchor="start" x="156.5" y="-428.4" font-family="Times Roman,serif" font-size="14.00">created_at :datetime</text>
<text text-anchor="start" x="156.5" y="-410.4" font-family="Times Roman,serif" font-size="14.00">updated_at :datetime</text>
</g>
<!-- Forum&#45;&gt;Category -->
<g id="edge14" class="edge"><title>Forum&#45;&gt;Category</title>
<path fill="none" stroke="#a7ba5c" d="M351.407,-601.568C336.214,-585.219 319.874,-567.636 304.283,-550.859"/>
<ellipse fill="none" stroke="#a7ba5c" cx="354.563" cy="-604.965" rx="4.00002" ry="4.00002"/>
<polygon fill="#a7ba5c" stroke="#a7ba5c" points="303.987,-550.54 300.476,-540.152 300.583,-546.877 297.179,-543.215 297.179,-543.215 297.179,-543.215 300.583,-546.877 293.883,-546.278 303.987,-550.54 303.987,-550.54"/>
</g>
<!-- PublicActivity::Activity -->
<g id="node23" class="node"><title>PublicActivity::Activity</title>
<ellipse fill="none" stroke="black" cx="533" cy="-472" rx="119.001" ry="18.3848"/>
<text text-anchor="middle" x="533" y="-468.4" font-family="Times Roman,serif" font-size="14.00">PublicActivity::Activity</text>
</g>
<!-- Forum&#45;&gt;PublicActivity::Activity -->
<g id="edge12" class="edge"><title>Forum&#45;&gt;PublicActivity::Activity</title>
<path fill="none" stroke="#9638ea" d="M438.249,-600.153C443.674,-587.106 449.956,-573.856 457,-562 470.95,-538.52 491.028,-515.045 507.044,-497.96"/>
<ellipse fill="none" stroke="#9638ea" cx="436.656" cy="-604.092" rx="4.00001" ry="4.00001"/>
<polygon fill="#9638ea" stroke="#9638ea" points="507.178,-497.819 517.336,-493.688 510.629,-494.201 514.08,-490.582 514.08,-490.582 514.08,-490.582 510.629,-494.201 510.824,-487.477 507.178,-497.819 507.178,-497.819"/>
<text text-anchor="middle" x="488" y="-567.4" font-family="Times Roman,serif" font-size="14.00">activities</text>
</g>
<!-- UserComment -->
<g id="node8" class="node"><title>UserComment</title>
<polyline fill="none" stroke="black" points="1085.5,-887 1282.5,-887 "/>
<path fill="none" stroke="black" d="M1282.5,-887C1288.5,-887 1294.5,-893 1294.5,-899"/>
<polyline fill="none" stroke="black" points="1294.5,-899 1294.5,-1017 "/>
<path fill="none" stroke="black" d="M1294.5,-1017C1294.5,-1023 1288.5,-1029 1282.5,-1029"/>
<polyline fill="none" stroke="black" points="1282.5,-1029 1085.5,-1029 "/>
<path fill="none" stroke="black" d="M1085.5,-1029C1079.5,-1029 1073.5,-1023 1073.5,-1017"/>
<polyline fill="none" stroke="black" points="1073.5,-1017 1073.5,-899 "/>
<path fill="none" stroke="black" d="M1073.5,-899C1073.5,-893 1079.5,-887 1085.5,-887"/>
<text text-anchor="middle" x="1184" y="-1012.4" font-family="Times Roman,serif" font-size="14.00">UserComment</text>
<polyline fill="none" stroke="black" points="1073.5,-1003 1294.5,-1003 "/>
<text text-anchor="start" x="1081.5" y="-986.4" font-family="Times Roman,serif" font-size="14.00">id :integer</text>
<text text-anchor="start" x="1081.5" y="-968.4" font-family="Times Roman,serif" font-size="14.00">message :text</text>
<text text-anchor="start" x="1081.5" y="-950.4" font-family="Times Roman,serif" font-size="14.00">comment_sender_id :integer</text>
<text text-anchor="start" x="1081.5" y="-932.4" font-family="Times Roman,serif" font-size="14.00">comment_receiver_id :integer</text>
<text text-anchor="start" x="1081.5" y="-914.4" font-family="Times Roman,serif" font-size="14.00">created_at :datetime</text>
<text text-anchor="start" x="1081.5" y="-896.4" font-family="Times Roman,serif" font-size="14.00">updated_at :datetime</text>
</g>
<!-- Post -->
<g id="node13" class="node"><title>Post</title>
<polyline fill="none" stroke="black" points="50.5,-201 191.5,-201 "/>
<path fill="none" stroke="black" d="M191.5,-201C197.5,-201 203.5,-207 203.5,-213"/>
<polyline fill="none" stroke="black" points="203.5,-213 203.5,-349 "/>
<path fill="none" stroke="black" d="M203.5,-349C203.5,-355 197.5,-361 191.5,-361"/>
<polyline fill="none" stroke="black" points="191.5,-361 50.5,-361 "/>
<path fill="none" stroke="black" d="M50.5,-361C44.5,-361 38.5,-355 38.5,-349"/>
<polyline fill="none" stroke="black" points="38.5,-349 38.5,-213 "/>
<path fill="none" stroke="black" d="M38.5,-213C38.5,-207 44.5,-201 50.5,-201"/>
<text text-anchor="middle" x="121" y="-344.4" font-family="Times Roman,serif" font-size="14.00">Post</text>
<polyline fill="none" stroke="black" points="38.5,-335 203.5,-335 "/>
<text text-anchor="start" x="46.5" y="-318.4" font-family="Times Roman,serif" font-size="14.00">id :integer</text>
<text text-anchor="start" x="46.5" y="-300.4" font-family="Times Roman,serif" font-size="14.00">title :string</text>
<text text-anchor="start" x="46.5" y="-282.4" font-family="Times Roman,serif" font-size="14.00">message :text</text>
<text text-anchor="start" x="46.5" y="-264.4" font-family="Times Roman,serif" font-size="14.00">category_id :integer</text>
<text text-anchor="start" x="46.5" y="-246.4" font-family="Times Roman,serif" font-size="14.00">user_id :integer</text>
<text text-anchor="start" x="46.5" y="-228.4" font-family="Times Roman,serif" font-size="14.00">created_at :datetime</text>
<text text-anchor="start" x="46.5" y="-210.4" font-family="Times Roman,serif" font-size="14.00">updated_at :datetime</text>
</g>
<!-- Category&#45;&gt;Post -->
<g id="edge20" class="edge"><title>Category&#45;&gt;Post</title>
<path fill="none" stroke="#d63f06" d="M185.991,-393.847C181.482,-386.018 176.88,-378.028 172.312,-370.097"/>
<ellipse fill="none" stroke="#d63f06" cx="188.044" cy="-397.412" rx="4.00002" ry="4.00002"/>
<polygon fill="#d63f06" stroke="#d63f06" points="172.167,-369.845 171.076,-358.934 169.672,-365.512 167.177,-361.18 167.177,-361.18 167.177,-361.18 169.672,-365.512 163.277,-363.425 172.167,-369.845 172.167,-369.845"/>
</g>
<!-- User -->
<g id="node10" class="node"><title>User</title>
<polyline fill="none" stroke="black" points="572,-1175 802,-1175 "/>
<path fill="none" stroke="black" d="M802,-1175C808,-1175 814,-1181 814,-1187"/>
<polyline fill="none" stroke="black" points="814,-1187 814,-1503 "/>
<path fill="none" stroke="black" d="M814,-1503C814,-1509 808,-1515 802,-1515"/>
<polyline fill="none" stroke="black" points="802,-1515 572,-1515 "/>
<path fill="none" stroke="black" d="M572,-1515C566,-1515 560,-1509 560,-1503"/>
<polyline fill="none" stroke="black" points="560,-1503 560,-1187 "/>
<path fill="none" stroke="black" d="M560,-1187C560,-1181 566,-1175 572,-1175"/>
<text text-anchor="middle" x="687" y="-1498.4" font-family="Times Roman,serif" font-size="14.00">User</text>
<polyline fill="none" stroke="black" points="560,-1489 814,-1489 "/>
<text text-anchor="start" x="568" y="-1472.4" font-family="Times Roman,serif" font-size="14.00">id :integer</text>
<text text-anchor="start" x="568" y="-1454.4" font-family="Times Roman,serif" font-size="14.00">email :string</text>
<text text-anchor="start" x="568" y="-1436.4" font-family="Times Roman,serif" font-size="14.00">encrypted_password :string</text>
<text text-anchor="start" x="568" y="-1418.4" font-family="Times Roman,serif" font-size="14.00">reset_password_token :string</text>
<text text-anchor="start" x="568" y="-1400.4" font-family="Times Roman,serif" font-size="14.00">reset_password_sent_at :datetime</text>
<text text-anchor="start" x="568" y="-1382.4" font-family="Times Roman,serif" font-size="14.00">remember_created_at :datetime</text>
<text text-anchor="start" x="568" y="-1364.4" font-family="Times Roman,serif" font-size="14.00">sign_in_count :integer</text>
<text text-anchor="start" x="568" y="-1346.4" font-family="Times Roman,serif" font-size="14.00">current_sign_in_at :datetime</text>
<text text-anchor="start" x="568" y="-1328.4" font-family="Times Roman,serif" font-size="14.00">last_sign_in_at :datetime</text>
<text text-anchor="start" x="568" y="-1310.4" font-family="Times Roman,serif" font-size="14.00">current_sign_in_ip :string</text>
<text text-anchor="start" x="568" y="-1292.4" font-family="Times Roman,serif" font-size="14.00">last_sign_in_ip :string</text>
<text text-anchor="start" x="568" y="-1274.4" font-family="Times Roman,serif" font-size="14.00">admin :boolean</text>
<text text-anchor="start" x="568" y="-1256.4" font-family="Times Roman,serif" font-size="14.00">latest_activity_id :integer</text>
<text text-anchor="start" x="568" y="-1238.4" font-family="Times Roman,serif" font-size="14.00">provider :string</text>
<text text-anchor="start" x="568" y="-1220.4" font-family="Times Roman,serif" font-size="14.00">uid :string</text>
<text text-anchor="start" x="568" y="-1202.4" font-family="Times Roman,serif" font-size="14.00">created_at :datetime</text>
<text text-anchor="start" x="568" y="-1184.4" font-family="Times Roman,serif" font-size="14.00">updated_at :datetime</text>
</g>
<!-- User&#45;&gt;Profile -->
<g id="edge48" class="edge"><title>User&#45;&gt;Profile</title>
<path fill="none" stroke="#383ae0" d="M552.948,-1275.31C500.678,-1243.72 442.906,-1202.9 399,-1156 390.283,-1146.69 381.983,-1136.57 374.133,-1126.01"/>
<ellipse fill="none" stroke="#383ae0" cx="556.522" cy="-1277.45" rx="4.00002" ry="4.00002"/>
<ellipse fill="#383ae0" stroke="#383ae0" cx="371.659" cy="-1122.61" rx="4.00002" ry="4.00002"/>
</g>
<!-- User&#45;&gt;PostComment -->
<g id="edge38" class="edge"><title>User&#45;&gt;PostComment</title>
<path fill="none" stroke="#b853eb" d="M704.848,-1166.63C714.716,-1052.96 725,-902.468 725,-769 725,-769 725,-769 725,-281 725,-174.645 383.243,-115.129 213.877,-92.1636"/>
<ellipse fill="none" stroke="#b853eb" cx="704.486" cy="-1170.77" rx="4" ry="4"/>
<polygon fill="#b853eb" stroke="#b853eb" points="213.629,-92.1305 204.315,-86.3418 208.673,-91.4662 203.717,-90.8019 203.717,-90.8019 203.717,-90.8019 208.673,-91.4662 203.119,-95.262 213.629,-92.1305 213.629,-92.1305"/>
</g>
<!-- User&#45;&gt;Follow -->
<g id="edge30" class="edge"><title>User&#45;&gt;Follow</title>
<path fill="none" stroke="#1773cc" d="M554.143,-1235.03C521.618,-1201.45 490.346,-1162.16 470,-1120 406.865,-989.175 521.206,-906.573 427,-796 408.945,-774.808 391.631,-790.977 367,-778 346.414,-767.154 325.953,-752.912 307.445,-738.345"/>
<ellipse fill="none" stroke="#1773cc" cx="556.999" cy="-1237.94" rx="4.00002" ry="4.00002"/>
<polygon fill="#1773cc" stroke="#1773cc" points="307.442,-738.343 302.451,-728.579 303.54,-735.217 299.638,-732.091 299.638,-732.091 299.638,-732.091 303.54,-735.217 296.824,-735.603 307.442,-738.343 307.442,-738.343"/>
</g>
<!-- User&#45;&gt;Message -->
<g id="edge44" class="edge"><title>User&#45;&gt;Message</title>
<path fill="none" stroke="#d5e505" d="M755.794,-1167.5C760.704,-1157.41 765.783,-1147.51 771,-1138 788.04,-1106.94 809.45,-1074.86 829.857,-1046.54"/>
<ellipse fill="none" stroke="#d5e505" cx="753.981" cy="-1171.28" rx="4.00002" ry="4.00002"/>
<polygon fill="#d5e505" stroke="#d5e505" points="829.989,-1046.36 839.507,-1040.91 832.928,-1042.31 835.866,-1038.26 835.866,-1038.26 835.866,-1038.26 832.928,-1042.31 832.225,-1035.62 829.989,-1046.36 829.989,-1046.36"/>
<text text-anchor="middle" x="824" y="-1143.4" font-family="Times Roman,serif" font-size="14.00">message_sends</text>
</g>
<!-- User&#45;&gt;Message -->
<g id="edge46" class="edge"><title>User&#45;&gt;Message</title>
<path fill="none" stroke="#cb4884" d="M819.908,-1236.95C842.335,-1212.63 862.887,-1185.27 877,-1156 892.862,-1123.11 899.382,-1083.67 901.568,-1048.68"/>
<ellipse fill="none" stroke="#cb4884" cx="816.906" cy="-1240.15" rx="4.00002" ry="4.00002"/>
<polygon fill="#cb4884" stroke="#cb4884" points="901.58,-1048.44 906.588,-1038.69 901.837,-1043.45 902.094,-1038.46 902.094,-1038.46 902.094,-1038.46 901.837,-1043.45 897.6,-1038.23 901.58,-1048.44 901.58,-1048.44"/>
<text text-anchor="middle" x="945.5" y="-1143.4" font-family="Times Roman,serif" font-size="14.00">message_receives</text>
</g>
<!-- User&#45;&gt;UserComment -->
<g id="edge40" class="edge"><title>User&#45;&gt;UserComment</title>
<path fill="none" stroke="#f13267" d="M822.356,-1332.18C936.275,-1313.56 1093.17,-1267.91 1174,-1156 1197.86,-1122.96 1201.79,-1078.12 1199.12,-1039.47"/>
<ellipse fill="none" stroke="#f13267" cx="818.18" cy="-1332.84" rx="4.00001" ry="4.00001"/>
<polygon fill="#f13267" stroke="#f13267" points="1199.1,-1039.23 1202.74,-1028.88 1198.68,-1034.25 1198.25,-1029.27 1198.25,-1029.27 1198.25,-1029.27 1198.68,-1034.25 1193.77,-1029.65 1199.1,-1039.23 1199.1,-1039.23"/>
<text text-anchor="middle" x="1238.5" y="-1143.4" font-family="Times Roman,serif" font-size="14.00">comment_sends</text>
</g>
<!-- User&#45;&gt;UserComment -->
<g id="edge42" class="edge"><title>User&#45;&gt;UserComment</title>
<path fill="none" stroke="#c762cc" d="M821.697,-1279.21C882.519,-1246.37 953.465,-1203.52 1011,-1156 1053.06,-1121.26 1093.55,-1075.81 1124.77,-1037.22"/>
<ellipse fill="none" stroke="#c762cc" cx="817.855" cy="-1281.27" rx="4.00002" ry="4.00002"/>
<polygon fill="#c762cc" stroke="#c762cc" points="1125.03,-1036.89 1134.8,-1031.91 1128.16,-1032.99 1131.29,-1029.09 1131.29,-1029.09 1131.29,-1029.09 1128.16,-1032.99 1127.78,-1026.28 1125.03,-1036.89 1125.03,-1036.89"/>
<text text-anchor="middle" x="1092" y="-1143.4" font-family="Times Roman,serif" font-size="14.00">comment_receives</text>
</g>
<!-- IdeaAdmin -->
<g id="node11" class="node"><title>IdeaAdmin</title>
<polyline fill="none" stroke="black" points="1251.5,-608 1392.5,-608 "/>
<path fill="none" stroke="black" d="M1392.5,-608C1398.5,-608 1404.5,-614 1404.5,-620"/>
<polyline fill="none" stroke="black" points="1404.5,-620 1404.5,-720 "/>
<path fill="none" stroke="black" d="M1404.5,-720C1404.5,-726 1398.5,-732 1392.5,-732"/>
<polyline fill="none" stroke="black" points="1392.5,-732 1251.5,-732 "/>
<path fill="none" stroke="black" d="M1251.5,-732C1245.5,-732 1239.5,-726 1239.5,-720"/>
<polyline fill="none" stroke="black" points="1239.5,-720 1239.5,-620 "/>
<path fill="none" stroke="black" d="M1239.5,-620C1239.5,-614 1245.5,-608 1251.5,-608"/>
<text text-anchor="middle" x="1322" y="-715.4" font-family="Times Roman,serif" font-size="14.00">IdeaAdmin</text>
<polyline fill="none" stroke="black" points="1239.5,-706 1404.5,-706 "/>
<text text-anchor="start" x="1247.5" y="-689.4" font-family="Times Roman,serif" font-size="14.00">id :integer</text>
<text text-anchor="start" x="1247.5" y="-671.4" font-family="Times Roman,serif" font-size="14.00">user_id :integer</text>
<text text-anchor="start" x="1247.5" y="-653.4" font-family="Times Roman,serif" font-size="14.00">idea_id :integer</text>
<text text-anchor="start" x="1247.5" y="-635.4" font-family="Times Roman,serif" font-size="14.00">created_at :datetime</text>
<text text-anchor="start" x="1247.5" y="-617.4" font-family="Times Roman,serif" font-size="14.00">updated_at :datetime</text>
</g>
<!-- User&#45;&gt;IdeaAdmin -->
<g id="edge26" class="edge"><title>User&#45;&gt;IdeaAdmin</title>
<path fill="none" stroke="#6eac8a" d="M822.32,-1320.59C982.778,-1288.79 1236.31,-1228.6 1298,-1156 1396.57,-1040.01 1368.27,-846.529 1342.87,-742.105"/>
<ellipse fill="none" stroke="#6eac8a" cx="818.199" cy="-1321.4" rx="4.00001" ry="4.00001"/>
<polygon fill="#6eac8a" stroke="#6eac8a" points="1342.84,-741.987 1344.79,-731.196 1341.63,-737.135 1340.42,-732.284 1340.42,-732.284 1340.42,-732.284 1341.63,-737.135 1336.06,-733.371 1342.84,-741.987 1342.84,-741.987"/>
</g>
<!-- Idea -->
<g id="node12" class="node"><title>Idea</title>
<polyline fill="none" stroke="black" points="491,-851 647,-851 "/>
<path fill="none" stroke="black" d="M647,-851C653,-851 659,-857 659,-863"/>
<polyline fill="none" stroke="black" points="659,-863 659,-1053 "/>
<path fill="none" stroke="black" d="M659,-1053C659,-1059 653,-1065 647,-1065"/>
<polyline fill="none" stroke="black" points="647,-1065 491,-1065 "/>
<path fill="none" stroke="black" d="M491,-1065C485,-1065 479,-1059 479,-1053"/>
<polyline fill="none" stroke="black" points="479,-1053 479,-863 "/>
<path fill="none" stroke="black" d="M479,-863C479,-857 485,-851 491,-851"/>
<text text-anchor="middle" x="569" y="-1048.4" font-family="Times Roman,serif" font-size="14.00">Idea</text>
<polyline fill="none" stroke="black" points="479,-1039 659,-1039 "/>
<text text-anchor="start" x="487" y="-1022.4" font-family="Times Roman,serif" font-size="14.00">id :integer</text>
<text text-anchor="start" x="487" y="-1004.4" font-family="Times Roman,serif" font-size="14.00">name :string</text>
<text text-anchor="start" x="487" y="-986.4" font-family="Times Roman,serif" font-size="14.00">image_file_name :string</text>
<text text-anchor="start" x="487" y="-968.4" font-family="Times Roman,serif" font-size="14.00">mini_description :text</text>
<text text-anchor="start" x="487" y="-950.4" font-family="Times Roman,serif" font-size="14.00">description :text</text>
<text text-anchor="start" x="487" y="-932.4" font-family="Times Roman,serif" font-size="14.00">video :string</text>
<text text-anchor="start" x="487" y="-914.4" font-family="Times Roman,serif" font-size="14.00">password :string</text>
<text text-anchor="start" x="487" y="-896.4" font-family="Times Roman,serif" font-size="14.00">created_at :datetime</text>
<text text-anchor="start" x="487" y="-878.4" font-family="Times Roman,serif" font-size="14.00">updated_at :datetime</text>
<text text-anchor="start" x="487" y="-860.4" font-family="Times Roman,serif" font-size="14.00">promoted :boolean</text>
</g>
<!-- User&#45;&gt;Idea -->
<g id="edge28" class="edge"><title>User&#45;&gt;Idea</title>
<path fill="none" stroke="#c76df5" d="M592.958,-1165.43C591.923,-1162.28 590.936,-1159.14 590,-1156 582.355,-1130.37 577.412,-1102.15 574.238,-1075.24"/>
<polygon fill="#c76df5" stroke="#c76df5" points="592.959,-1165.44 591.94,-1176.36 594.578,-1170.17 596.197,-1174.9 596.197,-1174.9 596.197,-1174.9 594.578,-1170.17 600.455,-1173.44 592.959,-1165.44 592.959,-1165.44"/>
<polygon fill="#c76df5" stroke="#c76df5" points="574.204,-1074.94 577.578,-1064.51 573.655,-1069.97 573.105,-1065 573.105,-1065 573.105,-1065 573.655,-1069.97 568.633,-1065.5 574.204,-1074.94 574.204,-1074.94"/>
</g>
<!-- User&#45;&gt;Idea -->
<g id="edge32" class="edge"><title>User&#45;&gt;Idea</title>
<path fill="none" stroke="#633cfd" d="M612.82,-1165.04C611.853,-1162.01 610.912,-1159 610,-1156 602.124,-1130.13 595.275,-1101.9 589.548,-1075.07"/>
<polygon fill="#633cfd" stroke="#633cfd" points="612.887,-1165.24 611.713,-1176.15 614.439,-1170 615.991,-1174.75 615.991,-1174.75 615.991,-1174.75 614.439,-1170 620.269,-1173.35 612.887,-1165.24 612.887,-1165.24"/>
<polygon fill="#633cfd" stroke="#633cfd" points="589.543,-1075.04 591.893,-1064.33 588.516,-1070.15 587.489,-1065.26 587.489,-1065.26 587.489,-1065.26 588.516,-1070.15 583.085,-1066.18 589.543,-1075.04 589.543,-1075.04"/>
<text text-anchor="middle" x="641.5" y="-1143.4" font-family="Times Roman,serif" font-size="14.00">following</text>
</g>
<!-- User&#45;&gt;Post -->
<g id="edge34" class="edge"><title>User&#45;&gt;Post</title>
<path fill="none" stroke="#e23f64" d="M553.541,-1261.34C505.551,-1224.14 456.121,-1176.01 427,-1120 393.614,-1055.79 442.295,-849.901 394,-796 374.891,-774.673 160.505,-763.853 142,-742 55.1936,-639.485 73.0865,-473.504 95.7697,-371.167"/>
<ellipse fill="none" stroke="#e23f64" cx="556.819" cy="-1263.86" rx="4.00002" ry="4.00002"/>
<polygon fill="#e23f64" stroke="#e23f64" points="95.828,-370.91 102.436,-362.159 96.938,-366.035 98.048,-361.16 98.048,-361.16 98.048,-361.16 96.938,-366.035 93.6602,-360.161 95.828,-370.91 95.828,-370.91"/>
</g>
<!-- IdeaComment -->
<g id="node14" class="node"><title>IdeaComment</title>
<polyline fill="none" stroke="black" points="764.5,-599 905.5,-599 "/>
<path fill="none" stroke="black" d="M905.5,-599C911.5,-599 917.5,-605 917.5,-611"/>
<polyline fill="none" stroke="black" points="917.5,-611 917.5,-729 "/>
<path fill="none" stroke="black" d="M917.5,-729C917.5,-735 911.5,-741 905.5,-741"/>
<polyline fill="none" stroke="black" points="905.5,-741 764.5,-741 "/>
<path fill="none" stroke="black" d="M764.5,-741C758.5,-741 752.5,-735 752.5,-729"/>
<polyline fill="none" stroke="black" points="752.5,-729 752.5,-611 "/>
<path fill="none" stroke="black" d="M752.5,-611C752.5,-605 758.5,-599 764.5,-599"/>
<text text-anchor="middle" x="835" y="-724.4" font-family="Times Roman,serif" font-size="14.00">IdeaComment</text>
<polyline fill="none" stroke="black" points="752.5,-715 917.5,-715 "/>
<text text-anchor="start" x="760.5" y="-698.4" font-family="Times Roman,serif" font-size="14.00">id :integer</text>
<text text-anchor="start" x="760.5" y="-680.4" font-family="Times Roman,serif" font-size="14.00">message :string</text>
<text text-anchor="start" x="760.5" y="-662.4" font-family="Times Roman,serif" font-size="14.00">idea_id :integer</text>
<text text-anchor="start" x="760.5" y="-644.4" font-family="Times Roman,serif" font-size="14.00">user_id :integer</text>
<text text-anchor="start" x="760.5" y="-626.4" font-family="Times Roman,serif" font-size="14.00">created_at :datetime</text>
<text text-anchor="start" x="760.5" y="-608.4" font-family="Times Roman,serif" font-size="14.00">updated_at :datetime</text>
</g>
<!-- User&#45;&gt;IdeaComment -->
<g id="edge36" class="edge"><title>User&#45;&gt;IdeaComment</title>
<path fill="none" stroke="#a22411" d="M729.848,-1166.67C733.135,-1150.92 736.241,-1135.2 739,-1120 764.94,-977.072 743.946,-936.19 782,-796 786.054,-781.064 791.482,-765.561 797.321,-750.749"/>
<ellipse fill="none" stroke="#a22411" cx="728.938" cy="-1170.98" rx="4.00001" ry="4.00001"/>
<polygon fill="#a22411" stroke="#a22411" points="797.462,-750.401 805.38,-742.814 799.335,-745.764 801.207,-741.128 801.207,-741.128 801.207,-741.128 799.335,-745.764 797.035,-739.443 797.462,-750.401 797.462,-750.401"/>
</g>
<!-- User&#45;&gt;PublicActivity::Activity -->
<g id="edge24" class="edge"><title>User&#45;&gt;PublicActivity::Activity</title>
<path fill="none" stroke="#cfa21a" d="M695.244,-1166.79C698.804,-1032.17 696.869,-860.041 668,-796 663.22,-785.395 654.735,-788.12 649,-778 608.597,-706.7 639.451,-674.084 609,-598 594.459,-561.668 570.107,-523.701 552.892,-499.065"/>
<ellipse fill="none" stroke="#cfa21a" cx="695.135" cy="-1170.79" rx="4" ry="4"/>
<polygon fill="#cfa21a" stroke="#cfa21a" points="552.688,-498.777 550.575,-488.016 549.796,-494.698 546.904,-490.619 546.904,-490.619 546.904,-490.619 549.796,-494.698 543.233,-493.222 552.688,-498.777 552.688,-498.777"/>
<text text-anchor="middle" x="680" y="-765.4" font-family="Times Roman,serif" font-size="14.00">activities</text>
</g>
<!-- Idea&#45;&gt;Follow -->
<g id="edge60" class="edge"><title>Idea&#45;&gt;Follow</title>
<path fill="none" stroke="#4410d8" d="M509.326,-844.195C496.447,-826.438 481.625,-809.525 465,-796 412.944,-753.653 382.317,-775.201 324,-742 321.497,-740.575 318.99,-739.085 316.487,-737.541"/>
<ellipse fill="none" stroke="#4410d8" cx="511.671" cy="-847.506" rx="4.00002" ry="4.00002"/>
<polygon fill="#4410d8" stroke="#4410d8" points="316.421,-737.499 310.432,-728.313 312.212,-734.8 308.003,-732.101 308.003,-732.101 308.003,-732.101 312.212,-734.8 305.574,-735.889 316.421,-737.499 316.421,-737.499"/>
</g>
<!-- Idea&#45;&gt;Forum -->
<g id="edge64" class="edge"><title>Idea&#45;&gt;Forum</title>
<path fill="none" stroke="#20d2d9" d="M507.877,-843.692C489.045,-808.473 468.888,-770.777 452.181,-739.534"/>
<ellipse fill="none" stroke="#20d2d9" cx="509.77" cy="-847.232" rx="4.00002" ry="4.00002"/>
<ellipse fill="#20d2d9" stroke="#20d2d9" cx="450.118" cy="-735.676" rx="4.00002" ry="4.00002"/>
</g>
<!-- Idea&#45;&gt;User -->
<g id="edge62" class="edge"><title>Idea&#45;&gt;User</title>
<path fill="none" stroke="#a931d2" d="M515.727,-1075.1C509.965,-1102.05 509.237,-1130.32 519,-1156 527.399,-1178.09 539.694,-1199.25 553.876,-1218.89"/>
<polygon fill="#a931d2" stroke="#a931d2" points="515.758,-1074.97 522.446,-1066.28 516.913,-1070.11 518.068,-1065.24 518.068,-1065.24 518.068,-1065.24 516.913,-1070.11 513.689,-1064.21 515.758,-1074.97 515.758,-1074.97"/>
<polygon fill="#a931d2" stroke="#a931d2" points="553.878,-1218.89 556.228,-1229.6 556.859,-1222.9 559.84,-1226.92 559.84,-1226.92 559.84,-1226.92 556.859,-1222.9 563.453,-1224.24 553.878,-1218.89 553.878,-1218.89"/>
<text text-anchor="middle" x="550.5" y="-1143.4" font-family="Times Roman,serif" font-size="14.00">followers</text>
</g>
<!-- Idea&#45;&gt;IdeaAdmin -->
<g id="edge56" class="edge"><title>Idea&#45;&gt;IdeaAdmin</title>
<path fill="none" stroke="#dbc4f8" d="M665.526,-870.916C700.206,-843.475 740.94,-815.317 782,-796 860.584,-759.03 1096.63,-711.585 1229.15,-686.794"/>
<ellipse fill="none" stroke="#dbc4f8" cx="662.248" cy="-873.534" rx="4.00002" ry="4.00002"/>
<polygon fill="#dbc4f8" stroke="#dbc4f8" points="1229.46,-686.736 1240.11,-689.327 1234.37,-685.82 1239.29,-684.903 1239.29,-684.903 1239.29,-684.903 1234.37,-685.82 1238.46,-680.479 1229.46,-686.736 1229.46,-686.736"/>
</g>
<!-- Idea&#45;&gt;IdeaComment -->
<g id="edge58" class="edge"><title>Idea&#45;&gt;IdeaComment</title>
<path fill="none" stroke="#e8e60e" d="M567.673,-842.463C572.391,-813.009 582.193,-783.166 601,-760 635.721,-717.232 693.305,-694.754 742.658,-682.958"/>
<ellipse fill="none" stroke="#e8e60e" cx="567.046" cy="-846.795" rx="4.00001" ry="4.00001"/>
<polygon fill="#e8e60e" stroke="#e8e60e" points="742.66,-682.957 753.409,-685.126 747.535,-681.848 752.41,-680.738 752.41,-680.738 752.41,-680.738 747.535,-681.848 751.411,-676.35 742.66,-682.957 742.66,-682.957"/>
</g>
<!-- Idea&#45;&gt;PublicActivity::Activity -->
<g id="edge54" class="edge"><title>Idea&#45;&gt;PublicActivity::Activity</title>
<path fill="none" stroke="#78aebb" d="M556.192,-842.765C552.866,-810.213 549.515,-774.742 547,-742 540.266,-654.328 535.891,-550.387 534.028,-500.934"/>
<ellipse fill="none" stroke="#78aebb" cx="556.628" cy="-846.995" rx="4" ry="4"/>
<polygon fill="#78aebb" stroke="#78aebb" points="534.018,-500.672 538.146,-490.512 533.834,-495.675 533.649,-490.679 533.649,-490.679 533.649,-490.679 533.834,-495.675 529.152,-490.845 534.018,-500.672 534.018,-500.672"/>
<text text-anchor="middle" x="578" y="-666.4" font-family="Times Roman,serif" font-size="14.00">activities</text>
</g>
<!-- Post&#45;&gt;PostComment -->
<g id="edge68" class="edge"><title>Post&#45;&gt;PostComment</title>
<path fill="none" stroke="#cd6ab7" d="M121,-192.499C121,-185.502 121,-178.43 121,-171.421"/>
<ellipse fill="none" stroke="#cd6ab7" cx="121" cy="-196.805" rx="4" ry="4"/>
<polygon fill="#cd6ab7" stroke="#cd6ab7" points="121,-171.213 125.5,-161.213 121,-166.213 121,-161.213 121,-161.213 121,-161.213 121,-166.213 116.5,-161.213 121,-171.213 121,-171.213"/>
</g>
<!-- ActiveRecord::Base -->
<g id="node15" class="node"><title>ActiveRecord::Base</title>
<ellipse fill="none" stroke="black" cx="372" cy="-1601" rx="103.945" ry="18.3848"/>
<text text-anchor="middle" x="372" y="-1597.4" font-family="Times Roman,serif" font-size="14.00">ActiveRecord::Base</text>
</g>
<!-- ActiveRecord::Base&#45;&gt;Profile -->
<g id="edge2" class="edge"><title>ActiveRecord::Base&#45;&gt;Profile</title>
<path fill="none" stroke="black" d="M369.548,-1582.45C360.681,-1515.37 329.682,-1280.88 308.303,-1119.15"/>
</g>
<!-- ActiveRecord::Base&#45;&gt;PostComment -->
<g id="edge4" class="edge"><title>ActiveRecord::Base&#45;&gt;PostComment</title>
<path fill="none" stroke="black" d="M337.272,-1583.49C315.366,-1573.23 286.171,-1560.95 259,-1554 210.935,-1541.7 70.5286,-1554.31 39,-1516 -10.0351,-1456.42 9,-1422.16 9,-1345 9,-1345 9,-1345 9,-281 9,-238.02 28.9336,-195.709 51.9818,-161.152"/>
</g>
<!-- ActiveRecord::Base&#45;&gt;Follow -->
<g id="edge6" class="edge"><title>ActiveRecord::Base&#45;&gt;Follow</title>
<path fill="none" stroke="black" d="M331.768,-1583.72C278.734,-1560.78 191.559,-1522.38 187,-1516 93.8407,-1385.61 99.7272,-949.115 147,-796 153.954,-773.478 166.467,-751.386 179.833,-732.149"/>
</g>
<!-- ActiveRecord::Base&#45;&gt;Message -->
<g id="edge8" class="edge"><title>ActiveRecord::Base&#45;&gt;Message</title>
<path fill="none" stroke="black" d="M471.321,-1595.41C565.386,-1587.13 708.829,-1566.63 823,-1516 1065.15,-1408.61 1180.13,-1393.22 1298,-1156 1301.56,-1148.84 1303.43,-1143.87 1298,-1138 1262.72,-1099.89 1112.31,-1141.42 1065,-1120 1024.65,-1101.73 988.324,-1069.25 960.018,-1038.15"/>
</g>
<!-- ActiveRecord::Base&#45;&gt;Forum -->
<g id="edge16" class="edge"><title>ActiveRecord::Base&#45;&gt;Forum</title>
<path fill="none" stroke="black" d="M356.473,-1582.44C343.22,-1565.87 324.39,-1540.5 312,-1516 238.591,-1370.84 87.3459,-929.7 180,-796 218.933,-739.82 264.482,-775.61 324,-742 329.35,-738.979 334.717,-735.655 340.021,-732.145"/>
</g>
<!-- ActiveRecord::Base&#45;&gt;UserComment -->
<g id="edge18" class="edge"><title>ActiveRecord::Base&#45;&gt;UserComment</title>
<path fill="none" stroke="black" d="M475.569,-1598.79C645.074,-1593.47 972.639,-1575.57 1070,-1516 1234.66,-1415.25 1256.53,-1340.59 1313,-1156 1327.04,-1110.1 1301.3,-1064.8 1269.21,-1029.13"/>
</g>
<!-- ActiveRecord::Base&#45;&gt;Category -->
<g id="edge22" class="edge"><title>ActiveRecord::Base&#45;&gt;Category</title>
<path fill="none" stroke="black" d="M334.332,-1583.74C312.601,-1574.19 284.591,-1562.56 259,-1554 194.595,-1532.46 156.55,-1566.37 111,-1516 59.4394,-1458.98 85,-1421.87 85,-1345 85,-1345 85,-1345 85,-769 85,-685.258 132.325,-600.6 173.087,-543.214"/>
</g>
<!-- ActiveRecord::Base&#45;&gt;User -->
<g id="edge50" class="edge"><title>ActiveRecord::Base&#45;&gt;User</title>
<path fill="none" stroke="black" d="M394.654,-1582.59C429.286,-1554.44 497.921,-1498.66 559.987,-1448.22"/>
</g>
<!-- ActiveRecord::Base&#45;&gt;IdeaAdmin -->
<g id="edge52" class="edge"><title>ActiveRecord::Base&#45;&gt;IdeaAdmin</title>
<path fill="none" stroke="black" d="M475.157,-1598.44C708.792,-1591.72 1263.08,-1570.18 1327,-1516 1454.33,-1408.07 1409.97,-1321.18 1434,-1156 1457.29,-995.895 1426.88,-950.848 1380,-796 1373.51,-774.565 1364.08,-752.076 1354.7,-732.126"/>
</g>
<!-- ActiveRecord::Base&#45;&gt;Idea -->
<g id="edge66" class="edge"><title>ActiveRecord::Base&#45;&gt;Idea</title>
<path fill="none" stroke="black" d="M377.428,-1582.43C395.785,-1519.76 457.385,-1310.29 511,-1138 518.317,-1114.49 526.324,-1089.3 533.99,-1065.44"/>
</g>
<!-- ActiveRecord::Base&#45;&gt;Post -->
<g id="edge70" class="edge"><title>ActiveRecord::Base&#45;&gt;Post</title>
<path fill="none" stroke="black" d="M336.695,-1583.56C314.816,-1573.45 285.856,-1561.31 259,-1554 178.431,-1532.06 128.101,-1580.44 75,-1516 26.0267,-1456.57 47,-1422.01 47,-1345 47,-1345 47,-1345 47,-472 47,-433.949 59.9276,-394.339 74.9762,-361.121"/>
</g>
<!-- ActiveRecord::Base&#45;&gt;IdeaComment -->
<g id="edge72" class="edge"><title>ActiveRecord::Base&#45;&gt;IdeaComment</title>
<path fill="none" stroke="black" d="M473.621,-1596.76C682.931,-1587.14 1147.28,-1560.97 1203,-1516 1454.42,-1313.11 1508.74,-1045.09 1303,-796 1254.3,-737.045 1038.86,-698.292 917.982,-680.772"/>
</g>
<!-- Object -->
<g id="node20" class="node"><title>Object</title>
<ellipse fill="none" stroke="black" cx="1506" cy="-1601" rx="43.1335" ry="18.3848"/>
<text text-anchor="middle" x="1506" y="-1597.4" font-family="Times Roman,serif" font-size="14.00">Object</text>
</g>
<!-- Object&#45;&gt;Ability -->
<g id="edge10" class="edge"><title>Object&#45;&gt;Ability</title>
<path fill="none" stroke="black" d="M1506,-1582.18C1506,-1537.14 1506,-1423.1 1506,-1371.31"/>
</g>
</g>
</svg>
