<?xml version="1.0" encoding="UTF-8" standalone="no"?>
<!DOCTYPE svg PUBLIC "-//W3C//DTD SVG 1.1//EN"
 "http://www.w3.org/Graphics/SVG/1.1/DTD/svg11.dtd">
<!-- Generated by graphviz version 2.26.3 (20100126.1600)
 -->
<!-- Title: models_diagram Pages: 1 -->
<svg width="1526pt" height="606pt"
 viewBox="0.00 0.00 1526.00 606.00" xmlns="http://www.w3.org/2000/svg" xmlns:xlink="http://www.w3.org/1999/xlink">
<g id="graph1" class="graph" transform="scale(1 1) rotate(0) translate(4 602)">
<title>models_diagram</title>
<polygon fill="white" stroke="white" points="-4,5 -4,-602 1523,-602 1523,5 -4,5"/>
<!-- _diagram_info -->
<g id="node1" class="node"><title>_diagram_info</title>
<text text-anchor="start" x="8" y="-581.8" font-family="Times Roman,serif" font-size="13.00">Models diagram</text>
<text text-anchor="start" x="8" y="-564.8" font-family="Times Roman,serif" font-size="13.00">Date: Jun 09 2014 &#45; 12:32</text>
<text text-anchor="start" x="8" y="-547.8" font-family="Times Roman,serif" font-size="13.00">Migration version: 20140609141735</text>
<text text-anchor="start" x="8" y="-530.8" font-family="Times Roman,serif" font-size="13.00">Generated by RailRoady 1.1.1</text>
<text text-anchor="start" x="8" y="-513.8" font-family="Times Roman,serif" font-size="13.00">http://railroady.prestonlee.com</text>
</g>
<!-- Profile -->
<g id="node2" class="node"><title>Profile</title>
<ellipse fill="none" stroke="black" cx="334" cy="-355" rx="41.2167" ry="18.3848"/>
<text text-anchor="middle" x="334" y="-351.4" font-family="Times Roman,serif" font-size="14.00">Profile</text>
</g>
<!-- PostComment -->
<g id="node3" class="node"><title>PostComment</title>
<ellipse fill="none" stroke="black" cx="200" cy="-19" rx="79.9031" ry="18.3848"/>
<text text-anchor="middle" x="200" y="-15.4" font-family="Times Roman,serif" font-size="14.00">PostComment</text>
</g>
<!-- Follow -->
<g id="node4" class="node"><title>Follow</title>
<ellipse fill="none" stroke="black" cx="308" cy="-263" rx="43.1335" ry="18.3848"/>
<text text-anchor="middle" x="308" y="-259.4" font-family="Times Roman,serif" font-size="14.00">Follow</text>
</g>
<!-- Message -->
<g id="node5" class="node"><title>Message</title>
<ellipse fill="none" stroke="black" cx="868" cy="-355" rx="53.033" ry="18.3848"/>
<text text-anchor="middle" x="868" y="-351.4" font-family="Times Roman,serif" font-size="14.00">Message</text>
</g>
<!-- Ability -->
<g id="node6" class="node"><title>Ability</title>
<polygon fill="none" stroke="black" points="1505,-465 1445,-465 1445,-429 1505,-429 1505,-465"/>
<text text-anchor="middle" x="1475" y="-443.4" font-family="Times Roman,serif" font-size="14.00">Ability</text>
</g>
<!-- Forum -->
<g id="node7" class="node"><title>Forum</title>
<ellipse fill="none" stroke="black" cx="411" cy="-263" rx="41.9273" ry="18.3848"/>
<text text-anchor="middle" x="411" y="-259.4" font-family="Times Roman,serif" font-size="14.00">Forum</text>
</g>
<!-- Category -->
<g id="node9" class="node"><title>Category</title>
<ellipse fill="none" stroke="black" cx="284" cy="-171" rx="56.0679" ry="18.3848"/>
<text text-anchor="middle" x="284" y="-167.4" font-family="Times Roman,serif" font-size="14.00">Category</text>
</g>
<!-- Forum&#45;&gt;Category -->
<g id="edge14" class="edge"><title>Forum&#45;&gt;Category</title>
<path fill="none" stroke="#dee759" d="M382.427,-242.301C362.491,-227.86 335.89,-208.589 315.368,-193.723"/>
<ellipse fill="none" stroke="#dee759" cx="385.929" cy="-244.838" rx="4.00002" ry="4.00002"/>
<polygon fill="#dee759" stroke="#dee759" points="315.363,-193.72 309.905,-184.209 311.314,-190.787 307.265,-187.853 307.265,-187.853 307.265,-187.853 311.314,-190.787 304.625,-191.498 315.363,-193.72 315.363,-193.72"/>
</g>
<!-- PublicActivity::Activity -->
<g id="node23" class="node"><title>PublicActivity::Activity</title>
<ellipse fill="none" stroke="black" cx="489" cy="-171" rx="119.001" ry="18.3848"/>
<text text-anchor="middle" x="489" y="-167.4" font-family="Times Roman,serif" font-size="14.00">PublicActivity::Activity</text>
</g>
<!-- Forum&#45;&gt;PublicActivity::Activity -->
<g id="edge12" class="edge"><title>Forum&#45;&gt;PublicActivity::Activity</title>
<path fill="none" stroke="#c0bbb4" d="M406.535,-236.347C406.262,-226.735 407.638,-216.237 413,-208 416.765,-202.216 421.712,-197.308 427.279,-193.15"/>
<ellipse fill="none" stroke="#c0bbb4" cx="406.843" cy="-240.497" rx="4" ry="4"/>
<polygon fill="#c0bbb4" stroke="#c0bbb4" points="427.44,-193.045 438.274,-191.348 431.628,-190.312 435.815,-187.579 435.815,-187.579 435.815,-187.579 431.628,-190.312 433.355,-183.811 427.44,-193.045 427.44,-193.045"/>
<text text-anchor="middle" x="444" y="-213.4" font-family="Times Roman,serif" font-size="14.00">activities</text>
</g>
<!-- UserComment -->
<g id="node8" class="node"><title>UserComment</title>
<ellipse fill="none" stroke="black" cx="1165" cy="-355" rx="80.8184" ry="18.3848"/>
<text text-anchor="middle" x="1165" y="-351.4" font-family="Times Roman,serif" font-size="14.00">UserComment</text>
</g>
<!-- Post -->
<g id="node13" class="node"><title>Post</title>
<ellipse fill="none" stroke="black" cx="200" cy="-95" rx="32.0265" ry="18.3848"/>
<text text-anchor="middle" x="200" y="-91.4" font-family="Times Roman,serif" font-size="14.00">Post</text>
</g>
<!-- Category&#45;&gt;Post -->
<g id="edge20" class="edge"><title>Category&#45;&gt;Post</title>
<path fill="none" stroke="#63790f" d="M258.244,-147.697C247.68,-138.139 235.496,-127.116 225.011,-117.629"/>
<ellipse fill="none" stroke="#63790f" cx="261.551" cy="-150.689" rx="4.00002" ry="4.00002"/>
<polygon fill="#63790f" stroke="#63790f" points="224.795,-117.433 220.398,-107.387 221.087,-114.079 217.379,-110.724 217.379,-110.724 217.379,-110.724 221.087,-114.079 214.36,-114.061 224.795,-117.433 224.795,-117.433"/>
</g>
<!-- User -->
<g id="node10" class="node"><title>User</title>
<ellipse fill="none" stroke="black" cx="656" cy="-447" rx="33.9411" ry="18.3848"/>
<text text-anchor="middle" x="656" y="-443.4" font-family="Times Roman,serif" font-size="14.00">User</text>
</g>
<!-- User&#45;&gt;Profile -->
<g id="edge48" class="edge"><title>User&#45;&gt;Profile</title>
<path fill="none" stroke="#4ab004" d="M613.948,-445.589C545.261,-442.617 412.669,-433.887 373,-410 361.512,-403.082 352.495,-391.342 346.039,-380.48"/>
<ellipse fill="none" stroke="#4ab004" cx="618" cy="-445.757" rx="4" ry="4"/>
<ellipse fill="#4ab004" stroke="#4ab004" cx="343.922" cy="-376.667" rx="4.00002" ry="4.00002"/>
</g>
<!-- User&#45;&gt;PostComment -->
<g id="edge38" class="edge"><title>User&#45;&gt;PostComment</title>
<path fill="none" stroke="#3f247b" d="M667.055,-420.892C673.748,-402.748 681,-377.822 681,-355 681,-355 681,-355 681,-95 681,-55.6679 426.829,-33.3588 288.015,-24.1077"/>
<ellipse fill="none" stroke="#3f247b" cx="665.482" cy="-424.985" rx="4.00001" ry="4.00001"/>
<polygon fill="#3f247b" stroke="#3f247b" points="287.794,-24.0933 278.111,-18.9474 282.805,-23.7655 277.816,-23.4377 277.816,-23.4377 277.816,-23.4377 282.805,-23.7655 277.521,-27.928 287.794,-24.0933 287.794,-24.0933"/>
</g>
<!-- User&#45;&gt;Follow -->
<g id="edge30" class="edge"><title>User&#45;&gt;Follow</title>
<path fill="none" stroke="#3ef2c7" d="M613.929,-442.899C564.74,-437.431 486.99,-426.483 463,-410 431.083,-388.069 445.15,-362.594 417,-336 404.856,-324.527 398.129,-326.915 384,-318 368.145,-307.995 351.182,-295.868 337.314,-285.549"/>
<ellipse fill="none" stroke="#3ef2c7" cx="618.186" cy="-443.362" rx="4" ry="4"/>
<polygon fill="#3ef2c7" stroke="#3ef2c7" points="337.112,-285.398 331.818,-275.795 333.114,-282.396 329.116,-279.393 329.116,-279.393 329.116,-279.393 333.114,-282.396 326.414,-282.992 337.112,-285.398 337.112,-285.398"/>
</g>
<!-- User&#45;&gt;Message -->
<g id="edge44" class="edge"><title>User&#45;&gt;Message</title>
<path fill="none" stroke="#284527" d="M686.561,-429.432C696.434,-423.502 707.324,-416.686 717,-410 727.679,-402.621 728.443,-397.91 740,-392 762.246,-380.624 788.507,-372.26 811.435,-366.393"/>
<ellipse fill="none" stroke="#284527" cx="683.023" cy="-431.536" rx="4.00002" ry="4.00002"/>
<polygon fill="#284527" stroke="#284527" points="811.659,-366.338 822.445,-368.32 816.515,-365.144 821.37,-363.95 821.37,-363.95 821.37,-363.95 816.515,-365.144 820.296,-359.58 811.659,-366.338 811.659,-366.338"/>
<text text-anchor="middle" x="793" y="-397.4" font-family="Times Roman,serif" font-size="14.00">message_sends</text>
</g>
<!-- User&#45;&gt;Message -->
<g id="edge46" class="edge"><title>User&#45;&gt;Message</title>
<path fill="none" stroke="#09027d" d="M697.927,-443.498C746.861,-438.628 823.912,-428.279 846,-410 854.115,-403.285 859.258,-393.139 862.508,-383.383"/>
<ellipse fill="none" stroke="#09027d" cx="693.715" cy="-443.905" rx="4" ry="4"/>
<polygon fill="#09027d" stroke="#09027d" points="862.573,-383.15 869.591,-374.724 863.914,-378.333 865.256,-373.517 865.256,-373.517 865.256,-373.517 863.914,-378.333 860.92,-372.31 862.573,-383.15 862.573,-383.15"/>
<text text-anchor="middle" x="921.5" y="-397.4" font-family="Times Roman,serif" font-size="14.00">message_receives</text>
</g>
<!-- User&#45;&gt;UserComment -->
<g id="edge40" class="edge"><title>User&#45;&gt;UserComment</title>
<path fill="none" stroke="#9450e7" d="M698.301,-446.315C810.15,-444.154 1107.57,-435.999 1143,-410 1151.64,-403.657 1156.9,-393.359 1160.09,-383.38"/>
<ellipse fill="none" stroke="#9450e7" cx="694.259" cy="-446.391" rx="4" ry="4"/>
<polygon fill="#9450e7" stroke="#9450e7" points="1160.1,-383.336 1166.99,-374.807 1161.37,-378.5 1162.64,-373.664 1162.64,-373.664 1162.64,-373.664 1161.37,-378.5 1158.28,-372.521 1160.1,-383.336 1160.1,-383.336"/>
<text text-anchor="middle" x="1212.5" y="-397.4" font-family="Times Roman,serif" font-size="14.00">comment_sends</text>
</g>
<!-- User&#45;&gt;UserComment -->
<g id="edge42" class="edge"><title>User&#45;&gt;UserComment</title>
<path fill="none" stroke="#864af6" d="M698.038,-445.055C775.004,-441.041 935.395,-430.457 987,-410 999.395,-405.086 998.935,-397.675 1011,-392 1034.72,-380.842 1062.14,-372.863 1087.2,-367.243"/>
<ellipse fill="none" stroke="#864af6" cx="693.961" cy="-445.263" rx="4" ry="4"/>
<polygon fill="#864af6" stroke="#864af6" points="1087.27,-367.228 1097.99,-369.527 1092.16,-366.178 1097.04,-365.127 1097.04,-365.127 1097.04,-365.127 1092.16,-366.178 1096.1,-360.728 1087.27,-367.228 1087.27,-367.228"/>
<text text-anchor="middle" x="1075" y="-397.4" font-family="Times Roman,serif" font-size="14.00">comment_receives</text>
</g>
<!-- IdeaAdmin -->
<g id="node11" class="node"><title>IdeaAdmin</title>
<ellipse fill="none" stroke="black" cx="1291" cy="-263" rx="62.9325" ry="18.3848"/>
<text text-anchor="middle" x="1291" y="-259.4" font-family="Times Roman,serif" font-size="14.00">IdeaAdmin</text>
</g>
<!-- User&#45;&gt;IdeaAdmin -->
<g id="edge26" class="edge"><title>User&#45;&gt;IdeaAdmin</title>
<path fill="none" stroke="#18d933" d="M698.108,-445.932C833.643,-442.304 1251.03,-429.583 1272,-410 1303.91,-380.208 1301.87,-325.35 1296.87,-291.728"/>
<ellipse fill="none" stroke="#18d933" cx="693.97" cy="-446.042" rx="4" ry="4"/>
<polygon fill="#18d933" stroke="#18d933" points="1296.82,-291.48 1299.61,-280.875 1296,-286.548 1295.18,-281.617 1295.18,-281.617 1295.18,-281.617 1296,-286.548 1290.74,-282.359 1296.82,-291.48 1296.82,-291.48"/>
</g>
<!-- Idea -->
<g id="node12" class="node"><title>Idea</title>
<ellipse fill="none" stroke="black" cx="501" cy="-355" rx="32.0265" ry="18.3848"/>
<text text-anchor="middle" x="501" y="-351.4" font-family="Times Roman,serif" font-size="14.00">Idea</text>
</g>
<!-- User&#45;&gt;Idea -->
<g id="edge28" class="edge"><title>User&#45;&gt;Idea</title>
<path fill="none" stroke="#e24150" d="M615.582,-435.562C597.494,-429.463 576.377,-420.934 559,-410 545.579,-401.555 532.584,-389.692 522.308,-379.144"/>
<polygon fill="#e24150" stroke="#e24150" points="615.763,-435.621 623.891,-442.982 620.52,-437.161 625.277,-438.701 625.277,-438.701 625.277,-438.701 620.52,-437.161 626.663,-434.42 615.763,-435.621 615.763,-435.621"/>
<polygon fill="#e24150" stroke="#e24150" points="522.205,-379.034 518.611,-368.674 518.772,-375.398 515.339,-371.763 515.339,-371.763 515.339,-371.763 518.772,-375.398 512.067,-374.853 522.205,-379.034 522.205,-379.034"/>
</g>
<!-- User&#45;&gt;Idea -->
<g id="edge32" class="edge"><title>User&#45;&gt;Idea</title>
<path fill="none" stroke="#d5459b" d="M619.644,-431.499C606.506,-425.39 591.773,-417.937 579,-410 567.975,-403.149 566.503,-399.628 556,-392 547.999,-386.19 539.173,-380.111 530.978,-374.6"/>
<polygon fill="#d5459b" stroke="#d5459b" points="619.774,-431.558 627.015,-439.793 624.325,-433.627 628.877,-435.697 628.877,-435.697 628.877,-435.697 624.325,-433.627 630.74,-431.6 619.774,-431.558 619.774,-431.558"/>
<polygon fill="#d5459b" stroke="#d5459b" points="530.721,-374.429 524.897,-365.137 526.561,-371.655 522.4,-368.881 522.4,-368.881 522.4,-368.881 526.561,-371.655 519.904,-372.625 530.721,-374.429 530.721,-374.429"/>
<text text-anchor="middle" x="610.5" y="-397.4" font-family="Times Roman,serif" font-size="14.00">following</text>
</g>
<!-- User&#45;&gt;Post -->
<g id="edge34" class="edge"><title>User&#45;&gt;Post</title>
<path fill="none" stroke="#0c6469" d="M614.128,-443.271C560.548,-437.9 471.276,-426.752 443,-410 406.811,-388.56 417.525,-361.404 384,-336 334.789,-298.709 299.291,-326.026 256,-282 213.467,-238.744 203.035,-164.551 200.607,-123.834"/>
<ellipse fill="none" stroke="#0c6469" cx="618.425" cy="-443.693" rx="4" ry="4"/>
<polygon fill="#0c6469" stroke="#0c6469" points="200.604,-123.755 204.626,-113.554 200.367,-118.761 200.131,-113.766 200.131,-113.766 200.131,-113.766 200.367,-118.761 195.636,-113.979 200.604,-123.755 200.604,-123.755"/>
</g>
<!-- IdeaComment -->
<g id="node14" class="node"><title>IdeaComment</title>
<ellipse fill="none" stroke="black" cx="789" cy="-263" rx="79.9031" ry="18.3848"/>
<text text-anchor="middle" x="789" y="-259.4" font-family="Times Roman,serif" font-size="14.00">IdeaComment</text>
</g>
<!-- User&#45;&gt;IdeaComment -->
<g id="edge36" class="edge"><title>User&#45;&gt;IdeaComment</title>
<path fill="none" stroke="#b175c0" d="M678.843,-424.87C683.374,-420.114 687.971,-415.008 692,-410 723.786,-370.49 755.097,-320.479 773.209,-290.153"/>
<ellipse fill="none" stroke="#b175c0" cx="675.98" cy="-427.809" rx="4.00002" ry="4.00002"/>
<polygon fill="#b175c0" stroke="#b175c0" points="773.294,-290.01 782.263,-283.702 775.843,-285.709 778.392,-281.407 778.392,-281.407 778.392,-281.407 775.843,-285.709 774.521,-279.113 773.294,-290.01 773.294,-290.01"/>
</g>
<!-- User&#45;&gt;PublicActivity::Activity -->
<g id="edge24" class="edge"><title>User&#45;&gt;PublicActivity::Activity</title>
<path fill="none" stroke="#7ab4cd" d="M650.624,-420.511C648.404,-411.332 645.517,-401.074 642,-392 635.263,-374.619 574.151,-258.938 563,-244 550.066,-226.673 533.029,-209.575 518.564,-196.287"/>
<ellipse fill="none" stroke="#7ab4cd" cx="651.579" cy="-424.674" rx="4.00001" ry="4.00001"/>
<polygon fill="#7ab4cd" stroke="#7ab4cd" points="518.262,-196.015 513.847,-185.977 514.548,-192.667 510.834,-189.319 510.834,-189.319 510.834,-189.319 514.548,-192.667 507.821,-192.661 518.262,-196.015 518.262,-196.015"/>
<text text-anchor="middle" x="636" y="-305.4" font-family="Times Roman,serif" font-size="14.00">activities</text>
</g>
<!-- Idea&#45;&gt;Follow -->
<g id="edge60" class="edge"><title>Idea&#45;&gt;Follow</title>
<path fill="none" stroke="#695d11" d="M468.664,-339.586C434.839,-323.462 381.781,-298.17 345.984,-281.106"/>
<ellipse fill="none" stroke="#695d11" cx="472.553" cy="-341.44" rx="4.00002" ry="4.00002"/>
<polygon fill="#695d11" stroke="#695d11" points="345.853,-281.044 338.763,-272.679 341.34,-278.893 336.826,-276.741 336.826,-276.741 336.826,-276.741 341.34,-278.893 334.89,-280.803 345.853,-281.044 345.853,-281.044"/>
</g>
<!-- Idea&#45;&gt;Forum -->
<g id="edge64" class="edge"><title>Idea&#45;&gt;Forum</title>
<path fill="none" stroke="#ea51a5" d="M478.933,-332.442C465.145,-318.348 447.438,-300.247 433.559,-286.06"/>
<ellipse fill="none" stroke="#ea51a5" cx="482.113" cy="-335.693" rx="4.00002" ry="4.00002"/>
<ellipse fill="#ea51a5" stroke="#ea51a5" cx="430.664" cy="-283.101" rx="4.00002" ry="4.00002"/>
</g>
<!-- Idea&#45;&gt;User -->
<g id="edge62" class="edge"><title>Idea&#45;&gt;User</title>
<path fill="none" stroke="#677a71" d="M475.814,-377.875C467.423,-388.22 462.021,-400.277 470,-410 487.599,-431.444 562.623,-440.689 611.845,-444.503"/>
<polygon fill="#677a71" stroke="#677a71" points="475.915,-377.764 485.971,-373.391 479.278,-374.064 482.641,-370.365 482.641,-370.365 482.641,-370.365 479.278,-374.064 479.312,-367.338 475.915,-377.764 475.915,-377.764"/>
<polygon fill="#677a71" stroke="#677a71" points="611.953,-444.511 621.6,-449.725 616.94,-444.874 621.927,-445.237 621.927,-445.237 621.927,-445.237 616.94,-444.874 622.254,-440.749 611.953,-444.511 611.953,-444.511"/>
<text text-anchor="middle" x="501.5" y="-397.4" font-family="Times Roman,serif" font-size="14.00">followers</text>
</g>
<!-- Idea&#45;&gt;IdeaAdmin -->
<g id="edge56" class="edge"><title>Idea&#45;&gt;IdeaAdmin</title>
<path fill="none" stroke="#eb9768" d="M540.544,-350.395C666.8,-335.692 1061.34,-289.746 1221.94,-271.042"/>
<ellipse fill="none" stroke="#eb9768" cx="536.43" cy="-350.874" rx="4.00001" ry="4.00001"/>
<polygon fill="#eb9768" stroke="#eb9768" points="1222.25,-271.007 1232.7,-274.32 1227.21,-270.428 1232.18,-269.85 1232.18,-269.85 1232.18,-269.85 1227.21,-270.428 1231.66,-265.38 1222.25,-271.007 1222.25,-271.007"/>
</g>
<!-- Idea&#45;&gt;IdeaComment -->
<g id="edge58" class="edge"><title>Idea&#45;&gt;IdeaComment</title>
<path fill="none" stroke="#f2b0fc" d="M518.683,-331.82C528.668,-320.403 542.115,-307.51 557,-300 582.411,-287.179 649.068,-277.341 704.446,-271.043"/>
<ellipse fill="none" stroke="#f2b0fc" cx="516.082" cy="-334.907" rx="4.00002" ry="4.00002"/>
<polygon fill="#f2b0fc" stroke="#f2b0fc" points="704.705,-271.015 715.141,-274.381 709.674,-270.462 714.643,-269.909 714.643,-269.909 714.643,-269.909 709.674,-270.462 714.145,-265.436 704.705,-271.015 704.705,-271.015"/>
</g>
<!-- Idea&#45;&gt;PublicActivity::Activity -->
<g id="edge54" class="edge"><title>Idea&#45;&gt;PublicActivity::Activity</title>
<path fill="none" stroke="#927331" d="M499.261,-328.329C497.03,-294.121 493.175,-235.021 490.879,-199.811"/>
<ellipse fill="none" stroke="#927331" cx="499.523" cy="-332.353" rx="4" ry="4"/>
<polygon fill="#927331" stroke="#927331" points="490.871,-199.684 494.71,-189.412 490.545,-194.694 490.22,-189.705 490.22,-189.705 490.22,-189.705 490.545,-194.694 485.729,-189.998 490.871,-199.684 490.871,-199.684"/>
<text text-anchor="middle" x="528" y="-259.4" font-family="Times Roman,serif" font-size="14.00">activities</text>
</g>
<!-- Post&#45;&gt;PostComment -->
<g id="edge68" class="edge"><title>Post&#45;&gt;PostComment</title>
<path fill="none" stroke="#51fe9d" d="M200,-68.0731C200,-61.4485 200,-54.332 200,-47.6302"/>
<ellipse fill="none" stroke="#51fe9d" cx="200" cy="-72.2135" rx="4" ry="4"/>
<polygon fill="#51fe9d" stroke="#51fe9d" points="200,-47.5704 204.5,-37.5704 200,-42.5704 200,-37.5704 200,-37.5704 200,-37.5704 200,-42.5704 195.5,-37.5705 200,-47.5704 200,-47.5704"/>
</g>
<!-- ActiveRecord::Base -->
<g id="node15" class="node"><title>ActiveRecord::Base</title>
<ellipse fill="none" stroke="black" cx="372" cy="-551" rx="103.945" ry="18.3848"/>
<text text-anchor="middle" x="372" y="-547.4" font-family="Times Roman,serif" font-size="14.00">ActiveRecord::Base</text>
</g>
<!-- ActiveRecord::Base&#45;&gt;Profile -->
<g id="edge2" class="edge"><title>ActiveRecord::Base&#45;&gt;Profile</title>
<path fill="none" stroke="black" d="M368.356,-532.207C361.074,-494.647 344.804,-410.725 337.577,-373.45"/>
</g>
<!-- ActiveRecord::Base&#45;&gt;PostComment -->
<g id="edge4" class="edge"><title>ActiveRecord::Base&#45;&gt;PostComment</title>
<path fill="none" stroke="black" d="M332.515,-533.814C310.934,-524.614 283.652,-513.297 259,-504 209.816,-485.452 195.032,-487.354 147,-466 131.182,-458.968 113,-464.311 113,-447 113,-447 113,-447 113,-95 113,-67.5238 137.916,-47.6899 161.08,-35.1876"/>
</g>
<!-- ActiveRecord::Base&#45;&gt;Follow -->
<g id="edge6" class="edge"><title>ActiveRecord::Base&#45;&gt;Follow</title>
<path fill="none" stroke="black" d="M343.644,-532.973C322.282,-517.799 294.166,-494.105 279,-466 251.481,-415.003 254.925,-392.213 269,-336 274.06,-315.789 285.9,-295.054 295.216,-280.872"/>
</g>
<!-- ActiveRecord::Base&#45;&gt;Message -->
<g id="edge8" class="edge"><title>ActiveRecord::Base&#45;&gt;Message</title>
<path fill="none" stroke="black" d="M466.264,-543.107C686.452,-523.719 1219.92,-470.877 1272,-410 1277.2,-403.921 1277.39,-397.909 1272,-392 1257.18,-375.766 1096.89,-376.005 1075,-374 1021.99,-369.146 961.348,-363.578 919.466,-359.73"/>
</g>
<!-- ActiveRecord::Base&#45;&gt;Forum -->
<g id="edge16" class="edge"><title>ActiveRecord::Base&#45;&gt;Forum</title>
<path fill="none" stroke="black" d="M353.516,-532.673C317.397,-494.56 244.308,-404.597 284,-336 294.794,-317.345 346.97,-291.391 380.997,-275.981"/>
</g>
<!-- ActiveRecord::Base&#45;&gt;UserComment -->
<g id="edge18" class="edge"><title>ActiveRecord::Base&#45;&gt;UserComment</title>
<path fill="none" stroke="black" d="M471.329,-545.389C657.435,-534.083 1051.6,-506.17 1182,-466 1232.55,-450.43 1259.79,-455.352 1287,-410 1302.3,-384.499 1271.8,-370.749 1237.48,-363.374"/>
</g>
<!-- ActiveRecord::Base&#45;&gt;Category -->
<g id="edge22" class="edge"><title>ActiveRecord::Base&#45;&gt;Category</title>
<path fill="none" stroke="black" d="M334.082,-533.709C280.48,-508.678 189,-463.536 189,-447 189,-447 189,-447 189,-309 189,-257.808 233.902,-211.778 261.966,-188.009"/>
</g>
<!-- ActiveRecord::Base&#45;&gt;User -->
<g id="edge50" class="edge"><title>ActiveRecord::Base&#45;&gt;User</title>
<path fill="none" stroke="black" d="M417.63,-534.291C476.899,-512.586 578.579,-475.351 627.743,-457.348"/>
</g>
<!-- ActiveRecord::Base&#45;&gt;IdeaAdmin -->
<g id="edge52" class="edge"><title>ActiveRecord::Base&#45;&gt;IdeaAdmin</title>
<path fill="none" stroke="black" d="M473.856,-547.008C698.275,-537.437 1220.75,-510.604 1287,-466 1345.77,-426.431 1314.72,-323.854 1298.66,-281.605"/>
</g>
<!-- ActiveRecord::Base&#45;&gt;Idea -->
<g id="edge66" class="edge"><title>ActiveRecord::Base&#45;&gt;Idea</title>
<path fill="none" stroke="black" d="M380.563,-532.326C395.145,-501.507 426.763,-438.761 463,-392 468.866,-384.431 476.237,-376.905 482.923,-370.637"/>
</g>
<!-- ActiveRecord::Base&#45;&gt;Post -->
<g id="edge70" class="edge"><title>ActiveRecord::Base&#45;&gt;Post</title>
<path fill="none" stroke="black" d="M330.95,-533.919C267.038,-507.022 151,-456.832 151,-447 151,-447 151,-447 151,-171 151,-147.137 168.274,-124.819 182.31,-110.623"/>
</g>
<!-- ActiveRecord::Base&#45;&gt;IdeaComment -->
<g id="edge72" class="edge"><title>ActiveRecord::Base&#45;&gt;IdeaComment</title>
<path fill="none" stroke="black" d="M469.752,-544.59C611.882,-534.781 883.763,-514.179 1114,-486 1203.87,-475.001 1266.24,-492.738 1303,-410 1318.92,-374.175 1289.24,-355.096 1255,-336 1189.65,-299.551 980.126,-277.94 865.573,-268.557"/>
</g>
<!-- Object -->
<g id="node20" class="node"><title>Object</title>
<ellipse fill="none" stroke="black" cx="1475" cy="-551" rx="43.1335" ry="18.3848"/>
<text text-anchor="middle" x="1475" y="-547.4" font-family="Times Roman,serif" font-size="14.00">Object</text>
</g>
<!-- Object&#45;&gt;Ability -->
<g id="edge10" class="edge"><title>Object&#45;&gt;Ability</title>
<path fill="none" stroke="black" d="M1475,-532.407C1475,-513.36 1475,-483.943 1475,-465.084"/>
</g>
</g>
</svg>
